<svg width="345" height="340" viewBox="0 0 345 340" fill="none" xmlns="http://www.w3.org/2000/svg">
<g clip-path="url(#clip0)">
<g filter="url(#filter0_i)">
<path d="M338.235 51.9262H331.396V28.2796C331.396 17.8916 322.817 9.43945 312.272 9.43945H310.08C299.535 9.43945 290.956 17.8916 290.956 28.2796V51.9262H284.117C280.381 51.9262 277.352 54.9118 277.352 58.5927V70.3459H67.6469V58.5934C67.6469 54.9118 64.6181 51.9268 60.8824 51.9268H54.043V28.2796C54.043 17.8916 45.4639 9.43945 34.9191 9.43945H32.7278C22.1831 9.43945 13.6039 17.8916 13.6039 28.2796V51.9262H6.76456C3.02886 51.9262 0 54.9118 0 58.5934V281.407C0 285.088 3.02886 288.073 6.76456 288.073H13.6039V311.72C13.6039 322.108 22.1831 330.56 32.7278 330.56H34.9198C45.4645 330.56 54.0437 322.108 54.0437 311.72V288.073H60.8831C64.6194 288.073 67.6476 285.088 67.6476 281.407V269.654H277.354V281.407C277.354 285.088 280.383 288.073 284.118 288.073H290.958V311.72C290.958 322.108 299.537 330.56 310.082 330.56H312.274C322.818 330.56 331.397 322.108 331.397 311.72V288.073H338.237C341.973 288.073 345.001 285.088 345.001 281.407V58.5934C345 54.9111 341.97 51.9262 338.235 51.9262ZM27.133 28.2796C27.133 25.2428 29.643 22.7732 32.7272 22.7732H34.9191C38.0039 22.7732 40.5132 25.2435 40.5132 28.2796V51.9262H27.133V28.2796ZM40.5139 311.72C40.5139 314.757 38.0039 317.226 34.9198 317.226H32.7278C29.643 317.226 27.1337 314.757 27.1337 311.72V288.073H40.5146V311.72H40.5139ZM54.1178 77.0131V262.986V274.74H47.2785H20.3685H13.5291V65.2599H20.3685H47.2785H54.1178V77.0131ZM277.353 256.32H67.6469V83.6796H277.353V256.32ZM304.486 28.2796C304.486 25.2428 306.996 22.7732 310.08 22.7732H312.272C315.357 22.7732 317.866 25.2435 317.866 28.2796V51.9262H304.485V28.2796H304.486ZM312.272 317.226H310.08C306.995 317.226 304.486 314.757 304.486 311.72V288.073H317.866V311.72H317.867C317.867 314.757 315.357 317.226 312.272 317.226ZM331.471 274.74H290.883V262.986V77.0131V65.2599H331.471V274.74Z" fill="#B50D5E"/>
</g>
<path d="M311.277 190.934C302.572 190.934 302.556 204.267 311.277 204.267C319.983 204.267 319.997 190.934 311.277 190.934Z" fill="#B50D5E"/>
<path d="M311.076 212.711C307.34 212.711 304.312 215.697 304.312 219.377V256.266C304.312 259.948 307.341 262.933 311.076 262.933C314.812 262.933 317.841 259.947 317.841 256.266V219.377C317.841 215.697 314.812 212.711 311.076 212.711Z" fill="#B50D5E"/>
<path d="M217.186 126.358C205.44 114.678 189.786 108.161 173.117 108.005C172.912 108.002 172.707 108 172.502 108C172.481 108 172.46 108.003 172.439 108.003C155.658 108.019 139.884 114.466 128.017 126.161C116.135 137.871 109.591 153.441 109.591 170.001C109.591 186.492 116.088 202.015 127.885 213.71C139.666 225.389 155.35 231.883 172.052 231.997C172.056 231.997 172.061 231.997 172.065 231.997C172.068 231.997 172.07 231.997 172.073 231.997C172.081 231.997 172.088 231.997 172.096 231.997C172.099 231.997 172.101 231.997 172.103 231.997C172.234 231.999 172.368 232 172.501 232C189.305 232 205.103 225.551 216.986 213.841C228.868 202.131 235.412 186.561 235.412 170.001C235.412 153.544 228.939 138.045 217.186 126.358ZM114.525 170.001C114.525 138.496 140.533 112.865 172.502 112.865C172.511 112.865 172.52 112.865 172.529 112.865C172.7 112.865 172.871 112.865 173.049 112.867C188.052 113.154 200.256 125.421 200.256 140.215C200.256 155.297 187.806 167.568 172.502 167.568C172.48 167.568 172.459 167.57 172.438 167.571C154.442 167.605 139.813 182.043 139.813 199.785C139.813 208.229 143.098 216.191 149.065 222.238C128.752 213.329 114.525 193.23 114.525 170.001ZM172.502 227.138C172.386 227.137 172.271 227.138 172.143 227.135C157.037 226.946 144.747 214.677 144.747 199.785C144.747 184.703 157.198 172.433 172.502 172.433C172.523 172.433 172.544 172.43 172.565 172.43C190.561 172.395 205.191 157.958 205.191 140.215C205.191 131.784 201.913 123.826 195.96 117.782C216.256 126.706 230.478 146.812 230.478 170.001C230.478 201.506 204.47 227.138 172.502 227.138Z" fill="#B50D5E"/>
<path d="M172.5 189.658C166.834 189.658 162.225 194.201 162.225 199.785C162.225 205.369 166.834 209.911 172.5 209.911C178.166 209.911 182.776 205.369 182.776 199.785C182.776 194.201 178.166 189.658 172.5 189.658ZM172.5 205.049C169.555 205.049 167.159 202.687 167.159 199.785C167.159 196.882 169.555 194.521 172.5 194.521C175.445 194.521 177.841 196.882 177.841 199.785C177.841 202.687 175.445 205.049 172.5 205.049Z" fill="#B50D5E"/>
<path d="M172.5 130.089C166.834 130.089 162.225 134.632 162.225 140.215C162.225 145.801 166.834 150.344 172.5 150.344C178.166 150.344 182.776 145.801 182.776 140.215C182.776 134.632 178.166 130.089 172.5 130.089ZM172.5 145.482C169.555 145.482 167.159 143.12 167.159 140.215C167.159 137.313 169.555 134.952 172.5 134.952C175.445 134.952 177.841 137.313 177.841 140.215C177.841 143.119 175.445 145.482 172.5 145.482Z" fill="#B50D5E"/>
<path d="M130.55 142.53C125.737 149.678 122.964 157.902 122.274 166.44C122.168 167.75 123.484 168.871 124.741 168.871C126.164 168.871 127.102 167.754 127.208 166.44C127.83 158.752 130.489 151.402 134.81 144.985C136.571 142.369 132.299 139.931 130.55 142.53Z" fill="#B50D5E"/>
<path d="M138.634 134.193C135.459 134.193 135.454 139.056 138.634 139.056C141.809 139.056 141.814 134.193 138.634 134.193Z" fill="#B50D5E"/>
</g>
<defs>
<filter id="filter0_i" x="0" y="9.43945" width="348.001" height="324.121" filterUnits="userSpaceOnUse" color-interpolation-filters="sRGB">
<feFlood flood-opacity="0" result="BackgroundImageFix"/>
<feBlend mode="normal" in="SourceGraphic" in2="BackgroundImageFix" result="shape"/>
<feColorMatrix in="SourceAlpha" type="matrix" values="0 0 0 0 0 0 0 0 0 0 0 0 0 0 0 0 0 0 127 0" result="hardAlpha"/>
<feOffset dx="4" dy="6"/>
<feGaussianBlur stdDeviation="1.5"/>
<feComposite in2="hardAlpha" operator="arithmetic" k2="-1" k3="1"/>
<feColorMatrix type="matrix" values="0 0 0 0 0 0 0 0 0 0 0 0 0 0 0 0 0 0 0.28 0"/>
<feBlend mode="normal" in2="shape" result="effect1_innerShadow"/>
</filter>
<clipPath id="clip0">
<rect width="345" height="340" fill="white"/>
</clipPath>
</defs>
</svg>
