<svg width="2127" height="3074" viewBox="0 0 2127 3074" fill="none" xmlns="http://www.w3.org/2000/svg">
<g filter="url(#filter0_i)">
<path d="M234.574 29.171C234.617 28.7237 234.625 28.2763 234.618 27.8303C234.62 27.7207 234.63 27.6137 234.63 27.5028C234.63 8.6064 212.216 0 191.39 0C170.564 0 148.15 8.6064 148.15 27.5028C148.15 27.6008 148.16 27.6936 148.161 27.7916C148.153 28.2222 148.159 28.6553 148.198 29.0898L153.026 83.1879C155.559 111.574 155.613 140.368 153.186 168.771L149.589 210.863L140.546 199.205C141.747 187.419 140.331 160.66 113.795 122.876C80.4876 75.4529 27.7286 53.2846 25.4996 52.3642C22.9036 51.2916 20.0626 52.1798 18.1356 54.664C16.2086 57.1482 15.5196 60.8107 16.3516 64.1574C17.0656 67.0322 34.2616 135.045 71.0476 177.982C96.1856 207.323 115.034 212.842 125.658 212.842C127.422 212.842 128.955 212.689 130.256 212.468L135.935 219.789L122.604 224.493C116.216 218.714 101.409 210.564 72.6486 218.761C35.2976 229.404 3.68363 266.428 2.35563 267.999C0.348631 270.374 -0.461369 273.996 0.258631 277.385C0.977631 280.773 3.10563 283.359 5.77163 284.086C6.82063 284.372 22.0426 288.419 41.8606 288.419C55.3586 288.419 70.9896 286.54 85.7176 280.316C113.709 268.488 123.232 251.755 126.446 242.588L147.78 235.061L148.687 236.23L153.027 284.861C155.56 313.247 155.614 342.041 153.187 370.444L148.348 427.071C148.216 428.041 148.152 428.964 148.152 429.879C148.152 430.134 148.172 430.382 148.18 430.633C148.144 431.229 148.146 431.831 148.2 432.434L153.028 486.532C153.776 494.921 154.315 503.447 154.629 511.876C154.821 517.049 158.207 521.044 162.245 520.794C166.258 520.545 169.356 516.149 169.163 510.976C168.834 502.134 168.268 493.189 167.483 484.39L164.596 452.037C164.595 452.037 164.594 452.036 164.593 452.036C172.405 455.647 182.055 457.383 191.392 457.383C200.666 457.383 210.25 455.671 218.034 452.109C218.033 452.109 218.032 452.111 218.031 452.111L215.256 480.985C212.178 513.021 212.113 545.519 215.063 577.575L219.985 631.059C219.99 631.111 219.995 631.164 220.001 631.215C218.26 634.17 208.512 640.294 191.393 640.294C174.249 640.294 164.497 634.152 162.777 631.202C162.779 631.182 162.781 631.161 162.783 631.141L167.652 574.169C167.756 572.949 167.856 571.729 167.951 570.508C168.355 565.354 165.441 560.754 161.443 560.234C157.454 559.712 153.878 563.47 153.474 568.624C153.383 569.787 153.287 570.951 153.188 572.114L148.349 628.739C148.217 629.708 148.153 630.631 148.153 631.548C148.153 650.444 170.567 659.051 191.393 659.051C212.219 659.051 234.633 650.444 234.633 631.548C234.633 630.54 234.554 629.503 234.399 628.457L229.513 575.363C226.701 544.806 226.763 513.828 229.697 483.289L234.577 432.514C234.639 431.873 234.645 431.234 234.605 430.601C234.613 430.359 234.632 430.123 234.632 429.878C234.632 428.854 234.555 427.836 234.398 426.781L229.513 373.692C226.701 343.136 226.763 312.157 229.697 281.62L234.577 230.844C234.639 230.201 234.646 229.559 234.605 228.923C234.612 228.683 234.632 228.45 234.632 228.206C234.632 227.198 234.553 226.162 234.398 225.116L229.512 172.022C226.7 141.465 226.762 110.487 229.696 79.9482L234.574 29.171ZM80.8126 164.076C58.3696 137.879 43.5066 100.242 35.9946 77.6767C53.4846 87.3402 82.6456 106.475 103.007 135.464C123.644 164.849 126.299 185.114 126.209 193.987C119.3 194.107 103.605 190.679 80.8126 164.076ZM81.1836 262.489C61.6666 270.737 39.6826 270.301 25.1096 268.604C36.9616 257.589 55.6836 242.805 75.7876 237.076C95.8496 231.361 106.723 234.977 111.757 238.044C108.636 243.988 100.705 254.239 81.1836 262.489ZM191.39 18.7585C207.87 18.7585 217.517 24.4334 219.768 27.4925C219.32 28.11 218.573 28.8319 217.523 29.5964C217.488 29.6209 217.449 29.6467 217.414 29.6725C217.111 29.8903 216.784 30.1095 216.433 30.3312C216.355 30.3802 216.27 30.4305 216.189 30.4795C215.866 30.678 215.526 30.8766 215.165 31.0764C215.045 31.1434 214.917 31.2092 214.793 31.2749C214.451 31.4567 214.094 31.6384 213.72 31.8189C213.559 31.8963 213.392 31.9736 213.225 32.0497C212.863 32.2173 212.486 32.3823 212.096 32.546C211.896 32.6298 211.692 32.7123 211.486 32.7948C211.102 32.9469 210.704 33.0978 210.295 33.2447C210.058 33.3298 209.819 33.4149 209.573 33.4987C209.167 33.6366 208.745 33.7707 208.316 33.9022C208.043 33.986 207.77 34.0698 207.488 34.1497C207.056 34.2735 206.606 34.3908 206.152 34.5055C205.849 34.5829 205.548 34.6615 205.235 34.7337C204.772 34.842 204.29 34.9425 203.807 35.0405C203.475 35.1088 203.147 35.1797 202.805 35.2429C202.308 35.3344 201.788 35.4157 201.27 35.4969C200.917 35.5523 200.571 35.6116 200.208 35.6619C199.66 35.7367 199.088 35.7973 198.519 35.8591C198.158 35.8978 197.807 35.9442 197.437 35.9777C196.803 36.0357 196.141 36.0731 195.481 36.1131C195.151 36.1324 194.834 36.1621 194.497 36.1776C193.489 36.2227 192.454 36.2485 191.388 36.2485C190.322 36.2485 189.288 36.2227 188.279 36.1776C187.943 36.1621 187.626 36.1337 187.296 36.1131C186.636 36.0731 185.974 36.0345 185.339 35.9777C184.969 35.9442 184.619 35.8978 184.258 35.8591C183.688 35.7973 183.116 35.7367 182.568 35.6619C182.205 35.6116 181.86 35.5523 181.506 35.4982C180.988 35.417 180.468 35.3357 179.97 35.2442C179.628 35.181 179.301 35.1101 178.969 35.0418C178.486 34.9425 178.003 34.8433 177.541 34.735C177.228 34.6615 176.927 34.5842 176.623 34.5055C176.169 34.3895 175.719 34.2735 175.287 34.1497C175.005 34.0685 174.732 33.986 174.459 33.9022C174.031 33.7707 173.609 33.6379 173.203 33.5C172.957 33.4162 172.717 33.3311 172.48 33.246C172.072 33.0991 171.674 32.9495 171.291 32.7961C171.083 32.7136 170.879 32.6298 170.678 32.546C170.289 32.3836 169.914 32.2186 169.552 32.0523C169.384 31.9749 169.217 31.8976 169.055 31.8202C168.682 31.641 168.326 31.4592 167.985 31.2775C167.859 31.2104 167.731 31.1447 167.61 31.0777C167.251 30.8791 166.913 30.6819 166.592 30.4834C166.51 30.4331 166.423 30.3815 166.343 30.3312C165.995 30.1108 165.672 29.8929 165.371 29.6776C165.333 29.6506 165.29 29.6222 165.253 29.5951C164.205 28.8319 163.458 28.1087 163.011 27.4925C165.262 24.4334 174.91 18.7585 191.39 18.7585ZM191.39 438.619C174.246 438.619 164.494 432.478 162.774 429.528C162.776 429.508 162.778 429.487 162.78 429.466L167.649 372.495C170.195 342.7 170.139 312.494 167.481 282.713L164.594 250.362C164.592 250.36 164.591 250.36 164.589 250.359C172.402 253.971 182.053 255.708 191.39 255.708C200.663 255.708 210.245 253.996 218.029 250.435L215.254 279.31C212.175 311.345 212.11 343.843 215.06 375.9L219.982 429.384C219.987 429.434 219.992 429.487 219.998 429.54C218.258 432.496 208.51 438.619 191.39 438.619ZM191.39 236.951C174.246 236.951 164.494 230.808 162.774 227.858C162.776 227.837 162.778 227.817 162.78 227.798L167.649 170.826C170.195 141.03 170.139 110.823 167.481 81.0453L164.685 49.7047C171.491 52.8321 179.678 54.539 187.836 54.9219C187.917 54.9257 187.998 54.9283 188.079 54.9309C189.185 54.9786 190.29 55.0082 191.391 55.0082C192.48 55.0082 193.573 54.9799 194.667 54.9322C194.755 54.9283 194.842 54.9257 194.929 54.9219C203.027 54.5441 211.155 52.8631 217.932 49.782L215.255 77.6419C212.176 109.677 212.111 142.176 215.061 174.232L219.983 227.715C219.988 227.767 219.993 227.819 219.999 227.871C218.259 230.824 208.511 236.951 191.39 236.951Z" fill="#410824"/>
<path d="M234.574 635.073C234.617 634.626 234.625 634.179 234.618 633.733C234.62 633.623 234.63 633.516 234.63 633.405C234.63 614.509 212.216 605.902 191.39 605.902C170.564 605.902 148.15 614.509 148.15 633.405C148.15 633.503 148.16 633.596 148.161 633.694C148.153 634.125 148.159 634.558 148.198 634.992L153.026 689.09C155.559 717.476 155.613 746.271 153.186 774.673L149.589 816.766L140.546 805.108C141.747 793.321 140.331 766.562 113.795 728.778C80.4876 681.355 27.7286 659.187 25.4996 658.267C22.9036 657.194 20.0626 658.082 18.1356 660.566C16.2086 663.051 15.5196 666.713 16.3516 670.06C17.0656 672.935 34.2616 740.948 71.0476 783.884C96.1856 813.226 115.034 818.744 125.658 818.744C127.422 818.744 128.955 818.591 130.256 818.371L135.935 825.692L122.604 830.396C116.216 824.617 101.409 816.466 72.6486 824.663C35.2976 835.306 3.68363 872.331 2.35563 873.901C0.348631 876.277 -0.461369 879.898 0.258631 883.287C0.977631 886.675 3.10563 889.261 5.77163 889.988C6.82063 890.274 22.0426 894.321 41.8606 894.321C55.3586 894.321 70.9896 892.443 85.7176 886.219C113.709 874.391 123.232 857.658 126.446 848.49L147.78 840.963L148.687 842.132L153.027 890.763C155.56 919.149 155.614 947.944 153.187 976.346L148.348 1032.97C148.216 1033.94 148.152 1034.87 148.152 1035.78C148.152 1036.04 148.172 1036.28 148.18 1036.54C148.144 1037.13 148.146 1037.73 148.2 1038.34L153.028 1092.43C153.776 1100.82 154.315 1109.35 154.629 1117.78C154.821 1122.95 158.207 1126.95 162.245 1126.7C166.258 1126.45 169.356 1122.05 169.163 1116.88C168.834 1108.04 168.268 1099.09 167.483 1090.29L164.596 1057.94L164.593 1057.94C172.405 1061.55 182.055 1063.29 191.392 1063.29C200.666 1063.29 210.25 1061.57 218.034 1058.01L218.031 1058.01L215.256 1086.89C212.178 1118.92 212.113 1151.42 215.063 1183.48L219.985 1236.96C219.99 1237.01 219.995 1237.07 220.001 1237.12C218.26 1240.07 208.512 1246.2 191.393 1246.2C174.249 1246.2 164.497 1240.05 162.777 1237.1C162.779 1237.08 162.781 1237.06 162.783 1237.04L167.652 1180.07C167.756 1178.85 167.856 1177.63 167.951 1176.41C168.355 1171.26 165.441 1166.66 161.443 1166.14C157.454 1165.61 153.878 1169.37 153.474 1174.53C153.383 1175.69 153.287 1176.85 153.188 1178.02L148.349 1234.64C148.217 1235.61 148.153 1236.53 148.153 1237.45C148.153 1256.35 170.567 1264.95 191.393 1264.95C212.219 1264.95 234.633 1256.35 234.633 1237.45C234.633 1236.44 234.554 1235.41 234.399 1234.36L229.513 1181.27C226.701 1150.71 226.763 1119.73 229.697 1089.19L234.577 1038.42C234.639 1037.78 234.645 1037.14 234.605 1036.5C234.613 1036.26 234.632 1036.02 234.632 1035.78C234.632 1034.76 234.555 1033.74 234.398 1032.68L229.513 979.595C226.701 949.038 226.763 918.06 229.697 887.522L234.577 836.746C234.639 836.103 234.646 835.461 234.605 834.825C234.612 834.586 234.632 834.352 234.632 834.109C234.632 833.1 234.553 832.064 234.398 831.018L229.512 777.925C226.7 747.368 226.762 716.389 229.696 685.851L234.574 635.073ZM80.8126 769.978C58.3696 743.781 43.5066 706.144 35.9946 683.579C53.4846 693.243 82.6456 712.378 103.007 741.367C123.644 770.752 126.299 791.016 126.209 799.889C119.3 800.009 103.605 796.581 80.8126 769.978ZM81.1836 868.391C61.6666 876.639 39.6826 876.203 25.1096 874.507C36.9616 863.491 55.6836 848.707 75.7876 842.978C95.8496 837.263 106.723 840.879 111.757 843.946C108.636 849.89 100.705 860.142 81.1836 868.391ZM191.39 624.661C207.87 624.661 217.517 630.336 219.768 633.395C219.32 634.012 218.573 634.734 217.523 635.499C217.488 635.523 217.449 635.549 217.414 635.575C217.111 635.793 216.784 636.012 216.433 636.234C216.355 636.283 216.27 636.333 216.189 636.382C215.866 636.58 215.526 636.779 215.165 636.979C215.045 637.046 214.917 637.111 214.793 637.177C214.451 637.359 214.094 637.541 213.72 637.721C213.559 637.799 213.392 637.876 213.225 637.952C212.863 638.12 212.486 638.285 212.096 638.448C211.896 638.532 211.692 638.615 211.486 638.697C211.102 638.849 210.704 639 210.295 639.147C210.058 639.232 209.819 639.317 209.573 639.401C209.167 639.539 208.745 639.673 208.316 639.805C208.043 639.888 207.77 639.972 207.488 640.052C207.056 640.176 206.606 640.293 206.152 640.408C205.849 640.485 205.548 640.564 205.235 640.636C204.772 640.744 204.29 640.845 203.807 640.943C203.475 641.011 203.147 641.082 202.805 641.145C202.308 641.237 201.788 641.318 201.27 641.399C200.917 641.455 200.571 641.514 200.208 641.564C199.66 641.639 199.088 641.7 198.519 641.761C198.158 641.8 197.807 641.847 197.437 641.88C196.803 641.938 196.141 641.975 195.481 642.015C195.151 642.035 194.834 642.064 194.497 642.08C193.489 642.125 192.454 642.151 191.388 642.151C190.322 642.151 189.288 642.125 188.279 642.08C187.943 642.064 187.626 642.036 187.296 642.015C186.636 641.975 185.974 641.937 185.339 641.88C184.969 641.847 184.619 641.8 184.258 641.761C183.688 641.7 183.116 641.639 182.568 641.564C182.205 641.514 181.86 641.455 181.506 641.401C180.988 641.319 180.468 641.238 179.97 641.147C179.628 641.083 179.301 641.012 178.969 640.944C178.486 640.845 178.003 640.746 177.541 640.637C177.228 640.564 176.927 640.487 176.623 640.408C176.169 640.292 175.719 640.176 175.287 640.052C175.005 639.971 174.732 639.888 174.459 639.805C174.031 639.673 173.609 639.54 173.203 639.402C172.957 639.319 172.717 639.233 172.48 639.148C172.072 639.001 171.674 638.852 171.291 638.698C171.083 638.616 170.879 638.532 170.678 638.448C170.289 638.286 169.914 638.121 169.552 637.955C169.384 637.877 169.217 637.8 169.055 637.723C168.682 637.543 168.326 637.362 167.985 637.18C167.859 637.113 167.731 637.047 167.61 636.98C167.251 636.781 166.913 636.584 166.592 636.386C166.51 636.335 166.423 636.284 166.343 636.234C165.995 636.013 165.672 635.795 165.371 635.58C165.333 635.553 165.29 635.525 165.253 635.497C164.205 634.734 163.458 634.011 163.011 633.395C165.262 630.336 174.91 624.661 191.39 624.661ZM191.39 1044.52C174.246 1044.52 164.494 1038.38 162.774 1035.43C162.776 1035.41 162.778 1035.39 162.78 1035.37L167.649 978.397C170.195 948.602 170.139 918.396 167.481 888.615L164.594 856.264C164.592 856.263 164.591 856.263 164.589 856.261C172.402 859.874 182.053 861.61 191.39 861.61C200.663 861.61 210.245 859.898 218.029 856.337L215.254 885.212C212.175 917.247 212.11 949.746 215.06 981.802L219.982 1035.29C219.987 1035.34 219.992 1035.39 219.998 1035.44C218.258 1038.4 208.51 1044.52 191.39 1044.52ZM191.39 842.853C174.246 842.853 164.494 836.71 162.774 833.76C162.776 833.74 162.778 833.719 162.78 833.7L167.649 776.728C170.195 746.932 170.139 716.726 167.481 686.948L164.685 655.607C171.491 658.734 179.678 660.441 187.836 660.824C187.917 660.828 187.998 660.831 188.079 660.833C189.185 660.881 190.29 660.911 191.391 660.911C192.48 660.911 193.573 660.882 194.667 660.835C194.755 660.831 194.842 660.828 194.929 660.824C203.027 660.446 211.155 658.765 217.932 655.684L215.255 683.544C212.176 715.58 212.111 748.078 215.061 780.134L219.983 833.617C219.988 833.669 219.993 833.722 219.999 833.773C218.259 836.727 208.511 842.853 191.39 842.853Z" fill="#410824"/>
</g>
<g filter="url(#filter1_i)">
<path d="M234.574 1239.69C234.617 1239.24 234.625 1238.79 234.618 1238.35C234.62 1238.24 234.63 1238.13 234.63 1238.02C234.63 1219.12 212.216 1210.52 191.39 1210.52C170.564 1210.52 148.15 1219.12 148.15 1238.02C148.15 1238.12 148.16 1238.21 148.161 1238.31C148.153 1238.74 148.159 1239.17 148.198 1239.61L153.026 1293.7C155.559 1322.09 155.613 1350.88 153.186 1379.29L149.589 1421.38L140.546 1409.72C141.747 1397.93 140.331 1371.18 113.795 1333.39C80.4876 1285.97 27.7286 1263.8 25.4996 1262.88C22.9036 1261.81 20.0626 1262.7 18.1356 1265.18C16.2086 1267.66 15.5196 1271.33 16.3516 1274.67C17.0656 1277.55 34.2616 1345.56 71.0476 1388.5C96.1856 1417.84 115.034 1423.36 125.658 1423.36C127.422 1423.36 128.955 1423.2 130.256 1422.98L135.935 1430.31L122.604 1435.01C116.216 1429.23 101.409 1421.08 72.6486 1429.28C35.2976 1439.92 3.68363 1476.94 2.35563 1478.51C0.348631 1480.89 -0.461369 1484.51 0.258631 1487.9C0.977631 1491.29 3.10563 1493.87 5.77163 1494.6C6.82063 1494.89 22.0426 1498.93 41.8606 1498.93C55.3586 1498.93 70.9896 1497.06 85.7176 1490.83C113.709 1479 123.232 1462.27 126.446 1453.1L147.78 1445.58L148.687 1446.75L153.027 1495.38C155.56 1523.76 155.614 1552.56 153.187 1580.96L148.348 1637.59C148.216 1638.56 148.152 1639.48 148.152 1640.39C148.152 1640.65 148.172 1640.9 148.18 1641.15C148.144 1641.74 148.146 1642.35 148.2 1642.95L153.028 1697.05C153.776 1705.44 154.315 1713.96 154.629 1722.39C154.821 1727.57 158.207 1731.56 162.245 1731.31C166.258 1731.06 169.356 1726.67 169.163 1721.49C168.834 1712.65 168.268 1703.71 167.483 1694.91L164.596 1662.55C164.595 1662.55 164.594 1662.55 164.593 1662.55C172.405 1666.16 182.055 1667.9 191.392 1667.9C200.666 1667.9 210.25 1666.19 218.034 1662.63C218.033 1662.63 218.032 1662.63 218.031 1662.63L215.256 1691.5C212.178 1723.54 212.113 1756.03 215.063 1788.09L219.985 1841.58C219.99 1841.63 219.995 1841.68 220.001 1841.73C218.26 1844.69 208.512 1850.81 191.393 1850.81C174.249 1850.81 164.497 1844.67 162.777 1841.72C162.779 1841.7 162.781 1841.68 162.783 1841.66L167.652 1784.68C167.756 1783.47 167.856 1782.24 167.951 1781.02C168.355 1775.87 165.441 1771.27 161.443 1770.75C157.454 1770.23 153.878 1773.99 153.474 1779.14C153.383 1780.3 153.287 1781.47 153.188 1782.63L148.349 1839.25C148.217 1840.22 148.153 1841.15 148.153 1842.06C148.153 1860.96 170.567 1869.57 191.393 1869.57C212.219 1869.57 234.633 1860.96 234.633 1842.06C234.633 1841.06 234.554 1840.02 234.399 1838.97L229.513 1785.88C226.701 1755.32 226.763 1724.34 229.697 1693.8L234.577 1643.03C234.639 1642.39 234.645 1641.75 234.605 1641.12C234.613 1640.87 234.632 1640.64 234.632 1640.39C234.632 1639.37 234.555 1638.35 234.398 1637.3L229.513 1584.21C226.701 1553.65 226.763 1522.67 229.697 1492.14L234.577 1441.36C234.639 1440.72 234.646 1440.07 234.605 1439.44C234.612 1439.2 234.632 1438.97 234.632 1438.72C234.632 1437.71 234.553 1436.68 234.398 1435.63L229.512 1382.54C226.7 1351.98 226.762 1321 229.696 1290.46L234.574 1239.69ZM80.8126 1374.59C58.3696 1348.39 43.5066 1310.76 35.9946 1288.19C53.4846 1297.86 82.6456 1316.99 103.007 1345.98C123.644 1375.37 126.299 1395.63 126.209 1404.5C119.3 1404.62 103.605 1401.19 80.8126 1374.59ZM81.1836 1473C61.6666 1481.25 39.6826 1480.82 25.1096 1479.12C36.9616 1468.1 55.6836 1453.32 75.7876 1447.59C95.8496 1441.88 106.723 1445.49 111.757 1448.56C108.636 1454.5 100.705 1464.76 81.1836 1473ZM191.39 1229.27C207.87 1229.27 217.517 1234.95 219.768 1238.01C219.32 1238.63 218.573 1239.35 217.523 1240.11C217.488 1240.14 217.449 1240.16 217.414 1240.19C217.111 1240.41 216.784 1240.63 216.433 1240.85C216.355 1240.9 216.27 1240.95 216.189 1241C215.866 1241.19 215.526 1241.39 215.165 1241.59C215.045 1241.66 214.917 1241.72 214.793 1241.79C214.451 1241.97 214.094 1242.15 213.72 1242.33C213.559 1242.41 213.392 1242.49 213.225 1242.57C212.863 1242.73 212.486 1242.9 212.096 1243.06C211.896 1243.15 211.692 1243.23 211.486 1243.31C211.102 1243.46 210.704 1243.61 210.295 1243.76C210.058 1243.85 209.819 1243.93 209.573 1244.01C209.167 1244.15 208.745 1244.29 208.316 1244.42C208.043 1244.5 207.77 1244.59 207.488 1244.67C207.056 1244.79 206.606 1244.91 206.152 1245.02C205.849 1245.1 205.548 1245.18 205.235 1245.25C204.772 1245.36 204.29 1245.46 203.807 1245.56C203.475 1245.62 203.147 1245.7 202.805 1245.76C202.308 1245.85 201.788 1245.93 201.27 1246.01C200.917 1246.07 200.571 1246.13 200.208 1246.18C199.66 1246.25 199.088 1246.31 198.519 1246.37C198.158 1246.41 197.807 1246.46 197.437 1246.49C196.803 1246.55 196.141 1246.59 195.481 1246.63C195.151 1246.65 194.834 1246.68 194.497 1246.69C193.489 1246.74 192.454 1246.76 191.388 1246.76C190.322 1246.76 189.288 1246.74 188.279 1246.69C187.943 1246.68 187.626 1246.65 187.296 1246.63C186.636 1246.59 185.974 1246.55 185.339 1246.49C184.969 1246.46 184.619 1246.41 184.258 1246.37C183.688 1246.31 183.116 1246.25 182.568 1246.18C182.205 1246.13 181.86 1246.07 181.506 1246.01C180.988 1245.93 180.468 1245.85 179.97 1245.76C179.628 1245.7 179.301 1245.63 178.969 1245.56C178.486 1245.46 178.003 1245.36 177.541 1245.25C177.228 1245.18 176.927 1245.1 176.623 1245.02C176.169 1244.91 175.719 1244.79 175.287 1244.67C175.005 1244.58 174.732 1244.5 174.459 1244.42C174.031 1244.29 173.609 1244.15 173.203 1244.02C172.957 1243.93 172.717 1243.85 172.48 1243.76C172.072 1243.61 171.674 1243.47 171.291 1243.31C171.083 1243.23 170.879 1243.15 170.678 1243.06C170.289 1242.9 169.914 1242.73 169.552 1242.57C169.384 1242.49 169.217 1242.41 169.055 1242.34C168.682 1242.16 168.326 1241.97 167.985 1241.79C167.859 1241.73 167.731 1241.66 167.61 1241.59C167.251 1241.39 166.913 1241.2 166.592 1241C166.51 1240.95 166.423 1240.9 166.343 1240.85C165.995 1240.63 165.672 1240.41 165.371 1240.19C165.333 1240.17 165.29 1240.14 165.253 1240.11C164.205 1239.35 163.458 1238.62 163.011 1238.01C165.262 1234.95 174.91 1229.27 191.39 1229.27ZM191.39 1649.14C174.246 1649.14 164.494 1642.99 162.774 1640.04C162.776 1640.02 162.778 1640 162.78 1639.98L167.649 1583.01C170.195 1553.22 170.139 1523.01 167.481 1493.23L164.594 1460.88C164.592 1460.88 164.591 1460.88 164.589 1460.87C172.402 1464.49 182.053 1466.22 191.39 1466.22C200.663 1466.22 210.245 1464.51 218.029 1460.95L215.254 1489.83C212.175 1521.86 212.11 1554.36 215.06 1586.42L219.982 1639.9C219.987 1639.95 219.992 1640 219.998 1640.06C218.258 1643.01 208.51 1649.14 191.39 1649.14ZM191.39 1447.47C174.246 1447.47 164.494 1441.32 162.774 1438.37C162.776 1438.35 162.778 1438.33 162.78 1438.31L167.649 1381.34C170.195 1351.55 170.139 1321.34 167.481 1291.56L164.685 1260.22C171.491 1263.35 179.678 1265.05 187.836 1265.44C187.917 1265.44 187.998 1265.44 188.079 1265.45C189.185 1265.49 190.29 1265.52 191.391 1265.52C192.48 1265.52 193.573 1265.5 194.667 1265.45C194.755 1265.44 194.842 1265.44 194.929 1265.44C203.027 1265.06 211.155 1263.38 217.932 1260.3L215.255 1288.16C212.176 1320.19 212.111 1352.69 215.061 1384.75L219.983 1438.23C219.988 1438.28 219.993 1438.34 219.999 1438.39C218.259 1441.34 208.511 1447.47 191.39 1447.47Z" fill="#410824"/>
<path d="M234.574 1845.59C234.617 1845.14 234.625 1844.7 234.618 1844.25C234.62 1844.14 234.63 1844.03 234.63 1843.92C234.63 1825.03 212.216 1816.42 191.39 1816.42C170.564 1816.42 148.15 1825.03 148.15 1843.92C148.15 1844.02 148.16 1844.11 148.161 1844.21C148.153 1844.64 148.159 1845.07 148.198 1845.51L153.026 1899.61C155.559 1927.99 155.613 1956.79 153.186 1985.19L149.589 2027.28L140.546 2015.62C141.747 2003.84 140.331 1977.08 113.795 1939.29C80.4876 1891.87 27.7286 1869.7 25.4996 1868.78C22.9036 1867.71 20.0626 1868.6 18.1356 1871.08C16.2086 1873.57 15.5196 1877.23 16.3516 1880.58C17.0656 1883.45 34.2616 1951.46 71.0476 1994.4C96.1856 2023.74 115.034 2029.26 125.658 2029.26C127.422 2029.26 128.955 2029.11 130.256 2028.89L135.935 2036.21L122.604 2040.91C116.216 2035.13 101.409 2026.98 72.6486 2035.18C35.2976 2045.82 3.68363 2082.85 2.35563 2084.42C0.348631 2086.79 -0.461369 2090.41 0.258631 2093.8C0.977631 2097.19 3.10563 2099.78 5.77163 2100.5C6.82063 2100.79 22.0426 2104.84 41.8606 2104.84C55.3586 2104.84 70.9896 2102.96 85.7176 2096.74C113.709 2084.91 123.232 2068.17 126.446 2059.01L147.78 2051.48L148.687 2052.65L153.027 2101.28C155.56 2129.67 155.614 2158.46 153.187 2186.86L148.348 2243.49C148.216 2244.46 148.152 2245.38 148.152 2246.3C148.152 2246.55 148.172 2246.8 148.18 2247.05C148.144 2247.65 148.146 2248.25 148.2 2248.85L153.028 2302.95C153.776 2311.34 154.315 2319.87 154.629 2328.29C154.821 2333.47 158.207 2337.46 162.245 2337.21C166.258 2336.96 169.356 2332.57 169.163 2327.39C168.834 2318.55 168.268 2309.61 167.483 2300.81L164.596 2268.46L164.593 2268.45C172.405 2272.07 182.055 2273.8 191.392 2273.8C200.666 2273.8 210.25 2272.09 218.034 2268.53L218.031 2268.53L215.256 2297.4C212.178 2329.44 212.113 2361.94 215.063 2393.99L219.985 2447.48C219.99 2447.53 219.995 2447.58 220.001 2447.63C218.26 2450.59 208.512 2456.71 191.393 2456.71C174.249 2456.71 164.497 2450.57 162.777 2447.62C162.779 2447.6 162.781 2447.58 162.783 2447.56L167.652 2390.59C167.756 2389.37 167.856 2388.15 167.951 2386.93C168.355 2381.77 165.441 2377.17 161.443 2376.65C157.454 2376.13 153.878 2379.89 153.474 2385.04C153.383 2386.21 153.287 2387.37 153.188 2388.53L148.349 2445.16C148.217 2446.13 148.153 2447.05 148.153 2447.97C148.153 2466.86 170.567 2475.47 191.393 2475.47C212.219 2475.47 234.633 2466.86 234.633 2447.97C234.633 2446.96 234.554 2445.92 234.399 2444.88L229.513 2391.78C226.701 2361.22 226.763 2330.25 229.697 2299.71L234.577 2248.93C234.639 2248.29 234.645 2247.65 234.605 2247.02C234.613 2246.78 234.632 2246.54 234.632 2246.3C234.632 2245.27 234.555 2244.25 234.398 2243.2L229.513 2190.11C226.701 2159.55 226.763 2128.58 229.697 2098.04L234.577 2047.26C234.639 2046.62 234.646 2045.98 234.605 2045.34C234.612 2045.1 234.632 2044.87 234.632 2044.63C234.632 2043.62 234.553 2042.58 234.398 2041.54L229.512 1988.44C226.7 1957.88 226.762 1926.91 229.696 1896.37L234.574 1845.59ZM80.8126 1980.49C58.3696 1954.3 43.5066 1916.66 35.9946 1894.1C53.4846 1903.76 82.6456 1922.89 103.007 1951.88C123.644 1981.27 126.299 2001.53 126.209 2010.41C119.3 2010.53 103.605 2007.1 80.8126 1980.49ZM81.1836 2078.91C61.6666 2087.16 39.6826 2086.72 25.1096 2085.02C36.9616 2074.01 55.6836 2059.22 75.7876 2053.49C95.8496 2047.78 106.723 2051.4 111.757 2054.46C108.636 2060.41 100.705 2070.66 81.1836 2078.91ZM191.39 1835.18C207.87 1835.18 217.517 1840.85 219.768 1843.91C219.32 1844.53 218.573 1845.25 217.523 1846.02C217.488 1846.04 217.449 1846.07 217.414 1846.09C217.111 1846.31 216.784 1846.53 216.433 1846.75C216.355 1846.8 216.27 1846.85 216.189 1846.9C215.866 1847.1 215.526 1847.3 215.165 1847.5C215.045 1847.56 214.917 1847.63 214.793 1847.69C214.451 1847.88 214.094 1848.06 213.72 1848.24C213.559 1848.32 213.392 1848.39 213.225 1848.47C212.863 1848.64 212.486 1848.8 212.096 1848.96C211.896 1849.05 211.692 1849.13 211.486 1849.21C211.102 1849.37 210.704 1849.52 210.295 1849.66C210.058 1849.75 209.819 1849.83 209.573 1849.92C209.167 1850.06 208.745 1850.19 208.316 1850.32C208.043 1850.4 207.77 1850.49 207.488 1850.57C207.056 1850.69 206.606 1850.81 206.152 1850.92C205.849 1851 205.548 1851.08 205.235 1851.15C204.772 1851.26 204.29 1851.36 203.807 1851.46C203.475 1851.53 203.147 1851.6 202.805 1851.66C202.308 1851.75 201.788 1851.83 201.27 1851.92C200.917 1851.97 200.571 1852.03 200.208 1852.08C199.66 1852.16 199.088 1852.22 198.519 1852.28C198.158 1852.32 197.807 1852.36 197.437 1852.4C196.803 1852.45 196.141 1852.49 195.481 1852.53C195.151 1852.55 194.834 1852.58 194.497 1852.6C193.489 1852.64 192.454 1852.67 191.388 1852.67C190.322 1852.67 189.288 1852.64 188.279 1852.6C187.943 1852.58 187.626 1852.55 187.296 1852.53C186.636 1852.49 185.974 1852.45 185.339 1852.4C184.969 1852.36 184.619 1852.32 184.258 1852.28C183.688 1852.22 183.116 1852.16 182.568 1852.08C182.205 1852.03 181.86 1851.97 181.506 1851.92C180.988 1851.84 180.468 1851.75 179.97 1851.66C179.628 1851.6 179.301 1851.53 178.969 1851.46C178.486 1851.36 178.003 1851.26 177.541 1851.15C177.228 1851.08 176.927 1851 176.623 1850.92C176.169 1850.81 175.719 1850.69 175.287 1850.57C175.005 1850.49 174.732 1850.4 174.459 1850.32C174.031 1850.19 173.609 1850.06 173.203 1849.92C172.957 1849.84 172.717 1849.75 172.48 1849.66C172.072 1849.52 171.674 1849.37 171.291 1849.22C171.083 1849.13 170.879 1849.05 170.678 1848.96C170.289 1848.8 169.914 1848.64 169.552 1848.47C169.384 1848.39 169.217 1848.32 169.055 1848.24C168.682 1848.06 168.326 1847.88 167.985 1847.7C167.859 1847.63 167.731 1847.56 167.61 1847.5C167.251 1847.3 166.913 1847.1 166.592 1846.9C166.51 1846.85 166.423 1846.8 166.343 1846.75C165.995 1846.53 165.672 1846.31 165.371 1846.1C165.333 1846.07 165.29 1846.04 165.253 1846.01C164.205 1845.25 163.458 1844.53 163.011 1843.91C165.262 1840.85 174.91 1835.18 191.39 1835.18ZM191.39 2255.04C174.246 2255.04 164.494 2248.9 162.774 2245.95C162.776 2245.93 162.778 2245.91 162.78 2245.89L167.649 2188.91C170.195 2159.12 170.139 2128.91 167.481 2099.13L164.594 2066.78C164.592 2066.78 164.591 2066.78 164.589 2066.78C172.402 2070.39 182.053 2072.13 191.39 2072.13C200.663 2072.13 210.245 2070.41 218.029 2066.85L215.254 2095.73C212.175 2127.76 212.11 2160.26 215.06 2192.32L219.982 2245.8C219.987 2245.85 219.992 2245.91 219.998 2245.96C218.258 2248.91 208.51 2255.04 191.39 2255.04ZM191.39 2053.37C174.246 2053.37 164.494 2047.23 162.774 2044.28C162.776 2044.26 162.778 2044.24 162.78 2044.22L167.649 1987.24C170.195 1957.45 170.139 1927.24 167.481 1897.46L164.685 1866.12C171.491 1869.25 179.678 1870.96 187.836 1871.34C187.917 1871.34 187.998 1871.35 188.079 1871.35C189.185 1871.4 190.29 1871.43 191.391 1871.43C192.48 1871.43 193.573 1871.4 194.667 1871.35C194.755 1871.35 194.842 1871.34 194.929 1871.34C203.027 1870.96 211.155 1869.28 217.932 1866.2L215.255 1894.06C212.176 1926.1 212.111 1958.59 215.061 1990.65L219.983 2044.13C219.988 2044.19 219.993 2044.24 219.999 2044.29C218.259 2047.24 208.511 2053.37 191.39 2053.37Z" fill="#410824"/>
<path d="M234.574 2443.17C234.617 2442.72 234.625 2442.28 234.618 2441.83C234.62 2441.72 234.63 2441.61 234.63 2441.5C234.63 2422.61 212.216 2414 191.39 2414C170.564 2414 148.15 2422.61 148.15 2441.5C148.15 2441.6 148.16 2441.69 148.161 2441.79C148.153 2442.22 148.159 2442.66 148.198 2443.09L153.026 2497.19C155.559 2525.57 155.613 2554.37 153.186 2582.77L149.589 2624.86L140.546 2613.21C141.747 2601.42 140.331 2574.66 113.795 2536.88C80.4876 2489.45 27.7286 2467.28 25.4996 2466.36C22.9036 2465.29 20.0626 2466.18 18.1356 2468.66C16.2086 2471.15 15.5196 2474.81 16.3516 2478.16C17.0656 2481.03 34.2616 2549.05 71.0476 2591.98C96.1856 2621.32 115.034 2626.84 125.658 2626.84C127.422 2626.84 128.955 2626.69 130.256 2626.47L135.935 2633.79L122.604 2638.49C116.216 2632.71 101.409 2624.56 72.6486 2632.76C35.2976 2643.4 3.68363 2680.43 2.35563 2682C0.348631 2684.37 -0.461369 2688 0.258631 2691.38C0.977631 2694.77 3.10563 2697.36 5.77163 2698.09C6.82063 2698.37 22.0426 2702.42 41.8606 2702.42C55.3586 2702.42 70.9896 2700.54 85.7176 2694.32C113.709 2682.49 123.232 2665.76 126.446 2656.59L147.78 2649.06L148.687 2650.23L153.027 2698.86C155.56 2727.25 155.614 2756.04 153.187 2784.44L148.348 2841.07C148.216 2842.04 148.152 2842.96 148.152 2843.88C148.152 2844.13 148.172 2844.38 148.18 2844.63C148.144 2845.23 148.146 2845.83 148.2 2846.43L153.028 2900.53C153.776 2908.92 154.315 2917.45 154.629 2925.88C154.821 2931.05 158.207 2935.04 162.245 2934.79C166.258 2934.55 169.356 2930.15 169.163 2924.98C168.834 2916.13 168.268 2907.19 167.483 2898.39L164.596 2866.04L164.593 2866.04C172.405 2869.65 182.055 2871.38 191.392 2871.38C200.666 2871.38 210.25 2869.67 218.034 2866.11L218.031 2866.11L215.256 2894.98C212.178 2927.02 212.113 2959.52 215.063 2991.57L219.985 3045.06C219.99 3045.11 219.995 3045.16 220.001 3045.22C218.26 3048.17 208.512 3054.29 191.393 3054.29C174.249 3054.29 164.497 3048.15 162.777 3045.2C162.779 3045.18 162.781 3045.16 162.783 3045.14L167.652 2988.17C167.756 2986.95 167.856 2985.73 167.951 2984.51C168.355 2979.35 165.441 2974.75 161.443 2974.23C157.454 2973.71 153.878 2977.47 153.474 2982.62C153.383 2983.79 153.287 2984.95 153.188 2986.11L148.349 3042.74C148.217 3043.71 148.153 3044.63 148.153 3045.55C148.153 3064.44 170.567 3073.05 191.393 3073.05C212.219 3073.05 234.633 3064.44 234.633 3045.55C234.633 3044.54 234.554 3043.5 234.399 3042.46L229.513 2989.36C226.701 2958.81 226.763 2927.83 229.697 2897.29L234.577 2846.51C234.639 2845.87 234.645 2845.23 234.605 2844.6C234.613 2844.36 234.632 2844.12 234.632 2843.88C234.632 2842.85 234.555 2841.84 234.398 2840.78L229.513 2787.69C226.701 2757.14 226.763 2726.16 229.697 2695.62L234.577 2644.84C234.639 2644.2 234.646 2643.56 234.605 2642.92C234.612 2642.68 234.632 2642.45 234.632 2642.21C234.632 2641.2 234.553 2640.16 234.398 2639.12L229.512 2586.02C226.7 2555.47 226.762 2524.49 229.696 2493.95L234.574 2443.17ZM80.8126 2578.08C58.3696 2551.88 43.5066 2514.24 35.9946 2491.68C53.4846 2501.34 82.6456 2520.48 103.007 2549.46C123.644 2578.85 126.299 2599.11 126.209 2607.99C119.3 2608.11 103.605 2604.68 80.8126 2578.08ZM81.1836 2676.49C61.6666 2684.74 39.6826 2684.3 25.1096 2682.6C36.9616 2671.59 55.6836 2656.8 75.7876 2651.08C95.8496 2645.36 106.723 2648.98 111.757 2652.04C108.636 2657.99 100.705 2668.24 81.1836 2676.49ZM191.39 2432.76C207.87 2432.76 217.517 2438.43 219.768 2441.49C219.32 2442.11 218.573 2442.83 217.523 2443.6C217.488 2443.62 217.449 2443.65 217.414 2443.67C217.111 2443.89 216.784 2444.11 216.433 2444.33C216.355 2444.38 216.27 2444.43 216.189 2444.48C215.866 2444.68 215.526 2444.88 215.165 2445.08C215.045 2445.14 214.917 2445.21 214.793 2445.27C214.451 2445.46 214.094 2445.64 213.72 2445.82C213.559 2445.9 213.392 2445.97 213.225 2446.05C212.863 2446.22 212.486 2446.38 212.096 2446.55C211.896 2446.63 211.692 2446.71 211.486 2446.79C211.102 2446.95 210.704 2447.1 210.295 2447.24C210.058 2447.33 209.819 2447.41 209.573 2447.5C209.167 2447.64 208.745 2447.77 208.316 2447.9C208.043 2447.99 207.77 2448.07 207.488 2448.15C207.056 2448.27 206.606 2448.39 206.152 2448.51C205.849 2448.58 205.548 2448.66 205.235 2448.73C204.772 2448.84 204.29 2448.94 203.807 2449.04C203.475 2449.11 203.147 2449.18 202.805 2449.24C202.308 2449.33 201.788 2449.42 201.27 2449.5C200.917 2449.55 200.571 2449.61 200.208 2449.66C199.66 2449.74 199.088 2449.8 198.519 2449.86C198.158 2449.9 197.807 2449.94 197.437 2449.98C196.803 2450.04 196.141 2450.07 195.481 2450.11C195.151 2450.13 194.834 2450.16 194.497 2450.18C193.489 2450.22 192.454 2450.25 191.388 2450.25C190.322 2450.25 189.288 2450.22 188.279 2450.18C187.943 2450.16 187.626 2450.13 187.296 2450.11C186.636 2450.07 185.974 2450.03 185.339 2449.98C184.969 2449.94 184.619 2449.9 184.258 2449.86C183.688 2449.8 183.116 2449.74 182.568 2449.66C182.205 2449.61 181.86 2449.55 181.506 2449.5C180.988 2449.42 180.468 2449.34 179.97 2449.24C179.628 2449.18 179.301 2449.11 178.969 2449.04C178.486 2448.94 178.003 2448.84 177.541 2448.73C177.228 2448.66 176.927 2448.58 176.623 2448.51C176.169 2448.39 175.719 2448.27 175.287 2448.15C175.005 2448.07 174.732 2447.99 174.459 2447.9C174.031 2447.77 173.609 2447.64 173.203 2447.5C172.957 2447.42 172.717 2447.33 172.48 2447.25C172.072 2447.1 171.674 2446.95 171.291 2446.8C171.083 2446.71 170.879 2446.63 170.678 2446.55C170.289 2446.38 169.914 2446.22 169.552 2446.05C169.384 2445.97 169.217 2445.9 169.055 2445.82C168.682 2445.64 168.326 2445.46 167.985 2445.28C167.859 2445.21 167.731 2445.14 167.61 2445.08C167.251 2444.88 166.913 2444.68 166.592 2444.48C166.51 2444.43 166.423 2444.38 166.343 2444.33C165.995 2444.11 165.672 2443.89 165.371 2443.68C165.333 2443.65 165.29 2443.62 165.253 2443.6C164.205 2442.83 163.458 2442.11 163.011 2441.49C165.262 2438.43 174.91 2432.76 191.39 2432.76ZM191.39 2852.62C174.246 2852.62 164.494 2846.48 162.774 2843.53C162.776 2843.51 162.778 2843.49 162.78 2843.47L167.649 2786.49C170.195 2756.7 170.139 2726.49 167.481 2696.71L164.594 2664.36C164.592 2664.36 164.591 2664.36 164.589 2664.36C172.402 2667.97 182.053 2669.71 191.39 2669.71C200.663 2669.71 210.245 2668 218.029 2664.44L215.254 2693.31C212.175 2725.35 212.11 2757.84 215.06 2789.9L219.982 2843.38C219.987 2843.43 219.992 2843.49 219.998 2843.54C218.258 2846.5 208.51 2852.62 191.39 2852.62ZM191.39 2650.95C174.246 2650.95 164.494 2644.81 162.774 2641.86C162.776 2641.84 162.778 2641.82 162.78 2641.8L167.649 2584.83C170.195 2555.03 170.139 2524.82 167.481 2495.05L164.685 2463.7C171.491 2466.83 179.678 2468.54 187.836 2468.92C187.917 2468.93 187.998 2468.93 188.079 2468.93C189.185 2468.98 190.29 2469.01 191.391 2469.01C192.48 2469.01 193.573 2468.98 194.667 2468.93C194.755 2468.93 194.842 2468.93 194.929 2468.92C203.027 2468.54 211.155 2466.86 217.932 2463.78L215.255 2491.64C212.176 2523.68 212.111 2556.18 215.061 2588.23L219.983 2641.72C219.988 2641.77 219.993 2641.82 219.999 2641.87C218.259 2644.82 208.511 2650.95 191.39 2650.95Z" fill="#410824"/>
</g>
<g filter="url(#filter2_i)">
<path d="M1892.06 29.171C1892.02 28.7237 1892.01 28.2763 1892.02 27.8303C1892.01 27.7207 1892 27.6137 1892 27.5028C1892 8.6064 1914.42 0 1935.24 0C1956.07 0 1978.48 8.6064 1978.48 27.5028C1978.48 27.6008 1978.47 27.6936 1978.47 27.7916C1978.48 28.2222 1978.47 28.6553 1978.44 29.0898L1973.61 83.1879C1971.07 111.574 1971.02 140.368 1973.45 168.771L1977.04 210.863L1986.09 199.205C1984.89 187.419 1986.3 160.66 2012.84 122.876C2046.15 75.4529 2098.9 53.2846 2101.13 52.3642C2103.73 51.2916 2106.57 52.1798 2108.5 54.664C2110.42 57.1482 2111.11 60.8107 2110.28 64.1574C2109.57 67.0322 2092.37 135.045 2055.59 177.982C2030.45 207.323 2011.6 212.842 2000.98 212.842C1999.21 212.842 1997.68 212.689 1996.38 212.468L1990.7 219.789L2004.03 224.493C2010.42 218.714 2025.22 210.564 2053.98 218.761C2091.34 229.404 2122.95 266.428 2124.28 267.999C2126.28 270.374 2127.09 273.996 2126.37 277.385C2125.66 280.773 2123.53 283.359 2120.86 284.086C2119.81 284.372 2104.59 288.419 2084.77 288.419C2071.27 288.419 2055.64 286.54 2040.92 280.316C2012.92 268.488 2003.4 251.755 2000.19 242.588L1978.85 235.061L1977.95 236.23L1973.61 284.861C1971.07 313.247 1971.02 342.041 1973.45 370.444L1978.29 427.071C1978.42 428.041 1978.48 428.964 1978.48 429.879C1978.48 430.134 1978.46 430.382 1978.45 430.633C1978.49 431.229 1978.49 431.831 1978.43 432.434L1973.61 486.532C1972.86 494.921 1972.32 503.447 1972 511.876C1971.81 517.049 1968.43 521.044 1964.39 520.794C1960.38 520.545 1957.28 516.149 1957.47 510.976C1957.8 502.134 1958.37 493.189 1959.15 484.39L1962.04 452.037C1962.04 452.037 1962.04 452.036 1962.04 452.036C1954.23 455.647 1944.58 457.383 1935.24 457.383C1925.97 457.383 1916.38 455.671 1908.6 452.109C1908.6 452.109 1908.6 452.111 1908.6 452.111L1911.38 480.985C1914.46 513.021 1914.52 545.519 1911.57 577.575L1906.65 631.059C1906.64 631.111 1906.64 631.164 1906.63 631.215C1908.37 634.17 1918.12 640.294 1935.24 640.294C1952.38 640.294 1962.14 634.152 1963.86 631.202C1963.85 631.182 1963.85 631.161 1963.85 631.141L1958.98 574.169C1958.88 572.949 1958.78 571.729 1958.68 570.508C1958.28 565.354 1961.19 560.754 1965.19 560.234C1969.18 559.712 1972.76 563.47 1973.16 568.624C1973.25 569.787 1973.35 570.951 1973.45 572.114L1978.28 628.739C1978.42 629.708 1978.48 630.631 1978.48 631.548C1978.48 650.444 1956.07 659.051 1935.24 659.051C1914.41 659.051 1892 650.444 1892 631.548C1892 630.54 1892.08 629.503 1892.23 628.457L1897.12 575.363C1899.93 544.806 1899.87 513.828 1896.94 483.289L1892.06 432.514C1891.99 431.873 1891.99 431.234 1892.03 430.601C1892.02 430.359 1892 430.123 1892 429.878C1892 428.854 1892.08 427.836 1892.24 426.781L1897.12 373.692C1899.93 343.136 1899.87 312.157 1896.94 281.62L1892.06 230.844C1891.99 230.201 1891.99 229.559 1892.03 228.923C1892.02 228.683 1892 228.45 1892 228.206C1892 227.198 1892.08 226.162 1892.24 225.116L1897.12 172.022C1899.93 141.465 1899.87 110.487 1896.94 79.9482L1892.06 29.171ZM2045.82 164.076C2068.26 137.879 2083.13 100.242 2090.64 77.6767C2073.15 87.3402 2043.99 106.475 2023.63 135.464C2002.99 164.849 2000.33 185.114 2000.42 193.987C2007.33 194.107 2023.03 190.679 2045.82 164.076ZM2045.45 262.489C2064.97 270.737 2086.95 270.301 2101.52 268.604C2089.67 257.589 2070.95 242.805 2050.85 237.076C2030.78 231.361 2019.91 234.977 2014.88 238.044C2018 243.988 2025.93 254.239 2045.45 262.489ZM1935.24 18.7585C1918.76 18.7585 1909.12 24.4334 1906.87 27.4925C1907.31 28.11 1908.06 28.8319 1909.11 29.5964C1909.15 29.6209 1909.18 29.6467 1909.22 29.6725C1909.52 29.8903 1909.85 30.1095 1910.2 30.3312C1910.28 30.3802 1910.36 30.4305 1910.44 30.4795C1910.77 30.678 1911.11 30.8766 1911.47 31.0764C1911.59 31.1434 1911.72 31.2092 1911.84 31.2749C1912.18 31.4567 1912.54 31.6384 1912.91 31.8189C1913.07 31.8963 1913.24 31.9736 1913.41 32.0497C1913.77 32.2173 1914.15 32.3823 1914.54 32.546C1914.74 32.6298 1914.94 32.7123 1915.15 32.7948C1915.53 32.9469 1915.93 33.0978 1916.34 33.2447C1916.58 33.3298 1916.81 33.4149 1917.06 33.4987C1917.47 33.6366 1917.89 33.7707 1918.32 33.9022C1918.59 33.986 1918.86 34.0698 1919.15 34.1497C1919.58 34.2735 1920.03 34.3908 1920.48 34.5055C1920.78 34.5829 1921.09 34.6615 1921.4 34.7337C1921.86 34.842 1922.34 34.9425 1922.83 35.0405C1923.16 35.1088 1923.49 35.1797 1923.83 35.2429C1924.33 35.3344 1924.85 35.4157 1925.36 35.4969C1925.72 35.5523 1926.06 35.6116 1926.43 35.6619C1926.97 35.7367 1927.55 35.7973 1928.11 35.8591C1928.48 35.8978 1928.83 35.9442 1929.2 35.9777C1929.83 36.0357 1930.49 36.0731 1931.15 36.1131C1931.48 36.1324 1931.8 36.1621 1932.14 36.1776C1933.14 36.2227 1934.18 36.2485 1935.25 36.2485C1936.31 36.2485 1937.35 36.2227 1938.35 36.1776C1938.69 36.1621 1939.01 36.1337 1939.34 36.1131C1940 36.0731 1940.66 36.0345 1941.29 35.9777C1941.66 35.9442 1942.01 35.8978 1942.38 35.8591C1942.95 35.7973 1943.52 35.7367 1944.07 35.6619C1944.43 35.6116 1944.77 35.5523 1945.13 35.4982C1945.65 35.417 1946.17 35.3357 1946.66 35.2442C1947.01 35.181 1947.33 35.1101 1947.66 35.0418C1948.15 34.9425 1948.63 34.8433 1949.09 34.735C1949.41 34.6615 1949.71 34.5842 1950.01 34.5055C1950.46 34.3895 1950.91 34.2735 1951.35 34.1497C1951.63 34.0685 1951.9 33.986 1952.17 33.9022C1952.6 33.7707 1953.02 33.6379 1953.43 33.5C1953.68 33.4162 1953.92 33.3311 1954.15 33.246C1954.56 33.0991 1954.96 32.9495 1955.34 32.7961C1955.55 32.7136 1955.75 32.6298 1955.96 32.546C1956.34 32.3836 1956.72 32.2186 1957.08 32.0523C1957.25 31.9749 1957.42 31.8976 1957.58 31.8202C1957.95 31.641 1958.31 31.4592 1958.65 31.2775C1958.77 31.2104 1958.9 31.1447 1959.02 31.0777C1959.38 30.8791 1959.72 30.6819 1960.04 30.4834C1960.12 30.4331 1960.21 30.3815 1960.29 30.3312C1960.64 30.1108 1960.96 29.8929 1961.26 29.6776C1961.3 29.6506 1961.34 29.6222 1961.38 29.5951C1962.43 28.8319 1963.18 28.1087 1963.62 27.4925C1961.37 24.4334 1951.72 18.7585 1935.24 18.7585ZM1935.24 438.619C1952.39 438.619 1962.14 432.478 1963.86 429.528C1963.86 429.508 1963.86 429.487 1963.85 429.466L1958.98 372.495C1956.44 342.7 1956.49 312.494 1959.15 282.713L1962.04 250.362C1962.04 250.36 1962.04 250.36 1962.04 250.359C1954.23 253.971 1944.58 255.708 1935.24 255.708C1925.97 255.708 1916.39 253.996 1908.6 250.435L1911.38 279.31C1914.46 311.345 1914.52 343.843 1911.57 375.9L1906.65 429.384C1906.65 429.434 1906.64 429.487 1906.64 429.54C1908.38 432.496 1918.12 438.619 1935.24 438.619ZM1935.24 236.951C1952.39 236.951 1962.14 230.808 1963.86 227.858C1963.86 227.837 1963.86 227.817 1963.85 227.798L1958.98 170.826C1956.44 141.03 1956.49 110.823 1959.15 81.0453L1961.95 49.7047C1955.14 52.8321 1946.96 54.539 1938.8 54.9219C1938.72 54.9257 1938.64 54.9283 1938.55 54.9309C1937.45 54.9786 1936.34 55.0082 1935.24 55.0082C1934.15 55.0082 1933.06 54.9799 1931.97 54.9322C1931.88 54.9283 1931.79 54.9257 1931.7 54.9219C1923.61 54.5441 1915.48 52.8631 1908.7 49.782L1911.38 77.6419C1914.46 109.677 1914.52 142.176 1911.57 174.232L1906.65 227.715C1906.65 227.767 1906.64 227.819 1906.63 227.871C1908.37 230.824 1918.12 236.951 1935.24 236.951Z" fill="#410824"/>
<path d="M1892.06 635.073C1892.02 634.626 1892.01 634.179 1892.02 633.733C1892.01 633.623 1892 633.516 1892 633.405C1892 614.509 1914.42 605.902 1935.24 605.902C1956.07 605.902 1978.48 614.509 1978.48 633.405C1978.48 633.503 1978.47 633.596 1978.47 633.694C1978.48 634.125 1978.47 634.558 1978.44 634.992L1973.61 689.09C1971.07 717.476 1971.02 746.271 1973.45 774.673L1977.04 816.766L1986.09 805.108C1984.89 793.321 1986.3 766.562 2012.84 728.778C2046.15 681.355 2098.9 659.187 2101.13 658.267C2103.73 657.194 2106.57 658.082 2108.5 660.566C2110.42 663.051 2111.11 666.713 2110.28 670.06C2109.57 672.935 2092.37 740.948 2055.59 783.884C2030.45 813.226 2011.6 818.744 2000.98 818.744C1999.21 818.744 1997.68 818.591 1996.38 818.371L1990.7 825.692L2004.03 830.396C2010.42 824.617 2025.22 816.466 2053.98 824.663C2091.34 835.306 2122.95 872.331 2124.28 873.901C2126.28 876.277 2127.09 879.898 2126.37 883.287C2125.66 886.675 2123.53 889.261 2120.86 889.988C2119.81 890.274 2104.59 894.321 2084.77 894.321C2071.27 894.321 2055.64 892.443 2040.92 886.219C2012.92 874.391 2003.4 857.658 2000.19 848.49L1978.85 840.963L1977.95 842.132L1973.61 890.763C1971.07 919.149 1971.02 947.944 1973.45 976.346L1978.29 1032.97C1978.42 1033.94 1978.48 1034.87 1978.48 1035.78C1978.48 1036.04 1978.46 1036.28 1978.45 1036.54C1978.49 1037.13 1978.49 1037.73 1978.43 1038.34L1973.61 1092.43C1972.86 1100.82 1972.32 1109.35 1972 1117.78C1971.81 1122.95 1968.43 1126.95 1964.39 1126.7C1960.38 1126.45 1957.28 1122.05 1957.47 1116.88C1957.8 1108.04 1958.37 1099.09 1959.15 1090.29L1962.04 1057.94L1962.04 1057.94C1954.23 1061.55 1944.58 1063.29 1935.24 1063.29C1925.97 1063.29 1916.38 1061.57 1908.6 1058.01L1908.6 1058.01L1911.38 1086.89C1914.46 1118.92 1914.52 1151.42 1911.57 1183.48L1906.65 1236.96C1906.64 1237.01 1906.64 1237.07 1906.63 1237.12C1908.37 1240.07 1918.12 1246.2 1935.24 1246.2C1952.38 1246.2 1962.14 1240.05 1963.86 1237.1C1963.85 1237.08 1963.85 1237.06 1963.85 1237.04L1958.98 1180.07C1958.88 1178.85 1958.78 1177.63 1958.68 1176.41C1958.28 1171.26 1961.19 1166.66 1965.19 1166.14C1969.18 1165.61 1972.76 1169.37 1973.16 1174.53C1973.25 1175.69 1973.35 1176.85 1973.45 1178.02L1978.28 1234.64C1978.42 1235.61 1978.48 1236.53 1978.48 1237.45C1978.48 1256.35 1956.07 1264.95 1935.24 1264.95C1914.41 1264.95 1892 1256.35 1892 1237.45C1892 1236.44 1892.08 1235.41 1892.23 1234.36L1897.12 1181.27C1899.93 1150.71 1899.87 1119.73 1896.94 1089.19L1892.06 1038.42C1891.99 1037.78 1891.99 1037.14 1892.03 1036.5C1892.02 1036.26 1892 1036.02 1892 1035.78C1892 1034.76 1892.08 1033.74 1892.24 1032.68L1897.12 979.595C1899.93 949.038 1899.87 918.06 1896.94 887.522L1892.06 836.746C1891.99 836.103 1891.99 835.461 1892.03 834.825C1892.02 834.586 1892 834.352 1892 834.109C1892 833.1 1892.08 832.064 1892.24 831.018L1897.12 777.925C1899.93 747.368 1899.87 716.389 1896.94 685.851L1892.06 635.073ZM2045.82 769.978C2068.26 743.781 2083.13 706.144 2090.64 683.579C2073.15 693.243 2043.99 712.378 2023.63 741.367C2002.99 770.752 2000.33 791.016 2000.42 799.889C2007.33 800.009 2023.03 796.581 2045.82 769.978ZM2045.45 868.391C2064.97 876.639 2086.95 876.203 2101.52 874.507C2089.67 863.491 2070.95 848.707 2050.85 842.978C2030.78 837.263 2019.91 840.879 2014.88 843.946C2018 849.89 2025.93 860.142 2045.45 868.391ZM1935.24 624.661C1918.76 624.661 1909.12 630.336 1906.87 633.395C1907.31 634.012 1908.06 634.734 1909.11 635.499C1909.15 635.523 1909.18 635.549 1909.22 635.575C1909.52 635.793 1909.85 636.012 1910.2 636.234C1910.28 636.283 1910.36 636.333 1910.44 636.382C1910.77 636.58 1911.11 636.779 1911.47 636.979C1911.59 637.046 1911.72 637.111 1911.84 637.177C1912.18 637.359 1912.54 637.541 1912.91 637.721C1913.07 637.799 1913.24 637.876 1913.41 637.952C1913.77 638.12 1914.15 638.285 1914.54 638.448C1914.74 638.532 1914.94 638.615 1915.15 638.697C1915.53 638.849 1915.93 639 1916.34 639.147C1916.58 639.232 1916.81 639.317 1917.06 639.401C1917.47 639.539 1917.89 639.673 1918.32 639.805C1918.59 639.888 1918.86 639.972 1919.15 640.052C1919.58 640.176 1920.03 640.293 1920.48 640.408C1920.78 640.485 1921.09 640.564 1921.4 640.636C1921.86 640.744 1922.34 640.845 1922.83 640.943C1923.16 641.011 1923.49 641.082 1923.83 641.145C1924.33 641.237 1924.85 641.318 1925.36 641.399C1925.72 641.455 1926.06 641.514 1926.43 641.564C1926.97 641.639 1927.55 641.7 1928.11 641.761C1928.48 641.8 1928.83 641.847 1929.2 641.88C1929.83 641.938 1930.49 641.975 1931.15 642.015C1931.48 642.035 1931.8 642.064 1932.14 642.08C1933.14 642.125 1934.18 642.151 1935.25 642.151C1936.31 642.151 1937.35 642.125 1938.35 642.08C1938.69 642.064 1939.01 642.036 1939.34 642.015C1940 641.975 1940.66 641.937 1941.29 641.88C1941.66 641.847 1942.01 641.8 1942.38 641.761C1942.95 641.7 1943.52 641.639 1944.07 641.564C1944.43 641.514 1944.77 641.455 1945.13 641.401C1945.65 641.319 1946.17 641.238 1946.66 641.147C1947.01 641.083 1947.33 641.012 1947.66 640.944C1948.15 640.845 1948.63 640.746 1949.09 640.637C1949.41 640.564 1949.71 640.487 1950.01 640.408C1950.46 640.292 1950.91 640.176 1951.35 640.052C1951.63 639.971 1951.9 639.888 1952.17 639.805C1952.6 639.673 1953.02 639.54 1953.43 639.402C1953.68 639.319 1953.92 639.233 1954.15 639.148C1954.56 639.001 1954.96 638.852 1955.34 638.698C1955.55 638.616 1955.75 638.532 1955.96 638.448C1956.34 638.286 1956.72 638.121 1957.08 637.955C1957.25 637.877 1957.42 637.8 1957.58 637.723C1957.95 637.543 1958.31 637.362 1958.65 637.18C1958.77 637.113 1958.9 637.047 1959.02 636.98C1959.38 636.781 1959.72 636.584 1960.04 636.386C1960.12 636.335 1960.21 636.284 1960.29 636.234C1960.64 636.013 1960.96 635.795 1961.26 635.58C1961.3 635.553 1961.34 635.525 1961.38 635.497C1962.43 634.734 1963.18 634.011 1963.62 633.395C1961.37 630.336 1951.72 624.661 1935.24 624.661ZM1935.24 1044.52C1952.39 1044.52 1962.14 1038.38 1963.86 1035.43C1963.86 1035.41 1963.86 1035.39 1963.85 1035.37L1958.98 978.397C1956.44 948.602 1956.49 918.396 1959.15 888.615L1962.04 856.264C1962.04 856.263 1962.04 856.263 1962.04 856.261C1954.23 859.874 1944.58 861.61 1935.24 861.61C1925.97 861.61 1916.39 859.898 1908.6 856.337L1911.38 885.212C1914.46 917.247 1914.52 949.746 1911.57 981.802L1906.65 1035.29C1906.65 1035.34 1906.64 1035.39 1906.64 1035.44C1908.38 1038.4 1918.12 1044.52 1935.24 1044.52ZM1935.24 842.853C1952.39 842.853 1962.14 836.71 1963.86 833.76C1963.86 833.74 1963.86 833.719 1963.85 833.7L1958.98 776.728C1956.44 746.932 1956.49 716.726 1959.15 686.948L1961.95 655.607C1955.14 658.734 1946.96 660.441 1938.8 660.824C1938.72 660.828 1938.64 660.831 1938.55 660.833C1937.45 660.881 1936.34 660.911 1935.24 660.911C1934.15 660.911 1933.06 660.882 1931.97 660.835C1931.88 660.831 1931.79 660.828 1931.7 660.824C1923.61 660.446 1915.48 658.765 1908.7 655.684L1911.38 683.544C1914.46 715.58 1914.52 748.078 1911.57 780.134L1906.65 833.617C1906.65 833.669 1906.64 833.722 1906.63 833.773C1908.37 836.727 1918.12 842.853 1935.24 842.853Z" fill="#410824"/>
</g>
<g filter="url(#filter3_i)">
<path d="M1892.06 1239.69C1892.02 1239.24 1892.01 1238.79 1892.02 1238.35C1892.01 1238.24 1892 1238.13 1892 1238.02C1892 1219.12 1914.42 1210.52 1935.24 1210.52C1956.07 1210.52 1978.48 1219.12 1978.48 1238.02C1978.48 1238.12 1978.47 1238.21 1978.47 1238.31C1978.48 1238.74 1978.47 1239.17 1978.44 1239.61L1973.61 1293.7C1971.07 1322.09 1971.02 1350.88 1973.45 1379.29L1977.04 1421.38L1986.09 1409.72C1984.89 1397.93 1986.3 1371.18 2012.84 1333.39C2046.15 1285.97 2098.9 1263.8 2101.13 1262.88C2103.73 1261.81 2106.57 1262.7 2108.5 1265.18C2110.42 1267.66 2111.11 1271.33 2110.28 1274.67C2109.57 1277.55 2092.37 1345.56 2055.59 1388.5C2030.45 1417.84 2011.6 1423.36 2000.98 1423.36C1999.21 1423.36 1997.68 1423.2 1996.38 1422.98L1990.7 1430.31L2004.03 1435.01C2010.42 1429.23 2025.22 1421.08 2053.98 1429.28C2091.34 1439.92 2122.95 1476.94 2124.28 1478.51C2126.28 1480.89 2127.09 1484.51 2126.37 1487.9C2125.66 1491.29 2123.53 1493.87 2120.86 1494.6C2119.81 1494.89 2104.59 1498.93 2084.77 1498.93C2071.27 1498.93 2055.64 1497.06 2040.92 1490.83C2012.92 1479 2003.4 1462.27 2000.19 1453.1L1978.85 1445.58L1977.95 1446.75L1973.61 1495.38C1971.07 1523.76 1971.02 1552.56 1973.45 1580.96L1978.29 1637.59C1978.42 1638.56 1978.48 1639.48 1978.48 1640.39C1978.48 1640.65 1978.46 1640.9 1978.45 1641.15C1978.49 1641.74 1978.49 1642.35 1978.43 1642.95L1973.61 1697.05C1972.86 1705.44 1972.32 1713.96 1972 1722.39C1971.81 1727.57 1968.43 1731.56 1964.39 1731.31C1960.38 1731.06 1957.28 1726.67 1957.47 1721.49C1957.8 1712.65 1958.37 1703.71 1959.15 1694.91L1962.04 1662.55C1962.04 1662.55 1962.04 1662.55 1962.04 1662.55C1954.23 1666.16 1944.58 1667.9 1935.24 1667.9C1925.97 1667.9 1916.38 1666.19 1908.6 1662.63C1908.6 1662.63 1908.6 1662.63 1908.6 1662.63L1911.38 1691.5C1914.46 1723.54 1914.52 1756.03 1911.57 1788.09L1906.65 1841.58C1906.64 1841.63 1906.64 1841.68 1906.63 1841.73C1908.37 1844.69 1918.12 1850.81 1935.24 1850.81C1952.38 1850.81 1962.14 1844.67 1963.86 1841.72C1963.85 1841.7 1963.85 1841.68 1963.85 1841.66L1958.98 1784.68C1958.88 1783.47 1958.78 1782.24 1958.68 1781.02C1958.28 1775.87 1961.19 1771.27 1965.19 1770.75C1969.18 1770.23 1972.76 1773.99 1973.16 1779.14C1973.25 1780.3 1973.35 1781.47 1973.45 1782.63L1978.28 1839.25C1978.42 1840.22 1978.48 1841.15 1978.48 1842.06C1978.48 1860.96 1956.07 1869.57 1935.24 1869.57C1914.41 1869.57 1892 1860.96 1892 1842.06C1892 1841.06 1892.08 1840.02 1892.23 1838.97L1897.12 1785.88C1899.93 1755.32 1899.87 1724.34 1896.94 1693.8L1892.06 1643.03C1891.99 1642.39 1891.99 1641.75 1892.03 1641.12C1892.02 1640.87 1892 1640.64 1892 1640.39C1892 1639.37 1892.08 1638.35 1892.24 1637.3L1897.12 1584.21C1899.93 1553.65 1899.87 1522.67 1896.94 1492.14L1892.06 1441.36C1891.99 1440.72 1891.99 1440.07 1892.03 1439.44C1892.02 1439.2 1892 1438.97 1892 1438.72C1892 1437.71 1892.08 1436.68 1892.24 1435.63L1897.12 1382.54C1899.93 1351.98 1899.87 1321 1896.94 1290.46L1892.06 1239.69ZM2045.82 1374.59C2068.26 1348.39 2083.13 1310.76 2090.64 1288.19C2073.15 1297.86 2043.99 1316.99 2023.63 1345.98C2002.99 1375.37 2000.33 1395.63 2000.42 1404.5C2007.33 1404.62 2023.03 1401.19 2045.82 1374.59ZM2045.45 1473C2064.97 1481.25 2086.95 1480.82 2101.52 1479.12C2089.67 1468.1 2070.95 1453.32 2050.85 1447.59C2030.78 1441.88 2019.91 1445.49 2014.88 1448.56C2018 1454.5 2025.93 1464.76 2045.45 1473ZM1935.24 1229.27C1918.76 1229.27 1909.12 1234.95 1906.87 1238.01C1907.31 1238.63 1908.06 1239.35 1909.11 1240.11C1909.15 1240.14 1909.18 1240.16 1909.22 1240.19C1909.52 1240.41 1909.85 1240.63 1910.2 1240.85C1910.28 1240.9 1910.36 1240.95 1910.44 1241C1910.77 1241.19 1911.11 1241.39 1911.47 1241.59C1911.59 1241.66 1911.72 1241.72 1911.84 1241.79C1912.18 1241.97 1912.54 1242.15 1912.91 1242.33C1913.07 1242.41 1913.24 1242.49 1913.41 1242.57C1913.77 1242.73 1914.15 1242.9 1914.54 1243.06C1914.74 1243.15 1914.94 1243.23 1915.15 1243.31C1915.53 1243.46 1915.93 1243.61 1916.34 1243.76C1916.58 1243.85 1916.81 1243.93 1917.06 1244.01C1917.47 1244.15 1917.89 1244.29 1918.32 1244.42C1918.59 1244.5 1918.86 1244.59 1919.15 1244.67C1919.58 1244.79 1920.03 1244.91 1920.48 1245.02C1920.78 1245.1 1921.09 1245.18 1921.4 1245.25C1921.86 1245.36 1922.34 1245.46 1922.83 1245.56C1923.16 1245.62 1923.49 1245.7 1923.83 1245.76C1924.33 1245.85 1924.85 1245.93 1925.36 1246.01C1925.72 1246.07 1926.06 1246.13 1926.43 1246.18C1926.97 1246.25 1927.55 1246.31 1928.11 1246.37C1928.48 1246.41 1928.83 1246.46 1929.2 1246.49C1929.83 1246.55 1930.49 1246.59 1931.15 1246.63C1931.48 1246.65 1931.8 1246.68 1932.14 1246.69C1933.14 1246.74 1934.18 1246.76 1935.25 1246.76C1936.31 1246.76 1937.35 1246.74 1938.35 1246.69C1938.69 1246.68 1939.01 1246.65 1939.34 1246.63C1940 1246.59 1940.66 1246.55 1941.29 1246.49C1941.66 1246.46 1942.01 1246.41 1942.38 1246.37C1942.95 1246.31 1943.52 1246.25 1944.07 1246.18C1944.43 1246.13 1944.77 1246.07 1945.13 1246.01C1945.65 1245.93 1946.17 1245.85 1946.66 1245.76C1947.01 1245.7 1947.33 1245.63 1947.66 1245.56C1948.15 1245.46 1948.63 1245.36 1949.09 1245.25C1949.41 1245.18 1949.71 1245.1 1950.01 1245.02C1950.46 1244.91 1950.91 1244.79 1951.35 1244.67C1951.63 1244.58 1951.9 1244.5 1952.17 1244.42C1952.6 1244.29 1953.02 1244.15 1953.43 1244.02C1953.68 1243.93 1953.92 1243.85 1954.15 1243.76C1954.56 1243.61 1954.96 1243.47 1955.34 1243.31C1955.55 1243.23 1955.75 1243.15 1955.96 1243.06C1956.34 1242.9 1956.72 1242.73 1957.08 1242.57C1957.25 1242.49 1957.42 1242.41 1957.58 1242.34C1957.95 1242.16 1958.31 1241.97 1958.65 1241.79C1958.77 1241.73 1958.9 1241.66 1959.02 1241.59C1959.38 1241.39 1959.72 1241.2 1960.04 1241C1960.12 1240.95 1960.21 1240.9 1960.29 1240.85C1960.64 1240.63 1960.96 1240.41 1961.26 1240.19C1961.3 1240.17 1961.34 1240.14 1961.38 1240.11C1962.43 1239.35 1963.18 1238.62 1963.62 1238.01C1961.37 1234.95 1951.72 1229.27 1935.24 1229.27ZM1935.24 1649.14C1952.39 1649.14 1962.14 1642.99 1963.86 1640.04C1963.86 1640.02 1963.86 1640 1963.85 1639.98L1958.98 1583.01C1956.44 1553.22 1956.49 1523.01 1959.15 1493.23L1962.04 1460.88C1962.04 1460.88 1962.04 1460.88 1962.04 1460.87C1954.23 1464.49 1944.58 1466.22 1935.24 1466.22C1925.97 1466.22 1916.39 1464.51 1908.6 1460.95L1911.38 1489.83C1914.46 1521.86 1914.52 1554.36 1911.57 1586.42L1906.65 1639.9C1906.65 1639.95 1906.64 1640 1906.64 1640.06C1908.38 1643.01 1918.12 1649.14 1935.24 1649.14ZM1935.24 1447.47C1952.39 1447.47 1962.14 1441.32 1963.86 1438.37C1963.86 1438.35 1963.86 1438.33 1963.85 1438.31L1958.98 1381.34C1956.44 1351.55 1956.49 1321.34 1959.15 1291.56L1961.95 1260.22C1955.14 1263.35 1946.96 1265.05 1938.8 1265.44C1938.72 1265.44 1938.64 1265.44 1938.55 1265.45C1937.45 1265.49 1936.34 1265.52 1935.24 1265.52C1934.15 1265.52 1933.06 1265.5 1931.97 1265.45C1931.88 1265.44 1931.79 1265.44 1931.7 1265.44C1923.61 1265.06 1915.48 1263.38 1908.7 1260.3L1911.38 1288.16C1914.46 1320.19 1914.52 1352.69 1911.57 1384.75L1906.65 1438.23C1906.65 1438.28 1906.64 1438.34 1906.63 1438.39C1908.37 1441.34 1918.12 1447.47 1935.24 1447.47Z" fill="#410824"/>
<path d="M1892.06 1845.59C1892.02 1845.14 1892.01 1844.7 1892.02 1844.25C1892.01 1844.14 1892 1844.03 1892 1843.92C1892 1825.03 1914.42 1816.42 1935.24 1816.42C1956.07 1816.42 1978.48 1825.03 1978.48 1843.92C1978.48 1844.02 1978.47 1844.11 1978.47 1844.21C1978.48 1844.64 1978.47 1845.07 1978.44 1845.51L1973.61 1899.61C1971.07 1927.99 1971.02 1956.79 1973.45 1985.19L1977.04 2027.28L1986.09 2015.62C1984.89 2003.84 1986.3 1977.08 2012.84 1939.29C2046.15 1891.87 2098.9 1869.7 2101.13 1868.78C2103.73 1867.71 2106.57 1868.6 2108.5 1871.08C2110.42 1873.57 2111.11 1877.23 2110.28 1880.58C2109.57 1883.45 2092.37 1951.46 2055.59 1994.4C2030.45 2023.74 2011.6 2029.26 2000.98 2029.26C1999.21 2029.26 1997.68 2029.11 1996.38 2028.89L1990.7 2036.21L2004.03 2040.91C2010.42 2035.13 2025.22 2026.98 2053.98 2035.18C2091.34 2045.82 2122.95 2082.85 2124.28 2084.42C2126.28 2086.79 2127.09 2090.41 2126.37 2093.8C2125.66 2097.19 2123.53 2099.78 2120.86 2100.5C2119.81 2100.79 2104.59 2104.84 2084.77 2104.84C2071.27 2104.84 2055.64 2102.96 2040.92 2096.74C2012.92 2084.91 2003.4 2068.17 2000.19 2059.01L1978.85 2051.48L1977.95 2052.65L1973.61 2101.28C1971.07 2129.67 1971.02 2158.46 1973.45 2186.86L1978.29 2243.49C1978.42 2244.46 1978.48 2245.38 1978.48 2246.3C1978.48 2246.55 1978.46 2246.8 1978.45 2247.05C1978.49 2247.65 1978.49 2248.25 1978.43 2248.85L1973.61 2302.95C1972.86 2311.34 1972.32 2319.87 1972 2328.29C1971.81 2333.47 1968.43 2337.46 1964.39 2337.21C1960.38 2336.96 1957.28 2332.57 1957.47 2327.39C1957.8 2318.55 1958.37 2309.61 1959.15 2300.81L1962.04 2268.46L1962.04 2268.45C1954.23 2272.07 1944.58 2273.8 1935.24 2273.8C1925.97 2273.8 1916.38 2272.09 1908.6 2268.53L1908.6 2268.53L1911.38 2297.4C1914.46 2329.44 1914.52 2361.94 1911.57 2393.99L1906.65 2447.48C1906.64 2447.53 1906.64 2447.58 1906.63 2447.63C1908.37 2450.59 1918.12 2456.71 1935.24 2456.71C1952.38 2456.71 1962.14 2450.57 1963.86 2447.62C1963.85 2447.6 1963.85 2447.58 1963.85 2447.56L1958.98 2390.59C1958.88 2389.37 1958.78 2388.15 1958.68 2386.93C1958.28 2381.77 1961.19 2377.17 1965.19 2376.65C1969.18 2376.13 1972.76 2379.89 1973.16 2385.04C1973.25 2386.21 1973.35 2387.37 1973.45 2388.53L1978.28 2445.16C1978.42 2446.13 1978.48 2447.05 1978.48 2447.97C1978.48 2466.86 1956.07 2475.47 1935.24 2475.47C1914.41 2475.47 1892 2466.86 1892 2447.97C1892 2446.96 1892.08 2445.92 1892.23 2444.88L1897.12 2391.78C1899.93 2361.22 1899.87 2330.25 1896.94 2299.71L1892.06 2248.93C1891.99 2248.29 1891.99 2247.65 1892.03 2247.02C1892.02 2246.78 1892 2246.54 1892 2246.3C1892 2245.27 1892.08 2244.25 1892.24 2243.2L1897.12 2190.11C1899.93 2159.55 1899.87 2128.58 1896.94 2098.04L1892.06 2047.26C1891.99 2046.62 1891.99 2045.98 1892.03 2045.34C1892.02 2045.1 1892 2044.87 1892 2044.63C1892 2043.62 1892.08 2042.58 1892.24 2041.54L1897.12 1988.44C1899.93 1957.88 1899.87 1926.91 1896.94 1896.37L1892.06 1845.59ZM2045.82 1980.49C2068.26 1954.3 2083.13 1916.66 2090.64 1894.1C2073.15 1903.76 2043.99 1922.89 2023.63 1951.88C2002.99 1981.27 2000.33 2001.53 2000.42 2010.41C2007.33 2010.53 2023.03 2007.1 2045.82 1980.49ZM2045.45 2078.91C2064.97 2087.16 2086.95 2086.72 2101.52 2085.02C2089.67 2074.01 2070.95 2059.22 2050.85 2053.49C2030.78 2047.78 2019.91 2051.4 2014.88 2054.46C2018 2060.41 2025.93 2070.66 2045.45 2078.91ZM1935.24 1835.18C1918.76 1835.18 1909.12 1840.85 1906.87 1843.91C1907.31 1844.53 1908.06 1845.25 1909.11 1846.02C1909.15 1846.04 1909.18 1846.07 1909.22 1846.09C1909.52 1846.31 1909.85 1846.53 1910.2 1846.75C1910.28 1846.8 1910.36 1846.85 1910.44 1846.9C1910.77 1847.1 1911.11 1847.3 1911.47 1847.5C1911.59 1847.56 1911.72 1847.63 1911.84 1847.69C1912.18 1847.88 1912.54 1848.06 1912.91 1848.24C1913.07 1848.32 1913.24 1848.39 1913.41 1848.47C1913.77 1848.64 1914.15 1848.8 1914.54 1848.96C1914.74 1849.05 1914.94 1849.13 1915.15 1849.21C1915.53 1849.37 1915.93 1849.52 1916.34 1849.66C1916.58 1849.75 1916.81 1849.83 1917.06 1849.92C1917.47 1850.06 1917.89 1850.19 1918.32 1850.32C1918.59 1850.4 1918.86 1850.49 1919.15 1850.57C1919.58 1850.69 1920.03 1850.81 1920.48 1850.92C1920.78 1851 1921.09 1851.08 1921.4 1851.15C1921.86 1851.26 1922.34 1851.36 1922.83 1851.46C1923.16 1851.53 1923.49 1851.6 1923.83 1851.66C1924.33 1851.75 1924.85 1851.83 1925.36 1851.92C1925.72 1851.97 1926.06 1852.03 1926.43 1852.08C1926.97 1852.16 1927.55 1852.22 1928.11 1852.28C1928.48 1852.32 1928.83 1852.36 1929.2 1852.4C1929.83 1852.45 1930.49 1852.49 1931.15 1852.53C1931.48 1852.55 1931.8 1852.58 1932.14 1852.6C1933.14 1852.64 1934.18 1852.67 1935.25 1852.67C1936.31 1852.67 1937.35 1852.64 1938.35 1852.6C1938.69 1852.58 1939.01 1852.55 1939.34 1852.53C1940 1852.49 1940.66 1852.45 1941.29 1852.4C1941.66 1852.36 1942.01 1852.32 1942.38 1852.28C1942.95 1852.22 1943.52 1852.16 1944.07 1852.08C1944.43 1852.03 1944.77 1851.97 1945.13 1851.92C1945.65 1851.84 1946.17 1851.75 1946.66 1851.66C1947.01 1851.6 1947.33 1851.53 1947.66 1851.46C1948.15 1851.36 1948.63 1851.26 1949.09 1851.15C1949.41 1851.08 1949.71 1851 1950.01 1850.92C1950.46 1850.81 1950.91 1850.69 1951.35 1850.57C1951.63 1850.49 1951.9 1850.4 1952.17 1850.32C1952.6 1850.19 1953.02 1850.06 1953.43 1849.92C1953.68 1849.84 1953.92 1849.75 1954.15 1849.66C1954.56 1849.52 1954.96 1849.37 1955.34 1849.22C1955.55 1849.13 1955.75 1849.05 1955.96 1848.96C1956.34 1848.8 1956.72 1848.64 1957.08 1848.47C1957.25 1848.39 1957.42 1848.32 1957.58 1848.24C1957.95 1848.06 1958.31 1847.88 1958.65 1847.7C1958.77 1847.63 1958.9 1847.56 1959.02 1847.5C1959.38 1847.3 1959.72 1847.1 1960.04 1846.9C1960.12 1846.85 1960.21 1846.8 1960.29 1846.75C1960.64 1846.53 1960.96 1846.31 1961.26 1846.1C1961.3 1846.07 1961.34 1846.04 1961.38 1846.01C1962.43 1845.25 1963.18 1844.53 1963.62 1843.91C1961.37 1840.85 1951.72 1835.18 1935.24 1835.18ZM1935.24 2255.04C1952.39 2255.04 1962.14 2248.9 1963.86 2245.95C1963.86 2245.93 1963.86 2245.91 1963.85 2245.89L1958.98 2188.91C1956.44 2159.12 1956.49 2128.91 1959.15 2099.13L1962.04 2066.78C1962.04 2066.78 1962.04 2066.78 1962.04 2066.78C1954.23 2070.39 1944.58 2072.13 1935.24 2072.13C1925.97 2072.13 1916.39 2070.41 1908.6 2066.85L1911.38 2095.73C1914.46 2127.76 1914.52 2160.26 1911.57 2192.32L1906.65 2245.8C1906.65 2245.85 1906.64 2245.91 1906.64 2245.96C1908.38 2248.91 1918.12 2255.04 1935.24 2255.04ZM1935.24 2053.37C1952.39 2053.37 1962.14 2047.23 1963.86 2044.28C1963.86 2044.26 1963.86 2044.24 1963.85 2044.22L1958.98 1987.24C1956.44 1957.45 1956.49 1927.24 1959.15 1897.46L1961.95 1866.12C1955.14 1869.25 1946.96 1870.96 1938.8 1871.34C1938.72 1871.34 1938.64 1871.35 1938.55 1871.35C1937.45 1871.4 1936.34 1871.43 1935.24 1871.43C1934.15 1871.43 1933.06 1871.4 1931.97 1871.35C1931.88 1871.35 1931.79 1871.34 1931.7 1871.34C1923.61 1870.96 1915.48 1869.28 1908.7 1866.2L1911.38 1894.06C1914.46 1926.1 1914.52 1958.59 1911.57 1990.65L1906.65 2044.13C1906.65 2044.19 1906.64 2044.24 1906.63 2044.29C1908.37 2047.24 1918.12 2053.37 1935.24 2053.37Z" fill="#410824"/>
<path d="M1892.06 2443.17C1892.02 2442.72 1892.01 2442.28 1892.02 2441.83C1892.01 2441.72 1892 2441.61 1892 2441.5C1892 2422.61 1914.42 2414 1935.24 2414C1956.07 2414 1978.48 2422.61 1978.48 2441.5C1978.48 2441.6 1978.47 2441.69 1978.47 2441.79C1978.48 2442.22 1978.47 2442.66 1978.44 2443.09L1973.61 2497.19C1971.07 2525.57 1971.02 2554.37 1973.45 2582.77L1977.04 2624.86L1986.09 2613.21C1984.89 2601.42 1986.3 2574.66 2012.84 2536.88C2046.15 2489.45 2098.9 2467.28 2101.13 2466.36C2103.73 2465.29 2106.57 2466.18 2108.5 2468.66C2110.42 2471.15 2111.11 2474.81 2110.28 2478.16C2109.57 2481.03 2092.37 2549.05 2055.59 2591.98C2030.45 2621.32 2011.6 2626.84 2000.98 2626.84C1999.21 2626.84 1997.68 2626.69 1996.38 2626.47L1990.7 2633.79L2004.03 2638.49C2010.42 2632.71 2025.22 2624.56 2053.98 2632.76C2091.34 2643.4 2122.95 2680.43 2124.28 2682C2126.28 2684.37 2127.09 2688 2126.37 2691.38C2125.66 2694.77 2123.53 2697.36 2120.86 2698.09C2119.81 2698.37 2104.59 2702.42 2084.77 2702.42C2071.27 2702.42 2055.64 2700.54 2040.92 2694.32C2012.92 2682.49 2003.4 2665.76 2000.19 2656.59L1978.85 2649.06L1977.95 2650.23L1973.61 2698.86C1971.07 2727.25 1971.02 2756.04 1973.45 2784.44L1978.29 2841.07C1978.42 2842.04 1978.48 2842.96 1978.48 2843.88C1978.48 2844.13 1978.46 2844.38 1978.45 2844.63C1978.49 2845.23 1978.49 2845.83 1978.43 2846.43L1973.61 2900.53C1972.86 2908.92 1972.32 2917.45 1972 2925.88C1971.81 2931.05 1968.43 2935.04 1964.39 2934.79C1960.38 2934.55 1957.28 2930.15 1957.47 2924.98C1957.8 2916.13 1958.37 2907.19 1959.15 2898.39L1962.04 2866.04L1962.04 2866.04C1954.23 2869.65 1944.58 2871.38 1935.24 2871.38C1925.97 2871.38 1916.38 2869.67 1908.6 2866.11L1908.6 2866.11L1911.38 2894.98C1914.46 2927.02 1914.52 2959.52 1911.57 2991.57L1906.65 3045.06C1906.64 3045.11 1906.64 3045.16 1906.63 3045.22C1908.37 3048.17 1918.12 3054.29 1935.24 3054.29C1952.38 3054.29 1962.14 3048.15 1963.86 3045.2C1963.85 3045.18 1963.85 3045.16 1963.85 3045.14L1958.98 2988.17C1958.88 2986.95 1958.78 2985.73 1958.68 2984.51C1958.28 2979.35 1961.19 2974.75 1965.19 2974.23C1969.18 2973.71 1972.76 2977.47 1973.16 2982.62C1973.25 2983.79 1973.35 2984.95 1973.45 2986.11L1978.28 3042.74C1978.42 3043.71 1978.48 3044.63 1978.48 3045.55C1978.48 3064.44 1956.07 3073.05 1935.24 3073.05C1914.41 3073.05 1892 3064.44 1892 3045.55C1892 3044.54 1892.08 3043.5 1892.23 3042.46L1897.12 2989.36C1899.93 2958.81 1899.87 2927.83 1896.94 2897.29L1892.06 2846.51C1891.99 2845.87 1891.99 2845.23 1892.03 2844.6C1892.02 2844.36 1892 2844.12 1892 2843.88C1892 2842.85 1892.08 2841.84 1892.24 2840.78L1897.12 2787.69C1899.93 2757.14 1899.87 2726.16 1896.94 2695.62L1892.06 2644.84C1891.99 2644.2 1891.99 2643.56 1892.03 2642.92C1892.02 2642.68 1892 2642.45 1892 2642.21C1892 2641.2 1892.08 2640.16 1892.24 2639.12L1897.12 2586.02C1899.93 2555.47 1899.87 2524.49 1896.94 2493.95L1892.06 2443.17ZM2045.82 2578.08C2068.26 2551.88 2083.13 2514.24 2090.64 2491.68C2073.15 2501.34 2043.99 2520.48 2023.63 2549.46C2002.99 2578.85 2000.33 2599.11 2000.42 2607.99C2007.33 2608.11 2023.03 2604.68 2045.82 2578.08ZM2045.45 2676.49C2064.97 2684.74 2086.95 2684.3 2101.52 2682.6C2089.67 2671.59 2070.95 2656.8 2050.85 2651.08C2030.78 2645.36 2019.91 2648.98 2014.88 2652.04C2018 2657.99 2025.93 2668.24 2045.45 2676.49ZM1935.24 2432.76C1918.76 2432.76 1909.12 2438.43 1906.87 2441.49C1907.31 2442.11 1908.06 2442.83 1909.11 2443.6C1909.15 2443.62 1909.18 2443.65 1909.22 2443.67C1909.52 2443.89 1909.85 2444.11 1910.2 2444.33C1910.28 2444.38 1910.36 2444.43 1910.44 2444.48C1910.77 2444.68 1911.11 2444.88 1911.47 2445.08C1911.59 2445.14 1911.72 2445.21 1911.84 2445.27C1912.18 2445.46 1912.54 2445.64 1912.91 2445.82C1913.07 2445.9 1913.24 2445.97 1913.41 2446.05C1913.77 2446.22 1914.15 2446.38 1914.54 2446.55C1914.74 2446.63 1914.94 2446.71 1915.15 2446.79C1915.53 2446.95 1915.93 2447.1 1916.34 2447.24C1916.58 2447.33 1916.81 2447.41 1917.06 2447.5C1917.47 2447.64 1917.89 2447.77 1918.32 2447.9C1918.59 2447.99 1918.86 2448.07 1919.15 2448.15C1919.58 2448.27 1920.03 2448.39 1920.48 2448.51C1920.78 2448.58 1921.09 2448.66 1921.4 2448.73C1921.86 2448.84 1922.34 2448.94 1922.83 2449.04C1923.16 2449.11 1923.49 2449.18 1923.83 2449.24C1924.33 2449.33 1924.85 2449.42 1925.36 2449.5C1925.72 2449.55 1926.06 2449.61 1926.43 2449.66C1926.97 2449.74 1927.55 2449.8 1928.11 2449.86C1928.48 2449.9 1928.83 2449.94 1929.2 2449.98C1929.83 2450.04 1930.49 2450.07 1931.15 2450.11C1931.48 2450.13 1931.8 2450.16 1932.14 2450.18C1933.14 2450.22 1934.18 2450.25 1935.25 2450.25C1936.31 2450.25 1937.35 2450.22 1938.35 2450.18C1938.69 2450.16 1939.01 2450.13 1939.34 2450.11C1940 2450.07 1940.66 2450.03 1941.29 2449.98C1941.66 2449.94 1942.01 2449.9 1942.38 2449.86C1942.95 2449.8 1943.52 2449.74 1944.07 2449.66C1944.43 2449.61 1944.77 2449.55 1945.13 2449.5C1945.65 2449.42 1946.17 2449.34 1946.66 2449.24C1947.01 2449.18 1947.33 2449.11 1947.66 2449.04C1948.15 2448.94 1948.63 2448.84 1949.09 2448.73C1949.41 2448.66 1949.71 2448.58 1950.01 2448.51C1950.46 2448.39 1950.91 2448.27 1951.35 2448.15C1951.63 2448.07 1951.9 2447.99 1952.17 2447.9C1952.6 2447.77 1953.02 2447.64 1953.43 2447.5C1953.68 2447.42 1953.92 2447.33 1954.15 2447.25C1954.56 2447.1 1954.96 2446.95 1955.34 2446.8C1955.55 2446.71 1955.75 2446.63 1955.96 2446.55C1956.34 2446.38 1956.72 2446.22 1957.08 2446.05C1957.25 2445.97 1957.42 2445.9 1957.58 2445.82C1957.95 2445.64 1958.31 2445.46 1958.65 2445.28C1958.77 2445.21 1958.9 2445.14 1959.02 2445.08C1959.38 2444.88 1959.72 2444.68 1960.04 2444.48C1960.12 2444.43 1960.21 2444.38 1960.29 2444.33C1960.64 2444.11 1960.96 2443.89 1961.26 2443.68C1961.3 2443.65 1961.34 2443.62 1961.38 2443.6C1962.43 2442.83 1963.18 2442.11 1963.62 2441.49C1961.37 2438.43 1951.72 2432.76 1935.24 2432.76ZM1935.24 2852.62C1952.39 2852.62 1962.14 2846.48 1963.86 2843.53C1963.86 2843.51 1963.86 2843.49 1963.85 2843.47L1958.98 2786.49C1956.44 2756.7 1956.49 2726.49 1959.15 2696.71L1962.04 2664.36C1962.04 2664.36 1962.04 2664.36 1962.04 2664.36C1954.23 2667.97 1944.58 2669.71 1935.24 2669.71C1925.97 2669.71 1916.39 2668 1908.6 2664.44L1911.38 2693.31C1914.46 2725.35 1914.52 2757.84 1911.57 2789.9L1906.65 2843.38C1906.65 2843.43 1906.64 2843.49 1906.64 2843.54C1908.38 2846.5 1918.12 2852.62 1935.24 2852.62ZM1935.24 2650.95C1952.39 2650.95 1962.14 2644.81 1963.86 2641.86C1963.86 2641.84 1963.86 2641.82 1963.85 2641.8L1958.98 2584.83C1956.44 2555.03 1956.49 2524.82 1959.15 2495.05L1961.95 2463.7C1955.14 2466.83 1946.96 2468.54 1938.8 2468.92C1938.72 2468.93 1938.64 2468.93 1938.55 2468.93C1937.45 2468.98 1936.34 2469.01 1935.24 2469.01C1934.15 2469.01 1933.06 2468.98 1931.97 2468.93C1931.88 2468.93 1931.79 2468.93 1931.7 2468.92C1923.61 2468.54 1915.48 2466.86 1908.7 2463.78L1911.38 2491.64C1914.46 2523.68 1914.52 2556.18 1911.57 2588.23L1906.65 2641.72C1906.65 2641.77 1906.64 2641.82 1906.63 2641.87C1908.37 2644.82 1918.12 2650.95 1935.24 2650.95Z" fill="#410824"/>
</g>
<defs>
<filter id="filter0_i" x="0" y="0" width="238.633" height="1268.95" filterUnits="userSpaceOnUse" color-interpolation-filters="sRGB">
<feFlood flood-opacity="0" result="BackgroundImageFix"/>
<feBlend mode="normal" in="SourceGraphic" in2="BackgroundImageFix" result="shape"/>
<feColorMatrix in="SourceAlpha" type="matrix" values="0 0 0 0 0 0 0 0 0 0 0 0 0 0 0 0 0 0 127 0" result="hardAlpha"/>
<feOffset dx="4" dy="15"/>
<feGaussianBlur stdDeviation="2"/>
<feComposite in2="hardAlpha" operator="arithmetic" k2="-1" k3="1"/>
<feColorMatrix type="matrix" values="0 0 0 0 0 0 0 0 0 0 0 0 0 0 0 0 0 0 0.25 0"/>
<feBlend mode="normal" in2="shape" result="effect1_innerShadow"/>
</filter>
<filter id="filter1_i" x="0" y="1210.52" width="238.633" height="1866.54" filterUnits="userSpaceOnUse" color-interpolation-filters="sRGB">
<feFlood flood-opacity="0" result="BackgroundImageFix"/>
<feBlend mode="normal" in="SourceGraphic" in2="BackgroundImageFix" result="shape"/>
<feColorMatrix in="SourceAlpha" type="matrix" values="0 0 0 0 0 0 0 0 0 0 0 0 0 0 0 0 0 0 127 0" result="hardAlpha"/>
<feOffset dx="4" dy="15"/>
<feGaussianBlur stdDeviation="2"/>
<feComposite in2="hardAlpha" operator="arithmetic" k2="-1" k3="1"/>
<feColorMatrix type="matrix" values="0 0 0 0 0 0 0 0 0 0 0 0 0 0 0 0 0 0 0.25 0"/>
<feBlend mode="normal" in2="shape" result="effect1_innerShadow"/>
</filter>
<filter id="filter2_i" x="1892" y="0" width="238.633" height="1268.95" filterUnits="userSpaceOnUse" color-interpolation-filters="sRGB">
<feFlood flood-opacity="0" result="BackgroundImageFix"/>
<feBlend mode="normal" in="SourceGraphic" in2="BackgroundImageFix" result="shape"/>
<feColorMatrix in="SourceAlpha" type="matrix" values="0 0 0 0 0 0 0 0 0 0 0 0 0 0 0 0 0 0 127 0" result="hardAlpha"/>
<feOffset dx="4" dy="15"/>
<feGaussianBlur stdDeviation="2"/>
<feComposite in2="hardAlpha" operator="arithmetic" k2="-1" k3="1"/>
<feColorMatrix type="matrix" values="0 0 0 0 0 0 0 0 0 0 0 0 0 0 0 0 0 0 0.25 0"/>
<feBlend mode="normal" in2="shape" result="effect1_innerShadow"/>
</filter>
<filter id="filter3_i" x="1892" y="1210.52" width="238.633" height="1866.54" filterUnits="userSpaceOnUse" color-interpolation-filters="sRGB">
<feFlood flood-opacity="0" result="BackgroundImageFix"/>
<feBlend mode="normal" in="SourceGraphic" in2="BackgroundImageFix" result="shape"/>
<feColorMatrix in="SourceAlpha" type="matrix" values="0 0 0 0 0 0 0 0 0 0 0 0 0 0 0 0 0 0 127 0" result="hardAlpha"/>
<feOffset dx="4" dy="15"/>
<feGaussianBlur stdDeviation="2"/>
<feComposite in2="hardAlpha" operator="arithmetic" k2="-1" k3="1"/>
<feColorMatrix type="matrix" values="0 0 0 0 0 0 0 0 0 0 0 0 0 0 0 0 0 0 0.25 0"/>
<feBlend mode="normal" in2="shape" result="effect1_innerShadow"/>
</filter>
</defs>
</svg>
