<svg width="455" height="422" viewBox="0 0 455 422" fill="none" xmlns="http://www.w3.org/2000/svg">
<path d="M454.891 203.924C455.874 166.539 447.91 129.469 431.684 95.891C415.457 62.3126 391.451 33.2264 361.721 11.1243C377.234 27.2225 389.298 46.4018 397.158 67.4576C405.017 88.5133 408.502 110.991 407.393 133.478C407.279 163.271 399.917 192.574 385.96 218.786C372.004 244.997 351.885 267.306 327.39 283.731C302.896 300.156 274.783 310.189 245.549 312.939C216.315 315.689 186.864 311.071 159.812 299.494C132.759 287.918 108.942 269.742 90.4757 246.58C72.0093 223.419 59.4649 195.988 53.9562 166.724C48.4476 137.461 50.1453 107.269 58.8986 78.8314C67.6519 50.3934 83.1897 24.5887 104.133 3.70898C73.5371 24.4615 48.1735 52.2174 30.0862 84.7401C11.9989 117.263 1.69372 153.643 0.000976562 190.948C0.0279289 251.068 23.1526 308.808 64.4621 351.903C105.771 394.997 162.01 420.051 221.232 421.74C280.454 423.43 337.991 401.622 381.621 360.951C425.251 320.279 451.536 263.948 454.891 203.924Z" fill="#0E1315"/>
<path d="M227.471 0.000976562C227.471 0.000976562 290.625 139.023 290.625 175.382C290.625 192.4 283.972 208.72 272.128 220.753C260.285 232.786 244.221 239.546 227.471 239.546C210.722 239.546 194.658 232.786 182.815 220.753C170.971 208.72 164.317 192.4 164.317 175.382C162.212 141.162 227.471 0.000976562 227.471 0.000976562Z" fill="#0E1315"/>
</svg>
