<svg width="410" height="410" viewBox="0 0 410 410" fill="none" xmlns="http://www.w3.org/2000/svg">
<g clip-path="url(#clip0)" filter="url(#filter0_i)">
<path d="M197 12L10 43.5L60.5 344L116.5 336V311.5L211 55L197 12Z" fill="#0E1315" stroke="black"/>
<path d="M408.594 114.673C406.828 110.708 403.626 107.675 399.577 106.132L231.148 41.9536C224.92 39.5787 218.103 41.3106 213.72 45.8002L209.876 24.1602C208.32 15.4028 199.901 9.53201 191.11 11.0686L75.0619 31.381C71.795 31.9527 69.6099 35.0651 70.1816 38.332C70.7533 41.5981 73.8648 43.7816 77.1325 43.2123L193.18 22.8999C195.426 22.5091 197.657 24.0465 198.05 26.2605L204.924 64.9532L188.195 108.213L180.644 65.1798C179.572 58.2745 172.852 52.6871 165.915 54.0235L51.8237 74.2887C45.0144 75.4994 40.5232 82.4576 41.8124 89.8001L77.8283 295.038C78.9077 301.945 85.6033 307.527 92.5574 306.195L113.044 302.556L108.99 313.04C106.67 318.817 108.173 325.801 112.583 330.172L66.0315 338.32C63.7831 338.711 61.5547 337.173 61.1608 334.959L12.1036 58.7869C11.6712 56.6138 13.3183 54.331 15.5058 53.9995L48.3077 48.2576C51.5754 47.6859 53.7598 44.5735 53.1881 41.3066C52.6164 38.0397 49.4992 35.8578 46.2371 36.4263L13.436 42.1682C4.85476 43.4822 -1.41881 52.3708 0.277899 60.8872L49.335 337.059C50.85 345.867 59.5169 351.717 68.1013 350.15L131.688 339.021L286.754 398.107C294.866 401.265 304.473 397.201 307.672 388.83L389.688 176.736C390.885 173.643 389.347 170.165 386.253 168.969C383.159 167.773 379.682 169.311 378.486 172.404L296.47 384.498C295.655 386.604 293.166 387.701 291.031 386.883L122.601 322.704C120.52 321.965 119.351 319.416 120.192 317.371L127.861 297.538C128.067 297.143 128.228 296.726 128.343 296.291L163.428 205.561C164.625 202.468 163.086 198.991 159.993 197.794C156.899 196.599 153.423 198.137 152.226 201.229L118.109 289.457L90.5188 294.357C90.3002 294.271 89.8054 293.802 89.6581 292.962L53.6421 87.7238C53.4923 86.8735 53.8054 86.2585 53.9856 86.104L167.953 65.8612C168.172 65.9469 168.667 66.4161 168.814 67.2561L179.808 129.904L162.753 174.007C161.557 177.1 163.095 180.577 166.188 181.774C169.202 182.963 172.761 181.462 173.955 178.339L216.064 69.446C216.66 68.6197 217.046 67.6436 217.163 66.6035L221.433 55.5625C222.247 53.4558 224.737 52.362 226.871 53.1772L395.301 117.357C397.382 118.096 398.551 120.643 397.712 122.689L389.014 145.18C387.818 148.274 389.356 151.751 392.449 152.947C395.542 154.14 399.02 152.605 400.216 149.512L408.913 127.021C410.465 123.006 410.352 118.622 408.594 114.673Z" fill="#0E1315"/>
<g clip-path="url(#clip1)">
<path d="M306.065 238.56C309.119 230.924 310.29 222.665 309.478 214.492C308.666 206.319 305.895 198.476 301.403 191.634C303.399 196.146 304.444 201.029 304.472 205.976C304.5 210.923 303.51 215.827 301.566 220.381C299.271 226.518 295.507 231.998 290.609 236.334C285.712 240.67 279.831 243.727 273.489 245.235C267.148 246.742 260.542 246.654 254.258 244.976C247.974 243.299 242.207 240.085 237.468 235.62C232.73 231.155 229.167 225.577 227.095 219.381C225.024 213.185 224.509 206.563 225.595 200.103C226.681 193.644 229.335 187.546 233.322 182.351C237.308 177.157 242.504 173.026 248.447 170.327C240.508 172.259 233.122 176.038 226.885 181.358C220.647 186.678 215.733 193.392 212.538 200.958C207.96 213.362 208.364 227.049 213.662 239.111C218.96 251.173 228.735 260.659 240.912 265.554C253.088 270.45 266.705 270.369 278.871 265.328C291.037 260.288 300.792 250.685 306.065 238.56Z" fill="#0E1315"/>
<path d="M274.356 179.032C274.356 179.032 276.881 212.56 274.109 220.061C272.812 223.572 270.186 226.427 266.808 228C263.429 229.573 259.576 229.735 256.096 228.449C252.616 227.163 249.794 224.535 248.25 221.143C246.706 217.751 246.568 213.874 247.865 210.363C250.036 203.142 274.356 179.032 274.356 179.032Z" fill="#0E1315"/>
</g>
<g clip-path="url(#clip2)">
<path d="M143.031 89.9932C142.11 84.4678 139.934 79.2324 136.69 74.7354C133.446 70.2385 129.231 66.6141 124.405 64.1728C127.053 66.1181 129.301 68.6106 131.008 71.4935C132.715 74.3764 133.844 77.5875 134.325 80.9252C135.154 85.3102 134.945 89.8206 133.717 94.0558C132.489 98.291 130.279 102.12 127.285 105.203C124.292 108.285 120.605 110.526 116.554 111.727C112.503 112.927 108.213 113.05 104.063 112.084C99.9143 111.118 96.035 109.093 92.7701 106.189C89.5051 103.285 86.9556 99.5922 85.3479 95.4381C83.7401 91.2839 83.1239 86.7971 83.5539 82.3761C83.984 77.9551 85.4469 73.7367 87.8129 70.0955C84.08 73.9808 81.2845 78.7537 79.6519 84.0297C78.0194 89.3056 77.5953 94.9369 78.4139 100.47C80.1223 109.312 85.0256 117.174 92.082 122.388C99.1385 127.602 107.792 129.756 116.204 128.392C124.617 127.028 132.125 122.254 137.134 115.084C142.144 107.914 144.259 98.9128 143.031 89.9932Z" fill="#410824"/>
<path d="M105.128 66.1922C105.128 66.1922 117.99 84.9202 119.021 90.268C119.503 92.7709 119.026 95.3524 117.695 97.4447C116.363 99.537 114.286 100.969 111.92 101.425C109.554 101.881 107.094 101.324 105.08 99.8765C103.066 98.4291 101.663 96.2099 101.181 93.707C99.9132 88.7311 105.128 66.1922 105.128 66.1922Z" fill="#410824"/>
</g>
</g>
<defs>
<filter id="filter0_i" x="0" y="0" width="414" height="414" filterUnits="userSpaceOnUse" color-interpolation-filters="sRGB">
<feFlood flood-opacity="0" result="BackgroundImageFix"/>
<feBlend mode="normal" in="SourceGraphic" in2="BackgroundImageFix" result="shape"/>
<feColorMatrix in="SourceAlpha" type="matrix" values="0 0 0 0 0 0 0 0 0 0 0 0 0 0 0 0 0 0 127 0" result="hardAlpha"/>
<feOffset dx="6" dy="7"/>
<feGaussianBlur stdDeviation="2"/>
<feComposite in2="hardAlpha" operator="arithmetic" k2="-1" k3="1"/>
<feColorMatrix type="matrix" values="0 0 0 0 0 0 0 0 0 0 0 0 0 0 0 0 0 0 0.29 0"/>
<feBlend mode="normal" in2="shape" result="effect1_innerShadow"/>
</filter>
<clipPath id="clip0">
<rect width="410" height="410" fill="white"/>
</clipPath>
<clipPath id="clip1">
<rect width="100.763" height="93.8136" fill="white" transform="translate(227.093 161.567) rotate(20.2803)"/>
</clipPath>
<clipPath id="clip2">
<rect width="65.4321" height="63.8953" fill="white" transform="translate(73 72.3857) rotate(-10.911)"/>
</clipPath>
</defs>
</svg>
