<svg width="401" height="434" viewBox="0 0 401 434" fill="none" xmlns="http://www.w3.org/2000/svg">
<g filter="url(#filter0_i)">
<path d="M399.055 264.26C396.423 246.583 388.715 229.924 377.116 216.53C388.711 203.139 396.419 186.482 399.052 168.807C402.153 147.989 398.068 126.488 387.548 108.266C385.203 104.205 380.011 102.813 375.948 105.158C371.886 107.503 370.495 112.696 372.841 116.758C389.226 145.137 385.733 180.262 364.857 204.757C361.205 201.849 357.329 199.206 353.268 196.866L349.638 194.77C356.508 187.289 361.365 178.093 363.646 167.974C366.899 153.545 364.624 138.556 357.241 125.767C349.858 112.978 338.014 103.514 323.891 99.118C309.985 94.79 295.117 95.7508 281.981 101.797C281.893 101.833 281.806 101.873 281.72 101.913C281.68 101.931 281.64 101.946 281.6 101.965C281.452 102.034 281.313 102.11 281.166 102.179C281.158 102.183 281.15 102.187 281.143 102.19C279.74 102.86 278.377 103.568 277.118 104.3L246.212 122.139C246.128 122.184 246.046 122.234 245.962 122.283L235.024 128.596L217.012 118.195L268.103 88.695C273.489 85.5883 279.203 83.149 285.09 81.4455C305.222 75.6153 327.19 78.3904 345.367 89.0604C349.413 91.4346 354.615 90.0805 356.989 86.0358C359.363 81.9911 358.009 76.7884 353.964 74.4142C334.226 62.8282 310.812 58.8791 288.567 63.1674C282.771 46.4303 272.201 31.4264 258.213 20.3081C241.736 7.21229 221.074 0 200.031 0C178.989 0 158.328 7.21229 141.849 20.3089C127.857 31.4289 117.286 46.4371 111.492 63.1725C94.0961 59.8247 75.8137 61.4766 59.19 68.0351C39.6127 75.7582 23.0372 90.045 12.5153 108.264C1.99413 126.483 -2.09033 147.983 1.01213 168.803C3.64601 186.481 11.3548 203.139 22.9527 216.529C11.3539 229.92 3.64601 246.577 1.01213 264.253C-2.08948 285.07 1.99666 306.571 12.5161 324.794C23.0372 343.013 39.6127 357.299 59.1917 365.021C70.244 369.381 82.0288 371.577 93.8001 371.577C99.7335 371.577 105.662 371.005 111.492 369.883C117.288 386.623 127.859 401.631 141.85 412.75C158.328 425.847 178.991 433.059 200.031 433.059C221.072 433.059 241.735 425.847 258.214 412.75C272.207 401.629 282.778 386.62 288.573 369.883C294.403 371.005 300.329 371.577 306.264 371.577C318.034 371.577 329.821 369.38 340.872 365.021C360.45 357.299 377.027 343.013 387.548 324.795C398.068 306.575 402.155 285.078 399.055 264.26ZM293.684 115.437C312.018 109.561 332.694 117.209 342.534 134.256C352.374 151.304 348.662 173.037 334.411 185.975L293.684 162.457V115.437ZM258.69 147.27C258.691 147.15 258.694 147.03 258.69 146.91V134.544L276.7 124.148V206.511C276.585 207.313 276.586 208.119 276.7 208.909V220.387L258.69 230.785V147.27ZM241.708 152.065V172.858L169.287 131.047C169.262 131.032 169.236 131.022 169.212 131.008L158.358 124.742V103.932L241.708 152.065ZM204.56 307.678C204.463 307.616 204.362 307.555 204.261 307.497L158.356 280.997V260.197L230.778 302.011C230.796 302.022 230.817 302.029 230.835 302.039L241.707 308.315V329.126L204.56 307.678ZM240.76 348.19C236.679 366.998 219.716 381.075 200.032 381.075C180.355 381.075 163.392 366.996 159.306 348.187L200.032 324.673L240.76 348.19ZM158.356 240.585V192.47L200.034 168.409L241.707 192.468V240.59L200.034 264.649L158.356 240.585ZM200.033 108.391L159.304 84.8702C163.385 66.0618 180.348 51.9848 200.032 51.9848C219.701 51.9848 236.677 66.0686 240.759 84.8736L200.033 108.391ZM123.363 93.6515C123.363 87.439 124.108 81.2738 125.579 75.3184C134.033 40.9706 164.648 16.9832 200.031 16.9832C232.805 16.9832 261.475 37.5712 272.245 67.9014C267.909 69.6058 263.685 71.6383 259.617 73.9846L255.987 76.0813C252.937 66.3747 247.385 57.5571 239.744 50.519C228.881 40.513 214.778 35.0016 200.032 35.0016C185.263 35.0016 171.144 40.5274 160.275 50.5588C149.471 60.5301 142.836 74.0455 141.595 88.5808C141.448 90.215 141.374 91.921 141.374 93.6507V142.255L123.364 152.653L123.363 93.6515ZM118.901 174.84C118.928 174.826 118.954 174.809 118.981 174.794L165.037 148.203L183.052 158.604L145.826 180.094C145.816 180.1 145.806 180.106 145.796 180.112L99.703 206.722L81.6896 196.325L118.901 174.84ZM141.374 202.274V298.517L123.364 308.916V212.672L141.374 202.274ZM65.6521 185.973C51.4017 173.035 47.6894 151.303 57.5305 134.256C67.3691 117.211 88.0468 109.56 106.382 115.43V162.458L65.6521 185.973ZM27.2249 116.756C43.6126 88.377 75.7723 73.8416 107.424 79.6752C106.732 84.2824 106.381 88.9572 106.381 93.6515V97.8476C96.4669 95.64 86.0752 96.0325 76.1724 99.1164C62.0481 103.513 50.2032 112.978 42.8218 125.766C35.4395 138.555 33.1642 153.543 36.4172 167.972C39.6229 182.193 47.9017 194.602 59.7449 202.971C59.7787 202.996 59.8134 203.021 59.8472 203.046C59.9132 203.093 59.9775 203.144 60.0443 203.191C61.4018 204.134 62.822 205.039 64.2886 205.89L95.4376 223.87C95.4832 223.897 95.5281 223.924 95.5746 223.949L106.381 230.187V250.994L55.2849 221.487C49.93 218.399 44.9617 214.669 40.5178 210.405C14.9977 185.905 9.53206 147.396 27.2249 116.756ZM106.381 270.605V317.62C102.259 318.941 98.0215 319.592 93.8119 319.591C79.3002 319.59 65.1581 312.016 57.5297 298.803C47.6903 281.755 51.4026 260.023 65.6529 247.085L106.381 270.605ZM27.2232 316.304C10.8388 287.922 14.3338 252.798 35.2145 228.303C38.8684 231.215 42.7423 233.857 46.7954 236.195L50.4248 238.292C43.5551 245.773 38.6984 254.968 36.4172 265.088C33.1642 279.517 35.4386 294.505 42.8218 307.294C50.2041 320.083 62.0489 329.548 76.1724 333.943C81.918 335.731 87.8252 336.617 93.7062 336.617C102.091 336.617 110.416 334.807 118.126 331.244C118.168 331.227 118.209 331.208 118.252 331.19C118.308 331.164 118.366 331.143 118.422 331.117C119.891 330.441 121.408 329.653 122.947 328.77L165.038 304.465L183.055 314.866L131.959 344.366C126.573 347.472 120.859 349.912 114.972 351.615C80.9935 361.456 44.9126 346.936 27.2232 316.304ZM276.7 323.328C276.7 323.356 276.696 323.383 276.696 323.41C276.696 323.448 276.699 323.483 276.7 323.52V339.407C276.7 345.62 275.955 351.785 274.484 357.74C266.031 392.087 235.415 416.075 200.031 416.075C167.258 416.075 138.588 395.487 127.819 365.157C132.155 363.452 136.38 361.42 140.449 359.073L144.079 356.977C147.125 366.664 152.661 375.465 160.281 382.499C171.151 392.531 185.268 398.056 200.032 398.056C214.801 398.056 228.92 392.531 239.79 382.499C250.594 372.528 257.229 359.013 258.47 344.477C258.617 342.843 258.691 341.137 258.691 339.407V290.803L276.701 280.405L276.7 323.328ZM281.164 258.219C281.137 258.233 281.112 258.25 281.085 258.265L235.029 284.855L217.016 274.456L253.321 253.496C254.1 253.188 254.82 252.77 255.466 252.258L300.367 226.334L318.376 236.734L281.164 258.219ZM334.412 247.085C348.662 260.024 352.374 281.756 342.534 298.803C332.695 315.845 312.016 323.493 293.683 317.628V270.601L334.412 247.085ZM372.839 316.303C356.455 344.675 324.293 359.21 292.639 353.383C293.332 348.776 293.683 344.102 293.683 339.408V335.221C297.849 336.148 302.101 336.618 306.365 336.618C312.247 336.618 318.155 335.731 323.896 333.943C338.017 329.547 349.861 320.082 357.242 307.293C364.624 294.504 366.9 279.516 363.646 265.087C360.443 250.876 352.173 238.474 340.342 230.105C340.298 230.07 340.251 230.038 340.205 230.004C340.142 229.96 340.082 229.913 340.019 229.868C338.662 228.925 337.242 228.02 335.775 227.169L293.684 202.864V182.068L344.78 211.572C350.148 214.669 355.119 218.398 359.554 222.654C385.069 247.156 390.531 285.666 372.839 316.303Z" fill="#B50D5E"/>
</g>
<defs>
<filter id="filter0_i" x="0" y="0" width="404.065" height="437.059" filterUnits="userSpaceOnUse" color-interpolation-filters="sRGB">
<feFlood flood-opacity="0" result="BackgroundImageFix"/>
<feBlend mode="normal" in="SourceGraphic" in2="BackgroundImageFix" result="shape"/>
<feColorMatrix in="SourceAlpha" type="matrix" values="0 0 0 0 0 0 0 0 0 0 0 0 0 0 0 0 0 0 127 0" result="hardAlpha"/>
<feOffset dx="6" dy="7"/>
<feGaussianBlur stdDeviation="2"/>
<feComposite in2="hardAlpha" operator="arithmetic" k2="-1" k3="1"/>
<feColorMatrix type="matrix" values="0 0 0 0 0 0 0 0 0 0 0 0 0 0 0 0 0 0 0.27 0"/>
<feBlend mode="normal" in2="shape" result="effect1_innerShadow"/>
</filter>
</defs>
</svg>
