<svg width="19" height="20" viewBox="0 0 19 20" fill="none" xmlns="http://www.w3.org/2000/svg">
<path d="M13.4583 0C12.0389 0 10.7524 0.28 9.747 0.8075C8.74238 1.335 7.91667 2.19417 7.91667 3.33333V6.66667C7.91667 6.77417 7.95071 6.87833 7.96654 6.97917C7.17411 6.7672 6.35928 6.66219 5.54167 6.66667C4.12221 6.66667 2.83575 6.94667 1.83033 7.47417C0.825708 8.00167 0 8.86083 0 10V16.6667C0 17.8058 0.825709 18.665 1.83113 19.1925C2.83575 19.72 4.12221 20 5.54167 20C6.96113 20 8.24758 19.72 9.253 19.1925C10.2568 18.665 11.0833 17.8058 11.0833 16.6667V16.3283C11.8578 16.5487 12.6561 16.6624 13.4583 16.6667C14.8778 16.6667 16.1642 16.3867 17.1697 15.8592C18.1735 15.3317 19 14.4725 19 13.3333V3.33333C19 2.19417 18.1743 1.335 17.1689 0.8075C16.165 0.28 14.8786 0 13.4583 0ZM13.4583 1.66667C14.664 1.66667 15.7375 1.94 16.4516 2.3175C17.1665 2.695 17.4167 3.0925 17.4167 3.33333C17.4167 3.575 17.1665 3.97167 16.4516 4.34917C15.7383 4.72667 14.664 5 13.4583 5C12.2526 5 11.1791 4.72667 10.465 4.34917C9.75017 3.97167 9.5 3.57417 9.5 3.33333C9.5 3.09167 9.75017 2.695 10.465 2.3175C11.1783 1.94 12.2526 1.66667 13.4583 1.66667ZM9.5 5.70333C9.58313 5.75167 9.66071 5.81417 9.74779 5.85917C10.7524 6.38667 12.0389 6.66667 13.4583 6.66667C14.8778 6.66667 16.1642 6.38667 17.1697 5.85917C17.256 5.81417 17.3335 5.75167 17.4167 5.70333V6.66667C17.4167 6.90833 17.1665 7.305 16.4516 7.6825C15.7375 8.06 14.664 8.33333 13.4583 8.33333C12.2526 8.33333 11.1791 8.06 10.465 7.6825C9.75017 7.305 9.5 6.9075 9.5 6.66667V5.70333ZM5.54167 8.33333C6.74738 8.33333 7.82088 8.60667 8.53496 8.98417C9.24983 9.36167 9.5 9.75917 9.5 10C9.5 10.2417 9.24983 10.6383 8.53496 11.0158C7.82088 11.3933 6.74738 11.6667 5.54167 11.6667C4.33596 11.6667 3.26246 11.3933 2.54837 11.0158C1.8335 10.6383 1.58333 10.2408 1.58333 10C1.58333 9.75833 1.8335 9.36167 2.54837 8.98417C3.26167 8.60667 4.33596 8.33333 5.54167 8.33333ZM17.4167 9.03667V10C17.4167 10.2417 17.1665 10.6383 16.4516 11.0158C15.7375 11.3933 14.664 11.6667 13.4583 11.6667C12.6519 11.6713 11.85 11.5393 11.0833 11.2758V10C11.0833 9.8925 11.0493 9.78833 11.0335 9.6875C11.7697 9.88917 12.5859 10 13.4583 10C14.8778 10 16.1642 9.72 17.1697 9.1925C17.256 9.1475 17.3335 9.085 17.4167 9.03667ZM1.58333 12.37C1.66646 12.4183 1.74404 12.4808 1.83113 12.5258C2.83575 13.0533 4.12221 13.3333 5.54167 13.3333C6.96113 13.3333 8.24758 13.0533 9.253 12.5258C9.33929 12.4808 9.41687 12.4183 9.5 12.37V13.3333C9.5 13.575 9.24983 13.9717 8.53496 14.3492C7.82088 14.7267 6.74738 15 5.54167 15C4.33596 15 3.26246 14.7267 2.54837 14.3492C1.8335 13.9717 1.58333 13.5742 1.58333 13.3333V12.37ZM17.4167 12.37V13.3333C17.4167 13.575 17.1665 13.9717 16.4516 14.3492C15.7375 14.7267 14.664 15 13.4583 15C12.5582 15 11.7452 14.8667 11.0833 14.635V13.0208C11.8101 13.2225 12.6018 13.3333 13.4583 13.3333C14.8778 13.3333 16.1642 13.0533 17.1697 12.5258C17.256 12.4808 17.3335 12.4183 17.4167 12.37ZM1.58333 15.7033C1.66646 15.7517 1.74404 15.8142 1.83113 15.8592C2.83575 16.3867 4.12221 16.6667 5.54167 16.6667C6.96113 16.6667 8.24758 16.3867 9.253 15.8592C9.33929 15.8142 9.41687 15.7517 9.5 15.7033V16.6667C9.5 16.9083 9.24983 17.305 8.53496 17.6825C7.82088 18.06 6.74738 18.3333 5.54167 18.3333C4.33596 18.3333 3.26246 18.06 2.54837 17.6825C1.8335 17.305 1.58333 16.9075 1.58333 16.6667V15.7033Z" fill="#DB0F71"/>
</svg>
