<svg width="330" height="330" viewBox="0 0 330 330" fill="none" xmlns="http://www.w3.org/2000/svg">
<g filter="url(#filter0_i)">
<path d="M270.394 38.0415C267.646 35.7579 263.567 36.1337 261.282 38.8826C258.998 41.6316 259.374 45.7102 262.122 47.9944C297.036 77.0079 317.059 119.655 317.059 165C317.059 248.846 248.846 317.059 165 317.059C81.1536 317.059 12.9409 248.846 12.9409 165C12.9409 81.1542 81.1542 12.9409 165 12.9409C188.89 12.9409 211.753 18.3214 232.956 28.9324C236.152 30.5308 240.039 29.2372 241.639 26.041C243.238 22.8461 241.944 18.9582 238.747 17.3585C215.73 5.8401 190.919 0 165 0C120.927 0 79.492 17.1626 48.3276 48.3276C17.1632 79.4926 0 120.927 0 165C0 209.073 17.1626 250.508 48.3276 281.673C79.492 312.837 120.927 330 165 330C209.073 330 250.508 312.837 281.673 281.673C312.837 250.508 330 209.073 330 165C330 115.796 308.274 69.5204 270.394 38.0415Z" fill="#B50D5E"/>
<path d="M264.592 65.4075C237.989 38.8051 202.62 24.1543 165 24.1543C127.38 24.1543 92.0107 38.8051 65.4076 65.4075C38.8053 92.0106 24.1544 127.38 24.1544 165C24.1544 202.62 38.8053 237.989 65.4076 264.592C92.01 291.195 127.38 305.845 165 305.845C202.62 305.845 237.989 291.195 264.592 264.592C291.195 237.99 305.845 202.62 305.845 165C305.845 127.38 291.195 92.0106 264.592 65.4075ZM165 292.904C94.4734 292.904 37.096 235.526 37.096 165C37.096 94.4733 94.4734 37.0958 165 37.0958C235.527 37.0958 292.904 94.4733 292.904 165C292.904 235.526 235.527 292.904 165 292.904Z" fill="#B50D5E"/>
<path d="M185.059 125.529H144.942C134.238 125.529 125.53 134.238 125.53 144.941V185.059C125.53 195.763 134.238 204.471 144.942 204.471H185.059C195.763 204.471 204.471 195.763 204.471 185.059V144.941C204.47 134.238 195.762 125.529 185.059 125.529ZM191.53 185.059C191.53 188.627 188.627 191.529 185.059 191.529H144.942C141.373 191.529 138.471 188.626 138.471 185.059V144.941C138.471 141.373 141.374 138.471 144.942 138.471H185.059C188.627 138.471 191.53 141.374 191.53 144.941V185.059Z" fill="#B50D5E"/>
<path d="M191.309 104.396H138.69C119.78 104.396 104.396 119.781 104.396 138.691V191.31C104.396 210.22 119.78 225.604 138.69 225.604H191.309C210.219 225.604 225.603 210.22 225.603 191.31V138.691C225.603 119.781 210.219 104.396 191.309 104.396ZM212.662 191.309C212.662 203.083 203.083 212.662 191.31 212.662H138.691C126.917 212.662 117.338 203.083 117.338 191.309V138.69C117.338 126.916 126.917 117.337 138.691 117.337H191.31C203.083 117.337 212.662 126.916 212.662 138.69V191.309Z" fill="#B50D5E"/>
<path d="M152.796 76.7344H134.646C131.073 76.7344 128.176 79.6315 128.176 83.2048C128.176 86.7781 131.073 89.6753 134.646 89.6753H152.796C156.37 89.6753 159.267 86.7781 159.267 83.2048C159.267 79.6315 156.37 76.7344 152.796 76.7344Z" fill="#B50D5E"/>
<path d="M196.001 76.7344H177.851C174.277 76.7344 171.38 79.6315 171.38 83.2048C171.38 86.7781 174.277 89.6753 177.851 89.6753H196.001C199.575 89.6753 202.471 86.7781 202.471 83.2048C202.471 79.6315 199.575 76.7344 196.001 76.7344Z" fill="#B50D5E"/>
<path d="M152.796 55.6465H134.646C131.073 55.6465 128.176 58.5437 128.176 62.1169C128.176 65.6902 131.073 68.5874 134.646 68.5874H152.796C156.37 68.5874 159.267 65.6902 159.267 62.1169C159.267 58.5437 156.37 55.6465 152.796 55.6465Z" fill="#B50D5E"/>
<path d="M196.001 55.6465H177.851C174.277 55.6465 171.38 58.5437 171.38 62.1169C171.38 65.6902 174.277 68.5874 177.851 68.5874H196.001C199.575 68.5874 202.471 65.6902 202.471 62.1169C202.471 58.5437 199.575 55.6465 196.001 55.6465Z" fill="#B50D5E"/>
<path d="M82.8881 171.057C79.3141 171.057 76.4176 173.954 76.4176 177.527V195.677C76.4176 199.251 79.3148 202.148 82.8881 202.148C86.4613 202.148 89.3585 199.25 89.3585 195.677V177.527C89.3591 173.953 86.462 171.057 82.8881 171.057Z" fill="#B50D5E"/>
<path d="M82.8881 127.853C79.3141 127.853 76.4176 130.75 76.4176 134.323V152.473C76.4176 156.047 79.3148 158.943 82.8881 158.943C86.4613 158.943 89.3585 156.046 89.3585 152.473V134.323C89.3591 130.749 86.462 127.853 82.8881 127.853Z" fill="#B50D5E"/>
<path d="M61.7944 171.057C58.2205 171.057 55.324 173.954 55.324 177.527V195.677C55.324 199.251 58.2211 202.148 61.7944 202.148C65.3677 202.148 68.2649 199.25 68.2649 195.677V177.527C68.2649 173.953 65.3677 171.057 61.7944 171.057Z" fill="#B50D5E"/>
<path d="M61.7944 127.853C58.2205 127.853 55.324 130.75 55.324 134.323V152.473C55.324 156.047 58.2211 158.943 61.7944 158.943C65.3677 158.943 68.2649 156.046 68.2649 152.473V134.323C68.2649 130.749 65.3677 127.853 61.7944 127.853Z" fill="#B50D5E"/>
<path d="M195.994 240.331H177.844C174.27 240.331 171.374 243.228 171.374 246.801C171.374 250.375 174.271 253.272 177.844 253.272H195.994C199.568 253.272 202.465 250.375 202.465 246.801C202.465 243.228 199.568 240.331 195.994 240.331Z" fill="#B50D5E"/>
<path d="M152.796 240.331H134.646C131.073 240.331 128.176 243.228 128.176 246.801C128.176 250.375 131.073 253.272 134.646 253.272H152.796C156.37 253.272 159.267 250.375 159.267 246.801C159.267 243.228 156.37 240.331 152.796 240.331Z" fill="#B50D5E"/>
<path d="M195.994 261.418H177.844C174.27 261.418 171.374 264.315 171.374 267.888C171.374 271.462 174.271 274.359 177.844 274.359H195.994C199.568 274.359 202.465 271.462 202.465 267.888C202.465 264.315 199.568 261.418 195.994 261.418Z" fill="#B50D5E"/>
<path d="M152.796 261.418H134.646C131.073 261.418 128.176 264.315 128.176 267.888C128.176 271.462 131.073 274.359 134.646 274.359H152.796C156.37 274.359 159.267 271.462 159.267 267.888C159.267 264.315 156.37 261.418 152.796 261.418Z" fill="#B50D5E"/>
<path d="M247.118 127.859C243.544 127.859 240.648 130.757 240.648 134.33V152.48C240.648 156.054 243.545 158.95 247.118 158.95C250.692 158.95 253.589 156.053 253.589 152.48V134.33C253.589 130.757 250.692 127.859 247.118 127.859Z" fill="#B50D5E"/>
<path d="M247.118 171.057C243.544 171.057 240.648 173.954 240.648 177.527V195.677C240.648 199.251 243.545 202.148 247.118 202.148C250.692 202.148 253.589 199.25 253.589 195.677V177.527C253.589 173.953 250.692 171.057 247.118 171.057Z" fill="#B50D5E"/>
<path d="M268.206 127.859C264.632 127.859 261.735 130.757 261.735 134.33V152.48C261.735 156.054 264.632 158.95 268.206 158.95C271.779 158.95 274.676 156.053 274.676 152.48V134.33C274.677 130.757 271.779 127.859 268.206 127.859Z" fill="#B50D5E"/>
<path d="M268.206 171.057C264.632 171.057 261.735 173.954 261.735 177.527V195.677C261.735 199.251 264.632 202.148 268.206 202.148C271.779 202.148 274.676 199.25 274.676 195.677V177.527C274.677 173.953 271.779 171.057 268.206 171.057Z" fill="#B50D5E"/>
<path d="M252.137 25.4502C243.811 25.4502 243.797 38.3911 252.137 38.3911C260.465 38.3917 260.478 25.4502 252.137 25.4502Z" fill="#B50D5E"/>
</g>
<defs>
<filter id="filter0_i" x="0" y="0" width="334" height="332" filterUnits="userSpaceOnUse" color-interpolation-filters="sRGB">
<feFlood flood-opacity="0" result="BackgroundImageFix"/>
<feBlend mode="normal" in="SourceGraphic" in2="BackgroundImageFix" result="shape"/>
<feColorMatrix in="SourceAlpha" type="matrix" values="0 0 0 0 0 0 0 0 0 0 0 0 0 0 0 0 0 0 127 0" result="hardAlpha"/>
<feOffset dx="5" dy="2"/>
<feGaussianBlur stdDeviation="2"/>
<feComposite in2="hardAlpha" operator="arithmetic" k2="-1" k3="1"/>
<feColorMatrix type="matrix" values="0 0 0 0 0 0 0 0 0 0 0 0 0 0 0 0 0 0 0.25 0"/>
<feBlend mode="normal" in2="shape" result="effect1_innerShadow"/>
</filter>
</defs>
</svg>
