<svg width="16" height="12" viewBox="0 0 16 12" fill="none" xmlns="http://www.w3.org/2000/svg">
<path d="M13.5488 1.27823C12.5551 0.830091 11.4899 0.498858 10.3761 0.31051C10.3661 0.308605 10.3559 0.309833 10.3467 0.314022C10.3375 0.318211 10.3298 0.325154 10.3248 0.333891C10.1884 0.573548 10.0364 0.885946 9.92987 1.13275C8.74854 0.956243 7.54753 0.956243 6.3662 1.13275C6.24756 0.859227 6.11377 0.592528 5.96547 0.333891C5.96044 0.325047 5.95284 0.317946 5.94367 0.313536C5.9345 0.309127 5.92421 0.307618 5.91416 0.309211C4.80096 0.497559 3.73581 0.828792 2.74147 1.27758C2.73291 1.28117 2.72566 1.28729 2.72068 1.29512C0.699511 4.26647 0.145507 7.16444 0.417638 10.026C0.418395 10.033 0.42057 10.0398 0.424032 10.046C0.427493 10.0521 0.432168 10.0575 0.437771 10.0618C1.61748 10.9206 2.93328 11.5749 4.33009 11.9972C4.33982 12.0002 4.35024 12.0002 4.35997 11.9972C4.3697 11.9942 4.3783 11.9883 4.38464 11.9803C4.6847 11.5776 4.95228 11.1522 5.1809 10.7054C5.19454 10.6794 5.18155 10.6482 5.15427 10.6378C4.73471 10.4798 4.32819 10.2892 3.93845 10.0676C3.93145 10.0636 3.92555 10.0579 3.92128 10.0511C3.91701 10.0442 3.9145 10.0365 3.91399 10.0284C3.91347 10.0204 3.91496 10.0123 3.91833 10.005C3.92169 9.99765 3.92682 9.99127 3.93326 9.98641C4.01509 9.92601 4.09692 9.86301 4.17486 9.80002C4.18188 9.79435 4.19033 9.79074 4.19927 9.7896C4.20822 9.78845 4.2173 9.78981 4.22552 9.79352C6.77602 10.9392 9.53824 10.9392 12.0589 9.79352C12.0671 9.78959 12.0763 9.78805 12.0854 9.78908C12.0944 9.79012 12.103 9.79368 12.1102 9.79936C12.1881 9.86301 12.2693 9.92601 12.3518 9.98641C12.3583 9.99117 12.3635 9.99746 12.367 10.0047C12.3704 10.012 12.372 10.02 12.3717 10.0281C12.3713 10.0361 12.3689 10.0439 12.3647 10.0508C12.3606 10.0577 12.3548 10.0635 12.3479 10.0676C11.9595 10.291 11.5555 10.48 11.1314 10.6372C11.1249 10.6396 11.119 10.6433 11.114 10.6481C11.109 10.653 11.1052 10.6588 11.1027 10.6653C11.1001 10.6717 11.099 10.6786 11.0994 10.6856C11.0998 10.6925 11.1016 10.6992 11.1048 10.7054C11.3386 11.1516 11.6062 11.5763 11.9004 11.9797C11.9065 11.9879 11.915 11.9941 11.9248 11.9974C11.9346 12.0006 11.9451 12.0008 11.9549 11.9978C13.3541 11.5767 14.6721 10.9222 15.8531 10.0618C15.8589 10.0577 15.8637 10.0525 15.8673 10.0465C15.8709 10.0404 15.8731 10.0337 15.8739 10.0267C16.1986 6.71825 15.3296 3.84366 13.5689 1.29642C13.5646 1.28814 13.5574 1.28168 13.5488 1.27823ZM5.56214 8.28349C4.79446 8.28349 4.16122 7.5892 4.16122 6.73773C4.16122 5.88562 4.78212 5.19198 5.56214 5.19198C6.34801 5.19198 6.9754 5.89146 6.96306 6.73773C6.96306 7.58985 6.34217 8.28349 5.56214 8.28349V8.28349ZM10.7417 8.28349C9.97339 8.28349 9.3408 7.5892 9.3408 6.73773C9.3408 5.88562 9.96105 5.19198 10.7417 5.19198C11.5276 5.19198 12.155 5.89146 12.1426 6.73773C12.1426 7.58985 11.5282 8.28349 10.7417 8.28349V8.28349Z" fill="#DB0F71"/>
</svg>
