<?xml version="1.0" encoding="utf-8"?>

<!DOCTYPE svg PUBLIC "-//W3C//DTD SVG 1.1//EN" "http://www.w3.org/Graphics/SVG/1.1/DTD/svg11.dtd">
<svg version="1.1"
	 id="Layer_1" image-rendering="optimizeQuality" text-rendering="geometricPrecision" shape-rendering="geometricPrecision"
	 xmlns="http://www.w3.org/2000/svg" xmlns:xlink="http://www.w3.org/1999/xlink" x="0px" y="0px"
	 viewBox="526 934.9089 1654 1738.2891" enable-background="new 526 934.9089 1654 1738.2891" xml:space="preserve">
<g id="Layer_x0020_1">
	<path fill="#6D0BE9" d="M1809.5978,1308.6639c-3.8156,0-7.6312,0-12.0826,0.6359c0-0.6359,0-0.6359,0-0.6359
		c0-167.8856-136.0891-304.6105-304.6105-304.6105c-55.3259,0-107.4723,15.2623-151.9873,40.6995
		c-45.1511-25.4372-96.6614-40.6995-152.6233-40.6995c-167.8855,0-303.9745,136.7249-303.9745,304.6105c0,0,0,0,0,0.6359
		c-162.7981,6.3594-292.5278,139.9047-292.5278,303.9746c0,91.5739,40.0636,173.6089,103.6566,228.9348
		c17.8061,15.2623,39.4277,23.5294,62.9571,23.5294h495.3895v169.1573h-229.5708L1353,2604.0535l328.7759-569.1575h-229.5708
		v-169.1573h495.3895c23.5294,0,45.151-8.2671,62.957-23.5294c63.5931-55.3259,103.6566-137.361,103.6566-228.9348
		C2114.2083,1445.3889,1978.1193,1308.6639,1809.5978,1308.6639z"/>
	<g id="_962946560">
		<path fill="#D331FA" d="M1026.7679,2036.1678L1353,2601.5098l326.2321-565.3419h-227.027c-0.6359,0-1.2719-0.6359-1.2719-1.2719
			v-169.1573c0-0.636,0.636-1.2719,1.2719-1.2719h495.3895c22.8934,0,45.151-8.2671,61.6852-22.8936
			c66.1367-57.8696,103.6567-140.5405,103.6567-228.2988c0-167.2496-135.4532-303.3386-303.3387-303.3386
			c-3.8156,0-7.6312,0-12.0826,0.6359l-0.636-0.6359c-0.6359,0-0.6359-0.636-0.6359-0.636c0-0.6359,0-0.6359,0-0.6359
			c0-167.2496-135.4531-303.3387-303.3386-303.3387c-53.4182,0-105.5645,13.9905-151.3514,40.6995c-0.6359,0-1.2719,0-1.2719,0
			c-46.4229-26.709-98.5691-40.6995-151.9873-40.6995c-167.2496,0-302.7026,136.0891-302.7026,303.3387c0,0,0,0,0,0.6359
			c0,0.636-0.6359,1.2719-1.2719,1.2719c-162.7981,6.3594-291.256,139.9047-291.256,302.7028
			c0,87.7583,37.5199,170.4292,103.6566,228.2988c16.5342,14.6265,38.7917,22.8936,61.6852,22.8936h495.3895
			c0.6359,0,1.2719,0.6359,1.2719,1.2719v169.1573c0,0.636-0.636,1.2719-1.2719,1.2719H1026.7679z"/>
		<path fill="#8DE7F7" d="M1028.6757,2037.4397L1353,2598.9661l324.3243-561.5264h-225.1193c-1.2719,0-2.5437-1.2719-2.5437-2.5437
			v-169.1573c0-1.2719,1.2719-2.5437,2.5437-2.5437h495.3895c22.8934,0,44.5151-7.6312,61.0493-22.8936
			c65.5009-57.2336,103.0206-139.9045,103.0206-227.027c0-166.6136-134.8171-302.0668-302.0668-302.0668
			c-3.8156,0-7.6312,0-12.0826,0.6359c-0.636,0-1.2719-0.6359-1.9078-1.2719c0,0-0.6359-0.6359-0.6359-1.2719
			c0-0.6359,0-0.6359,0-0.6359c0-166.6138-134.8173-302.0668-302.0668-302.0668c-52.7822,0-104.9285,13.9905-150.7155,40.6995
			c-0.636,0.636-1.9078,0.636-2.5437,0c-45.787-26.709-97.9332-40.6995-151.3514-40.6995
			c-166.6136,0-301.4308,135.4531-301.4308,302.0668c0,0,0,0,0,0.6359c0,1.2719-1.2719,1.9078-2.5437,2.5437
			c-162.1622,6.3594-289.9841,139.2687-289.9841,301.4309c0,87.1224,37.5199,169.7933,103.0207,227.027
			c16.5342,15.2623,38.1558,22.8936,61.0493,22.8936h495.3895c1.2719,0,2.5437,1.2719,2.5437,2.5437v169.1573
			c0,1.2719-1.2719,2.5437-2.5437,2.5437H1028.6757z"/>
		<path fill="#67C16E" d="M1031.2194,2038.7115L1353,2596.4224l321.7806-557.7108h-222.5756c-1.9078,0-3.8156-1.9077-3.8156-3.8156
			v-169.1573c0-1.9078,1.9077-3.8156,3.8156-3.8156h495.3895c22.2576,0,43.8792-7.6312,60.4133-22.2576
			c65.5009-57.2338,102.3846-139.2687,102.3846-226.3911c0-165.9778-134.817-300.7949-300.7948-300.7949
			c-3.8156,0-7.6312,0-12.0826,0.6359c-0.636,0-1.9078-0.6359-2.5437-1.2719c-0.636-0.6359-1.272-1.9077-1.272-2.5437
			c0-0.6359,0-0.6359,0-0.6359c0-165.9778-134.8171-300.795-300.7948-300.795c-52.7822,0-104.2926,13.9905-150.0796,40.6995
			c-1.2719,0.636-2.5437,0.636-3.8156,0c-45.787-26.709-97.2972-40.6995-150.7155-40.6995
			c-165.9777,0-300.1589,134.8172-300.1589,300.795c0,0,0,0,0,0.6359c0,1.9078-1.9078,3.1797-3.8156,3.8156
			c-161.5262,6.3594-288.7123,138.6328-288.7123,300.1591c0,87.1224,36.884,169.1573,102.3848,226.3911
			c16.5342,14.6263,38.1558,22.2576,60.4133,22.2576h495.3895c1.9078,0,3.8156,1.9077,3.8156,3.8156v169.1573
			c0,1.9078-1.9077,3.8156-3.8156,3.8156H1031.2194z"/>
		<path fill="#1BAD80" d="M1033.1272,2039.9834L1353,2593.8784l319.8728-553.895h-220.6677c-2.5437,0-5.0874-2.5437-5.0874-5.0874
			v-169.1573c0-2.5437,2.5437-5.0875,5.0874-5.0875h495.3895c22.2576,0,43.2433-7.6311,59.1415-22.2574
			c65.5007-56.5978,102.3848-138.6328,102.3848-225.1193c0-165.3418-134.1813-299.5231-299.5231-299.5231
			c-3.8156,0-7.6312,0-12.0826,0.6359c-1.2719,0-2.5437-0.6359-3.1797-1.9077c-1.2719-0.636-1.9078-1.9078-1.9078-3.1797
			c0-0.6359,0-0.6359,0-0.6359c0-165.3418-134.1812-299.5231-299.5229-299.5231c-52.7822,0-103.6566,13.9904-149.4436,40.0636
			c-1.9078,1.2719-3.8156,1.2719-5.0874,0c-45.787-26.0732-97.2974-40.0636-150.0796-40.0636
			c-165.3417,0-298.8871,134.1813-298.8871,299.5231c0,0,0,0,0,0.6359c0,2.5437-2.5437,4.4515-5.0874,5.0874
			c-160.8903,6.3594-287.4404,137.9968-287.4404,298.8872c0,86.4865,36.884,168.5215,102.3848,225.1193
			c15.8983,14.6263,36.8839,22.2574,59.1415,22.2574h495.3895c2.5437,0,5.0874,2.5438,5.0874,5.0875v169.1573
			c0,2.5437-2.5437,5.0874-5.0874,5.0874H1033.1272z"/>
		<path fill="#59E7E9" d="M1035.6709,2041.2554L1353,2591.3347l317.3291-550.0793h-218.124c-3.1797,0-6.3593-3.1797-6.3593-6.3594
			v-169.1573c0-3.1797,3.1796-6.3594,6.3593-6.3594h495.3895c21.6216,0,42.6073-7.6311,58.5056-21.6216
			c64.8649-56.5978,101.7487-137.9968,101.7487-224.4833c0-164.7059-133.5452-298.2512-298.2511-298.2512
			c-3.8156,0-7.6312,0-11.4468,0.636c-1.9077,0-3.8156-0.636-5.0874-1.9078s-1.9078-3.1797-1.9078-4.4515
			c0-0.6359,0-0.6359,0-0.6359c0-164.7059-133.5453-298.2512-298.2511-298.2512c-52.1464,0-103.6566,13.9905-148.8077,40.0636
			c-1.9077,1.2719-4.4514,1.2719-6.3593,0c-45.787-26.0731-96.6614-40.0636-149.4436-40.0636
			c-164.7058,0-297.6152,133.5453-297.6152,298.2512l0,0c0,3.8156-3.1796,6.3593-6.3593,6.9952
			c-159.6185,5.7233-286.1685,137.3608-286.1685,297.6152c0,86.4865,36.8839,167.8855,101.7488,224.4833
			c15.8983,13.9905,36.884,21.6216,58.5056,21.6216h495.3895c3.1797,0,6.3593,3.1797,6.3593,6.3594v169.1573
			c0,3.1797-3.1796,6.3594-6.3593,6.3594H1035.6709z"/>
		<path fill="#0DBFAD" d="M1037.5787,2042.5272L1353,2588.791l315.4213-546.2638h-216.2162c-3.8156,0-7.6311-3.8157-7.6311-7.6312
			v-169.1573c0-3.8156,3.8156-7.6312,7.6311-7.6312h495.3895c21.6216,0,41.9713-7.6311,57.8696-21.6216
			c64.2289-56.5978,101.1129-137.3608,101.1129-223.2114c0-164.0699-132.9094-296.9794-296.9794-296.9794
			c-3.8156,0-7.6312,0-11.4468,0.636c-2.5437,0-4.4515-0.636-5.7234-2.5438c-1.9077-1.2719-2.5437-3.1796-2.5437-5.0874
			c0-0.6359,0-0.6359,0-0.6359c0-164.0699-132.9093-296.9794-296.9792-296.9794c-52.1464,0-103.0208,13.9905-148.1718,40.0636
			c-2.5437,1.2719-5.0874,1.2719-7.6311,0c-45.1511-26.0731-96.0255-40.0636-148.8077-40.0636
			c-163.434,0-296.3433,132.9094-296.3433,296.9794l0,0c0,4.4514-3.1797,7.6311-7.6312,8.2671
			c-158.9825,5.7233-284.8967,137.3608-284.8967,296.3434c0,85.8506,36.8839,166.6136,101.1129,223.2114
			c15.8983,13.9905,36.248,21.6216,57.8696,21.6216h495.3895c3.8156,0,7.6311,3.8157,7.6311,7.6312v169.1573
			c0,3.8156-3.8156,7.6312-7.6311,7.6312H1037.5787z"/>
		<path fill="#2BFD65" d="M1040.1224,2043.7991L1353,2585.6113l312.8776-541.8123h-213.6725c-4.4515,0-8.903-4.4515-8.903-8.9031
			v-169.1573c0-4.4515,4.4514-8.9031,8.903-8.9031h495.3895c20.9857,0,41.3354-7.6311,56.5978-20.9857
			c64.229-56.5978,101.1128-136.7249,101.1128-222.5754c0-163.4341-132.2734-295.7075-295.7074-295.7075
			c-3.8156,0-7.6312,0-11.4468,0.636c-2.5437,0-5.0874-0.636-6.9952-2.5437c-1.9077-1.9078-2.5437-3.8157-2.5437-6.3594
			c0-0.6359,0-0.6359,0-0.6359c0-163.4341-132.2734-295.7075-295.7074-295.7075c-52.1464,0-102.3848,13.9905-147.5358,40.0636
			c-3.1797,1.2719-6.3594,1.2719-8.9031,0c-45.151-26.0731-96.0254-40.0636-148.1718-40.0636
			c-162.7981,0-295.0715,132.2734-295.0715,295.7075l0,0c0,5.0874-3.8156,8.903-8.903,9.5389
			c-158.3466,5.7234-283.6248,136.725-283.6248,295.0715c0,85.8506,36.8839,165.9777,101.1129,222.5754
			c15.2623,13.3546,35.6121,20.9857,56.5978,20.9857h495.3895c4.4515,0,8.903,4.4515,8.903,8.9031v169.1573
			c0,4.4515-4.4514,8.9031-8.903,8.9031H1040.1224z"/>
		<path fill="#ED53C4" d="M1042.0302,2045.0709L1353,2583.0676l310.9698-537.9967h-211.7648
			c-5.7234,0-10.1749-4.4515-10.1749-10.1749v-169.1573c0-5.0875,4.4515-10.1749,10.1749-10.1749h495.3895
			c20.9857,0,40.6995-7.6311,55.9618-20.9857c64.229-55.9618,100.4771-136.089,100.4771-221.3036
			c0-162.1622-131.6376-294.4357-294.4357-294.4357c-3.8156,0-7.6312,0-11.4468,0.636c-3.1796,0-5.7234-1.2719-7.6311-3.1797
			c-1.9078-1.9078-3.1797-4.4515-3.1797-6.9952c0-0.6359,0-0.6359,0-0.6359c0-162.1622-131.6375-294.4357-294.4355-294.4357
			c-51.5104,0-102.3848,13.9905-146.8999,39.4277c-3.1797,1.9077-6.9952,1.9077-10.1749,0
			c-45.151-25.4373-95.3894-39.4277-147.5358-39.4277c-162.1621,0-293.7996,132.2734-293.7996,294.4357l0,0
			c0,5.7233-4.4515,10.1748-10.1749,10.8108c-157.7107,6.3593-282.353,136.089-282.353,293.7997
			c0,85.2146,36.248,165.3418,100.4769,221.3036c15.2623,13.3546,34.9762,20.9857,55.9619,20.9857h495.3895
			c5.7234,0,10.1749,5.0874,10.1749,10.1749v169.1573c0,5.7234-4.4515,10.1749-10.1749,10.1749H1042.0302z"/>
		<path fill="#77F94B" d="M1044.574,2046.3428L1353,2580.5239l308.426-534.1812h-209.2209c-6.3593,0-11.4468-5.0874-11.4468-11.4468
			v-169.1573c0-6.3594,5.0875-11.4468,11.4468-11.4468h495.3895c20.3497,0,40.0636-6.9952,55.3259-20.3497
			c63.5929-55.9619,99.8409-136.0891,99.8409-220.6677c0-161.5262-131.0016-293.1638-293.1637-293.1638
			c-3.8156,0-7.6312,0.636-11.4468,0.636c-3.1796,0-6.3593-1.2719-8.903-3.1797c-1.9078-2.5437-3.1797-5.0874-3.1797-8.2671
			c0-0.6359,0-0.6359,0-0.6359c0-161.5262-131.0016-292.5279-293.1637-292.5279c-51.5104,0-101.7489,13.3546-146.2639,38.7918
			c-3.8157,2.5437-7.6312,2.5437-11.4468,0c-44.5151-25.4373-95.3895-38.7918-146.8999-38.7918
			c-161.5261,0-292.5278,131.0016-292.5278,292.5279l0,0c0,6.3593-5.0875,11.4467-11.4467,12.0826
			c-157.0748,6.3593-281.0811,135.4531-281.0811,292.5278c0,84.5786,36.248,164.7058,99.841,220.6677
			c15.2623,13.3545,34.9762,20.3497,55.3259,20.3497h495.3895c6.3593,0,11.4468,5.0874,11.4468,11.4468v169.1573
			c0,6.3594-5.0875,11.4468-11.4468,11.4468H1044.574z"/>
		<path fill="#9D29E7" d="M1047.1177,2047.6146L1353,2577.9802l305.8823-530.3656h-206.6772
			c-6.9952,0-12.7186-5.7234-12.7186-12.7186v-169.1573c0-6.9952,5.7234-12.7186,12.7186-12.7186h495.3895
			c20.3497,0,39.4276-6.9952,54.0541-20.3497c63.593-55.3259,99.8411-134.8173,99.8411-219.3959
			c0-160.8904-130.3657-291.256-291.892-291.256c-3.8156,0-7.6312,0-11.4468,0s-6.9952-1.2719-9.5389-3.8156
			s-3.8156-5.7234-3.8156-8.9031c0-0.6359,0-0.6359,0-0.6359c0-160.8904-130.3657-291.256-291.8918-291.256
			c-50.8745,0-101.1129,13.3545-145.6281,38.7917c-3.8156,2.5437-8.903,2.5437-12.7186,0
			c-44.515-25.4373-94.7535-38.7917-146.2639-38.7917c-160.8903,0-291.2559,130.3656-291.2559,291.256l0,0
			c0,6.9952-5.7234,12.7185-12.7186,13.3545c-155.8029,6.3593-279.8093,134.8171-279.8093,291.256
			c0,84.5786,36.248,164.0699,99.8411,219.3959c14.6263,13.3545,33.7043,20.3497,54.054,20.3497h495.3895
			c6.9952,0,12.7186,5.7234,12.7186,12.7186v169.1573c0,6.9952-5.7234,12.7186-12.7186,12.7186H1047.1177z"/>
		<path fill="#EBDF76" d="M1049.0254,2048.8865L1353,2575.4365l303.9746-526.55h-204.7695c-7.6311,0-13.9905-6.3593-13.9905-13.9905
			v-169.1573c0-7.6312,6.3594-13.9905,13.9905-13.9905h495.3895c19.7139,0,38.7917-6.9952,53.4181-19.7139
			c62.957-55.3259,99.2051-134.8171,99.2051-218.7599c0-160.2544-130.3656-289.9841-290.62-289.9841c-3.8156,0-7.6312,0-11.4468,0
			s-7.6311-1.2719-10.1748-3.8156c-3.1797-3.1797-4.4515-6.3594-4.4515-10.1749c0-0.6359,0-0.6359,0-0.6359
			c0-160.2544-130.3657-289.9841-290.62-289.9841c-50.8745,0-100.4771,13.3545-144.9921,38.7917
			c-4.4515,2.5437-9.5389,2.5437-13.9905,0c-44.5151-25.4373-94.1177-38.7917-145.6281-38.7917
			c-160.2543,0-289.9841,129.7297-289.9841,289.9841l0,0c0,8.2671-5.7233,14.6263-13.9904,14.6263
			c-155.1669,6.3593-278.5374,134.1813-278.5374,289.9841c0,83.9427,36.248,163.434,99.2051,218.7599
			c14.6263,12.7186,33.7043,19.7139,53.4181,19.7139h495.3895c7.6311,0,13.9905,6.3593,13.9905,13.9905v169.1573
			c0,7.6312-6.3594,13.9905-13.9905,13.9905H1049.0254z"/>
		<path fill="#51B5CE" d="M1051.5692,2050.1584L1353,2572.8928l301.4308-522.7344h-202.2257
			c-8.2671,0-15.2623-6.9954-15.2623-15.2625v-169.1573c0-8.2671,6.9952-15.2623,15.2623-15.2623h495.3895
			c19.7139,0,38.1558-6.9952,52.7822-19.7139c62.3212-55.3259,98.5692-133.5453,98.5692-217.488
			c0-159.6184-129.7299-288.7123-289.3483-288.7123c-3.8156,0-7.6312,0-11.4468,0c-4.4515,0-8.2671-1.2719-11.4467-4.4515
			c-3.1797-3.1796-4.4515-6.9952-4.4515-10.8108c0-0.6359,0-0.6359,0-0.6359c0-159.6185-129.7297-288.7123-289.3481-288.7123
			c-50.8745,0-100.4771,13.3545-144.3562,38.7917c-5.0874,2.5437-10.8108,2.5437-15.2623,0
			c-44.515-25.4373-94.1176-38.7917-144.9921-38.7917c-159.6184,0-288.7122,129.0938-288.7122,288.7123l0,0
			c0,8.903-6.3593,15.8982-14.6263,15.8982c-155.1669,6.3593-277.9014,133.5453-277.9014,288.7123
			c0,83.9427,36.248,162.1621,98.5692,217.488c14.6263,12.7186,33.0684,19.7139,52.7822,19.7139h495.3895
			c8.2671,0,15.2623,6.9952,15.2623,15.2623v169.1573c0,8.2671-6.9952,15.2625-15.2623,15.2625H1051.5692z"/>
		<path fill="#398B35" d="M1053.4769,2051.4302L1353,2569.7131l299.5231-518.283h-200.318c-8.903,0-16.5342-7.6311-16.5342-16.5342
			v-169.1573c0-8.9031,7.6312-16.5342,16.5342-16.5342h495.3895c19.0779,0,37.5199-6.9952,51.5104-19.7139
			c62.321-54.6899,98.5691-132.9094,98.5691-216.2162c0-158.9825-129.0938-287.4404-288.0763-287.4404c-3.8156,0-7.6312,0-11.4468,0
			c-4.4515,0.636-8.903-1.2719-12.0826-4.4515c-3.8156-3.1796-5.7234-7.6311-5.7234-12.0826c0-0.6359,0-0.6359,0-0.6359
			c0-158.9825-128.4579-287.4404-287.4403-287.4404c-50.2385,0-99.8411,13.3545-143.7202,38.1558
			c-5.0875,3.1797-11.4468,3.1797-17.1702,0c-43.2432-24.8013-92.8457-38.1558-143.7202-38.1558
			c-158.3466,0-287.4403,128.4579-287.4403,287.4404l0,0c0,9.5389-6.9952,17.17-15.8983,17.17
			c-154.531,6.3594-276.6296,132.9094-276.6296,287.4404c0,83.3068,36.248,161.5262,98.5692,216.2162
			c13.9905,12.7186,32.4324,19.7139,51.5103,19.7139h495.3895c8.903,0,16.5342,7.6311,16.5342,16.5342v169.1573
			c0,8.9031-7.6312,16.5342-16.5342,16.5342H1053.4769z"/>
		<path fill="#6D354A" d="M1056.0206,2053.3379L1353,2567.1694l296.9794-513.8315h-197.7743c-9.5389,0-17.806-8.267-17.806-18.4419
			v-169.1573c0-9.5389,8.2671-17.806,17.806-17.806h495.3895c19.0779,0,36.8839-6.9952,50.8744-19.078
			c62.321-54.6899,97.2974-132.9093,97.2974-215.5802c0-158.3466-127.822-286.1686-286.1686-286.1686c-3.8156,0-7.6312,0-11.4468,0
			c-5.0874,0.636-9.5389-1.2719-13.3545-5.0874c-3.8156-3.1797-5.7234-7.6312-5.7234-12.7186c0-0.6359,0-0.6359,0-0.6359
			c0-157.7107-127.8219-286.1686-286.1685-286.1686c-50.2385,0-99.2052,13.3545-143.0844,38.1558
			c-5.7234,3.8157-12.0826,3.8157-18.4419,0c-43.2433-24.8013-92.2098-38.1558-143.0844-38.1558
			c-157.7106,0-286.1685,128.4579-286.1685,286.1686l0,0c0,10.1748-7.6312,18.4419-17.1701,18.4419
			c-153.8951,6.3594-274.7218,132.9094-274.7218,286.1686c0,82.6709,34.9761,160.8903,97.2973,215.5802
			c13.9905,12.0828,31.7965,19.078,50.8744,19.078h495.3895c9.5389,0,17.806,8.2671,17.806,17.806v169.1573
			c0,10.1749-8.2671,18.4419-17.806,18.4419H1056.0206z"/>
		<path fill="#6BA7F4" d="M903.3975,1308.6639c0,0,0,0,0.6359,0c0,10.8108-8.903,19.7137-19.0779,20.3497
			c-152.6232,5.7234-273.45,131.6375-273.45,284.2607c0,82.6709,34.9761,160.2544,97.2973,214.3083
			c13.3546,12.0828,31.1606,19.078,49.6025,19.078h495.3895c10.8108,0,19.7139,8.2671,19.7139,19.0779v169.1573
			c0,10.8108-8.9031,19.7139-19.7139,19.7139h-195.2306L1353,2564.6257l294.4357-510.0159h-195.2306
			c-10.8108,0-19.7139-8.9031-19.7139-19.7139v-169.1573c0-10.8108,8.9031-19.0779,19.7139-19.0779h495.3895
			c18.442,0,36.248-6.9952,49.6025-19.078c62.3212-54.054,97.2972-131.6375,97.2972-214.3083
			c0-157.0747-127.1859-284.8967-284.8966-284.8967c-3.8156,0-7.6312,0-11.4468,0.636c-5.0874,0-10.1748-1.9078-13.9905-5.7234
			c-4.4514-3.8156-6.3593-8.9031-6.3593-13.9905c0-0.6359,0-0.6359,0-0.6359c0-157.0747-127.186-284.8967-284.8966-284.8967
			c-50.2385,0-98.5692,13.3545-142.4484,38.1559c-6.3594,3.8156-13.3545,3.8156-19.7139,0
			c-43.2433-24.8014-92.2098-38.1559-142.4484-38.1559C1031.2194,1023.7672,904.0334,1151.5892,903.3975,1308.6639z"/>
		<path fill="#7F65E7" d="M905.3052,1308.6639L905.3052,1308.6639c0,11.4467-8.903,20.9856-20.3497,21.6216
			c-151.9873,5.7234-272.1781,131.0016-272.1781,282.9889c0,82.0349,34.9762,159.6184,96.6614,213.0365
			c13.3546,12.0828,30.5247,18.442,48.9666,18.442h495.3895c11.4468,0,20.9857,9.5389,20.9857,20.9857v169.1573
			c0,11.4468-9.5389,20.9856-20.9857,20.9856h-192.6868L1353,2561.446l291.8918-505.5645h-192.6868
			c-11.4468,0-20.9857-9.5388-20.9857-20.9856v-169.1573c0-11.4468,9.5389-20.9857,20.9857-20.9857h495.3895
			c18.442,0,35.6121-6.3593,48.9666-18.442c61.6852-53.4181,96.6615-131.0016,96.6615-213.0365
			c0-156.4388-126.5502-283.6249-283.6249-283.6249c-3.8156,0-7.6312,0-11.4468,0.636c-5.7234,0-10.8108-1.9078-15.2623-6.3593
			c-4.4514-3.8157-6.3593-8.9031-6.3593-14.6265c0-0.6359,0-0.6359,0-0.6359c0-156.4388-127.186-283.6249-283.6248-283.6249
			c-49.6025,0-98.5692,13.3546-141.8125,38.1559c-6.3593,3.8156-13.9904,3.8156-20.9856,0
			c-43.2433-24.8013-91.574-38.1559-141.8125-38.1559C1031.8553,1025.0391,905.3052,1152.2251,905.3052,1308.6639z"/>
		<path fill="#73E555" d="M906.5771,1308.6639L906.5771,1308.6639c0,12.0826-9.5389,22.2574-21.6216,22.8934
			c-151.3514,5.7234-270.9063,130.3657-270.9063,281.717c0,81.399,34.9762,158.3466,96.6614,212.4006
			c12.7186,11.4467,29.8887,17.806,47.6948,17.806h495.3895c12.0826,0,22.2576,10.1749,22.2576,22.2576v169.1573
			c0,12.0826-10.1749,22.2576-22.2576,22.2576h-190.7791L1353,2558.9023l289.9841-501.7488h-190.7791
			c-12.0826,0-22.2576-10.1749-22.2576-22.2576v-169.1573c0-12.0826,10.1749-22.2576,22.2576-22.2576h495.3895
			c17.806,0,34.9762-6.3594,47.6947-17.806c61.6853-54.0541,96.6614-131.0016,96.6614-212.4006
			c0-155.8029-126.55-282.353-282.3529-282.353c-3.8156,0-7.6312,0.636-10.8108,0.636c-6.3594,0-12.0826-1.9078-16.5342-6.3593
			c-4.4515-4.4515-6.9952-9.5389-6.9952-15.8983c0-0.6359,0-0.6359,0-0.6359c0-155.8029-126.55-281.717-282.3529-281.717
			c-49.6025,0-97.9332,12.7186-140.5406,37.5199c-7.6311,3.8156-15.8982,3.8156-22.8934,0
			c-42.6073-24.8013-91.574-37.5199-141.1765-37.5199C1032.4912,1026.9469,906.5771,1152.8611,906.5771,1308.6639z"/>
		<path fill="#597FBF" d="M907.8489,1308.6639L907.8489,1308.6639c0,13.3545-10.1749,23.5294-22.8934,24.1653
			c-150.7155,5.7234-269.6343,129.7297-269.6343,280.4452c0,81.399,34.9761,157.7106,96.0254,211.1288
			c12.7186,11.4467,29.8887,17.806,47.0588,17.806h495.3895c12.7186,0,23.5294,10.8108,23.5294,23.5294v169.1573
			c0,12.7186-10.8108,23.5295-23.5294,23.5295h-188.2354L1353,2556.3586l287.4404-497.9331h-188.2354
			c-12.7186,0-23.5294-10.8109-23.5294-23.5295v-169.1573c0-12.7186,10.8108-23.5294,23.5294-23.5294h495.3895
			c17.17,0,34.3402-6.3594,47.0588-17.806c61.0492-53.4182,96.0255-129.7297,96.0255-211.1288
			c0-155.167-125.9143-280.4452-281.0812-280.4452c-3.8156,0-6.9952,0-10.8108,0c-6.9952,0-12.7186-1.9078-17.806-6.3593
			c-4.4515-5.0875-6.9952-10.8108-6.9952-17.1702c0-0.6359,0-0.6359,0-0.6359c0-155.167-125.9142-280.4452-281.0811-280.4452
			c-48.9667,0-97.2974,12.7186-139.9047,37.5199c-7.6311,4.4515-16.5342,4.4515-24.1653,0
			c-42.6074-24.8013-90.9381-37.5199-140.5406-37.5199C1033.7631,1028.2188,907.8489,1153.4969,907.8489,1308.6639z"/>
		<path fill="#F9E9C3" d="M909.1208,1308.6639L909.1208,1308.6639c0,13.9904-10.1749,24.8013-24.1653,25.4371
			c-149.4436,6.3594-268.3625,129.0939-268.3625,279.1733c0,80.7631,34.9761,157.0747,95.3895,210.4928
			c12.7186,10.8108,29.2528,17.1702,46.4229,17.1702h495.3895c13.3545,0,24.8013,11.4467,24.8013,24.8013v169.1573
			c0,13.9905-11.4468,24.8013-24.8013,24.8013h-185.6915L1353,2553.179l284.8966-493.4817h-185.6915
			c-13.3545,0-24.8013-10.8108-24.8013-24.8013v-169.1573c0-13.3546,11.4468-24.8013,24.8013-24.8013h495.3895
			c17.17,0,33.7042-6.3594,46.4229-17.1702c60.4135-53.4181,95.3895-129.7297,95.3895-210.4928
			c0-154.531-125.2782-279.1733-279.8092-279.1733c-3.8156,0-6.9952,0-10.8108,0c-6.9952,0.636-13.3546-1.9077-18.442-6.9952
			c-5.0874-5.0874-8.2671-10.8108-8.2671-17.806c0-0.6359,0-0.6359,0-0.6359c0-153.8951-124.6422-279.1733-279.1732-279.1733
			c-48.9667,0-96.6614,12.7186-139.2687,37.5199c-8.2671,4.4515-17.1702,4.4515-25.4373,0
			c-42.6073-24.8013-90.3021-37.5199-139.9047-37.5199C1034.399,1029.4906,909.1208,1154.1329,909.1208,1308.6639z"/>
		<path fill="#5F7DE7" d="M910.3927,1308.6639L910.3927,1308.6639c0.6359,14.6263-10.8109,26.709-25.4372,26.709
			c-148.8077,6.3594-266.4547,129.0939-266.4547,277.9015c0,80.7631,34.3402,156.4387,94.7536,209.2209
			c12.0826,10.8108,28.6168,17.1702,45.151,17.1702h495.3895c14.6263,0,26.0731,11.4467,26.0731,26.0731v169.1573
			c0,14.6265-11.4468,26.709-26.0731,26.709h-183.1478L1353,2550.6353l282.3529-489.0303h-183.1478
			c-14.6263,0-26.0731-12.0825-26.0731-26.709v-169.1573c0-14.6265,11.4468-26.0731,26.0731-26.0731h495.3895
			c16.5342,0,33.0684-6.3594,45.151-17.1702c60.4133-52.7822,94.7537-128.4579,94.7537-209.2209
			c0-153.2592-124.0065-277.9015-277.9015-277.9015c-3.8156,0-6.9952,0-10.8108,0c-7.6312,0.636-13.9905-1.9077-19.7139-6.9952
			c-5.0874-5.0874-8.2671-12.0826-8.2671-19.0779c0-0.6359,0-0.6359,0-0.6359c0-153.2592-124.0063-277.9015-277.9014-277.9015
			c-48.9667,0-96.6614,12.7186-138.6328,37.5199c-8.903,4.4515-18.442,4.4515-26.7091,0
			c-42.6073-24.8013-90.302-37.5199-139.2687-37.5199C1035.035,1030.7625,911.0286,1155.4048,910.3927,1308.6639z"/>
		<path fill="#77B70D" d="M912.3005,1308.6639L912.3005,1308.6639c0,15.2623-12.0826,27.9808-27.345,28.6168
			c-148.1717,5.7234-265.1829,127.8219-265.1829,275.9937c0,80.1272,34.3402,155.1669,94.1177,207.9491
			c12.7186,10.8108,27.9809,16.5342,44.5151,16.5342h495.3895c15.2623,0,27.981,12.7186,27.981,27.981v169.1573
			c0,15.2625-12.7186,27.981-27.981,27.981h-180.6041L1353,2547.4556l279.8092-484.5786h-180.6041
			c-15.2623,0-27.981-12.7185-27.981-27.981v-169.1573c0-15.2623,12.7186-27.981,27.981-27.981h495.3895
			c16.5342,0,31.7965-5.7234,44.5151-16.5342c59.7775-52.7822,94.1176-127.8219,94.1176-207.9491
			c0-152.6233-124.0063-276.6296-276.6295-276.6296c-3.1797,0-6.9952,0-10.8108,0.636c-8.2671,0-14.6265-2.5437-20.3497-8.2671
			c-5.7234-5.0874-8.9031-12.0826-8.9031-19.7139c0-0.6359,0-0.6359,0-0.6359c0-152.6233-124.0063-276.6296-276.6295-276.6296
			c-48.3307,0-96.0255,12.7186-137.9968,37.5199c-8.9031,5.0874-19.078,5.0874-27.981,0
			c-41.9714-24.8013-89.6661-37.5199-138.6328-37.5199C1035.6709,1032.0343,912.3005,1156.0406,912.3005,1308.6639z"/>
		<path fill="#D1F731" d="M913.5723,1308.6639L913.5723,1308.6639c0,15.8982-12.7186,29.2527-28.6168,29.8887
			c-146.8998,5.7234-263.911,127.186-263.911,274.7218c0,79.4912,34.3403,154.531,94.1177,207.3131
			c12.0826,10.1749,27.345,15.8983,43.2432,15.8983h495.3895c15.8982,0,29.2528,13.3545,29.2528,29.2528v169.1573
			c0,15.8982-13.3546,29.2527-29.2528,29.2527h-178.0604L1353,2544.9119l277.2655-480.7632h-178.0604
			c-15.8982,0-29.2528-13.3545-29.2528-29.2527v-169.1573c0-15.8983,13.3546-29.2528,29.2528-29.2528h495.3895
			c15.8982,0,31.1605-5.7234,43.2433-15.8983c59.7773-52.7821,94.1177-127.8219,94.1177-207.3131
			c0-151.9873-123.3705-274.7218-275.3578-274.7218c-3.1797,0-6.9952,0-10.8108,0c-8.2671,0-15.8983-2.5437-21.6217-8.2671
			c-5.7233-5.7234-8.903-12.7186-8.903-20.9857c0-0.6359,0-0.6359,0-0.6359c0-151.9873-123.3705-274.7218-275.3577-274.7218
			c-48.3307,0-95.3895,12.0826-137.361,36.8839c-9.5389,5.0874-20.3497,5.0874-29.2528,0
			c-41.9713-24.8013-89.0302-36.8839-137.9968-36.8839C1036.9427,1033.9421,913.5723,1156.6766,913.5723,1308.6639z"/>
		<path fill="#97D565" d="M914.8442,1308.6639L914.8442,1308.6639c0,16.5342-12.7186,30.5247-29.8887,31.1605
			c-146.2639,5.7234-262.6392,126.55-262.6392,273.45c0,79.4912,34.3403,153.895,93.4818,206.0413
			c12.0826,10.1749,26.709,15.8983,42.6073,15.8983h495.3895c16.5342,0,30.5247,13.9905,30.5247,30.5247v169.1573
			c0,16.5342-13.9905,30.5247-30.5247,30.5247h-176.1526L1353,2541.7322l275.3577-476.3115h-176.1526
			c-16.5342,0-30.5247-13.9905-30.5247-30.5247v-169.1573c0-16.5342,13.9905-30.5247,30.5247-30.5247h495.3895
			c15.8982,0,30.5247-5.7234,42.6073-15.8983c59.1416-52.1462,93.4817-126.55,93.4817-206.0413
			c0-151.3513-122.7345-273.45-274.0858-273.45c-3.1797,0-6.9952,0-10.8108,0c-8.9031,0.636-16.5342-2.5437-22.8936-8.2671
			c-5.7233-6.3593-8.903-13.9905-8.903-22.2576c0-0.6359,0-0.6359,0-0.6359c-0.636-151.3514-122.7345-273.45-274.0858-273.45
			c-47.6948,0-94.7537,12.7186-136.725,36.248c-9.5389,5.7233-20.9857,5.7233-30.5247,0
			c-41.9714-23.5294-89.0303-36.248-137.361-36.248C1037.5787,1035.214,914.8442,1157.3125,914.8442,1308.6639z"/>
		<path fill="#254D2C" d="M916.116,1308.6639L916.116,1308.6639c0.636,17.806-13.3545,31.7965-30.5246,32.4324
			c-146.2639,5.7234-261.3672,125.9142-261.3672,272.1781c0,78.8553,33.7043,153.2592,92.8458,204.7694
			c11.4468,10.1749,26.0731,15.8983,41.3354,15.8983h495.3895c17.806,0,31.7965,13.9905,31.7965,31.7965v169.1573
			c0,17.8062-13.9905,32.4324-31.7965,32.4324H1080.186L1353,2539.1885l272.814-471.8601h-173.6089
			c-17.806,0-31.7965-14.6262-31.7965-32.4324v-169.1573c0-17.806,13.9905-31.7965,31.7965-31.7965h495.3895
			c15.2623,0,29.8887-5.7234,41.3354-15.8983c59.1415-51.5103,92.8458-125.9141,92.8458-204.7694
			c0-150.0795-121.4626-272.1781-272.1781-272.1781c-3.1797,0-6.9952,0-10.8108,0c-8.9031,0.636-17.1702-2.5437-23.5294-8.903
			c-6.3594-6.3594-10.1749-13.9905-10.1749-22.8936c0-0.6359,0-0.6359,0-0.6359c0-150.0796-121.4626-272.1781-272.178-272.1781
			c-47.6948,0-94.1177,12.7186-136.0891,36.248c-10.1748,6.3593-21.6216,6.3593-32.4324,0
			c-41.3354-23.5294-87.7584-36.248-136.0891-36.248C1038.2146,1036.4858,916.752,1158.5844,916.116,1308.6639z"/>
		<path fill="#CFD30C" d="M918.0239,1308.6639L918.0239,1308.6639c0,18.4419-14.6264,33.7042-32.4324,34.3402
			c-145.628,5.7234-260.0954,125.2782-260.0954,270.2703c0,78.2194,33.7043,151.9873,92.2098,203.4976
			c11.4468,10.1749,25.4372,15.2623,40.6995,15.2623h495.3895c18.442,0,33.7042,15.2623,33.7042,33.7043v169.1573
			c0,18.4419-15.2622,33.7043-33.7042,33.7043h-171.0652L1353,2536.0088l270.2703-467.4084h-171.0652
			c-18.442,0-33.7042-15.2625-33.7042-33.7043v-169.1573c0-18.442,15.2622-33.7043,33.7042-33.7043h495.3895
			c15.2623,0,29.2528-5.0874,40.6995-15.2623c58.5056-51.5103,92.2098-125.2782,92.2098-203.4976
			c0-149.4436-121.4625-270.9063-270.9061-270.9063c-3.1797,0-6.9952,0-10.8108,0.636c-9.5389,0-17.806-3.1797-24.8013-9.5389
			c-6.9952-6.9952-10.1749-14.6265-10.1749-24.1654c0-0.6359,0-0.6359,0-0.6359c0-149.4436-121.4626-270.9063-270.9061-270.9063
			c-47.6948,0-94.1177,12.7186-135.4531,36.248c-10.1749,6.3593-22.8936,6.3593-33.7043,0
			c-41.3354-23.5294-87.7583-36.248-135.4531-36.248C1038.8506,1037.7577,918.0239,1159.2203,918.0239,1308.6639z"/>
		<path fill="#AFD357" d="M919.2957,1308.6639L919.2957,1308.6639c0,19.0779-14.6264,34.9761-33.7043,35.6121
			c-144.3561,5.7234-258.8235,124.6422-258.8235,268.9984c0,78.2194,33.7043,151.3513,92.2098,202.8617
			c10.8109,9.5389,24.8013,14.6263,39.4277,14.6263h495.3895c19.0779,0,34.9762,15.8983,34.9762,34.9762v169.1573
			c0,19.0779-15.8983,34.9761-34.9762,34.9761h-168.5215L1353,2533.4651l267.7266-463.593h-168.5215
			c-19.0779,0-34.9762-15.8982-34.9762-34.9761v-169.1573c0-19.0779,15.8983-34.9762,34.9762-34.9762h495.3895
			c14.6263,0,28.6168-5.0874,39.4276-14.6263c58.5056-51.5104,92.21-124.6423,92.21-202.8617
			c0-148.8076-120.8268-268.9984-269.6344-268.9984c-3.1797,0-6.9952,0-10.8108,0c-9.5389,0.6359-18.442-3.1797-25.4373-9.5389
			c-7.6311-6.9952-10.8108-15.8983-10.8108-25.4373c0-0.6359,0-0.6359,0-0.6359c0-148.8076-120.8267-268.9984-269.6343-268.9984
			c-47.0588,0-93.4818,12.0826-134.1813,35.6121c-11.4468,6.9952-24.1654,6.9952-35.6121,0
			c-40.6996-23.5294-87.1224-35.6121-134.8173-35.6121C1040.1224,1039.6655,919.2957,1159.8563,919.2957,1308.6639z"/>
		<path fill="#A9ED83" d="M920.5676,1308.6639L920.5676,1308.6639c0.6359,19.7137-15.2623,36.2479-34.9761,36.8839
			c-143.7202,5.7234-256.9158,124.0063-256.9158,267.7266c0,77.5835,33.0684,150.7155,90.938,201.5898
			c10.8109,9.5389,24.1653,14.6263,38.7917,14.6263h495.3895c19.7139,0,36.248,16.5342,36.248,36.248v169.1573
			c0,20.3499-16.5342,36.248-36.248,36.248h-165.9778L1353,2530.2854l265.1829-459.1414h-165.9778
			c-19.7139,0-36.248-15.8982-36.248-36.248v-169.1573c0-19.7139,16.5342-36.248,36.248-36.248h495.3895
			c14.6263,0,27.981-5.0874,38.7917-14.6263c57.8696-50.8744,90.9379-124.0063,90.9379-201.5898
			c0-148.1718-119.5547-267.7266-267.7264-267.7266c-3.1797,0-6.9952,0-10.8108,0c-10.1749,0.6359-19.0779-2.5437-26.7091-10.1749
			c-7.6311-6.9952-11.4468-15.8982-11.4468-26.0731c0-0.6359,0-0.6359,0-0.6359c0-148.1718-119.5548-267.7266-267.7264-267.7266
			c-47.0588,0-92.8458,12.0826-133.5454,35.6121c-12.0826,6.9952-25.4371,6.9952-36.8839,0
			c-40.6995-23.5294-86.4865-35.6121-134.1813-35.6121C1040.7583,1040.9374,920.5676,1160.4922,920.5676,1308.6639z"/>
		<path fill="#B9CDAE" d="M922.4753,1308.6639L922.4753,1308.6639c0,20.9856-16.5342,37.5198-36.8839,38.7917
			c-143.0843,5.0874-255.6439,122.7345-255.6439,265.8187c0,76.9475,33.0684,149.4435,90.938,200.318
			c10.1749,8.903,23.5294,13.9904,37.5198,13.9904h495.3895c20.9857,0,38.1558,17.1702,38.1558,38.1559v169.1573
			c0,20.9856-17.17,38.1558-38.1558,38.1558h-163.4341L1353,2527.106l262.6392-454.0542h-163.4341
			c-20.9857,0-38.1558-17.1702-38.1558-38.1558v-169.1573c0-20.9857,17.17-38.1559,38.1558-38.1559h495.3895
			c13.9905,0,27.345-5.0874,37.5199-13.9904c57.8696-50.8745,90.938-123.3705,90.938-200.318
			c0-146.8999-118.9189-266.4547-266.4547-266.4547c-3.1797,0-6.9952,0-10.1749,0.636c-10.8108,0-20.3497-3.1797-28.6168-10.8109
			c-7.6311-7.6311-11.4468-16.5342-11.4468-27.345c0-0.6359,0-0.6359,0-0.6359c0-146.8999-119.5548-266.4547-266.4546-266.4547
			c-46.423,0-92.21,12.0826-132.9094,35.6121c-12.0826,6.9952-26.0731,6.9952-38.1558,0
			c-40.6996-23.5294-86.4866-35.6121-133.5454-35.6121C1041.3943,1042.2092,922.4753,1161.764,922.4753,1308.6639z"/>
		<path fill="#6B5324" d="M923.7472,1308.6639L923.7472,1308.6639c0,21.6216-16.5342,39.4276-38.1558,40.0636
			c-141.8124,5.7233-254.372,122.7345-254.372,264.5469c0,76.9475,33.0684,148.8076,90.3021,199.046
			c10.1749,8.9031,23.5294,13.9905,36.8839,13.9905h495.3895c21.6216,0,39.4276,17.806,39.4276,39.4277v169.1573
			c0,21.6216-17.806,39.4277-39.4276,39.4277h-160.8903L1353,2524.5623l260.0953-450.2385h-160.8903
			c-21.6216,0-39.4276-17.8062-39.4276-39.4277v-169.1573c0-21.6217,17.806-39.4277,39.4276-39.4277h495.3895
			c13.3545,0,26.7091-5.0874,36.8839-13.9905c57.2338-50.2384,90.302-122.0985,90.302-199.046
			c0-146.2639-118.9188-264.5469-265.1827-264.5469c-3.1797,0-6.9952,0-10.1749,0c-11.4467,0.6359-20.9856-3.1797-29.2527-10.8109
			c-8.2671-8.2671-12.0828-17.806-12.0828-28.6168c0-0.6359,0-0.6359,0-0.6359c0-146.2639-118.9188-264.547-265.1827-264.547
			c-46.423,0-91.574,12.0828-132.2736,34.9762c-12.7185,7.6312-27.345,7.6312-39.4276,0
			c-40.6995-22.8934-85.8506-34.9762-132.9094-34.9762C1042.6661,1044.1169,923.7472,1162.4,923.7472,1308.6639z"/>
		<path fill="#513955" d="M925.0191,1308.6639L925.0191,1308.6639c0.6359,22.2574-17.1702,40.6995-39.4277,41.3354
			c-141.1765,5.7234-252.4642,122.0985-252.4642,263.275c0,76.3115,32.4324,148.1716,89.6661,198.4102
			c9.5389,8.2671,22.2576,13.3545,35.6121,13.3545h495.3895c22.2576,0,40.6995,18.442,40.6995,40.6996v169.1573
			c0,22.2576-18.4419,41.3354-40.6995,41.3354h-157.7107L1353,2521.3826l256.9158-445.1511h-157.7107
			c-22.2576,0-40.6995-19.0779-40.6995-41.3354v-169.1573c0-22.2576,18.4419-40.6996,40.6995-40.6996h495.3895
			c13.3545,0,26.0731-5.0874,35.6121-13.3545c57.2338-50.2385,89.6661-122.0986,89.6661-198.4102
			c0-145.6281-117.6471-263.275-263.275-263.275c-3.1797,0-6.9952,0-10.1749,0c-12.0826,0.6359-22.2576-3.1797-30.5247-11.4468
			c-8.2671-7.6312-12.7185-17.806-12.7185-29.2528c0-0.6359,0-0.6359,0-0.6359c0-145.6281-117.6471-263.275-263.275-263.275
			c-46.423,0-91.574,12.0826-131.6376,34.9761c-12.7186,7.6312-27.981,7.6312-41.3354,0
			c-40.0636-22.8934-85.2146-34.9761-131.6376-34.9761C1043.3021,1045.3889,925.655,1163.0359,925.0191,1308.6639z"/>
		<radialGradient id="SVGID_1_" cx="1356" cy="1594" r="844.0853" gradientUnits="userSpaceOnUse">
			<stop  offset="0" style="stop-color:#FFFFFF"/>
			<stop  offset="0.089" style="stop-color:#F2FBFD"/>
			<stop  offset="0.2525" style="stop-color:#D1EFF9"/>
			<stop  offset="0.4725" style="stop-color:#9ADDF2"/>
			<stop  offset="0.737" style="stop-color:#50C3E8"/>
			<stop  offset="1" style="stop-color:#00A8DE"/>
		</radialGradient>
		<path fill="url(#SVGID_1_)" d="M926.9269,1308.6639L926.9269,1308.6639c0,22.8934-18.442,41.9713-41.3354,43.2432
			c-140.5405,5.0875-251.1924,120.8268-251.1924,261.3673c0,75.6757,32.4324,146.8998,89.6661,197.1383
			c9.5389,8.2671,21.6216,12.7186,34.3402,12.7186h495.3895c23.5294,0,42.6073,19.0779,42.6073,42.6073v169.1573
			c0,23.5295-19.0779,42.6074-42.6073,42.6074h-155.167L1353,2518.2029l254.3721-440.6995h-155.167
			c-23.5294,0-42.6073-19.0779-42.6073-42.6074v-169.1573c0-23.5294,19.0779-42.6073,42.6073-42.6073h495.3895
			c12.7186,0,24.8013-4.4515,34.3402-12.7186c57.2338-50.2385,89.6663-121.4626,89.6663-197.1383
			c0-144.3562-117.0112-262.0032-262.0033-262.0032c-3.1797,0-6.9952,0-10.1749,0.6359c-12.0826,0-22.8934-3.8156-31.1605-12.0826
			c-8.9031-8.2671-13.3545-18.442-13.3545-30.5247c0-0.6359,0-0.6359,0-0.6359c0-144.3562-117.0112-262.0032-262.0032-262.0032
			c-45.787,0-90.9381,12.0826-131.0016,35.6121c-13.3546,7.6311-28.6169,7.6311-42.6074,0
			c-40.0636-23.5294-84.5786-35.6121-131.0016-35.6121C1043.938,1046.6608,926.9269,1164.3077,926.9269,1308.6639z"/>
	</g>
</g>
</svg>
