<svg width="438" height="384" viewBox="0 0 438 384" fill="none" xmlns="http://www.w3.org/2000/svg">
<g clip-path="url(#clip0)" filter="url(#filter0_i)">
<path d="M148.605 11.6065C144.348 13.4402 142.589 17.9515 144.681 21.6835L147.998 27.6055C113.18 44.0807 83.8588 68.2202 62.8494 97.798C40.5105 129.276 28.7042 165.596 28.7042 202.835C28.7042 240.073 40.5114 276.393 62.8511 307.873C83.8597 337.449 113.181 361.587 147.998 378.062L144.681 383.984C142.592 387.716 144.346 392.229 148.605 394.061C152.863 395.894 158.008 394.354 160.099 390.621L219.507 284.549C219.507 284.549 219.508 284.549 219.508 284.548C219.508 284.547 219.508 284.547 219.509 284.546L255.387 220.484C260.596 225.118 267.83 227.997 275.818 227.997C288.653 227.997 299.547 220.571 303.206 210.363L317.978 210.363L317.978 216.071C317.978 220.229 321.823 223.6 326.566 223.6L400.707 223.6C405.451 223.6 409.295 220.229 409.295 216.071L409.295 189.605C409.295 185.447 405.45 182.075 400.707 182.075L326.566 182.075C321.822 182.075 317.978 185.447 317.978 189.605L317.978 195.305L303.206 195.305C299.546 185.096 288.654 177.671 275.818 177.671C267.83 177.671 260.595 180.55 255.387 185.183L219.511 121.125C219.51 121.124 219.509 121.121 219.508 121.12C219.507 121.118 219.505 121.116 219.505 121.114L160.099 15.0467C158.007 11.314 152.863 9.77421 148.605 11.6065ZM46.0608 195.305C47.4159 166.045 56.6584 137.6 73.0543 112.229L159.576 159.347C152.994 170.519 149.025 182.732 147.891 195.305L46.0608 195.305ZM46.0608 210.364L147.89 210.364C149.025 222.936 152.994 235.148 159.575 246.323L73.0543 293.44C56.6584 268.067 47.4167 239.624 46.0608 210.364ZM155.575 364.533C126.15 350.504 101.002 330.54 82.1282 306.226L168.646 259.109C177.238 269.318 188.047 277.901 200.468 284.378L155.575 364.533ZM208.067 270.809C198.499 265.646 190.107 258.982 183.292 251.134L234.797 223.085L208.067 270.809ZM174.218 238.347C169.254 229.601 166.176 220.122 165.128 210.364L225.603 210.364L174.218 238.347ZM392.119 197.134L392.119 208.541L335.154 208.541L335.154 197.134L392.119 197.134ZM287.344 202.835C287.344 208.406 282.174 212.939 275.818 212.939C269.471 212.939 264.307 208.417 264.294 202.856C264.294 202.851 264.295 202.846 264.295 202.841C264.295 202.84 264.295 202.838 264.295 202.836C264.295 202.835 264.295 202.832 264.295 202.831C264.295 202.826 264.294 202.821 264.294 202.817C264.307 197.255 269.472 192.733 275.818 192.733C282.174 192.73 287.344 197.263 287.344 202.835ZM225.603 195.305L165.128 195.305C166.177 185.546 169.256 176.068 174.218 167.321L225.603 195.305ZM234.796 182.585L183.291 154.535C190.107 146.687 198.498 140.022 208.066 134.859L234.796 182.585ZM200.468 121.291C188.048 127.768 177.24 136.35 168.647 146.56L82.1291 99.4427C101.003 75.1277 126.152 55.1642 155.575 41.1355L200.468 121.291Z" fill="#0E1315"/>
<path d="M371.539 122.935C360.487 122.935 360.468 137.993 371.539 137.993C382.59 137.994 382.608 122.935 371.539 122.935Z" fill="#5E1036"/>
<path d="M354.378 138.524C352.084 134.884 346.857 133.566 342.707 135.576L317.493 147.795C313.343 149.805 311.837 154.387 314.132 158.026C315.699 160.511 318.632 161.915 321.656 161.915C323.062 161.915 324.487 161.612 325.804 160.974L351.017 148.756C355.167 146.745 356.672 142.163 354.378 138.524Z" fill="#5E1036"/>
</g>
<defs>
<filter id="filter0_i" x="0" y="0" width="440" height="388" filterUnits="userSpaceOnUse" color-interpolation-filters="sRGB">
<feFlood flood-opacity="0" result="BackgroundImageFix"/>
<feBlend mode="normal" in="SourceGraphic" in2="BackgroundImageFix" result="shape"/>
<feColorMatrix in="SourceAlpha" type="matrix" values="0 0 0 0 0 0 0 0 0 0 0 0 0 0 0 0 0 0 127 0" result="hardAlpha"/>
<feOffset dx="2" dy="11"/>
<feGaussianBlur stdDeviation="2"/>
<feComposite in2="hardAlpha" operator="arithmetic" k2="-1" k3="1"/>
<feColorMatrix type="matrix" values="0 0 0 0 0 0 0 0 0 0 0 0 0 0 0 0 0 0 0.38 0"/>
<feBlend mode="normal" in2="shape" result="effect1_innerShadow"/>
</filter>
<clipPath id="clip0">
<rect width="438" height="384" fill="white"/>
</clipPath>
</defs>
</svg>
