<svg width="20" height="19" viewBox="0 0 20 19" fill="none" xmlns="http://www.w3.org/2000/svg">
<path d="M19 13.1837H18V10.0816C17.9997 9.77322 17.8943 9.47754 17.7068 9.25946C17.5193 9.04138 17.2651 8.91871 17 8.91837H10.6667V5.81633H12C12.2651 5.81597 12.5193 5.69329 12.7068 5.47522C12.8942 5.25714 12.9997 4.96147 13 4.65306V1.16327C12.9997 0.854858 12.8942 0.559186 12.7068 0.341109C12.5193 0.123032 12.2651 0.00035918 12 0H8C7.73488 0.00035918 7.4807 0.123032 7.29323 0.341109C7.10577 0.559186 7.00031 0.854858 7 1.16327V4.65306C7.00031 4.96147 7.10577 5.25714 7.29323 5.47522C7.4807 5.69329 7.73488 5.81597 8 5.81633H9.33333V8.91837H3C2.73487 8.91871 2.48069 9.04138 2.29322 9.25946C2.10575 9.47754 2.0003 9.77322 2 10.0816V13.1837H1C0.734878 13.184 0.480704 13.3067 0.293234 13.5248C0.105765 13.7429 0.000308769 14.0385 0 14.3469V17.8367C0.000308769 18.1451 0.105765 18.4408 0.293234 18.6589C0.480704 18.877 0.734878 18.9996 1 19H4.33333C4.59846 18.9996 4.85263 18.877 5.0401 18.6589C5.22757 18.4408 5.33302 18.1451 5.33333 17.8367V14.3469C5.33302 14.0385 5.22757 13.7429 5.0401 13.5248C4.85263 13.3067 4.59846 13.184 4.33333 13.1837H3.33333V10.4694H9.33333V13.1837H8.33333C8.06821 13.184 7.81404 13.3067 7.62657 13.5248C7.4391 13.7429 7.33364 14.0385 7.33333 14.3469V17.8367C7.33364 18.1451 7.4391 18.4408 7.62657 18.6589C7.81404 18.877 8.06821 18.9996 8.33333 19H11.6667C11.9318 18.9996 12.186 18.877 12.3734 18.6589C12.5609 18.4408 12.6664 18.1451 12.6667 17.8367V14.3469C12.6664 14.0385 12.5609 13.7429 12.3734 13.5248C12.186 13.3067 11.9318 13.184 11.6667 13.1837H10.6667V10.4694H16.6667V13.1837H15.6667C15.4015 13.184 15.1474 13.3067 14.9599 13.5248C14.7724 13.7429 14.667 14.0385 14.6667 14.3469V17.8367C14.667 18.1451 14.7724 18.4408 14.9599 18.6589C15.1474 18.877 15.4015 18.9996 15.6667 19H19C19.2651 18.9996 19.5193 18.877 19.7068 18.6589C19.8942 18.4408 19.9997 18.1451 20 17.8367V14.3469C19.9997 14.0385 19.8942 13.7429 19.7068 13.5248C19.5193 13.3067 19.2651 13.184 19 13.1837ZM8.33333 1.55102H11.6667V4.26531H8.33333V1.55102ZM4 14.7347V17.449H1.33333V14.7347H4ZM11.3333 14.7347V17.449H8.66667V14.7347H11.3333ZM18.6667 17.449H16V14.7347H18.6667V17.449Z" fill="#DB0F71"/>
</svg>
