<svg width="2140" height="55" viewBox="0 0 2140 55" fill="none" xmlns="http://www.w3.org/2000/svg">
<g clip-path="url(#clip0)">
<path d="M206.15 33.7996H233.77V23.7996H216.15V10.1396H245.21V44.3696H154.44V10.1396H183.5V23.7996H165.88V33.7996H193.5V0.139648H144.44V24.5696H131.78V0.139648H82.7198V33.7996H110.34V23.7996H92.7198V10.1396H121.78V44.3696H31.0098V10.1396H60.0698V23.7996H42.4498V33.7996H70.0698V0.139648H21.0098V54.3696H131.78V34.5696H144.44V54.3696H255.21V0.139648H206.15V33.7996Z" fill="#410824"/>
<path d="M10 0H0V54.52H10V0Z" fill="#410824"/>
<path d="M275.37 0H265.37V54.52H275.37V0Z" fill="#410824"/>
<path d="M471.53 33.7996H499.14V23.7996H481.53V10.1396H510.59V44.3696H419.81V10.1396H448.87V23.7996H431.25V33.7996H458.87V0.139648H409.81V24.5696H397.16V0.139648H348.1V33.7996H375.71V23.7996H358.1V10.1396H387.16V44.3696H296.38V10.1396H325.44V23.7996H307.82V33.7996H335.44V0.139648H286.38V54.3696H397.16V34.5696H409.81V54.3696H520.59V0.139648H471.53V33.7996Z" fill="#410824"/>
<path d="M541.78 0H531.78V54.52H541.78V0Z" fill="#410824"/>
<path d="M737.93 33.7996H765.55V23.7996H747.93V10.1396H776.99V44.3696H686.21V10.1396H715.28V23.7996H697.66V33.7996H725.28V0.139648H676.21V24.5696H663.56V0.139648H614.5V33.7996H642.12V23.7996H624.5V10.1396H653.56V44.3696H562.78V10.1396H591.85V23.7996H574.23V33.7996H601.85V0.139648H552.78V54.3696H663.56V34.5696H676.21V54.3696H786.99V0.139648H737.93V33.7996Z" fill="#410824"/>
<path d="M808.18 0H798.18V54.52H808.18V0Z" fill="#410824"/>
<path d="M1074.58 0H1064.58V54.52H1074.58V0Z" fill="#410824"/>
<path d="M1004.33 33.7996H1031.95V23.7996H1014.33V10.1396H1043.39V44.3696H952.62V10.1396H981.68V23.7996H964.06V33.7996H991.68V0.139648H942.62V24.5696H929.97V0.139648H880.9V33.7996H908.52V23.7996H890.9V10.1396H919.97V44.3696H829.19V10.1396H858.25V23.7996H840.63V33.7996H868.25V0.139648H819.19V54.3696H929.97V34.5696H942.62V54.3696H1053.39V0.139648H1004.33V33.7996Z" fill="#410824"/>
</g>
<g clip-path="url(#clip1)">
<path d="M1271.15 33.7996H1298.77V23.7996H1281.15V10.1396H1310.21V44.3696H1219.44V10.1396H1248.5V23.7996H1230.88V33.7996H1258.5V0.139648H1209.44V24.5696H1196.78V0.139648H1147.72V33.7996H1175.34V23.7996H1157.72V10.1396H1186.78V44.3696H1096.01V10.1396H1125.07V23.7996H1107.45V33.7996H1135.07V0.139648H1086.01V54.3696H1196.78V34.5696H1209.44V54.3696H1320.21V0.139648H1271.15V33.7996Z" fill="#410824"/>
<path d="M1075 0H1065V54.52H1075V0Z" fill="#410824"/>
<path d="M1340.37 0H1330.37V54.52H1340.37V0Z" fill="#410824"/>
<path d="M1536.53 33.7996H1564.14V23.7996H1546.53V10.1396H1575.59V44.3696H1484.81V10.1396H1513.87V23.7996H1496.25V33.7996H1523.87V0.139648H1474.81V24.5696H1462.16V0.139648H1413.1V33.7996H1440.71V23.7996H1423.1V10.1396H1452.16V44.3696H1361.38V10.1396H1390.44V23.7996H1372.82V33.7996H1400.44V0.139648H1351.38V54.3696H1462.16V34.5696H1474.81V54.3696H1585.59V0.139648H1536.53V33.7996Z" fill="#410824"/>
<path d="M1606.78 0H1596.78V54.52H1606.78V0Z" fill="#410824"/>
<path d="M1802.93 33.7996H1830.55V23.7996H1812.93V10.1396H1841.99V44.3696H1751.21V10.1396H1780.28V23.7996H1762.66V33.7996H1790.28V0.139648H1741.21V24.5696H1728.56V0.139648H1679.5V33.7996H1707.12V23.7996H1689.5V10.1396H1718.56V44.3696H1627.78V10.1396H1656.85V23.7996H1639.23V33.7996H1666.85V0.139648H1617.78V54.3696H1728.56V34.5696H1741.21V54.3696H1851.99V0.139648H1802.93V33.7996Z" fill="#410824"/>
<path d="M1873.18 0H1863.18V54.52H1873.18V0Z" fill="#410824"/>
<path d="M2139.58 0H2129.58V54.52H2139.58V0Z" fill="#410824"/>
<path d="M2069.33 33.7996H2096.95V23.7996H2079.33V10.1396H2108.39V44.3696H2017.62V10.1396H2046.68V23.7996H2029.06V33.7996H2056.68V0.139648H2007.62V24.5696H1994.97V0.139648H1945.9V33.7996H1973.52V23.7996H1955.9V10.1396H1984.97V44.3696H1894.19V10.1396H1923.25V23.7996H1905.63V33.7996H1933.25V0.139648H1884.19V54.3696H1994.97V34.5696H2007.62V54.3696H2118.39V0.139648H2069.33V33.7996Z" fill="#410824"/>
</g>
<defs>
<clipPath id="clip0">
<rect width="1074.58" height="54.52" fill="white"/>
</clipPath>
<clipPath id="clip1">
<rect width="1074.58" height="54.52" fill="white" transform="translate(1065)"/>
</clipPath>
</defs>
</svg>
