<svg width="13" height="13" viewBox="0 0 13 13" fill="none" xmlns="http://www.w3.org/2000/svg">
<path d="M10.5625 13H1.625C1.19402 13 0.780698 12.8288 0.475951 12.524C0.171205 12.2193 0 11.806 0 11.375V2.4375C0 2.00652 0.171205 1.5932 0.475951 1.28845C0.780698 0.983705 1.19402 0.8125 1.625 0.8125H4.875V2.4375H1.625V11.375H10.5625V8.125H12.1875V11.375C12.1875 11.806 12.0163 12.2193 11.7115 12.524C11.4068 12.8288 10.9935 13 10.5625 13ZM6.25625 7.88694L5.11063 6.73806L10.2237 1.625H7.3125V0H13V5.6875H11.375V2.77469L6.25625 7.88694V7.88694Z" fill="#F5F5F5"/>
</svg>
