<svg width="15" height="12" viewBox="0 0 15 12" fill="none" xmlns="http://www.w3.org/2000/svg">
<path d="M1.75807 2.448C1.76715 2.35669 1.75499 2.26451 1.72255 2.17882C1.69012 2.09313 1.63832 2.0163 1.57129 1.9545L0.186776 0.25425V0H4.48411L7.80606 7.42874L10.7263 0H14.8235V0.25425L13.6398 1.41C13.5897 1.44918 13.551 1.50142 13.5279 1.56112C13.5048 1.62083 13.4981 1.68577 13.5087 1.749V10.2495C13.4981 10.3127 13.5048 10.3776 13.5279 10.4374C13.551 10.4971 13.5897 10.5493 13.6398 10.5885L14.7961 11.745V12H8.9823V11.7457L10.18 10.5607C10.2979 10.4407 10.2979 10.4055 10.2979 10.2225V3.35099L6.96853 11.9715H6.51938L2.64303 3.35099V9.12899C2.61116 9.37124 2.69047 9.61648 2.85797 9.79198L4.41518 11.718V11.9715H0V11.718L1.55647 9.79198C1.63882 9.70503 1.69994 9.59979 1.73495 9.48467C1.76995 9.36955 1.77787 9.24775 1.75807 9.12899V2.448Z" fill="#DB0F71"/>
</svg>
