<svg width="18" height="21" viewBox="0 0 18 21" fill="none" xmlns="http://www.w3.org/2000/svg">
<path d="M2.05714 1.51314C2.05714 1.21446 1.94878 0.92801 1.75588 0.716811C1.56299 0.505613 1.30137 0.386963 1.02857 0.386963C0.755777 0.386963 0.494156 0.505613 0.301262 0.716811C0.108367 0.92801 0 1.21446 0 1.51314V17.2796C0 18.0263 0.270918 18.7424 0.753154 19.2704C1.23539 19.7984 1.88944 20.095 2.57143 20.095H16.9714C17.2442 20.095 17.5058 19.9763 17.6987 19.7651C17.8916 19.5539 18 19.2675 18 18.9688C18 18.6701 17.8916 18.3837 17.6987 18.1725C17.5058 17.9613 17.2442 17.8426 16.9714 17.8426H2.57143C2.43503 17.8426 2.30422 17.7833 2.20777 17.6777C2.11133 17.5721 2.05714 17.4289 2.05714 17.2796V1.51314ZM11.0571 4.61011C11.0571 4.31143 11.1655 4.02499 11.3584 3.81379C11.5513 3.60259 11.8129 3.48394 12.0857 3.48394H16.7163C16.9891 3.48394 17.2508 3.60259 17.4437 3.81379C17.6365 4.02499 17.7449 4.31143 17.7449 4.61011L17.7429 9.67789C17.7429 9.97657 17.6345 10.263 17.4416 10.4742C17.2487 10.6854 16.9871 10.8041 16.7143 10.8041C16.4415 10.8041 16.1799 10.6854 15.987 10.4742C15.7941 10.263 15.6857 9.97657 15.6857 9.67789V7.32869L11.0129 12.4449C10.82 12.656 10.5585 12.7746 10.2857 12.7746C10.013 12.7746 9.7514 12.656 9.55852 12.4449L7.71429 10.4257L5.09863 13.2895C4.90464 13.4947 4.64482 13.6082 4.37513 13.6056C4.10544 13.603 3.84746 13.4846 3.65676 13.2758C3.46605 13.067 3.35788 12.7845 3.35554 12.4893C3.35319 12.194 3.45687 11.9095 3.64423 11.6971L6.98709 8.03706C7.17997 7.82593 7.44155 7.70733 7.71429 7.70733C7.98703 7.70733 8.2486 7.82593 8.44149 8.03706L10.2857 10.0563L14.2313 5.73628H12.0857C11.8129 5.73628 11.5513 5.61763 11.3584 5.40644C11.1655 5.19524 11.0571 4.90879 11.0571 4.61011Z" fill="#DB0F71"/>
</svg>
