<svg width="2368" height="284" viewBox="0 0 2368 284" fill="none" xmlns="http://www.w3.org/2000/svg">
<g clip-path="url(#clip0)">
<g filter="url(#filter0_i)">
<path d="M435.802 -126.023C435.786 -126.042 435.769 -126.06 435.752 -126.081C435.569 -126.279 435.401 -126.489 435.217 -126.687C435.151 -126.757 435.081 -126.814 435.015 -126.884C434.802 -127.104 434.581 -127.318 434.353 -127.527C434.169 -127.697 433.986 -127.863 433.797 -128.023C433.606 -128.183 433.409 -128.337 433.209 -128.491C432.965 -128.678 432.72 -128.857 432.467 -129.027C432.387 -129.082 432.317 -129.142 432.235 -129.194C432.138 -129.258 432.036 -129.306 431.937 -129.366C431.657 -129.539 431.377 -129.703 431.09 -129.856C430.905 -129.956 430.721 -130.05 430.533 -130.14C430.258 -130.272 429.983 -130.399 429.704 -130.515C429.489 -130.606 429.272 -130.691 429.054 -130.771C428.801 -130.862 428.547 -130.947 428.292 -131.026C428.043 -131.104 427.792 -131.175 427.541 -131.239C427.309 -131.299 427.075 -131.351 426.84 -131.399C426.568 -131.456 426.296 -131.506 426.024 -131.549C425.797 -131.583 425.571 -131.612 425.343 -131.636C425.067 -131.666 424.793 -131.692 424.516 -131.706C424.279 -131.719 424.042 -131.723 423.803 -131.728C423.542 -131.731 423.28 -131.729 423.02 -131.719C422.763 -131.709 422.505 -131.69 422.247 -131.668C422.011 -131.647 421.775 -131.625 421.537 -131.593C421.258 -131.557 420.981 -131.508 420.703 -131.456C420.49 -131.416 420.278 -131.373 420.067 -131.325C419.778 -131.26 419.494 -131.182 419.208 -131.098C419.006 -131.041 418.805 -130.979 418.607 -130.913C418.328 -130.819 418.054 -130.716 417.778 -130.608C417.57 -130.525 417.364 -130.44 417.16 -130.348C416.911 -130.235 416.663 -130.116 416.42 -129.992C416.193 -129.875 415.968 -129.755 415.745 -129.628C415.535 -129.506 415.327 -129.38 415.122 -129.249C414.874 -129.091 414.628 -128.924 414.389 -128.751C414.216 -128.626 414.046 -128.501 413.878 -128.367C413.625 -128.167 413.375 -127.957 413.132 -127.742C413.045 -127.664 412.952 -127.6 412.867 -127.52C412.795 -127.454 412.738 -127.383 412.668 -127.317C412.448 -127.106 412.238 -126.886 412.029 -126.659C411.858 -126.474 411.691 -126.289 411.529 -126.098C411.37 -125.909 411.218 -125.716 411.066 -125.516C410.877 -125.27 410.697 -125.022 410.526 -124.767C410.474 -124.688 410.412 -124.619 410.359 -124.538C400.37 -109.144 390.039 -93.224 376.355 -82.4069C365.999 -74.2335 349.8 -67.1558 335.384 -71.8052C325.046 -75.143 319.178 -83.334 309.699 -97.5241C295.729 -118.434 276.598 -147.072 226.117 -158.082C161.048 -172.288 111.963 -118.628 91.3098 -90.6128C81.4924 -99.0107 67.788 -110.15 54.7131 -118.796C13.4619 -146.078 -36.3013 -155.339 -78.4071 -143.573C-127.564 -129.829 -164.261 -87.3415 -167.651 -40.2563C-168.39 -30.0548 -167.305 -19.4526 -164.557 -9.1608C-188.794 27.5306 -192.891 83.3627 -173.508 124.619C-151.059 172.446 -117.953 186.766 -94.1355 190.355C-83.3782 191.976 -73.6369 191.597 -65.8186 190.55C-61.0827 211.611 -47.8698 245.013 -11.0156 263.261C3.39406 270.4 20.1322 273.508 37.1051 272.632C51.8008 271.874 66.6719 268.129 80.3492 261.421C102.422 250.599 117.576 222.239 124.62 196.233C156.399 217.028 196.826 223.247 230.881 210.948C273.989 195.375 302.798 150.501 299.487 107.154C313.754 110.89 328.623 112.313 343.41 111.551C383.454 109.488 422.882 91.3989 447.982 59.8883C487.984 9.69888 482.342 -75.2194 435.802 -126.023ZM423.245 40.1839C392.346 78.9792 330.719 91.482 286.731 68.5667C264.525 33.0826 219.986 15.8299 183.189 29.1882C164.683 35.9056 148.886 51.6012 141.965 70.148C136.296 85.3373 137.167 100.873 144.418 113.893C148.667 121.522 158.296 124.266 165.928 120.016C173.558 115.764 176.298 106.136 172.05 98.5057C168.629 92.3657 169.914 85.7102 171.596 81.2082C175.253 71.4073 184.249 62.4487 193.979 58.9163C217.566 50.3591 247.874 63.4289 261.534 88.0539C264.065 92.6197 265.873 97.3616 266.905 102.158C273.654 133.41 252.238 169.608 220.137 181.204C188.756 192.546 149.572 181.95 124.871 155.44C120.443 150.687 113.566 149.126 107.519 151.501C101.475 153.874 97.4957 159.703 97.4869 166.196C97.4521 188.961 82.8216 224.992 66.4284 233.03C45.5933 243.245 21.3007 243.972 3.02497 234.922C-34.939 216.126 -36.7731 172.693 -36.8312 170.93C-36.949 165.767 -39.528 160.968 -43.8254 158.107C-48.1244 155.246 -53.5026 154.64 -58.3061 156.526C-58.4501 156.579 -72.9305 161.907 -90.6253 158.891C-113.601 154.974 -131.852 138.927 -144.877 111.18C-156.494 86.4563 -156.741 52.8808 -147.141 26.4531C-130.603 48.3202 -106.166 62.448 -80.3088 63.6797C-77.66 63.8054 -75.0243 63.7991 -72.4108 63.6644C-48.1156 62.4123 -25.712 50.1064 -13.884 31.0133C1.55387 6.07492 -3.80453 -27.9129 -25.8261 -44.7482C-32.7636 -50.0498 -42.6904 -48.7298 -47.9951 -41.7906C-53.2999 -34.8529 -51.9768 -24.9278 -45.0375 -19.6216C-36.051 -12.7493 -34.0205 3.45242 -40.7748 14.365C-47.8078 25.7149 -63.0836 32.8418 -78.8044 32.0897C-101.695 31.0017 -123.177 13.4113 -132.26 -11.693C-135.393 -20.3324 -136.721 -29.416 -136.102 -37.971C-133.692 -71.4509 -105.844 -103.05 -69.8916 -113.103C-36.4989 -122.439 3.55929 -114.702 37.2681 -92.4038C58.7013 -78.2336 83.3498 -55.4282 83.5973 -55.199C87.1149 -51.9342 91.9317 -50.4423 96.6768 -51.1582C101.424 -51.8601 105.602 -54.6896 108.021 -58.8347C108.502 -59.6539 156.749 -140.824 219.376 -127.169C257.387 -118.879 270.022 -99.9648 283.399 -79.9434C293.703 -64.5208 304.356 -48.5745 325.674 -41.6948C347.973 -34.5019 374.247 -40.4398 395.957 -57.5763C407.363 -66.5936 416.51 -77.6294 424.472 -88.7993C449.2 -49.0299 449.793 6.871 423.245 40.1839Z" fill="#410824"/>
</g>
<g filter="url(#filter1_i)">
<path d="M1937.46 -126.023C1937.47 -126.042 1937.49 -126.06 1937.51 -126.081C1937.69 -126.279 1937.86 -126.489 1938.04 -126.687C1938.11 -126.757 1938.18 -126.814 1938.24 -126.884C1938.46 -127.104 1938.68 -127.318 1938.91 -127.527C1939.09 -127.697 1939.27 -127.863 1939.46 -128.023C1939.65 -128.183 1939.85 -128.337 1940.05 -128.491C1940.29 -128.678 1940.54 -128.857 1940.79 -129.027C1940.87 -129.082 1940.94 -129.142 1941.02 -129.194C1941.12 -129.258 1941.22 -129.306 1941.32 -129.366C1941.6 -129.539 1941.88 -129.703 1942.17 -129.856C1942.35 -129.956 1942.54 -130.05 1942.73 -130.14C1943 -130.272 1943.28 -130.399 1943.55 -130.515C1943.77 -130.606 1943.99 -130.691 1944.2 -130.771C1944.46 -130.862 1944.71 -130.947 1944.97 -131.026C1945.22 -131.104 1945.47 -131.175 1945.72 -131.239C1945.95 -131.299 1946.18 -131.351 1946.42 -131.399C1946.69 -131.456 1946.96 -131.506 1947.24 -131.549C1947.46 -131.583 1947.69 -131.612 1947.92 -131.636C1948.19 -131.666 1948.47 -131.692 1948.74 -131.706C1948.98 -131.719 1949.22 -131.723 1949.46 -131.728C1949.72 -131.731 1949.98 -131.729 1950.24 -131.719C1950.5 -131.709 1950.75 -131.69 1951.01 -131.668C1951.25 -131.647 1951.48 -131.625 1951.72 -131.593C1952 -131.557 1952.28 -131.508 1952.56 -131.456C1952.77 -131.416 1952.98 -131.373 1953.19 -131.325C1953.48 -131.26 1953.77 -131.182 1954.05 -131.098C1954.25 -131.041 1954.45 -130.979 1954.65 -130.913C1954.93 -130.819 1955.2 -130.716 1955.48 -130.608C1955.69 -130.525 1955.89 -130.44 1956.1 -130.348C1956.35 -130.235 1956.6 -130.116 1956.84 -129.992C1957.07 -129.875 1957.29 -129.755 1957.51 -129.628C1957.72 -129.506 1957.93 -129.38 1958.14 -129.249C1958.38 -129.091 1958.63 -128.924 1958.87 -128.751C1959.04 -128.626 1959.21 -128.501 1959.38 -128.367C1959.63 -128.167 1959.88 -127.957 1960.13 -127.742C1960.21 -127.664 1960.31 -127.6 1960.39 -127.52C1960.46 -127.454 1960.52 -127.383 1960.59 -127.317C1960.81 -127.106 1961.02 -126.886 1961.23 -126.659C1961.4 -126.474 1961.57 -126.289 1961.73 -126.098C1961.89 -125.909 1962.04 -125.716 1962.19 -125.516C1962.38 -125.27 1962.56 -125.022 1962.73 -124.767C1962.79 -124.688 1962.85 -124.619 1962.9 -124.538C1972.89 -109.144 1983.22 -93.224 1996.9 -82.4069C2007.26 -74.2335 2023.46 -67.1558 2037.87 -71.8052C2048.21 -75.143 2054.08 -83.334 2063.56 -97.5241C2077.53 -118.434 2096.66 -147.072 2147.14 -158.082C2212.21 -172.288 2261.3 -118.628 2281.95 -90.6128C2291.77 -99.0107 2305.47 -110.15 2318.55 -118.796C2359.8 -146.078 2409.56 -155.339 2451.67 -143.573C2500.82 -129.829 2537.52 -87.3415 2540.91 -40.2563C2541.65 -30.0548 2540.56 -19.4526 2537.82 -9.1608C2562.05 27.5306 2566.15 83.3627 2546.77 124.619C2524.32 172.446 2491.21 186.766 2467.39 190.355C2456.64 191.976 2446.9 191.597 2439.08 190.55C2434.34 211.611 2421.13 245.013 2384.27 263.261C2369.86 270.4 2353.13 273.508 2336.15 272.632C2321.46 271.874 2306.59 268.129 2292.91 261.421C2270.84 250.599 2255.68 222.239 2248.64 196.233C2216.86 217.028 2176.43 223.247 2142.38 210.948C2099.27 195.375 2070.46 150.501 2073.77 107.154C2059.5 110.89 2044.64 112.313 2029.85 111.551C1989.81 109.488 1950.38 91.3989 1925.28 59.8883C1885.27 9.69888 1890.92 -75.2194 1937.46 -126.023ZM1950.01 40.1839C1980.91 78.9792 2042.54 91.482 2086.53 68.5667C2108.73 33.0826 2153.27 15.8299 2190.07 29.1882C2208.58 35.9056 2224.37 51.6012 2231.29 70.148C2236.96 85.3373 2236.09 100.873 2228.84 113.893C2224.59 121.522 2214.96 124.266 2207.33 120.016C2199.7 115.764 2196.96 106.136 2201.21 98.5057C2204.63 92.3657 2203.34 85.7102 2201.66 81.2082C2198.01 71.4073 2189.01 62.4487 2179.28 58.9163C2155.69 50.3591 2125.38 63.4289 2111.73 88.0539C2109.19 92.6197 2107.39 97.3616 2106.35 102.158C2099.61 133.41 2121.02 169.608 2153.12 181.204C2184.5 192.546 2223.69 181.95 2248.39 155.44C2252.82 150.687 2259.69 149.126 2265.74 151.501C2271.78 153.874 2275.76 159.703 2275.77 166.196C2275.81 188.961 2290.44 224.992 2306.83 233.03C2327.67 243.245 2351.96 243.972 2370.23 234.922C2408.2 216.126 2410.03 172.693 2410.09 170.93C2410.21 165.767 2412.79 160.968 2417.08 158.107C2421.38 155.246 2426.76 154.64 2431.56 156.526C2431.71 156.579 2446.19 161.907 2463.88 158.891C2486.86 154.974 2505.11 138.927 2518.14 111.18C2529.75 86.4563 2530 52.8808 2520.4 26.4531C2503.86 48.3202 2479.43 62.448 2453.57 63.6797C2450.92 63.8054 2448.28 63.7991 2445.67 63.6644C2421.37 62.4123 2398.97 50.1064 2387.14 31.0133C2371.7 6.07492 2377.06 -27.9129 2399.08 -44.7482C2406.02 -50.0498 2415.95 -48.7298 2421.25 -41.7906C2426.56 -34.8529 2425.24 -24.9278 2418.3 -19.6216C2409.31 -12.7493 2407.28 3.45242 2414.03 14.365C2421.07 25.7149 2436.34 32.8418 2452.06 32.0897C2474.95 31.0017 2496.44 13.4113 2505.52 -11.693C2508.65 -20.3324 2509.98 -29.416 2509.36 -37.971C2506.95 -71.4509 2479.1 -103.05 2443.15 -113.103C2409.76 -122.439 2369.7 -114.702 2335.99 -92.4038C2314.56 -78.2336 2289.91 -55.4282 2289.66 -55.199C2286.14 -51.9342 2281.33 -50.4423 2276.58 -51.1582C2271.83 -51.8601 2267.66 -54.6896 2265.24 -58.8347C2264.76 -59.6539 2216.51 -140.824 2153.88 -127.169C2115.87 -118.879 2103.24 -99.9648 2089.86 -79.9434C2079.56 -64.5208 2068.9 -48.5745 2047.58 -41.6948C2025.29 -34.5019 1999.01 -40.4398 1977.3 -57.5763C1965.9 -66.5936 1956.75 -77.6294 1948.79 -88.7993C1924.06 -49.0299 1923.47 6.871 1950.01 40.1839Z" fill="#410824"/>
</g>
</g>
<defs>
<filter id="filter0_i" x="-196.645" y="-174.951" width="685.549" height="462.502" filterUnits="userSpaceOnUse" color-interpolation-filters="sRGB">
<feFlood flood-opacity="0" result="BackgroundImageFix"/>
<feBlend mode="normal" in="SourceGraphic" in2="BackgroundImageFix" result="shape"/>
<feColorMatrix in="SourceAlpha" type="matrix" values="0 0 0 0 0 0 0 0 0 0 0 0 0 0 0 0 0 0 127 0" result="hardAlpha"/>
<feOffset dy="10"/>
<feGaussianBlur stdDeviation="2"/>
<feComposite in2="hardAlpha" operator="arithmetic" k2="-1" k3="1"/>
<feColorMatrix type="matrix" values="0 0 0 0 0 0 0 0 0 0 0 0 0 0 0 0 0 0 0.25 0"/>
<feBlend mode="normal" in2="shape" result="effect1_innerShadow"/>
</filter>
<filter id="filter1_i" x="1884.36" y="-174.951" width="685.549" height="462.502" filterUnits="userSpaceOnUse" color-interpolation-filters="sRGB">
<feFlood flood-opacity="0" result="BackgroundImageFix"/>
<feBlend mode="normal" in="SourceGraphic" in2="BackgroundImageFix" result="shape"/>
<feColorMatrix in="SourceAlpha" type="matrix" values="0 0 0 0 0 0 0 0 0 0 0 0 0 0 0 0 0 0 127 0" result="hardAlpha"/>
<feOffset dy="10"/>
<feGaussianBlur stdDeviation="2"/>
<feComposite in2="hardAlpha" operator="arithmetic" k2="-1" k3="1"/>
<feColorMatrix type="matrix" values="0 0 0 0 0 0 0 0 0 0 0 0 0 0 0 0 0 0 0.25 0"/>
<feBlend mode="normal" in2="shape" result="effect1_innerShadow"/>
</filter>
<clipPath id="clip0">
<rect width="2368" height="284" fill="white"/>
</clipPath>
</defs>
</svg>
