<svg width="2368" height="290" viewBox="0 0 2368 290" fill="none" xmlns="http://www.w3.org/2000/svg">
<g clip-path="url(#clip0)">
<g filter="url(#filter0_i)">
<path d="M2388.65 141.457C2404.83 154.942 2413.18 164.353 2433.05 168.999C2436.81 165.945 2448.94 166.965 2453.57 170.67C2462.22 177.595 2464.84 185.081 2472.05 194.096C2472.75 194.963 2475.09 205.021 2475.16 206.233C2475.51 212.135 2480.24 213.97 2480.24 220.204V250.828C2480.24 260.458 2482.52 273.755 2479.67 283.004C2477.32 290.662 2478.34 298.303 2475.72 305.866C2473.91 311.116 2471.21 316.531 2470.22 321.954C2468.34 332.265 2461.47 348.485 2449.76 348.485H2417.3C2409.27 348.485 2390.39 351.95 2384.98 345.945C2380.58 341.051 2364.92 340.865 2358.31 340.865C2346.91 340.865 2343.74 333.618 2334.04 330.845C2328.73 329.33 2318.53 339.537 2313.85 342.135C2296.52 351.763 2278.07 361.186 2257.97 361.186H2157.63C2077.18 361.186 1998.45 354.385 1918.14 347.215C1864.03 342.383 1809.83 351.026 1755.71 351.026H1711.68C1705.65 351.026 1696.93 352.772 1691.5 349.755C1679.43 343.052 1677.53 330.175 1677.53 317.438C1677.53 308.701 1676.73 289.451 1683.17 283.004C1685.73 280.447 1690.07 280.866 1690.23 276.795C1690.38 273.087 1690.21 271.923 1692.21 269.174C1693.41 267.513 1699.81 260.015 1700.25 258.025C1701.67 251.616 1702.4 230.298 1692.77 229.095C1688.4 228.548 1690.12 219.818 1682.61 218.934C1678 218.392 1678.16 212.399 1673.86 211.172C1667.92 209.474 1656.33 201.153 1650.86 201.153C1646.41 201.153 1622.6 198.957 1629.83 189.016C1635.61 181.07 1643.19 174.862 1649.59 166.86C1657.25 157.282 1666.71 148.703 1676.96 141.316C1684.72 135.733 1695.36 136.996 1704.06 133.131C1714.66 128.421 1726.56 135.917 1736.1 137.506C1747.81 139.458 1759.08 142.727 1771.52 142.727C1793.38 142.727 1793.95 155.377 1793.95 176.613C1793.95 184.628 1809.4 197.821 1805.1 204.257C1801.66 209.431 1816.67 198.827 1822.89 198.612C1833.65 198.241 1838.8 188.451 1847.72 188.451L1848.54 188.451C1857.45 188.448 1875.5 188.441 1883.29 191.556C1888.08 193.472 1897.19 191.684 1900.93 194.802C1904.41 197.703 1906.37 199.926 1910.67 201.717C1918.83 205.119 1921.68 221.083 1929.01 224.015C1935.24 226.508 1932.77 233.321 1935.36 237.986C1937.4 241.663 1941.1 244.21 1943.69 247.441C1947.33 251.998 1944.25 270.157 1944.25 276.089C1944.25 291.209 1964.71 270.194 1966.13 269.88C1979.35 266.941 1990.1 274.667 1998.73 262.682C2006.88 251.361 2003.38 240.502 2008.04 227.684C2010.58 220.696 2015.38 215.44 2015.38 207.362C2015.38 203.03 2016.03 195.511 2019.05 192.121C2027.24 182.908 2019.82 167.181 2026.1 158.533C2032.95 149.116 2032.47 138.141 2035.84 126.357C2037.59 120.235 2044.73 119.159 2045.72 112.245C2046.37 107.662 2048.25 101.396 2052.35 98.9792C2056.53 96.524 2058.22 89.7718 2063.08 89.3828C2069.11 88.9002 2075.37 89.3828 2081.42 89.3828C2094.2 89.3828 2106.03 89.8152 2118.4 92.0642C2141.89 96.3355 2164.74 107.627 2186.56 117.325C2191.6 119.567 2205.67 131.354 2205.9 135.107C2206.42 144.111 2232.75 127.446 2235.81 124.381C2238.47 121.728 2237.91 117.654 2242.02 117.325C2247.08 116.92 2248.67 115.33 2249.08 110.269C2249.51 104.835 2258 108.509 2259.1 101.943C2260.11 95.8492 2266.23 95.5221 2269.4 88.395C2271.63 83.3719 2278.22 84.3024 2282.67 84.3024C2292.82 84.3024 2305.16 87.5568 2315.27 89.2417C2320.3 90.0806 2337.81 93.6608 2340.53 98.4147C2342.76 102.331 2351.44 103.871 2355.77 106.035C2360.48 108.391 2363.58 114.078 2367.9 117.325C2374.1 121.975 2369 128.375 2378.07 132.002C2381 133.177 2385.67 138.974 2388.65 141.457Z" fill="#4D0D2C"/>
<path d="M2442.14 170.67C2415.37 166.913 2407.1 156.833 2388.65 141.457C2385.67 138.974 2381 133.177 2378.07 132.002C2369 128.375 2374.1 121.975 2367.9 117.325C2363.58 114.078 2360.48 108.391 2355.77 106.035C2351.44 103.871 2342.76 102.331 2340.53 98.4147C2337.81 93.6608 2320.3 90.0806 2315.27 89.2417C2305.16 87.5568 2292.82 84.3024 2282.67 84.3024C2278.22 84.3024 2271.63 83.3719 2269.4 88.395C2266.23 95.5221 2260.11 95.8492 2259.1 101.943C2258 108.509 2249.51 104.835 2249.08 110.269C2248.67 115.33 2247.08 116.92 2242.02 117.325C2237.91 117.654 2238.47 121.728 2235.81 124.381C2232.75 127.446 2206.42 144.111 2205.9 135.107C2205.67 131.354 2191.6 119.567 2186.56 117.325C2164.74 107.627 2141.89 96.3355 2118.4 92.0642C2106.03 89.8152 2094.2 89.3828 2081.42 89.3828C2075.37 89.3828 2069.11 88.9002 2063.08 89.3828C2058.22 89.7718 2056.53 96.524 2052.35 98.9792C2048.25 101.396 2046.37 107.662 2045.72 112.245C2044.73 119.159 2037.59 120.235 2035.84 126.357C2032.47 138.141 2032.95 149.116 2026.1 158.533C2019.82 167.181 2027.24 182.908 2019.05 192.121C2016.03 195.511 2015.38 203.03 2015.38 207.362C2015.38 215.44 2010.58 220.696 2008.04 227.684C2003.38 240.502 2006.88 251.361 1998.73 262.682C1990.1 274.667 1979.35 266.941 1966.13 269.88C1964.71 270.194 1944.25 291.209 1944.25 276.089C1944.25 270.157 1947.33 251.998 1943.69 247.441C1941.1 244.21 1937.4 241.663 1935.36 237.986C1932.77 233.321 1935.24 226.508 1929.01 224.015C1921.68 221.083 1918.83 205.119 1910.67 201.717C1906.37 199.926 1904.41 197.703 1900.93 194.802C1897.19 191.684 1888.08 193.472 1883.29 191.556C1875.25 188.342 1856.3 188.451 1847.72 188.451C1838.8 188.451 1833.65 198.241 1822.89 198.612C1816.67 198.827 1801.66 209.431 1805.1 204.257C1809.4 197.821 1793.95 184.628 1793.95 176.613C1793.95 155.377 1793.38 142.727 1771.52 142.727C1759.08 142.727 1747.81 139.458 1736.1 137.506C1726.56 135.917 1714.66 128.421 1704.06 133.131C1695.36 136.996 1684.72 135.733 1676.96 141.316C1666.71 148.703 1657.25 157.282 1649.59 166.86C1643.19 174.862 1635.61 181.07 1629.83 189.016C1622.6 198.957 1646.41 201.153 1650.86 201.153C1656.33 201.153 1667.92 209.474 1673.86 211.172C1678.16 212.399 1678 218.392 1682.61 218.934C1690.12 219.818 1688.4 228.548 1692.77 229.095C1702.4 230.298 1701.67 251.616 1700.25 258.025C1699.81 260.015 1693.41 267.513 1692.21 269.174C1690.21 271.923 1690.38 273.087 1690.23 276.795C1690.07 280.866 1685.73 280.447 1683.17 283.004C1676.73 289.451 1677.53 308.701 1677.53 317.438C1677.53 330.175 1679.43 343.052 1691.5 349.755C1696.93 352.772 1705.65 351.026 1711.68 351.026C1726.36 351.026 1741.03 351.026 1755.71 351.026C1809.83 351.026 1864.03 342.383 1918.14 347.215C1998.45 354.385 2077.18 361.186 2157.63 361.186C2191.08 361.186 2224.52 361.186 2257.97 361.186C2278.07 361.186 2296.52 351.763 2313.85 342.135C2318.53 339.537 2328.73 329.33 2334.04 330.845C2343.74 333.618 2346.91 340.865 2358.31 340.865C2364.92 340.865 2380.58 341.051 2384.98 345.945C2390.39 351.95 2409.27 348.485 2417.3 348.485C2428.12 348.485 2438.94 348.485 2449.76 348.485C2461.47 348.485 2468.34 332.265 2470.22 321.954C2471.21 316.531 2473.91 311.116 2475.72 305.866C2478.34 298.303 2477.32 290.662 2479.67 283.004C2482.52 273.755 2480.24 260.458 2480.24 250.828C2480.24 240.62 2480.24 230.412 2480.24 220.204C2480.24 213.97 2475.51 212.135 2475.16 206.233C2475.09 205.021 2472.75 194.963 2472.05 194.096C2464.84 185.081 2462.22 177.595 2453.57 170.67C2446.85 165.292 2424.34 165.572 2434.52 175.75" stroke="white" stroke-width="2.69065" stroke-linecap="round"/>
<path d="M2479.55 107.325C2479.54 107.309 2479.53 107.295 2479.52 107.278C2479.38 107.117 2479.26 106.949 2479.13 106.788C2479.08 106.732 2479.03 106.685 2478.98 106.628C2478.82 106.45 2478.66 106.276 2478.49 106.105C2478.36 105.966 2478.22 105.831 2478.08 105.7C2477.94 105.569 2477.8 105.442 2477.65 105.315C2477.47 105.161 2477.29 105.013 2477.1 104.872C2477.04 104.826 2476.99 104.777 2476.92 104.733C2476.85 104.68 2476.77 104.639 2476.7 104.589C2476.49 104.444 2476.28 104.307 2476.07 104.176C2475.93 104.092 2475.79 104.013 2475.65 103.935C2475.44 103.822 2475.23 103.714 2475.02 103.612C2474.86 103.534 2474.7 103.459 2474.53 103.389C2474.34 103.309 2474.15 103.233 2473.95 103.162C2473.76 103.092 2473.57 103.027 2473.38 102.968C2473.2 102.912 2473.03 102.863 2472.85 102.816C2472.64 102.761 2472.43 102.712 2472.22 102.667C2472.05 102.632 2471.87 102.601 2471.7 102.573C2471.49 102.54 2471.28 102.508 2471.06 102.487C2470.88 102.467 2470.7 102.454 2470.51 102.441C2470.31 102.429 2470.11 102.419 2469.91 102.417C2469.71 102.414 2469.51 102.419 2469.31 102.425C2469.13 102.432 2468.94 102.44 2468.76 102.455C2468.54 102.472 2468.33 102.499 2468.11 102.528C2467.94 102.55 2467.78 102.575 2467.61 102.604C2467.39 102.642 2467.16 102.691 2466.94 102.745C2466.78 102.781 2466.62 102.82 2466.47 102.864C2466.25 102.925 2466.03 102.994 2465.82 103.066C2465.65 103.122 2465.49 103.18 2465.33 103.242C2465.13 103.319 2464.94 103.401 2464.74 103.488C2464.56 103.569 2464.38 103.653 2464.21 103.743C2464.04 103.828 2463.87 103.917 2463.71 104.01C2463.51 104.122 2463.32 104.242 2463.12 104.366C2462.99 104.455 2462.85 104.545 2462.71 104.642C2462.51 104.786 2462.31 104.938 2462.11 105.095C2462.04 105.152 2461.97 105.197 2461.9 105.255C2461.84 105.303 2461.8 105.356 2461.74 105.405C2461.56 105.559 2461.39 105.72 2461.22 105.887C2461.08 106.023 2460.94 106.159 2460.81 106.3C2460.68 106.44 2460.55 106.583 2460.43 106.732C2460.27 106.914 2460.12 107.098 2459.98 107.289C2459.94 107.348 2459.89 107.398 2459.85 107.459C2451.52 118.95 2442.91 130.833 2431.91 138.643C2423.58 144.543 2410.79 149.364 2399.84 145.2C2391.99 142.21 2387.79 135.651 2381.03 124.315C2371.07 107.61 2357.44 84.7322 2318.89 74.2206C2269.21 60.6596 2229.16 100.147 2212.1 120.961C2204.85 114.084 2194.71 104.936 2184.96 97.7388C2154.18 75.027 2116.12 65.8943 2083.14 73.3058C2044.63 81.9636 2014.59 113.315 2010.1 149.544C2009.13 157.393 2009.54 165.624 2011.25 173.681C1991.08 201.053 1985.69 244.008 1999.02 276.641C2014.45 314.471 2039.45 326.847 2057.7 330.567C2065.94 332.247 2073.48 332.342 2079.56 331.845C2082.38 348.298 2091.25 374.62 2118.99 390.18C2129.83 396.267 2142.64 399.333 2155.78 399.332C2167.16 399.332 2178.79 397.031 2189.62 392.395C2207.1 384.916 2219.93 363.617 2226.41 343.813C2250.12 361.137 2281.09 367.55 2307.88 359.407C2341.8 349.095 2365.83 315.586 2365 281.978C2375.87 285.431 2387.29 287.122 2398.74 287.122C2429.75 287.122 2460.92 274.722 2481.56 251.386C2514.45 214.217 2513.47 148.412 2479.55 107.325ZM2463.24 235.184C2437.83 263.915 2389.74 271.118 2356.68 251.67C2340.95 223.383 2307.24 208.286 2278.29 217.138C2263.73 221.589 2250.9 233.082 2244.82 247.13C2239.84 258.635 2239.89 270.667 2244.97 281.011C2247.95 287.072 2255.28 289.574 2261.34 286.596C2267.4 283.616 2269.9 276.289 2266.93 270.227C2264.53 265.349 2265.78 260.261 2267.26 256.851C2270.48 249.427 2277.78 242.867 2285.44 240.526C2303.99 234.856 2326.88 246.156 2336.45 265.717C2338.22 269.344 2339.43 273.078 2340.03 276.823C2344 301.227 2326.02 328.33 2300.77 336.008C2276.08 343.518 2246.24 333.775 2228.22 312.32C2224.99 308.472 2219.74 306.993 2214.98 308.587C2210.22 310.179 2206.91 314.522 2206.65 319.536C2205.71 337.115 2192.98 364.359 2180 369.915C2163.5 376.974 2144.71 376.569 2130.96 368.853C2102.39 352.826 2102.7 319.21 2102.73 317.846C2102.84 313.854 2101.04 310.045 2097.84 307.665C2094.63 305.284 2090.5 304.602 2086.72 305.867C2086.6 305.902 2075.21 309.441 2061.66 306.407C2044.07 302.468 2030.62 289.349 2021.66 267.402C2013.68 247.846 2014.82 221.906 2023.29 201.879C2035.19 219.424 2053.5 231.308 2073.42 233.288C2075.46 233.49 2077.49 233.59 2079.52 233.59C2098.33 233.59 2116.12 224.978 2126.02 210.704C2138.93 192.059 2136.15 165.597 2119.81 151.719C2114.66 147.349 2106.94 147.973 2102.57 153.121C2098.2 158.268 2098.83 165.985 2103.97 170.359C2110.64 176.024 2111.56 188.618 2105.91 196.776C2100.03 205.262 2087.95 210.158 2075.84 208.951C2058.2 207.2 2042.31 192.76 2036.3 173.011C2034.22 166.214 2033.56 159.146 2034.38 152.564C2037.57 126.804 2060.33 103.509 2088.5 97.1759C2114.66 91.2952 2145.29 98.8646 2170.43 117.427C2186.42 129.223 2204.55 147.816 2204.73 148.003C2207.32 150.664 2210.98 152.008 2214.67 151.644C2218.37 151.291 2221.71 149.272 2223.74 146.167C2224.14 145.554 2264.63 84.7877 2312.46 97.8256C2341.48 105.741 2350.49 120.851 2360.02 136.845C2367.36 149.166 2374.96 161.905 2391.15 168.067C2408.08 174.509 2428.61 170.969 2446.06 158.599C2455.23 152.089 2462.73 143.93 2469.32 135.621C2486.84 167.318 2485.07 210.513 2463.24 235.184Z" fill="#410824"/>
<path d="M1607.89 201.019C1607.88 201.038 1607.88 201.056 1607.87 201.076C1607.82 201.278 1607.75 201.476 1607.7 201.679C1607.69 201.751 1607.68 201.82 1607.66 201.893C1607.61 202.123 1607.56 202.357 1607.53 202.593C1607.49 202.784 1607.46 202.973 1607.44 203.163C1607.42 203.354 1607.4 203.547 1607.38 203.741C1607.37 203.978 1607.35 204.213 1607.35 204.449C1607.35 204.523 1607.34 204.594 1607.34 204.669C1607.34 204.759 1607.35 204.846 1607.35 204.935C1607.36 205.19 1607.37 205.44 1607.4 205.691C1607.41 205.853 1607.43 206.012 1607.45 206.171C1607.48 206.405 1607.51 206.637 1607.55 206.867C1607.59 207.044 1607.62 207.221 1607.66 207.396C1607.71 207.598 1607.76 207.799 1607.82 207.997C1607.88 208.191 1607.93 208.384 1608 208.573C1608.06 208.749 1608.12 208.923 1608.19 209.095C1608.27 209.295 1608.35 209.493 1608.44 209.687C1608.51 209.848 1608.59 210.007 1608.67 210.165C1608.77 210.356 1608.87 210.545 1608.98 210.73C1609.07 210.888 1609.16 211.044 1609.26 211.201C1609.37 211.371 1609.48 211.54 1609.6 211.704C1609.71 211.867 1609.84 212.025 1609.96 212.184C1610.07 212.327 1610.19 212.471 1610.31 212.611C1610.45 212.777 1610.6 212.935 1610.75 213.094C1610.87 213.215 1610.98 213.334 1611.1 213.45C1611.27 213.61 1611.44 213.761 1611.61 213.911C1611.73 214.017 1611.86 214.121 1611.99 214.221C1612.17 214.363 1612.35 214.496 1612.53 214.629C1612.68 214.729 1612.82 214.827 1612.96 214.92C1613.14 215.034 1613.32 215.144 1613.51 215.249C1613.68 215.346 1613.85 215.441 1614.03 215.532C1614.2 215.617 1614.37 215.698 1614.54 215.775C1614.74 215.869 1614.96 215.958 1615.17 216.04C1615.32 216.099 1615.48 216.156 1615.63 216.208C1615.87 216.288 1616.11 216.361 1616.35 216.427C1616.44 216.451 1616.52 216.484 1616.61 216.506C1616.68 216.524 1616.75 216.531 1616.83 216.548C1617.06 216.601 1617.29 216.645 1617.52 216.684C1617.71 216.717 1617.9 216.747 1618.1 216.771C1618.29 216.794 1618.48 216.811 1618.67 216.825C1618.91 216.843 1619.14 216.855 1619.38 216.858C1619.46 216.858 1619.53 216.869 1619.6 216.869C1633.79 216.833 1648.47 216.796 1661.26 221.087C1670.93 224.34 1682.35 231.84 1685.44 243.141C1687.64 251.247 1684.82 258.508 1679.63 270.644C1672 288.528 1661.53 313.02 1675.74 350.365C1694.03 398.51 1749.53 407.622 1776.4 409.159C1775.11 419.066 1773.69 432.649 1773.61 444.77C1773.38 483.015 1788.41 519.157 1813.82 541.453C1843.5 567.481 1886.52 573.292 1918.45 555.59C1925.36 551.757 1931.77 546.574 1937.28 540.445C1971.28 540.637 2009.17 519.696 2027.7 489.709C2049.19 454.958 2044.47 427.467 2036.73 410.525C2033.23 402.873 2028.87 396.725 2024.89 392.104C2036.53 380.136 2052.58 357.464 2048.82 325.885C2047.35 313.536 2042.29 301.382 2034.55 290.76C2027.85 281.563 2019.14 273.515 2009.02 267.491C1992.68 257.77 1967.91 259.94 1948.09 266.368C1948.13 237 1935.07 208.189 1912.72 191.332C1884.41 169.995 1843.18 170.301 1816.51 190.763C1812.9 179.944 1807.53 169.713 1800.79 160.458C1782.53 135.397 1754.16 117.507 1723.14 114.567C1673.73 109.87 1621.12 149.409 1607.89 201.019ZM1720.83 138.914C1759.02 142.531 1793.16 177.159 1796.91 215.331C1783.31 244.707 1790.96 280.843 1815.16 299.028C1827.33 308.175 1844.17 311.773 1859.11 308.417C1871.34 305.67 1881.03 298.541 1886.4 288.342C1889.55 282.367 1887.25 274.971 1881.28 271.825C1875.3 268.68 1867.9 270.974 1864.76 276.95C1862.23 281.76 1857.37 283.74 1853.75 284.554C1845.85 286.327 1836.25 284.286 1829.85 279.478C1814.34 267.819 1810 242.667 1820.17 223.414C1822.06 219.845 1824.37 216.67 1827.04 213.975C1844.43 196.398 1876.92 194.97 1897.99 210.86C1918.6 226.39 1928.3 256.245 1921.57 283.444C1920.36 288.32 1922.26 293.434 1926.35 296.347C1930.44 299.258 1935.9 299.372 1940.11 296.634C1954.86 287.036 1984.38 281.285 1996.51 288.505C2011.93 297.682 2022.67 313.107 2024.53 328.767C2028.4 361.297 2001.05 380.839 1999.93 381.622C1996.64 383.88 1994.62 387.578 1994.58 391.57C1994.55 395.564 1996.43 399.303 1999.68 401.617C1999.77 401.688 2009.34 408.814 2014.87 421.548C2022.04 438.083 2019.36 456.685 2006.9 476.845C1995.79 494.817 1974.15 509.166 1952.98 514.116C1960.15 494.165 1958.98 472.369 1948.85 455.102C1947.81 453.334 1946.69 451.629 1945.5 449.994C1934.42 434.788 1916.99 425.48 1899.62 425.888C1876.95 426.429 1857.2 444.262 1855.6 465.638C1855.1 472.371 1860.15 478.242 1866.89 478.746C1873.62 479.249 1879.49 474.198 1879.99 467.462C1880.65 458.738 1890.28 450.576 1900.2 450.339C1910.53 450.097 1921.6 456.978 1927.75 467.478C1936.72 482.762 1934.41 504.108 1921.99 520.599C1917.72 526.279 1912.4 530.978 1906.59 534.192C1883.89 546.779 1851.66 542.098 1829.96 523.062C1809.8 505.381 1797.88 476.169 1798.08 444.915C1798.2 425.046 1802.55 399.446 1802.59 399.188C1803.22 395.531 1802.15 391.781 1799.68 389.01C1797.22 386.232 1793.62 384.722 1789.92 384.907C1789.18 384.942 1716.23 387.997 1698.6 341.668C1687.91 313.547 1694.82 297.372 1702.13 280.247C1707.77 267.057 1713.59 253.419 1709.04 236.705C1704.27 219.224 1689.33 204.717 1669.05 197.899C1658.39 194.323 1647.38 193.063 1636.78 192.627C1652.09 159.806 1688.04 135.799 1720.83 138.914Z" fill="#410824"/>
</g>
<path d="M2388.65 141.457C2404.83 154.942 2413.18 164.353 2433.05 168.999C2436.81 165.945 2448.94 166.965 2453.57 170.67C2462.22 177.595 2464.84 185.081 2472.05 194.096C2472.75 194.963 2475.09 205.021 2475.16 206.233C2475.51 212.135 2480.24 213.97 2480.24 220.204V250.828C2480.24 260.458 2482.52 273.755 2479.67 283.004C2477.32 290.662 2478.34 298.303 2475.72 305.866C2473.91 311.116 2471.21 316.531 2470.22 321.954C2468.34 332.265 2461.47 348.485 2449.76 348.485H2417.3C2409.27 348.485 2390.39 351.95 2384.98 345.945C2380.58 341.051 2364.92 340.865 2358.31 340.865C2346.91 340.865 2343.74 333.618 2334.04 330.845C2328.73 329.33 2318.53 339.537 2313.85 342.135C2296.52 351.763 2278.07 361.186 2257.97 361.186H2157.63C2077.18 361.186 1998.45 354.385 1918.14 347.215C1864.03 342.383 1809.83 351.026 1755.71 351.026H1711.68C1705.65 351.026 1696.93 352.772 1691.5 349.755C1679.43 343.052 1677.53 330.175 1677.53 317.438C1677.53 308.701 1676.73 289.451 1683.17 283.004C1685.73 280.447 1690.07 280.866 1690.23 276.795C1690.38 273.087 1690.21 271.923 1692.21 269.174C1693.41 267.513 1699.81 260.015 1700.25 258.025C1701.67 251.616 1702.4 230.298 1692.77 229.095C1688.4 228.548 1690.12 219.818 1682.61 218.934C1678 218.392 1678.16 212.399 1673.86 211.172C1667.92 209.474 1656.33 201.153 1650.86 201.153C1646.41 201.153 1622.6 198.957 1629.83 189.016C1635.61 181.07 1643.19 174.862 1649.59 166.86C1657.25 157.282 1666.71 148.703 1676.96 141.316C1684.72 135.733 1695.36 136.996 1704.06 133.131C1714.66 128.421 1726.56 135.917 1736.1 137.506C1747.81 139.458 1759.08 142.727 1771.52 142.727C1793.38 142.727 1793.95 155.377 1793.95 176.613C1793.95 184.628 1809.4 197.821 1805.1 204.257C1801.66 209.431 1816.67 198.827 1822.89 198.612C1833.65 198.241 1838.8 188.451 1847.72 188.451L1848.54 188.451C1857.45 188.448 1875.5 188.441 1883.29 191.556C1888.08 193.472 1897.19 191.684 1900.93 194.802C1904.41 197.703 1906.37 199.926 1910.67 201.717C1918.83 205.119 1921.68 221.083 1929.01 224.015C1935.24 226.508 1932.77 233.321 1935.36 237.986C1937.4 241.663 1941.1 244.21 1943.69 247.441C1947.33 251.998 1944.25 270.157 1944.25 276.089C1944.25 291.209 1964.71 270.194 1966.13 269.88C1979.35 266.941 1990.1 274.667 1998.73 262.682C2006.88 251.361 2003.38 240.502 2008.04 227.684C2010.58 220.696 2015.38 215.44 2015.38 207.362C2015.38 203.03 2016.03 195.511 2019.05 192.121C2027.24 182.908 2019.82 167.181 2026.1 158.533C2032.95 149.116 2032.47 138.141 2035.84 126.357C2037.59 120.235 2044.73 119.159 2045.72 112.245C2046.37 107.662 2048.25 101.396 2052.35 98.9792C2056.53 96.524 2058.22 89.7718 2063.08 89.3828C2069.11 88.9002 2075.37 89.3828 2081.42 89.3828C2094.2 89.3828 2106.03 89.8152 2118.4 92.0642C2141.89 96.3355 2164.74 107.627 2186.56 117.325C2191.6 119.567 2205.67 131.354 2205.9 135.107C2206.42 144.111 2232.75 127.446 2235.81 124.381C2238.47 121.728 2237.91 117.654 2242.02 117.325C2247.08 116.92 2248.67 115.33 2249.08 110.269C2249.51 104.835 2258 108.509 2259.1 101.943C2260.11 95.8492 2266.23 95.5221 2269.4 88.395C2271.63 83.3719 2278.22 84.3024 2282.67 84.3024C2292.82 84.3024 2305.16 87.5568 2315.27 89.2417C2320.3 90.0806 2337.81 93.6608 2340.53 98.4147C2342.76 102.331 2351.44 103.871 2355.77 106.035C2360.48 108.391 2363.58 114.078 2367.9 117.325C2374.1 121.975 2369 128.375 2378.07 132.002C2381 133.177 2385.67 138.974 2388.65 141.457Z" fill="#4D0D2C"/>
<path d="M2442.14 170.67C2415.37 166.913 2407.1 156.833 2388.65 141.457C2385.67 138.974 2381 133.177 2378.07 132.002C2369 128.375 2374.1 121.975 2367.9 117.325C2363.58 114.078 2360.48 108.391 2355.77 106.035C2351.44 103.871 2342.76 102.331 2340.53 98.4147C2337.81 93.6608 2320.3 90.0806 2315.27 89.2417C2305.16 87.5568 2292.82 84.3024 2282.67 84.3024C2278.22 84.3024 2271.63 83.3719 2269.4 88.395C2266.23 95.5221 2260.11 95.8492 2259.1 101.943C2258 108.509 2249.51 104.835 2249.08 110.269C2248.67 115.33 2247.08 116.92 2242.02 117.325C2237.91 117.654 2238.47 121.728 2235.81 124.381C2232.75 127.446 2206.42 144.111 2205.9 135.107C2205.67 131.354 2191.6 119.567 2186.56 117.325C2164.74 107.627 2141.89 96.3355 2118.4 92.0642C2106.03 89.8152 2094.2 89.3828 2081.42 89.3828C2075.37 89.3828 2069.11 88.9002 2063.08 89.3828C2058.22 89.7718 2056.53 96.524 2052.35 98.9792C2048.25 101.396 2046.37 107.662 2045.72 112.245C2044.73 119.159 2037.59 120.235 2035.84 126.357C2032.47 138.141 2032.95 149.116 2026.1 158.533C2019.82 167.181 2027.24 182.908 2019.05 192.121C2016.03 195.511 2015.38 203.03 2015.38 207.362C2015.38 215.44 2010.58 220.696 2008.04 227.684C2003.38 240.502 2006.88 251.361 1998.73 262.682C1990.1 274.667 1979.35 266.941 1966.13 269.88C1964.71 270.194 1944.25 291.209 1944.25 276.089C1944.25 270.157 1947.33 251.998 1943.69 247.441C1941.1 244.21 1937.4 241.663 1935.36 237.986C1932.77 233.321 1935.24 226.508 1929.01 224.015C1921.68 221.083 1918.83 205.119 1910.67 201.717C1906.37 199.926 1904.41 197.703 1900.93 194.802C1897.19 191.684 1888.08 193.472 1883.29 191.556C1875.25 188.342 1856.3 188.451 1847.72 188.451C1838.8 188.451 1833.65 198.241 1822.89 198.612C1816.67 198.827 1801.66 209.431 1805.1 204.257C1809.4 197.821 1793.95 184.628 1793.95 176.613C1793.95 155.377 1793.38 142.727 1771.52 142.727C1759.08 142.727 1747.81 139.458 1736.1 137.506C1726.56 135.917 1714.66 128.421 1704.06 133.131C1695.36 136.996 1684.72 135.733 1676.96 141.316C1666.71 148.703 1657.25 157.282 1649.59 166.86C1643.19 174.862 1635.61 181.07 1629.83 189.016C1622.6 198.957 1646.41 201.153 1650.86 201.153C1656.33 201.153 1667.92 209.474 1673.86 211.172C1678.16 212.399 1678 218.392 1682.61 218.934C1690.12 219.818 1688.4 228.548 1692.77 229.095C1702.4 230.298 1701.67 251.616 1700.25 258.025C1699.81 260.015 1693.41 267.513 1692.21 269.174C1690.21 271.923 1690.38 273.087 1690.23 276.795C1690.07 280.866 1685.73 280.447 1683.17 283.004C1676.73 289.451 1677.53 308.701 1677.53 317.438C1677.53 330.175 1679.43 343.052 1691.5 349.755C1696.93 352.772 1705.65 351.026 1711.68 351.026C1726.36 351.026 1741.03 351.026 1755.71 351.026C1809.83 351.026 1864.03 342.383 1918.14 347.215C1998.45 354.385 2077.18 361.186 2157.63 361.186C2191.08 361.186 2224.52 361.186 2257.97 361.186C2278.07 361.186 2296.52 351.763 2313.85 342.135C2318.53 339.537 2328.73 329.33 2334.04 330.845C2343.74 333.618 2346.91 340.865 2358.31 340.865C2364.92 340.865 2380.58 341.051 2384.98 345.945C2390.39 351.95 2409.27 348.485 2417.3 348.485C2428.12 348.485 2438.94 348.485 2449.76 348.485C2461.47 348.485 2468.34 332.265 2470.22 321.954C2471.21 316.531 2473.91 311.116 2475.72 305.866C2478.34 298.303 2477.32 290.662 2479.67 283.004C2482.52 273.755 2480.24 260.458 2480.24 250.828C2480.24 240.62 2480.24 230.412 2480.24 220.204C2480.24 213.97 2475.51 212.135 2475.16 206.233C2475.09 205.021 2472.75 194.963 2472.05 194.096C2464.84 185.081 2462.22 177.595 2453.57 170.67C2446.85 165.292 2424.34 165.572 2434.52 175.75" stroke="white" stroke-width="2.69065" stroke-linecap="round"/>
<g filter="url(#filter1_i)">
<path d="M2479.55 107.325C2479.54 107.309 2479.53 107.295 2479.52 107.278C2479.38 107.117 2479.26 106.949 2479.13 106.788C2479.08 106.732 2479.03 106.685 2478.98 106.628C2478.82 106.45 2478.66 106.276 2478.49 106.105C2478.36 105.966 2478.22 105.831 2478.08 105.7C2477.94 105.569 2477.8 105.442 2477.65 105.315C2477.47 105.161 2477.29 105.013 2477.1 104.872C2477.04 104.826 2476.99 104.777 2476.92 104.733C2476.85 104.68 2476.77 104.639 2476.7 104.589C2476.49 104.444 2476.28 104.307 2476.07 104.176C2475.93 104.092 2475.79 104.013 2475.65 103.935C2475.44 103.822 2475.23 103.714 2475.02 103.612C2474.86 103.534 2474.7 103.459 2474.53 103.389C2474.34 103.309 2474.15 103.233 2473.95 103.162C2473.76 103.092 2473.57 103.027 2473.38 102.968C2473.2 102.912 2473.03 102.863 2472.85 102.816C2472.64 102.761 2472.43 102.712 2472.22 102.667C2472.05 102.632 2471.87 102.601 2471.7 102.573C2471.49 102.54 2471.28 102.508 2471.06 102.487C2470.88 102.467 2470.7 102.454 2470.51 102.441C2470.31 102.429 2470.11 102.419 2469.91 102.417C2469.71 102.414 2469.51 102.419 2469.31 102.425C2469.13 102.432 2468.94 102.44 2468.76 102.455C2468.54 102.472 2468.33 102.499 2468.11 102.528C2467.94 102.55 2467.78 102.575 2467.61 102.604C2467.39 102.642 2467.16 102.691 2466.94 102.745C2466.78 102.781 2466.62 102.82 2466.47 102.864C2466.25 102.925 2466.03 102.994 2465.82 103.066C2465.65 103.122 2465.49 103.18 2465.33 103.242C2465.13 103.319 2464.94 103.401 2464.74 103.488C2464.56 103.569 2464.38 103.653 2464.21 103.743C2464.04 103.828 2463.87 103.917 2463.71 104.01C2463.51 104.122 2463.32 104.242 2463.12 104.366C2462.99 104.455 2462.85 104.545 2462.71 104.642C2462.51 104.786 2462.31 104.938 2462.11 105.095C2462.04 105.152 2461.97 105.197 2461.9 105.255C2461.84 105.303 2461.8 105.356 2461.74 105.405C2461.56 105.559 2461.39 105.72 2461.22 105.887C2461.08 106.023 2460.94 106.159 2460.81 106.3C2460.68 106.44 2460.55 106.583 2460.43 106.732C2460.27 106.914 2460.12 107.098 2459.98 107.289C2459.94 107.348 2459.89 107.398 2459.85 107.459C2451.52 118.95 2442.91 130.833 2431.91 138.643C2423.58 144.543 2410.79 149.364 2399.84 145.2C2391.99 142.21 2387.79 135.651 2381.03 124.315C2371.07 107.61 2357.44 84.7322 2318.89 74.2206C2269.21 60.6596 2229.16 100.147 2212.1 120.961C2204.85 114.084 2194.71 104.936 2184.96 97.7388C2154.18 75.027 2116.12 65.8943 2083.14 73.3058C2044.63 81.9636 2014.59 113.315 2010.1 149.544C2009.13 157.393 2009.54 165.624 2011.25 173.681C1991.08 201.053 1985.69 244.008 1999.02 276.641C2014.45 314.471 2039.45 326.847 2057.7 330.567C2065.94 332.247 2073.48 332.342 2079.56 331.845C2082.38 348.298 2091.25 374.62 2118.99 390.18C2129.83 396.267 2142.64 399.333 2155.78 399.332C2167.16 399.332 2178.79 397.031 2189.62 392.395C2207.1 384.916 2219.93 363.617 2226.41 343.813C2250.12 361.137 2281.09 367.55 2307.88 359.407C2341.8 349.095 2365.83 315.586 2365 281.978C2375.87 285.431 2387.29 287.122 2398.74 287.122C2429.75 287.122 2460.92 274.722 2481.56 251.386C2514.45 214.217 2513.47 148.412 2479.55 107.325ZM2463.24 235.184C2437.83 263.915 2389.74 271.118 2356.68 251.67C2340.95 223.383 2307.24 208.286 2278.29 217.138C2263.73 221.589 2250.9 233.082 2244.82 247.13C2239.84 258.635 2239.89 270.667 2244.97 281.011C2247.95 287.072 2255.28 289.574 2261.34 286.596C2267.4 283.616 2269.9 276.289 2266.93 270.227C2264.53 265.349 2265.78 260.261 2267.26 256.851C2270.48 249.427 2277.78 242.867 2285.44 240.526C2303.99 234.856 2326.88 246.156 2336.45 265.717C2338.22 269.344 2339.43 273.078 2340.03 276.823C2344 301.227 2326.02 328.33 2300.77 336.008C2276.08 343.518 2246.24 333.775 2228.22 312.32C2224.99 308.472 2219.74 306.993 2214.98 308.587C2210.22 310.179 2206.91 314.522 2206.65 319.536C2205.71 337.115 2192.98 364.359 2180 369.915C2163.5 376.974 2144.71 376.569 2130.96 368.853C2102.39 352.826 2102.7 319.21 2102.73 317.846C2102.84 313.854 2101.04 310.045 2097.84 307.665C2094.63 305.284 2090.5 304.602 2086.72 305.867C2086.6 305.902 2075.21 309.441 2061.66 306.407C2044.07 302.468 2030.62 289.349 2021.66 267.402C2013.68 247.846 2014.82 221.906 2023.29 201.879C2035.19 219.424 2053.5 231.308 2073.42 233.288C2075.46 233.49 2077.49 233.59 2079.52 233.59C2098.33 233.59 2116.12 224.978 2126.02 210.704C2138.93 192.059 2136.15 165.597 2119.81 151.719C2114.66 147.349 2106.94 147.973 2102.57 153.121C2098.2 158.268 2098.83 165.985 2103.97 170.359C2110.64 176.024 2111.56 188.618 2105.91 196.776C2100.03 205.262 2087.95 210.158 2075.84 208.951C2058.2 207.2 2042.31 192.76 2036.3 173.011C2034.22 166.214 2033.56 159.146 2034.38 152.564C2037.57 126.804 2060.33 103.509 2088.5 97.1759C2114.66 91.2952 2145.29 98.8646 2170.43 117.427C2186.42 129.223 2204.55 147.816 2204.73 148.003C2207.32 150.664 2210.98 152.008 2214.67 151.644C2218.37 151.291 2221.71 149.272 2223.74 146.167C2224.14 145.554 2264.63 84.7877 2312.46 97.8256C2341.48 105.741 2350.49 120.851 2360.02 136.845C2367.36 149.166 2374.96 161.905 2391.15 168.067C2408.08 174.509 2428.61 170.969 2446.06 158.599C2455.23 152.089 2462.73 143.93 2469.32 135.621C2486.84 167.318 2485.07 210.513 2463.24 235.184Z" fill="#410824"/>
<path d="M1607.89 201.019C1607.88 201.038 1607.88 201.056 1607.87 201.076C1607.82 201.278 1607.75 201.476 1607.7 201.679C1607.69 201.751 1607.68 201.82 1607.66 201.893C1607.61 202.123 1607.56 202.357 1607.53 202.593C1607.49 202.784 1607.46 202.973 1607.44 203.163C1607.42 203.354 1607.4 203.547 1607.38 203.741C1607.37 203.978 1607.35 204.213 1607.35 204.449C1607.35 204.523 1607.34 204.594 1607.34 204.669C1607.34 204.759 1607.35 204.846 1607.35 204.935C1607.36 205.19 1607.37 205.44 1607.4 205.691C1607.41 205.853 1607.43 206.012 1607.45 206.171C1607.48 206.405 1607.51 206.637 1607.55 206.867C1607.59 207.044 1607.62 207.221 1607.66 207.396C1607.71 207.598 1607.76 207.799 1607.82 207.997C1607.88 208.191 1607.93 208.384 1608 208.573C1608.06 208.749 1608.12 208.923 1608.19 209.095C1608.27 209.295 1608.35 209.493 1608.44 209.687C1608.51 209.848 1608.59 210.007 1608.67 210.165C1608.77 210.356 1608.87 210.545 1608.98 210.73C1609.07 210.888 1609.16 211.044 1609.26 211.201C1609.37 211.371 1609.48 211.54 1609.6 211.704C1609.71 211.867 1609.84 212.025 1609.96 212.184C1610.07 212.327 1610.19 212.471 1610.31 212.611C1610.45 212.777 1610.6 212.935 1610.75 213.094C1610.87 213.215 1610.98 213.334 1611.1 213.45C1611.27 213.61 1611.44 213.761 1611.61 213.911C1611.73 214.017 1611.86 214.121 1611.99 214.221C1612.17 214.363 1612.35 214.496 1612.53 214.629C1612.68 214.729 1612.82 214.827 1612.96 214.92C1613.14 215.034 1613.32 215.144 1613.51 215.249C1613.68 215.346 1613.85 215.441 1614.03 215.532C1614.2 215.617 1614.37 215.698 1614.54 215.775C1614.74 215.869 1614.96 215.958 1615.17 216.04C1615.32 216.099 1615.48 216.156 1615.63 216.208C1615.87 216.288 1616.11 216.361 1616.35 216.427C1616.44 216.451 1616.52 216.484 1616.61 216.506C1616.68 216.524 1616.75 216.531 1616.83 216.548C1617.06 216.601 1617.29 216.645 1617.52 216.684C1617.71 216.717 1617.9 216.747 1618.1 216.771C1618.29 216.794 1618.48 216.811 1618.67 216.825C1618.91 216.843 1619.14 216.855 1619.38 216.858C1619.46 216.858 1619.53 216.869 1619.6 216.869C1633.79 216.833 1648.47 216.796 1661.26 221.087C1670.93 224.34 1682.35 231.84 1685.44 243.141C1687.64 251.247 1684.82 258.508 1679.63 270.644C1672 288.528 1661.53 313.02 1675.74 350.365C1694.03 398.51 1749.53 407.622 1776.4 409.159C1775.11 419.066 1773.69 432.649 1773.61 444.77C1773.38 483.015 1788.41 519.157 1813.82 541.453C1843.5 567.481 1886.52 573.292 1918.45 555.59C1925.36 551.757 1931.77 546.574 1937.28 540.445C1971.28 540.637 2009.17 519.696 2027.7 489.709C2049.19 454.958 2044.47 427.467 2036.73 410.525C2033.23 402.873 2028.87 396.725 2024.89 392.104C2036.53 380.136 2052.58 357.464 2048.82 325.885C2047.35 313.536 2042.29 301.382 2034.55 290.76C2027.85 281.563 2019.14 273.515 2009.02 267.491C1992.68 257.77 1967.91 259.94 1948.09 266.368C1948.13 237 1935.07 208.189 1912.72 191.332C1884.41 169.995 1843.18 170.301 1816.51 190.763C1812.9 179.944 1807.53 169.713 1800.79 160.458C1782.53 135.397 1754.16 117.507 1723.14 114.567C1673.73 109.87 1621.12 149.409 1607.89 201.019ZM1720.83 138.914C1759.02 142.531 1793.16 177.159 1796.91 215.331C1783.31 244.707 1790.96 280.843 1815.16 299.028C1827.33 308.175 1844.17 311.773 1859.11 308.417C1871.34 305.67 1881.03 298.541 1886.4 288.342C1889.55 282.367 1887.25 274.971 1881.28 271.825C1875.3 268.68 1867.9 270.974 1864.76 276.95C1862.23 281.76 1857.37 283.74 1853.75 284.554C1845.85 286.327 1836.25 284.286 1829.85 279.478C1814.34 267.819 1810 242.667 1820.17 223.414C1822.06 219.845 1824.37 216.67 1827.04 213.975C1844.43 196.398 1876.92 194.97 1897.99 210.86C1918.6 226.39 1928.3 256.245 1921.57 283.444C1920.36 288.32 1922.26 293.434 1926.35 296.347C1930.44 299.258 1935.9 299.372 1940.11 296.634C1954.86 287.036 1984.38 281.285 1996.51 288.505C2011.93 297.682 2022.67 313.107 2024.53 328.767C2028.4 361.297 2001.05 380.839 1999.93 381.622C1996.64 383.88 1994.62 387.578 1994.58 391.57C1994.55 395.564 1996.43 399.303 1999.68 401.617C1999.77 401.688 2009.34 408.814 2014.87 421.548C2022.04 438.083 2019.36 456.685 2006.9 476.845C1995.79 494.817 1974.15 509.166 1952.98 514.116C1960.15 494.165 1958.98 472.369 1948.85 455.102C1947.81 453.334 1946.69 451.629 1945.5 449.994C1934.42 434.788 1916.99 425.48 1899.62 425.888C1876.95 426.429 1857.2 444.262 1855.6 465.638C1855.1 472.371 1860.15 478.242 1866.89 478.746C1873.62 479.249 1879.49 474.198 1879.99 467.462C1880.65 458.738 1890.28 450.576 1900.2 450.339C1910.53 450.097 1921.6 456.978 1927.75 467.478C1936.72 482.762 1934.41 504.108 1921.99 520.599C1917.72 526.279 1912.4 530.978 1906.59 534.192C1883.89 546.779 1851.66 542.098 1829.96 523.062C1809.8 505.381 1797.88 476.169 1798.08 444.915C1798.2 425.046 1802.55 399.446 1802.59 399.188C1803.22 395.531 1802.15 391.781 1799.68 389.01C1797.22 386.232 1793.62 384.722 1789.92 384.907C1789.18 384.942 1716.23 387.997 1698.6 341.668C1687.91 313.547 1694.82 297.372 1702.13 280.247C1707.77 267.057 1713.59 253.419 1709.04 236.705C1704.27 219.224 1689.33 204.717 1669.05 197.899C1658.39 194.323 1647.38 193.063 1636.78 192.627C1652.09 159.806 1688.04 135.799 1720.83 138.914Z" fill="#410824"/>
</g>
<path d="M-19.0271 141.457C-35.2083 154.942 -43.557 164.353 -63.4225 168.999C-67.1876 165.945 -79.3125 166.965 -83.9438 170.67C-92.6007 177.595 -95.2185 185.081 -102.431 194.096C-103.124 194.963 -105.464 205.021 -105.536 206.233C-105.883 212.135 -110.616 213.97 -110.616 220.204V250.828C-110.616 260.458 -112.897 273.755 -110.052 283.004C-107.695 290.662 -108.718 298.303 -106.1 305.866C-104.283 311.116 -101.582 316.531 -100.596 321.954C-98.7217 332.265 -91.8484 348.485 -80.1335 348.485H-47.6751C-39.6458 348.485 -20.7624 351.95 -15.3579 345.945C-10.9531 341.051 4.7061 340.865 11.3145 340.865C22.7109 340.865 25.8813 333.618 35.5877 330.845C40.8913 329.33 51.092 339.537 55.7683 342.135C73.1 351.763 91.5551 361.186 111.653 361.186H211.992C292.448 361.186 371.178 354.385 451.478 347.215C505.596 342.383 559.793 351.026 613.911 351.026H657.942C663.969 351.026 672.692 352.772 678.122 349.755C690.189 343.052 692.094 330.175 692.094 317.438C692.094 308.701 692.895 289.451 686.449 283.004C683.892 280.447 679.555 280.866 679.393 276.795C679.244 273.087 679.416 271.923 677.417 269.174C676.209 267.513 669.815 260.015 669.373 258.025C667.949 251.616 667.224 230.298 676.852 229.095C681.226 228.548 679.5 219.818 687.013 218.934C691.619 218.392 691.468 212.399 695.763 211.172C701.706 209.474 713.295 201.153 718.766 201.153C723.217 201.153 747.023 198.957 739.793 189.016C734.014 181.07 726.438 174.862 720.036 166.86C712.374 157.282 702.917 148.703 692.658 141.316C684.904 135.733 674.259 136.996 665.562 133.131C654.966 128.421 643.059 135.917 633.527 137.506C621.813 139.458 610.54 142.727 598.105 142.727C576.248 142.727 575.676 155.377 575.676 176.613C575.676 184.628 560.227 197.821 564.518 204.257C567.968 209.431 552.952 198.827 546.737 198.612C535.978 198.241 530.821 188.451 521.899 188.451L521.081 188.451C512.174 188.448 494.123 188.441 486.336 191.556C481.545 193.472 472.437 191.684 468.695 194.802C465.214 197.703 463.256 199.926 458.958 201.717C450.793 205.119 447.94 221.083 440.612 224.015C434.379 226.508 436.853 233.321 434.261 237.986C432.218 241.663 428.52 244.21 425.935 247.441C422.289 251.998 425.37 270.157 425.37 276.089C425.37 291.209 404.912 270.194 403.496 269.88C390.272 266.941 379.525 274.667 370.897 262.682C362.746 251.361 366.244 240.502 361.583 227.684C359.042 220.696 354.244 215.44 354.244 207.362C354.244 203.03 353.588 195.511 350.575 192.121C342.386 182.908 349.808 167.181 343.519 158.533C336.67 149.116 337.148 138.141 333.781 126.357C332.032 120.235 324.891 119.159 323.903 112.245C323.248 107.662 321.378 101.396 317.27 98.9792C313.096 96.524 311.407 89.7718 306.545 89.3828C300.512 88.9002 294.254 89.3828 288.199 89.3828C275.425 89.3828 263.594 89.8152 251.224 92.0642C227.732 96.3355 204.883 107.627 183.062 117.325C178.018 119.567 163.948 131.354 163.728 135.107C163.198 144.111 136.874 127.446 133.81 124.381C131.156 121.728 131.715 117.654 127.6 117.325C122.54 116.92 120.949 115.33 120.544 110.269C120.109 104.835 111.619 108.509 110.524 101.943C109.509 95.8492 103.39 95.5221 100.222 88.395C97.9897 83.3719 91.4021 84.3024 86.9566 84.3024C76.8007 84.3024 64.4664 87.5568 54.3571 89.2417C49.3235 90.0806 31.8125 93.6608 29.096 98.4147C26.8583 102.331 18.1844 103.871 13.8547 106.035C9.14301 108.391 6.04732 114.078 1.71806 117.325C-4.48106 121.975 0.62468 128.375 -8.44282 132.002C-11.379 133.177 -16.0475 138.974 -19.0271 141.457Z" fill="#4D0D2C"/>
<path d="M-72.5128 170.67C-45.7445 166.913 -37.4775 156.833 -19.0271 141.457C-16.0475 138.974 -11.379 133.177 -8.44282 132.002C0.624679 128.375 -4.48106 121.975 1.71806 117.325C6.04732 114.078 9.14301 108.391 13.8547 106.035C18.1844 103.871 26.8583 102.331 29.096 98.4147C31.8125 93.6608 49.3235 90.0806 54.3571 89.2417C64.4664 87.5568 76.8007 84.3024 86.9566 84.3024C91.4021 84.3024 97.9897 83.3719 100.222 88.395C103.39 95.5221 109.509 95.8492 110.524 101.943C111.619 108.509 120.109 104.835 120.544 110.269C120.949 115.33 122.54 116.92 127.6 117.325C131.715 117.654 131.156 121.728 133.81 124.381C136.874 127.446 163.198 144.111 163.728 135.107C163.948 131.354 178.018 119.567 183.062 117.325C204.883 107.627 227.732 96.3355 251.224 92.0642C263.594 89.8152 275.425 89.3828 288.199 89.3828C294.254 89.3828 300.512 88.9002 306.545 89.3828C311.407 89.7718 313.096 96.524 317.27 98.9792C321.378 101.396 323.248 107.662 323.903 112.245C324.89 119.159 332.032 120.235 333.781 126.357C337.148 138.141 336.67 149.116 343.519 158.533C349.808 167.181 342.386 182.908 350.575 192.121C353.588 195.511 354.244 203.03 354.244 207.362C354.244 215.44 359.042 220.696 361.583 227.684C366.244 240.502 362.746 251.361 370.897 262.682C379.525 274.667 390.272 266.941 403.496 269.88C404.912 270.194 425.37 291.209 425.37 276.089C425.37 270.157 422.289 251.998 425.935 247.441C428.52 244.21 432.218 241.663 434.261 237.986C436.853 233.321 434.379 226.508 440.612 224.015C447.94 221.083 450.793 205.119 458.958 201.717C463.256 199.926 465.214 197.703 468.695 194.802C472.437 191.684 481.545 193.472 486.336 191.556C494.37 188.342 513.328 188.451 521.899 188.451C530.821 188.451 535.978 198.241 546.737 198.612C552.952 198.827 567.968 209.431 564.518 204.257C560.227 197.821 575.676 184.628 575.676 176.613C575.676 155.377 576.248 142.727 598.105 142.727C610.54 142.727 621.813 139.458 633.527 137.506C643.059 135.917 654.966 128.421 665.562 133.131C674.259 136.996 684.904 135.733 692.658 141.316C702.917 148.703 712.374 157.282 720.036 166.86C726.438 174.862 734.014 181.07 739.793 189.016C747.023 198.957 723.217 201.153 718.766 201.153C713.295 201.153 701.706 209.474 695.763 211.172C691.468 212.399 691.619 218.392 687.013 218.934C679.5 219.818 681.226 228.548 676.852 229.095C667.224 230.298 667.949 251.616 669.373 258.025C669.815 260.015 676.209 267.513 677.417 269.174C679.416 271.923 679.244 273.087 679.393 276.795C679.555 280.866 683.892 280.447 686.449 283.004C692.895 289.451 692.094 308.701 692.094 317.438C692.094 330.175 690.189 343.052 678.122 349.755C672.692 352.772 663.969 351.026 657.942 351.026C643.265 351.026 628.588 351.026 613.911 351.026C559.793 351.026 505.596 342.383 451.478 347.215C371.178 354.385 292.448 361.186 211.992 361.186C178.546 361.186 145.099 361.186 111.653 361.186C91.5551 361.186 73.1 351.763 55.7683 342.135C51.092 339.537 40.8913 329.33 35.5877 330.845C25.8813 333.618 22.7109 340.865 11.3145 340.865C4.7061 340.865 -10.9531 341.051 -15.3579 345.945C-20.7624 351.95 -39.6458 348.485 -47.6751 348.485C-58.4946 348.485 -69.314 348.485 -80.1335 348.485C-91.8484 348.485 -98.7217 332.265 -100.596 321.954C-101.582 316.531 -104.283 311.116 -106.1 305.866C-108.718 298.303 -107.695 290.662 -110.052 283.004C-112.897 273.755 -110.616 260.458 -110.616 250.828C-110.616 240.62 -110.616 230.412 -110.616 220.204C-110.616 213.97 -105.883 212.135 -105.536 206.233C-105.464 205.021 -103.124 194.963 -102.431 194.096C-95.2185 185.081 -92.6007 177.595 -83.9438 170.67C-77.222 165.292 -54.7143 165.572 -64.8922 175.75" stroke="white" stroke-width="2.69065" stroke-linecap="round"/>
<g filter="url(#filter2_i)">
<path d="M-109.93 107.325C-109.918 107.309 -109.906 107.295 -109.894 107.278C-109.76 107.117 -109.639 106.949 -109.505 106.788C-109.457 106.732 -109.405 106.685 -109.356 106.628C-109.201 106.45 -109.038 106.276 -108.871 106.105C-108.736 105.966 -108.601 105.831 -108.461 105.7C-108.32 105.569 -108.174 105.442 -108.026 105.315C-107.845 105.161 -107.663 105.013 -107.474 104.872C-107.415 104.826 -107.363 104.777 -107.301 104.733C-107.229 104.68 -107.152 104.639 -107.078 104.589C-106.869 104.444 -106.659 104.307 -106.443 104.176C-106.305 104.092 -106.166 104.013 -106.025 103.935C-105.818 103.822 -105.61 103.714 -105.399 103.612C-105.237 103.534 -105.073 103.459 -104.908 103.389C-104.716 103.309 -104.523 103.233 -104.329 103.162C-104.14 103.092 -103.949 103.027 -103.758 102.968C-103.581 102.912 -103.402 102.863 -103.223 102.816C-103.015 102.761 -102.807 102.712 -102.598 102.667C-102.425 102.632 -102.251 102.601 -102.076 102.573C-101.864 102.54 -101.653 102.508 -101.44 102.487C-101.258 102.467 -101.075 102.454 -100.89 102.441C-100.689 102.429 -100.487 102.419 -100.285 102.417C-100.086 102.414 -99.8863 102.419 -99.6862 102.425C-99.503 102.432 -99.3198 102.44 -99.1353 102.455C-98.9184 102.472 -98.7026 102.499 -98.4857 102.528C-98.3193 102.55 -98.1542 102.575 -97.9891 102.604C-97.7637 102.642 -97.5407 102.691 -97.3165 102.745C-97.1586 102.781 -97.0007 102.82 -96.8452 102.864C-96.6259 102.925 -96.4101 102.994 -96.1932 103.066C-96.0293 103.122 -95.8665 103.18 -95.705 103.242C-95.5086 103.319 -95.3121 103.401 -95.1192 103.488C-94.9396 103.569 -94.7612 103.653 -94.5841 103.743C-94.4165 103.828 -94.2514 103.917 -94.0875 104.01C-93.8898 104.122 -93.6933 104.242 -93.5017 104.366C-93.3631 104.455 -93.2269 104.545 -93.0919 104.642C-92.8882 104.786 -92.6869 104.938 -92.4904 105.095C-92.4205 105.152 -92.3458 105.197 -92.2771 105.255C-92.2192 105.303 -92.1722 105.356 -92.1156 105.405C-91.9372 105.559 -91.766 105.72 -91.5961 105.887C-91.4563 106.023 -91.3201 106.159 -91.1875 106.3C-91.0573 106.44 -90.9319 106.583 -90.8066 106.732C-90.6511 106.914 -90.5017 107.098 -90.3594 107.289C-90.316 107.348 -90.2654 107.398 -90.222 107.459C-81.8945 118.95 -73.2825 130.833 -62.2839 138.643C-53.9612 144.543 -41.1691 149.364 -30.2212 145.2C-22.3697 142.21 -18.1643 135.651 -11.4085 124.315C-1.45137 107.61 12.1832 84.7322 50.7306 74.2206C100.417 60.6596 140.461 100.147 157.526 120.961C164.773 114.084 174.914 104.936 184.667 97.7388C215.439 75.027 253.502 65.8943 286.488 73.3058C324.998 81.9636 355.029 113.315 359.522 149.544C360.498 157.393 360.082 165.624 358.369 173.681C378.548 201.053 383.934 244.008 370.607 276.641C355.173 314.471 330.176 326.847 311.925 330.567C303.682 332.247 296.143 332.342 290.064 331.845C287.245 348.298 278.37 374.62 250.634 390.18C239.79 396.267 226.987 399.333 213.844 399.332C202.465 399.332 190.831 397.031 180.001 392.395C162.524 384.916 149.692 363.617 143.217 343.813C119.503 361.137 88.5282 367.55 61.7388 359.407C27.8271 349.095 3.79299 315.586 4.62466 281.978C-6.24492 285.431 -17.6714 287.122 -29.1219 287.122C-60.1288 287.122 -91.2984 274.722 -111.937 251.386C-144.828 214.217 -143.85 148.412 -109.93 107.325ZM-93.6174 235.184C-68.2104 263.915 -20.1194 271.118 12.9401 251.67C28.6768 223.383 62.3872 208.286 91.3366 217.138C105.896 221.589 118.72 233.082 124.804 247.13C129.786 258.635 129.732 270.667 124.65 281.011C121.672 287.072 114.345 289.574 108.282 286.596C102.221 283.616 99.7208 276.289 102.698 270.227C105.095 265.349 103.838 260.261 102.36 256.851C99.1459 249.427 91.8416 242.867 84.1866 240.526C65.6307 234.856 42.7441 246.156 33.1751 265.717C31.4021 269.344 30.1943 273.078 29.588 276.823C25.6201 301.227 43.5999 328.33 68.8526 336.008C93.5387 343.518 123.379 333.775 141.4 312.32C144.63 308.472 149.879 306.993 154.644 308.587C159.406 310.179 162.711 314.522 162.976 319.536C163.909 337.115 176.642 364.359 189.622 369.915C206.119 376.974 224.909 376.569 238.663 368.853C267.234 352.826 266.922 319.21 266.896 317.846C266.782 313.854 268.583 310.045 271.788 307.665C274.994 305.284 279.123 304.602 282.908 305.867C283.021 305.902 294.416 309.441 307.962 306.407C325.55 302.468 339.006 289.349 347.96 267.402C355.948 247.846 354.803 221.906 346.337 201.879C334.435 219.424 316.125 231.308 296.205 233.288C294.164 233.49 292.129 233.59 290.105 233.59C271.292 233.59 253.5 224.978 243.606 210.704C230.691 192.059 233.476 165.597 249.813 151.719C254.96 147.349 262.679 147.973 267.052 153.121C271.425 158.268 270.798 165.985 265.65 170.359C258.983 176.024 258.06 188.618 263.711 196.776C269.594 205.262 281.675 210.158 293.786 208.951C311.421 207.2 327.311 192.76 333.326 173.011C335.402 166.214 336.066 159.146 335.248 152.564C332.054 126.804 309.29 103.509 281.124 97.1759C254.964 91.2952 224.335 98.8646 199.19 117.427C183.201 129.223 165.073 147.816 164.891 148.003C162.305 150.664 158.644 152.008 154.951 151.644C151.257 151.291 147.918 149.272 145.885 146.167C145.481 145.554 104.989 84.7877 57.167 97.8256C28.1417 105.741 19.1367 120.851 9.60264 136.845C2.25862 149.166 -5.3337 161.905 -21.5236 168.067C-38.4583 174.509 -58.9861 170.969 -76.4344 158.599C-85.602 152.089 -93.1051 143.93 -99.6982 135.621C-117.213 167.318 -115.446 210.513 -93.6174 235.184Z" fill="#410824"/>
<path d="M761.736 201.019C761.741 201.038 761.746 201.056 761.753 201.076C761.803 201.278 761.868 201.476 761.919 201.679C761.936 201.751 761.944 201.82 761.961 201.893C762.014 202.123 762.058 202.357 762.098 202.593C762.13 202.784 762.16 202.973 762.184 203.163C762.207 203.354 762.223 203.547 762.238 203.741C762.257 203.978 762.269 204.213 762.272 204.449C762.274 204.523 762.284 204.594 762.282 204.669C762.283 204.759 762.27 204.846 762.268 204.935C762.261 205.19 762.249 205.44 762.227 205.691C762.214 205.853 762.196 206.012 762.176 206.171C762.145 206.405 762.111 206.637 762.068 206.867C762.036 207.044 762 207.221 761.959 207.396C761.912 207.598 761.859 207.799 761.803 207.997C761.748 208.191 761.688 208.384 761.623 208.573C761.563 208.749 761.498 208.923 761.431 209.095C761.352 209.295 761.27 209.493 761.183 209.687C761.109 209.848 761.032 210.007 760.951 210.165C760.854 210.356 760.755 210.545 760.647 210.73C760.555 210.888 760.458 211.044 760.36 211.201C760.251 211.371 760.14 211.54 760.023 211.704C759.908 211.867 759.787 212.025 759.664 212.184C759.55 212.327 759.436 212.471 759.315 212.611C759.174 212.777 759.025 212.935 758.874 213.094C758.758 213.215 758.641 213.334 758.52 213.45C758.356 213.61 758.185 213.761 758.01 213.911C757.888 214.017 757.763 214.121 757.636 214.221C757.457 214.363 757.275 214.496 757.089 214.629C756.947 214.729 756.805 214.827 756.659 214.92C756.481 215.034 756.299 215.144 756.115 215.249C755.944 215.346 755.771 215.441 755.595 215.532C755.427 215.617 755.258 215.698 755.086 215.775C754.879 215.869 754.667 215.958 754.454 216.04C754.3 216.099 754.147 216.156 753.989 216.208C753.752 216.288 753.511 216.361 753.269 216.427C753.182 216.451 753.101 216.484 753.014 216.506C752.941 216.524 752.87 216.531 752.798 216.548C752.568 216.601 752.337 216.645 752.102 216.684C751.91 216.717 751.719 216.747 751.527 216.771C751.338 216.794 751.148 216.811 750.954 216.825C750.716 216.843 750.479 216.855 750.241 216.858C750.168 216.858 750.097 216.869 750.023 216.869C735.831 216.833 721.155 216.796 708.367 221.087C698.698 224.34 687.268 231.84 684.187 243.141C681.98 251.247 684.805 258.508 689.989 270.644C697.628 288.528 708.09 313.02 693.887 350.365C675.59 398.51 620.095 407.622 593.224 409.159C594.514 419.066 595.937 432.649 596.011 444.77C596.248 483.015 581.216 519.157 555.802 541.453C526.128 567.481 483.104 573.292 451.177 555.59C444.259 551.757 437.851 546.574 432.347 540.445C398.342 540.637 360.452 519.696 341.924 489.709C320.436 454.958 325.153 427.467 332.894 410.525C336.39 402.873 340.751 396.725 344.734 392.104C333.095 380.136 317.047 357.464 320.803 325.885C322.269 313.536 327.329 301.382 335.069 290.76C341.77 281.563 350.48 273.515 360.604 267.491C376.94 257.77 401.711 259.94 421.53 266.368C421.492 237 434.549 208.189 456.905 191.332C485.208 169.995 526.444 170.301 553.118 190.763C556.727 179.944 562.089 169.713 568.832 160.458C587.09 135.397 615.467 117.507 646.481 114.567C695.89 109.87 748.501 149.409 761.736 201.019ZM648.789 138.914C610.606 142.531 576.466 177.159 572.718 215.331C586.314 244.707 578.666 280.843 554.465 299.028C542.294 308.175 525.453 311.773 510.517 308.417C498.284 305.67 488.591 298.541 483.222 288.342C480.078 282.367 482.37 274.971 488.347 271.825C494.325 268.68 501.719 270.974 504.865 276.95C507.396 281.76 512.249 283.74 515.876 284.554C523.769 286.327 533.372 284.286 539.772 279.478C555.281 267.819 559.624 242.667 549.449 223.414C547.562 219.845 545.255 216.67 542.585 213.975C525.197 196.398 492.704 194.97 471.628 210.86C451.022 226.39 441.325 256.245 448.055 283.444C449.263 288.32 447.367 293.434 443.273 296.347C439.182 299.258 433.726 299.372 429.517 296.634C414.759 287.036 385.242 281.285 373.109 288.505C357.688 297.682 346.951 313.107 345.089 328.767C341.219 361.297 368.572 380.839 369.69 381.622C372.984 383.88 375.002 387.578 375.039 391.57C375.075 395.564 373.195 399.303 369.943 401.617C369.848 401.688 360.278 408.814 354.754 421.548C347.581 438.083 350.261 456.685 362.727 476.845C373.83 494.817 395.469 509.166 416.642 514.116C409.469 494.165 410.646 472.369 420.775 455.102C421.813 453.334 422.931 451.629 424.123 449.994C435.201 434.788 452.638 425.48 470.002 425.888C492.676 426.429 512.424 444.262 514.02 465.638C514.522 472.371 509.472 478.242 502.737 478.746C496.002 479.249 490.133 474.198 489.629 467.462C488.976 458.738 479.341 450.576 469.42 450.339C459.097 450.097 448.026 456.978 441.87 467.478C432.901 482.762 435.215 504.108 447.635 520.599C451.906 526.279 457.228 530.978 463.03 534.192C485.731 546.779 517.964 542.098 539.667 523.062C559.825 505.381 571.742 476.169 571.547 444.915C571.427 425.046 567.074 399.446 567.03 399.188C566.402 395.531 567.471 391.781 569.94 389.01C572.401 386.232 575.999 384.722 579.706 384.907C580.439 384.942 653.397 387.997 671.019 341.668C681.713 313.547 674.803 297.372 667.489 280.247C661.856 267.057 656.03 253.419 660.583 236.705C665.348 219.224 680.297 204.717 700.57 197.899C711.23 194.323 722.242 193.063 732.841 192.627C717.535 159.806 681.582 135.799 648.789 138.914Z" fill="#410824"/>
</g>
</g>
<defs>
<filter id="filter0_i" x="1563" y="8" width="942.623" height="612.834" filterUnits="userSpaceOnUse" color-interpolation-filters="sRGB">
<feFlood flood-opacity="0" result="BackgroundImageFix"/>
<feBlend mode="normal" in="SourceGraphic" in2="BackgroundImageFix" result="shape"/>
<feColorMatrix in="SourceAlpha" type="matrix" values="0 0 0 0 0 0 0 0 0 0 0 0 0 0 0 0 0 0 127 0" result="hardAlpha"/>
<feOffset dy="10"/>
<feGaussianBlur stdDeviation="2"/>
<feComposite in2="hardAlpha" operator="arithmetic" k2="-1" k3="1"/>
<feColorMatrix type="matrix" values="0 0 0 0 0 0 0 0 0 0 0 0 0 0 0 0 0 0 0.25 0"/>
<feBlend mode="normal" in2="shape" result="effect1_innerShadow"/>
</filter>
<filter id="filter1_i" x="1563" y="8" width="946.623" height="612.834" filterUnits="userSpaceOnUse" color-interpolation-filters="sRGB">
<feFlood flood-opacity="0" result="BackgroundImageFix"/>
<feBlend mode="normal" in="SourceGraphic" in2="BackgroundImageFix" result="shape"/>
<feColorMatrix in="SourceAlpha" type="matrix" values="0 0 0 0 0 0 0 0 0 0 0 0 0 0 0 0 0 0 127 0" result="hardAlpha"/>
<feOffset dx="5" dy="5"/>
<feGaussianBlur stdDeviation="2"/>
<feComposite in2="hardAlpha" operator="arithmetic" k2="-1" k3="1"/>
<feColorMatrix type="matrix" values="0 0 0 0 0 0 0 0 0 0 0 0 0 0 0 0 0 0 0.25 0"/>
<feBlend mode="normal" in2="shape" result="effect1_innerShadow"/>
</filter>
<filter id="filter2_i" x="-140" y="8" width="946.623" height="612.834" filterUnits="userSpaceOnUse" color-interpolation-filters="sRGB">
<feFlood flood-opacity="0" result="BackgroundImageFix"/>
<feBlend mode="normal" in="SourceGraphic" in2="BackgroundImageFix" result="shape"/>
<feColorMatrix in="SourceAlpha" type="matrix" values="0 0 0 0 0 0 0 0 0 0 0 0 0 0 0 0 0 0 127 0" result="hardAlpha"/>
<feOffset dx="-5" dy="6"/>
<feGaussianBlur stdDeviation="2"/>
<feComposite in2="hardAlpha" operator="arithmetic" k2="-1" k3="1"/>
<feColorMatrix type="matrix" values="0 0 0 0 0 0 0 0 0 0 0 0 0 0 0 0 0 0 0.25 0"/>
<feBlend mode="normal" in2="shape" result="effect1_innerShadow"/>
</filter>
<clipPath id="clip0">
<rect width="2368" height="290" fill="white"/>
</clipPath>
</defs>
</svg>
