<svg width="20" height="21" viewBox="0 0 20 21" fill="none" xmlns="http://www.w3.org/2000/svg">
<path d="M1.493 13.648C1.4683 13.4685 1.37945 13.304 1.24286 13.1849C1.10628 13.0658 0.931203 13.0002 0.75 13.0002C0.568797 13.0002 0.393721 13.0658 0.257137 13.1849C0.120554 13.304 0.0316992 13.4685 0.00699997 13.648L0 13.75V17.252L0.00500011 17.427C0.0476479 18.096 0.333174 18.7264 0.807909 19.1996C1.28264 19.6729 1.91389 19.9564 2.583 19.997L2.75 20.002H6.25L6.352 19.996C6.53227 19.9721 6.69772 19.8836 6.81756 19.7468C6.9374 19.61 7.00347 19.4344 7.00347 19.2525C7.00347 19.0707 6.9374 18.895 6.81756 18.7582C6.69772 18.6215 6.53227 18.5329 6.352 18.509L6.25 18.502H2.75L2.622 18.496C2.3362 18.4665 2.06929 18.3394 1.86621 18.1361C1.66313 17.9329 1.53628 17.6658 1.507 17.38L1.5 17.252V13.75L1.493 13.648V13.648Z" fill="#DB0F71"/>
<path d="M19.9928 13.648C19.9669 13.4598 19.8705 13.2884 19.7231 13.1684C19.5757 13.0485 19.3882 12.989 19.1987 13.002C19.0091 13.0149 18.8315 13.0994 18.7017 13.2382C18.572 13.3771 18.4998 13.56 18.4998 13.75V17.252L18.4938 17.38C18.4621 17.6878 18.3173 17.973 18.0875 18.1802C17.8577 18.3875 17.5592 18.5022 17.2498 18.502H13.7498L13.6478 18.509C13.4595 18.5349 13.2881 18.6313 13.1682 18.7787C13.0483 18.9261 12.9888 19.1136 13.0017 19.3031C13.0147 19.4927 13.0991 19.6703 13.238 19.8C13.3768 19.9298 13.5597 20.002 13.7498 20.002H17.2498L17.4178 19.997C18.1168 19.9542 18.7731 19.6464 19.2529 19.1363C19.7327 18.6262 19.9998 17.9523 19.9998 17.252V13.75L19.9928 13.648Z" fill="#DB0F71"/>
<path d="M7 0.75C7 0.551088 6.92098 0.360322 6.78033 0.21967C6.63968 0.0790175 6.44891 0 6.25 0H2.75L2.583 0.00500011C1.88384 0.0475365 1.22727 0.35526 0.747257 0.865376C0.267246 1.37549 -1.92068e-05 2.04955 1.03524e-09 2.75V6.252L0.00699997 6.354C0.0329014 6.54225 0.129294 6.71365 0.276701 6.83357C0.424108 6.95348 0.611538 7.01298 0.80112 7.00003C0.990702 6.98707 1.1683 6.90264 1.29803 6.76379C1.42776 6.62494 1.49994 6.44202 1.5 6.252V2.75L1.507 2.622C1.53867 2.31434 1.68328 2.02935 1.91286 1.82211C2.14245 1.61487 2.44071 1.50011 2.75 1.5H6.25L6.352 1.493C6.53155 1.46835 6.69611 1.37952 6.81523 1.24293C6.93436 1.10634 6.99999 0.931238 7 0.75V0.75Z" fill="#DB0F71"/>
<path d="M17.4178 0.00500011L17.2498 0H13.7498L13.6478 0.00699997C13.4683 0.0316992 13.3038 0.120554 13.1847 0.257137C13.0656 0.393721 13 0.568797 13 0.75C13 0.931203 13.0656 1.10628 13.1847 1.24286C13.3038 1.37945 13.4683 1.4683 13.6478 1.493L13.7498 1.5H17.2498L17.3778 1.506C17.6638 1.53532 17.9309 1.66232 18.1342 1.8656C18.3375 2.06888 18.4644 2.33602 18.4938 2.622L18.4998 2.75V6.252L18.5068 6.354C18.5315 6.53351 18.6203 6.69801 18.7569 6.81709C18.8935 6.93617 19.0686 7.00177 19.2498 7.00177C19.431 7.00177 19.606 6.93617 19.7426 6.81709C19.8792 6.69801 19.9681 6.53351 19.9928 6.354L19.9998 6.252V2.75L19.9948 2.576C19.9524 1.90701 19.6671 1.27653 19.1925 0.803086C18.718 0.32964 18.0869 0.0458287 17.4178 0.00500011V0.00500011Z" fill="#DB0F71"/>
<path d="M6.50293 11.5C6.50293 11.0404 6.59346 10.5852 6.76935 10.1606C6.94524 9.73597 7.20305 9.35013 7.52806 9.02513C7.85306 8.70012 8.2389 8.44231 8.66354 8.26642C9.08818 8.09053 9.5433 8 10.0029 8C10.4626 8 10.9177 8.09053 11.3423 8.26642C11.767 8.44231 12.1528 8.70012 12.4778 9.02513C12.8028 9.35013 13.0606 9.73597 13.2365 10.1606C13.4124 10.5852 13.5029 11.0404 13.5029 11.5C13.5029 12.4283 13.1342 13.3185 12.4778 13.9749C11.8214 14.6313 10.9312 15 10.0029 15C9.07467 15 8.18443 14.6313 7.52806 13.9749C6.87168 13.3185 6.50293 12.4283 6.50293 11.5V11.5Z" fill="#DB0F71"/>
<path d="M4.2131 9.743L4.2051 9.764V9.766C4.13468 9.95158 3.99357 10.1017 3.81269 10.1834C3.6318 10.2651 3.4259 10.2718 3.2401 10.202C2.6421 9.978 2.8021 9.233 2.8041 9.228L2.8101 9.213C2.83617 9.1451 2.8652 9.07837 2.8971 9.013C2.9571 8.884 3.0451 8.707 3.1671 8.497C3.4937 7.93976 3.89025 7.4266 4.3471 6.97C5.4691 5.85 7.2781 4.75 10.0031 4.75C12.7291 4.75 14.5381 5.85 15.6581 6.97C16.1149 7.4266 16.5115 7.93976 16.8381 8.497C16.9725 8.72783 17.0921 8.96698 17.1961 9.213L17.2021 9.228L17.2041 9.233V9.235L17.2051 9.237C17.2748 9.42319 17.2676 9.62941 17.1853 9.81036C17.103 9.99131 16.9522 10.1322 16.7661 10.202C16.5799 10.2695 16.3747 10.2615 16.1943 10.1797C16.014 10.0978 15.8728 9.94861 15.8011 9.764L15.7931 9.744C15.7931 9.744 15.7701 9.689 15.7491 9.644C15.6865 9.51056 15.6178 9.38009 15.5431 9.253C15.2815 8.80675 14.9639 8.39576 14.5981 8.03C13.7181 7.15 12.2781 6.25 10.0031 6.25C7.7291 6.25 6.2881 7.15 5.4081 8.03C5.04229 8.39575 4.72471 8.80674 4.4631 9.253C4.37043 9.4114 4.28696 9.57501 4.2131 9.743V9.743Z" fill="#DB0F71"/>
</svg>
