<svg width="1582" height="1582" viewBox="0 0 1582 1582" fill="none" xmlns="http://www.w3.org/2000/svg">



<path d="M790.371 239.139C485.864 239.139 238.139 486.715 238.139 791.038C238.139 1095.36 485.864 1342.94 790.371 1342.94C1094.88 1342.94 1342.6 1095.36 1342.6 791.038C1342.6 486.715 1094.88 239.139 790.371 239.139ZM1283.07 894.396C1280.78 905.312 1277.75 915.935 1274.78 926.583C1270 925.17 1265.17 923.878 1260.25 922.831C1247.89 920.223 1235.09 918.81 1221.97 918.81C1204.42 918.81 1187.5 921.417 1171.41 925.998C1158.92 929.555 1146.93 934.307 1135.67 940.276C1121.09 948 1107.73 957.649 1095.78 968.832C1064.31 998.241 1043 1038.35 1038.02 1083.4C1037.29 1090.12 1036.83 1096.92 1036.83 1103.84C1036.83 1113.59 1037.8 1123.06 1039.27 1132.4C1041.22 1144.94 1044.41 1157.05 1048.78 1168.63C1054.21 1183.1 1061.31 1196.72 1069.99 1209.22C1060.75 1215.41 1051.07 1221.01 1041.41 1226.59C1031.83 1232.12 1022.01 1237.27 1012.03 1242.19C1005.33 1232.08 999.503 1221.35 994.31 1210.29C989.581 1200.23 985.265 1189.92 981.876 1179.18C978.317 1167.85 975.806 1156.1 973.855 1144.17C971.71 1131.01 970.32 1117.61 970.32 1103.87C970.32 1088.39 971.929 1073.31 974.611 1058.62C983.437 1010.35 1006.09 966.956 1038.32 932.504C1057.87 911.574 1080.86 893.982 1106.53 880.679C1116.97 875.269 1127.86 870.64 1139.08 866.717C1149.73 862.989 1160.61 859.724 1171.85 857.434C1188.03 854.145 1204.81 852.39 1221.95 852.39C1235.06 852.39 1247.84 853.706 1260.42 855.655C1269.9 857.117 1279.19 859.066 1288.31 861.552C1286.77 872.516 1285.33 883.602 1283.07 894.396ZM1247.89 999.825C1218.22 1064.49 1175.31 1121.7 1122.55 1168.17C1110.97 1150.33 1104.12 1129.23 1103.61 1106.52C1103.58 1105.59 1103.34 1104.72 1103.34 1103.79C1103.34 1063.71 1123.38 1028.43 1153.85 1006.96C1173.16 993.368 1196.57 985.23 1221.97 985.23C1231.92 985.23 1241.43 986.814 1250.67 989.129C1251.37 989.299 1252.06 989.592 1252.76 989.787C1251.25 993.222 1249.45 996.438 1247.89 999.825ZM1251.76 789.625C1241.94 788.699 1232.02 788.115 1221.95 788.115C1201.22 788.115 1181.01 790.259 1161.39 794.084C1150.44 796.204 1139.69 798.835 1129.18 802.052C1118.48 805.341 1108.02 809.215 1097.8 813.576C1076.91 822.543 1057.33 833.848 1039.05 846.884C1028.34 854.51 1018.2 862.843 1008.55 871.712C996.456 882.823 985.143 894.762 974.904 907.627C948.305 941.007 928.508 979.845 917.147 1022.19C912.856 1038.18 909.443 1054.53 907.712 1071.41C906.615 1082.06 906.054 1092.88 906.054 1103.79C906.054 1106.01 906.347 1108.18 906.396 1110.37C906.883 1133.42 909.907 1155.81 915.099 1177.4C917.733 1188.34 920.926 1199.01 924.681 1209.49C928.411 1219.97 932.677 1230.13 937.456 1240.07C941.918 1249.35 946.818 1258.34 952.133 1267.09C941.284 1270.77 930.264 1273.96 919.098 1276.93C907.956 1279.88 896.814 1282.76 885.38 1284.95C881.016 1276.88 877.188 1268.53 873.41 1260.14C868.851 1250.01 864.779 1239.63 861.098 1229.05C857.441 1218.53 854.271 1207.81 851.516 1196.92C847.299 1180.15 843.861 1163.1 841.959 1145.55C841.52 1141.61 841.374 1137.59 841.082 1133.62C840.326 1123.75 839.57 1113.85 839.57 1103.79C839.57 1102.43 839.765 1101.11 839.765 1099.77C839.887 1088.05 840.375 1076.43 841.52 1065C841.618 1064 841.837 1063.03 841.959 1062.05C844.909 1035.08 850.785 1009.04 859.074 984.036C870.947 948.195 887.989 914.741 909.321 884.479C925.29 861.795 943.746 841.085 964.152 822.397C972.783 814.502 981.73 806.998 991.068 799.907C999.966 793.134 1009.13 786.726 1018.62 780.756C1036.66 769.378 1055.55 759.217 1075.47 750.933C1085.74 746.669 1096.19 742.795 1106.9 739.408C1117.55 736.046 1128.47 733.293 1139.52 730.832C1166.09 724.96 1193.62 721.646 1221.95 721.646C1225.24 721.646 1228.41 722.06 1231.67 722.133C1251.35 722.621 1270.61 724.594 1289.46 727.981C1290.87 739.189 1291.72 750.568 1292.38 761.995C1292.94 771.668 1293.84 781.244 1293.84 791.063C1293.84 792.939 1293.58 794.742 1293.55 796.618C1279.92 793.426 1266.03 790.965 1251.76 789.625ZM329.856 993.636C330.637 993.319 331.49 993.173 332.294 992.881C345.045 988.203 358.649 985.255 373.033 985.255C391.782 985.255 409.287 990.006 425.06 997.754C464.361 1017.08 491.667 1057.08 491.667 1103.82C491.667 1110.01 490.765 1115.95 489.838 1121.87C486.718 1142.07 478.575 1160.39 466.628 1175.86C411.432 1129.4 366.67 1071.19 335.464 1005.31C333.635 1001.38 331.612 997.583 329.856 993.636ZM542.816 1177.35C547.595 1166.36 551.349 1154.81 553.933 1142.83C556.664 1130.23 558.176 1117.19 558.176 1103.79C558.176 1102.35 558.005 1100.97 557.956 1099.55C556.615 1040.3 527.286 987.959 482.646 955.042C471.09 946.514 458.656 939.155 445.272 933.478C434.154 928.751 422.501 925.072 410.384 922.587C398.316 920.102 385.809 918.786 373.033 918.786C355.285 918.786 338.17 921.442 321.909 926.12C316.886 927.557 311.986 929.263 307.134 931.115C304.038 920.467 301.185 909.698 298.796 898.758C296.407 887.842 294.7 876.731 293.043 865.572C302.307 862.453 311.718 859.724 321.421 857.678C338.097 854.193 355.334 852.317 373.033 852.317C385.687 852.317 398.047 853.56 410.213 855.363C421.428 857.044 432.423 859.31 443.102 862.429C454.341 865.694 465.214 869.714 475.747 874.441C499.883 885.284 521.947 899.854 541.353 917.373C585.311 957.04 615.249 1011.81 622.685 1073.55C623.88 1083.47 624.684 1093.53 624.684 1103.77C624.684 1120.31 622.978 1136.47 619.906 1152.13C617.663 1163.61 614.493 1174.72 610.739 1185.56C607.082 1196.16 602.718 1206.42 597.744 1216.34C592.332 1227.1 586.261 1237.46 579.411 1247.25C569.195 1242.53 558.956 1237.85 549.131 1232.47C539.33 1227.1 529.943 1221.09 520.557 1215.09C529.358 1203.52 536.916 1190.9 542.816 1177.35ZM655.574 1244.14C660.499 1234.27 664.887 1224.13 668.763 1213.7C672.64 1203.35 675.956 1192.75 678.711 1181.91C684.098 1160.86 687.341 1139 688.243 1116.51C688.414 1112.27 688.877 1108.08 688.877 1103.79C688.877 1095.58 688.267 1087.52 687.634 1079.48C686.488 1064.66 684.44 1050.12 681.319 1035.93C669.227 980.991 642.677 931.553 606.009 891.399C596.087 880.532 585.652 870.128 574.315 860.723C564.734 852.78 554.567 845.568 544.084 838.794C525.701 826.904 505.978 816.963 485.255 809.044C474.918 805.097 464.337 801.735 453.536 798.86C442.907 796.058 432.058 793.816 421.013 792.11C405.313 789.698 389.368 788.066 372.985 788.066C358.259 788.066 343.875 789.43 329.686 791.38C315.228 793.378 301.088 796.277 287.313 800.175C287.264 797.081 286.85 794.108 286.85 791.014C286.85 782.462 287.703 774.104 288.142 765.65C288.727 753.906 289.434 742.235 290.824 730.71C310.035 726.495 329.832 723.961 350.019 722.742C357.674 722.279 365.256 721.573 373.009 721.573C397.145 721.573 420.672 724.082 443.565 728.371C454.755 730.466 465.726 733.146 476.551 736.192C487.4 739.238 498.006 742.819 508.416 746.791C528.578 754.466 547.887 763.725 566.27 774.543C575.9 780.196 585.262 786.214 594.331 792.671C603.596 799.274 612.567 806.194 621.174 813.552C640.653 830.218 658.353 848.833 674.151 869.032C702.822 905.702 725.106 947.561 738.929 993.173C745.634 1015.32 750.412 1038.32 752.997 1061.96C752.826 1063.98 752.85 1066.05 752.68 1068.07C751.851 1079.16 751.046 1090.24 750.997 1101.53C750.997 1102.26 750.875 1102.96 750.875 1103.72C750.875 1114.39 751.778 1124.82 752.46 1135.32C752.68 1138.68 752.68 1142.12 752.972 1145.48C750.973 1163.68 747.389 1181.4 742.928 1198.74C740.124 1209.63 736.881 1220.36 733.151 1230.86C729.323 1241.63 725.106 1252.15 720.376 1262.46C716.573 1270.72 712.794 1278.95 708.43 1286.9C696.776 1284.97 685.269 1282.76 673.908 1280.05C662.595 1277.35 651.234 1274.76 640.214 1271.3C645.797 1262.56 650.893 1253.49 655.574 1244.14ZM1268.9 635.417C1253.45 633.882 1237.82 633.054 1221.95 633.054C1210.54 633.054 1199.35 633.955 1188.11 634.759C1104.48 503.649 958.057 416.446 790.956 416.446C624.124 416.446 477.892 503.381 394.195 634.126C387.125 633.809 380.152 633.054 373.009 633.054C351.945 633.054 331.344 634.905 311.011 637.586C376.13 435.012 566.294 287.894 790.347 287.894C1013.59 287.87 1203.13 433.964 1268.9 635.417ZM1058.21 662.852C1047.07 666.994 1036.15 671.429 1025.42 676.375C967.565 612.172 884.039 571.507 790.956 571.507C700.019 571.507 618.15 610.345 560.467 672.014C549.545 667.263 538.306 663.193 526.969 659.295C515.681 655.397 504.174 651.985 492.496 648.915C562.637 561.346 670.251 505.038 790.956 505.038C912.905 505.038 1021.45 562.589 1091.51 651.717C1080.23 654.982 1069.18 658.783 1058.21 662.852ZM939.626 727.615C930.63 734.365 921.828 741.333 913.344 748.691C880.675 719.843 837.912 702.178 790.981 702.178C747.218 702.178 707.04 717.504 675.322 742.941C666.618 735.656 657.451 728.931 648.235 722.255C639.02 715.603 629.536 709.341 619.833 703.348C664.79 661.512 724.862 635.685 790.981 635.685C859.635 635.685 921.901 663.364 967.37 708.074C957.838 714.239 948.671 720.818 939.626 727.615ZM797.49 900.707C778.059 860.212 753.07 822.981 723.399 789.918C742.586 776.565 765.82 768.622 790.981 768.622C819.603 768.622 845.519 779.173 866.022 796.058C838.717 827.562 815.726 862.721 797.49 900.707Z" fill="#410824"/>
<circle cx="790.639" cy="790.639" r="655" transform="rotate(-11.8826 790.639 790.639)" stroke="#410824" stroke-width="25" stroke-dasharray="84 84"/>
<defs>
<filter id="filter0_i" x="238.139" y="239.139" width="1107.46" height="1107.8" filterUnits="userSpaceOnUse" color-interpolation-filters="sRGB">
<feFlood flood-opacity="0" result="BackgroundImageFix"/>
<feBlend mode="normal" in="SourceGraphic" in2="BackgroundImageFix" result="shape"/>
<feColorMatrix in="SourceAlpha" type="matrix" values="0 0 0 0 0 0 0 0 0 0 0 0 0 0 0 0 0 0 127 0" result="hardAlpha"/>
<feGaussianBlur stdDeviation="2"/>
<feComposite in2="hardAlpha" operator="arithmetic" k2="-1" k3="1"/>
<feColorMatrix type="matrix" values="0 0 0 0 0 0 0 0 0 0 0 0 0 0 0 0 0 0 0.25 0"/>
<feBlend mode="normal" in2="shape" result="effect1_innerShadow"/>
</filter>
<radialGradient id="paint0_radial" cx="0" cy="0" r="1" gradientUnits="userSpaceOnUse" gradientTransform="translate(790.139 731.139) rotate(90) scale(636.5 482.4)">
</radialGradient>
</defs>
<animateTransform
            attributeName="transform"
            begin="0s"
            dur="20s"
            type="rotate"
            from="0 "
            to="360 "
            repeatCount="indefinite"
        />
        
</svg>
