<svg width="20" height="20" viewBox="0 0 20 20" fill="none" xmlns="http://www.w3.org/2000/svg">
<path fill-rule="evenodd" clip-rule="evenodd" d="M10 20C15.5228 20 20 15.5228 20 10C20 4.47715 15.5228 0 10 0C4.47715 0 0 4.47715 0 10C0 15.5228 4.47715 20 10 20ZM14.6141 9.8172C15.3237 9.8172 15.8598 9.60974 15.8598 9.0493L17.2053 8.78888C17.2053 10.2388 15.6102 10.7016 15.2521 10.7736V15.473H11.3458V13.433H8.74158V15.473H4.83527V10.7736C3.71546 10.5473 2.88211 9.75551 2.88211 8.79916L4.22762 9.0493C4.22762 9.60974 4.76366 9.8172 5.4733 9.8172H14.6141ZM5.81907 8.40408V9.13638H14.4419V8.40408C14.8371 8.31415 16.5976 7.73601 16.5976 5.92453C16.5976 6.62471 14.5209 7.20927 13.7377 7.20927H6.52327C5.74003 7.20927 3.66336 6.63756 3.66336 5.93737C3.66336 7.12576 4.58313 8.12144 5.81907 8.40408ZM7.30927 6.5323L10.1739 3.58087L13.0385 6.5323H7.30927Z" fill="#DB0F71"/>
</svg>
