<svg width="15" height="12" viewBox="0 0 15 12" fill="none" xmlns="http://www.w3.org/2000/svg">
<path d="M14.8518 1.6954C14.323 1.92975 13.7548 2.0881 13.1575 2.15967C13.7738 1.79091 14.2349 1.21052 14.4547 0.526806C13.8757 0.870728 13.242 1.11281 12.5812 1.24253C12.1368 0.768041 11.5482 0.45354 10.9067 0.347859C10.2653 0.242177 9.60685 0.351227 9.03373 0.658077C8.4606 0.964928 8.00482 1.45241 7.73714 2.04484C7.46945 2.63727 7.40485 3.30151 7.55336 3.93442C6.38013 3.87551 5.2324 3.57057 4.18465 3.03938C3.1369 2.5082 2.21256 1.76264 1.4716 0.8511C1.21824 1.28814 1.07256 1.79484 1.07256 2.33449C1.07228 2.82029 1.19191 3.29865 1.42085 3.72713C1.64978 4.15561 1.98094 4.52095 2.38494 4.79075C1.91641 4.77584 1.45821 4.64924 1.0485 4.42149V4.45949C1.04845 5.14085 1.28413 5.80124 1.71557 6.32861C2.147 6.85598 2.7476 7.21784 3.41545 7.35279C2.98081 7.47042 2.52513 7.48775 2.08281 7.40347C2.27124 7.98973 2.63829 8.5024 3.13256 8.8697C3.62684 9.237 4.2236 9.44054 4.8393 9.45183C3.79411 10.2723 2.50331 10.7174 1.17454 10.7154C0.939161 10.7155 0.703982 10.7018 0.470215 10.6743C1.81899 11.5415 3.38907 12.0017 4.99258 11.9999C10.4207 11.9999 13.3881 7.50417 13.3881 3.60506C13.3881 3.47838 13.3849 3.35044 13.3792 3.22376C13.9564 2.80634 14.4547 2.28945 14.8506 1.6973L14.8518 1.6954V1.6954Z" fill="#DB0F71"/>
</svg>
