<svg width="15" height="13" viewBox="0 0 15 13" fill="none" xmlns="http://www.w3.org/2000/svg">
<path d="M14.3816 1.5184C13.8528 1.77499 13.2846 1.94836 12.6873 2.02673C13.3036 1.62298 13.7647 0.987515 13.9845 0.238919C13.4055 0.615475 12.7718 0.88053 12.111 1.02256C11.6666 0.503044 11.0779 0.158701 10.4365 0.0429909C9.79504 -0.0727189 9.13664 0.0466785 8.56351 0.382646C7.99039 0.718614 7.5346 1.25235 7.26692 1.901C6.99924 2.54965 6.93464 3.27691 7.08314 3.96988C5.90991 3.90538 4.76218 3.5715 3.71444 2.98992C2.66669 2.40833 1.74234 1.59202 1.00138 0.593984C0.748027 1.07249 0.602349 1.62728 0.602349 2.21813C0.602066 2.75003 0.721699 3.27379 0.950634 3.74292C1.17957 4.21206 1.51072 4.61207 1.91472 4.90747C1.44619 4.89115 0.988 4.75254 0.57828 4.50317V4.54478C0.578233 5.29079 0.81392 6.01385 1.24535 6.59126C1.67678 7.16867 2.27738 7.56487 2.94524 7.71263C2.5106 7.84142 2.05491 7.86039 1.6126 7.76811C1.80103 8.41001 2.16807 8.97133 2.66235 9.37348C3.15662 9.77563 3.75339 9.99849 4.36909 10.0108C3.3239 10.9092 2.03309 11.3965 0.704324 11.3943C0.468946 11.3944 0.233767 11.3794 0 11.3493C1.34878 12.2988 2.91885 12.8027 4.52237 12.8007C9.95047 12.8007 12.9179 7.87837 12.9179 3.60927C12.9179 3.47057 12.9147 3.33048 12.909 3.19179C13.4862 2.73476 13.9844 2.16882 14.3804 1.52048L14.3816 1.5184V1.5184Z" fill="#EBEBEB"/>
</svg>
