<svg width="263" height="263" viewBox="0 0 263 263" fill="none" xmlns="http://www.w3.org/2000/svg">
<g clip-path="url(#clip0)" filter="url(#filter0_i)">
<path d="M131.5 109.382C115.113 109.382 101.781 122.714 101.781 139.101C101.781 155.488 115.113 168.82 131.5 168.82C147.887 168.82 161.219 155.488 161.219 139.101C161.219 122.714 147.887 109.382 131.5 109.382ZM131.5 158.506C120.8 158.506 112.095 149.801 112.095 139.1C112.095 128.401 120.8 119.695 131.5 119.695C142.2 119.695 150.906 128.4 150.906 139.1C150.906 149.801 142.2 158.506 131.5 158.506Z" fill="#151B1E"/>
<path d="M180.551 123.139C176.65 111.142 168.49 101.006 157.576 94.5989C155.119 93.1575 151.959 93.9794 150.517 96.4358C149.075 98.8922 149.898 102.052 152.354 103.494C161.091 108.623 167.621 116.733 170.742 126.328C171.45 128.507 173.472 129.892 175.645 129.892C176.173 129.892 176.71 129.81 177.24 129.638C179.949 128.757 181.432 125.848 180.551 123.139Z" fill="#151B1E"/>
<path d="M154.91 87.4746L154.912 87.4754C154.959 87.4968 155.006 87.5182 155.053 87.5397C175.174 96.7443 188.17 116.97 188.17 139.101C188.17 170.347 162.745 195.771 131.5 195.771C100.252 195.771 74.825 170.347 74.825 139.101C74.825 116.922 87.8841 96.6509 108.09 87.4696L108.09 87.4695C115.452 84.1236 123.323 82.4263 131.5 82.4263C139.669 82.4263 147.54 84.1249 154.91 87.4746ZM257.843 230.147H246.193V174.302C246.193 170.073 242.764 166.645 238.536 166.645H236.472V74.409C236.472 70.1796 233.043 66.7522 228.815 66.7522C214.484 66.7522 202.4 56.901 198.988 43.6112H243.245C247.474 43.6112 250.901 40.1827 250.901 35.9545V23.173C259.23 21.4094 265.5 14.0079 265.5 5.15675C265.5 0.928089 262.071 -2.5 257.843 -2.5C253.615 -2.5 250.186 0.92807 250.186 5.15675C250.186 6.86695 248.791 8.26245 247.081 8.26245H243.245H19.7507H15.9192C14.2086 8.26245 12.8135 6.86732 12.8135 5.15675C12.8135 0.928243 9.38526 -2.5 5.15675 -2.5C0.928919 -2.5 -2.5 0.928081 -2.5 5.15675C-2.5 14.006 3.76687 21.4058 12.0939 23.1717V35.954C12.0939 40.1833 15.523 43.6107 19.7507 43.6107H64.0074C60.5952 56.9005 48.5118 66.7517 34.1802 66.7517C29.9517 66.7517 26.5235 70.1799 26.5235 74.4085V166.645H24.459C20.2305 166.645 16.8022 170.073 16.8022 174.302V230.147H5.15675C0.928917 230.147 -2.5 233.575 -2.5 237.803V257.843C-2.5 262.072 0.928762 265.5 5.15675 265.5H257.843C262.072 265.5 265.5 262.072 265.5 257.843V237.804C265.5 233.575 262.071 230.147 257.843 230.147ZM226.756 181.959H230.879V230.147H226.756V181.959ZM27.4074 28.2967V23.576H235.587V28.2967H27.4074ZM150.422 43.6107V69.6269C144.295 67.9568 137.965 67.1128 131.5 67.1128C125.033 67.1128 118.702 67.9559 112.578 69.6235V43.6107H150.422ZM41.8365 166.645V81.4293C61.1399 78.1881 76.3975 62.9143 79.6376 43.6107H97.2643V75.7713C74.1779 88.276 59.511 112.604 59.511 139.101C59.511 178.795 91.8026 211.085 131.499 211.085C171.193 211.085 203.483 178.795 203.483 139.101C203.483 112.601 188.818 88.2742 165.735 75.7757V43.6107H183.356C186.597 62.9147 201.855 78.1882 221.158 81.4293V166.645H219.1C214.871 166.645 211.443 170.074 211.443 174.302V230.147H51.5572V174.302C51.5572 170.073 48.1281 166.645 43.9005 166.645H41.8365ZM32.1158 181.959H36.2432V230.147H32.1158V181.959ZM12.8135 250.186V245.461H24.459H43.9005H219.1H238.535H250.186V250.186H12.8135Z" fill="#151B1E" stroke="#151B1E" stroke-width="5"/>
<path d="M177.912 133.944C171.276 133.944 171.264 144.258 177.912 144.258C184.548 144.258 184.559 133.944 177.912 133.944Z" fill="#151B1E"/>
</g>
<defs>
<filter id="filter0_i" x="0" y="0" width="265" height="266" filterUnits="userSpaceOnUse" color-interpolation-filters="sRGB">
<feFlood flood-opacity="0" result="BackgroundImageFix"/>
<feBlend mode="normal" in="SourceGraphic" in2="BackgroundImageFix" result="shape"/>
<feColorMatrix in="SourceAlpha" type="matrix" values="0 0 0 0 0 0 0 0 0 0 0 0 0 0 0 0 0 0 127 0" result="hardAlpha"/>
<feOffset dx="2" dy="7"/>
<feGaussianBlur stdDeviation="1.5"/>
<feComposite in2="hardAlpha" operator="arithmetic" k2="-1" k3="1"/>
<feColorMatrix type="matrix" values="0 0 0 0 0 0 0 0 0 0 0 0 0 0 0 0 0 0 0.25 0"/>
<feBlend mode="normal" in2="shape" result="effect1_innerShadow"/>
</filter>
<clipPath id="clip0">
<rect width="263" height="263" fill="white"/>
</clipPath>
</defs>
</svg>
