<svg width="19" height="20" viewBox="0 0 19 20" fill="none" xmlns="http://www.w3.org/2000/svg">
<ellipse cx="10.4063" cy="6.18336" rx="2.26226" ry="2.37892" fill="#DB0F71"/>
<path d="M14.4786 11.8925C14.4786 11.0092 14.0496 10.1621 13.2859 9.53749C12.5223 8.9129 11.4865 8.56201 10.4065 8.56201C9.32656 8.56201 8.29081 8.9129 7.52715 9.53749C6.76349 10.1621 6.33447 11.0092 6.33447 11.8925L10.4065 11.8925H14.4786Z" fill="#DB0F71"/>
<path d="M1.65931 3.48233V17.2902H14.818V19.0314H1.65931C1.19625 19.0314 0.80393 18.8626 0.482358 18.5252C0.160786 18.1878 0 17.7761 0 17.2902V3.48233H1.65931ZM16.4774 0C16.9147 0 17.2941 0.168718 17.6157 0.506153C17.9373 0.843588 18.0981 1.25526 18.0981 1.74117V13.8483C18.0981 14.3073 17.9373 14.7054 17.6157 15.0429C17.2941 15.3803 16.9147 15.549 16.4774 15.549H4.93935C4.47628 15.549 4.08397 15.3803 3.76239 15.0429C3.44082 14.7054 3.28004 14.3073 3.28004 13.8483V1.74117C3.28004 1.25526 3.44082 0.843588 3.76239 0.506153C4.08397 0.168718 4.47628 0 4.93935 0H16.4774ZM16.4774 13.8483V1.74117H4.93935V13.8483H16.4774Z" fill="#DB0F71"/>
</svg>
