<svg width="420" height="420" viewBox="0 0 420 420" fill="none" xmlns="http://www.w3.org/2000/svg">
<path d="M210.45 64C17.85 67.5 17.85 354 210.45 357.4C403.05 353.9 403.05 67.4 210.45 64ZM341.25 238.2C340.65 241.1 339.85 243.9 339.05 246.8C295.45 233.2 258.15 284.6 284.65 321.9C279.75 325.1 274.55 328 269.25 330.7C235.35 280.1 284.05 212.9 342.55 229.5C342.15 232.4 341.85 235.3 341.25 238.2ZM331.85 266.2C323.95 283.4 312.55 298.6 298.55 310.9C282.65 287.6 306.15 255.2 333.15 263.5C332.75 264.4 332.25 265.3 331.85 266.2ZM332.95 210.3C265.45 203.1 217.45 279.7 253.35 337.2C247.55 339.1 241.65 340.7 235.65 341.9C195.35 268.1 260.25 178.4 342.85 193.9C343.45 199.9 344.05 206.1 343.95 212.1C340.35 211.3 336.65 210.7 332.95 210.3ZM88.25 264.6C116.95 252.7 144.25 288.6 124.55 313C108.95 299.9 96.65 283.2 88.25 264.6ZM144.75 313.4C162.55 274.6 121.35 231.8 82.15 247.9C80.45 242.2 79.25 236.4 78.45 230.5C138.45 209.9 191.15 279.9 154.45 332C148.95 329.6 143.75 326.7 138.85 323.5C141.15 320.3 143.15 317 144.75 313.4ZM174.65 331.1C207.25 267.1 145.75 192.9 76.95 213.1C76.65 207 77.35 200.7 77.85 194.6C162.85 176 229.55 266.3 188.65 342.4C182.55 341.4 176.45 340 170.55 338.3C172.05 336 173.45 333.6 174.65 331.1ZM337.45 169.3C330.45 168.6 323.05 168.5 316.05 169.1C272.95 93.2 148.65 93.2 105.35 168.9C98.05 168.3 90.45 168.9 83.25 169.8C118.65 48.4 301.55 48 337.45 169.3ZM281.55 176.6C278.55 177.7 275.65 178.9 272.85 180.2C243.25 144.1 179.75 143.5 149.45 179C143.65 176.5 137.55 174.5 131.45 172.9C168.05 122.5 254.35 122.9 290.45 173.6C287.35 174.5 284.45 175.5 281.55 176.6ZM250.05 193.8C247.65 195.6 245.35 197.4 243.05 199.4C226.65 183.8 197.05 183 179.85 197.9C175.15 194.1 170.25 190.6 165.15 187.4C189.05 163.3 234.25 163.9 257.35 188.7C254.85 190.3 252.45 192 250.05 193.8ZM212.35 239.9C207.15 229.1 200.55 219.2 192.65 210.5C203.35 202.4 220.55 203.2 230.55 212.1C223.25 220.4 217.15 229.8 212.35 239.9Z" fill="#9422E0" stroke="#9422E0" stroke-miterlimit="10">
<animateTransform attributeName="transform" begin="0s" dur="16s" type="rotate" from="0 210 210" to="360 210 210" repeatCount="indefinite" /></path>
<path d="M210.5 380C304.112 380 380 304.112 380 210.5C380 116.888 304.112 41 210.5 41C116.888 41 41 116.888 41 210.5C41 304.112 116.888 380 210.5 380Z" stroke="#9422E0" stroke-width="20" stroke-dasharray="57 57"><animateTransform attributeName="transform" begin="0s" dur="20s" type="rotate" from="360 210 210" to="0 210 210" repeatCount="indefinite" /> </path>
</svg>
