<svg width="23" height="18" viewBox="0 0 23 18" fill="none" xmlns="http://www.w3.org/2000/svg">
<path d="M19.4704 1.4307C18.0041 0.769472 16.4325 0.280736 14.789 0.00282716C14.7744 1.73279e-05 14.7592 0.00182809 14.7457 0.00800904C14.7321 0.01419 14.7208 0.0244353 14.7133 0.0373262C14.5121 0.390941 14.2878 0.851886 14.1307 1.21604C12.3876 0.95561 10.6155 0.95561 8.87245 1.21604C8.6974 0.812462 8.50001 0.418947 8.28118 0.0373262C8.27376 0.0242766 8.26254 0.0137995 8.24901 0.00729299C8.23549 0.000786448 8.2203 -0.00144016 8.20547 0.00091046C6.56294 0.278819 4.99132 0.767555 3.52415 1.42974C3.51153 1.43504 3.50083 1.44407 3.49348 1.45562C0.511238 5.83987 -0.306197 10.1158 0.0953328 14.3381C0.0964502 14.3485 0.0996601 14.3585 0.104767 14.3675C0.109874 14.3766 0.116772 14.3845 0.12504 14.3908C1.8657 15.6581 3.80717 16.6235 5.86817 17.2466C5.88253 17.251 5.8979 17.251 5.91226 17.2465C5.92662 17.2421 5.93931 17.2334 5.94866 17.2217C6.3914 16.6275 6.78622 15.9998 7.12355 15.3405C7.14367 15.3022 7.1245 15.2562 7.08426 15.2408C6.46519 15.0077 5.86537 14.7264 5.29031 14.3995C5.27997 14.3936 5.27127 14.3852 5.26497 14.3751C5.25867 14.365 5.25497 14.3535 5.25421 14.3416C5.25345 14.3298 5.25565 14.3179 5.26061 14.3071C5.26557 14.2962 5.27314 14.2868 5.28264 14.2797C5.40339 14.1905 5.52413 14.0976 5.63913 14.0046C5.64948 13.9963 5.66195 13.9909 5.67515 13.9893C5.68834 13.9876 5.70175 13.9896 5.71388 13.995C9.47714 15.6855 13.5528 15.6855 17.272 13.995C17.2842 13.9892 17.2977 13.987 17.3111 13.9885C17.3245 13.99 17.3372 13.9953 17.3477 14.0037C17.4627 14.0976 17.5825 14.1905 17.7042 14.2797C17.7138 14.2867 17.7215 14.296 17.7266 14.3067C17.7317 14.3174 17.7341 14.3292 17.7335 14.3411C17.733 14.353 17.7295 14.3645 17.7233 14.3747C17.7172 14.3849 17.7087 14.3934 17.6984 14.3995C17.1254 14.7291 16.5293 15.008 15.9035 15.2399C15.8939 15.2434 15.8852 15.2489 15.8779 15.256C15.8705 15.2632 15.8648 15.2718 15.8611 15.2813C15.8574 15.2908 15.8558 15.301 15.8563 15.3112C15.8568 15.3215 15.8595 15.3314 15.8643 15.3405C16.2092 15.9989 16.6041 16.6256 17.0382 17.2207C17.0472 17.2329 17.0598 17.242 17.0742 17.2468C17.0886 17.2516 17.1041 17.2519 17.1187 17.2475C19.1832 16.6262 21.1278 15.6604 22.8704 14.3908C22.8789 14.3849 22.8861 14.3772 22.8913 14.3683C22.8966 14.3593 22.9 14.3494 22.9011 14.3391C23.3802 9.45747 22.098 5.21601 19.5001 1.45754C19.4937 1.44532 19.4832 1.4358 19.4704 1.4307ZM7.68607 11.767C6.55335 11.767 5.61901 10.7426 5.61901 9.48622C5.61901 8.22892 6.53515 7.20545 7.68607 7.20545C8.84562 7.20545 9.77134 8.23755 9.75314 9.48622C9.75314 10.7435 8.837 11.767 7.68607 11.767ZM15.3286 11.767C14.1949 11.767 13.2615 10.7426 13.2615 9.48622C13.2615 8.22892 14.1767 7.20545 15.3286 7.20545C16.4881 7.20545 17.4138 8.23755 17.3956 9.48622C17.3956 10.7435 16.4891 11.767 15.3286 11.767Z" fill="#B19FDB"/>
</svg>
