<svg width="21" height="20" viewBox="0 0 21 20" fill="none" xmlns="http://www.w3.org/2000/svg">
<path fill-rule="evenodd" clip-rule="evenodd" d="M6.46419 0.06C7.53055 0.0109091 7.87055 0 10.5869 0C13.3033 0 13.6433 0.0118182 14.7087 0.06C15.7742 0.108182 16.5015 0.278182 17.1378 0.524545C17.8042 0.776364 18.4087 1.17 18.9087 1.67909C19.4178 2.17818 19.8106 2.78182 20.0615 3.44909C20.3087 4.08545 20.4778 4.81273 20.5269 5.87636C20.576 6.94455 20.5869 7.28455 20.5869 10C20.5869 12.7164 20.5751 13.0564 20.5269 14.1227C20.4787 15.1864 20.3087 15.9136 20.0615 16.55C19.8105 17.2174 19.4172 17.822 18.9087 18.3218C18.4087 18.8309 17.8042 19.2236 17.1378 19.4745C16.5015 19.7218 15.7742 19.8909 14.7106 19.94C13.6433 19.9891 13.3033 20 10.5869 20C7.87055 20 7.53055 19.9882 6.46419 19.94C5.40055 19.8918 4.67328 19.7218 4.03691 19.4745C3.36957 19.2236 2.76493 18.8302 2.2651 18.3218C1.75635 17.8224 1.36265 17.2181 1.11146 16.5509C0.865096 15.9145 0.696005 15.1873 0.646914 14.1236C0.597823 13.0555 0.586914 12.7155 0.586914 10C0.586914 7.28364 0.598732 6.94364 0.646914 5.87818C0.695096 4.81273 0.865096 4.08545 1.11146 3.44909C1.36303 2.78189 1.75702 2.17756 2.266 1.67818C2.76513 1.16955 3.36916 0.775858 4.03601 0.524545C4.67237 0.278182 5.39964 0.109091 6.46328 0.06H6.46419ZM14.6278 1.86C13.5733 1.81182 13.2569 1.80182 10.5869 1.80182C7.91691 1.80182 7.60055 1.81182 6.546 1.86C5.57055 1.90455 5.04146 2.06727 4.68873 2.20455C4.22237 2.38636 3.88873 2.60182 3.53873 2.95182C3.20696 3.27459 2.95162 3.66753 2.79146 4.10182C2.65419 4.45455 2.49146 4.98364 2.44691 5.95909C2.39873 7.01364 2.38873 7.33 2.38873 10C2.38873 12.67 2.39873 12.9864 2.44691 14.0409C2.49146 15.0164 2.65419 15.5455 2.79146 15.8982C2.95146 16.3318 3.20691 16.7255 3.53873 17.0482C3.86146 17.38 4.2551 17.6355 4.68873 17.7955C5.04146 17.9327 5.57055 18.0955 6.546 18.14C7.60055 18.1882 7.91601 18.1982 10.5869 18.1982C13.2578 18.1982 13.5733 18.1882 14.6278 18.14C15.6033 18.0955 16.1324 17.9327 16.4851 17.7955C16.9515 17.6136 17.2851 17.3982 17.6351 17.0482C17.9669 16.7255 18.2224 16.3318 18.3824 15.8982C18.5196 15.5455 18.6824 15.0164 18.7269 14.0409C18.7751 12.9864 18.7851 12.67 18.7851 10C18.7851 7.33 18.7751 7.01364 18.7269 5.95909C18.6824 4.98364 18.5196 4.45455 18.3824 4.10182C18.2006 3.63545 17.9851 3.30182 17.6351 2.95182C17.3123 2.62006 16.9194 2.36474 16.4851 2.20455C16.1324 2.06727 15.6033 1.90455 14.6278 1.86V1.86ZM9.30964 13.0827C10.023 13.3797 10.8173 13.4197 11.5568 13.1961C12.2964 12.9725 12.9355 12.499 13.3647 11.8566C13.794 11.2142 13.987 10.4426 13.9106 9.67373C13.8342 8.90485 13.4933 8.18634 12.946 7.64091C12.5971 7.29225 12.1753 7.02528 11.7109 6.85922C11.2464 6.69317 10.7509 6.63215 10.2601 6.68056C9.76924 6.72897 9.29523 6.88562 8.87219 7.13921C8.44915 7.3928 8.08759 7.73704 7.81355 8.14714C7.53952 8.55723 7.35981 9.02299 7.28738 9.51087C7.21495 9.99876 7.2516 10.4966 7.39468 10.9687C7.53776 11.4407 7.78372 11.8751 8.11484 12.2407C8.44597 12.6062 8.85403 12.8938 9.30964 13.0827ZM6.95237 6.36545C7.42966 5.88816 7.9963 5.50955 8.61991 5.25124C9.24353 4.99293 9.91192 4.85998 10.5869 4.85998C11.2619 4.85998 11.9303 4.99293 12.5539 5.25124C13.1775 5.50955 13.7442 5.88816 14.2215 6.36545C14.6988 6.84275 15.0774 7.40938 15.3357 8.033C15.594 8.65661 15.7269 9.325 15.7269 10C15.7269 10.675 15.594 11.3434 15.3357 11.967C15.0774 12.5906 14.6988 13.1573 14.2215 13.6345C13.2575 14.5985 11.9501 15.14 10.5869 15.14C9.2237 15.14 7.91631 14.5985 6.95237 13.6345C5.98843 12.6706 5.44689 11.3632 5.44689 10C5.44689 8.63678 5.98843 7.3294 6.95237 6.36545V6.36545ZM16.8669 5.62545C16.9852 5.51388 17.0799 5.37971 17.1454 5.23089C17.2109 5.08206 17.2458 4.92161 17.2482 4.75903C17.2506 4.59645 17.2203 4.43504 17.1592 4.28437C17.098 4.1337 17.0073 3.99683 16.8923 3.88185C16.7774 3.76688 16.6405 3.67614 16.4898 3.61502C16.3391 3.55389 16.1777 3.52361 16.0152 3.52598C15.8526 3.52835 15.6921 3.56332 15.5433 3.62881C15.3945 3.69431 15.2603 3.789 15.1487 3.90727C14.9317 4.1373 14.8129 4.44284 14.8176 4.75903C14.8222 5.07522 14.9498 5.37716 15.1734 5.60077C15.397 5.82437 15.699 5.95203 16.0152 5.95664C16.3313 5.96125 16.6369 5.84245 16.8669 5.62545V5.62545Z" fill="#C9C7CF"/>
</svg>
