<svg width="20" height="20" viewBox="0 0 20 20" fill="none" xmlns="http://www.w3.org/2000/svg">
<path d="M19 13.8776H18V10.6122C17.9997 10.2876 17.8943 9.97636 17.7068 9.7468C17.5193 9.51725 17.2651 9.38812 17 9.38776H10.6667V6.12245H12C12.2651 6.12207 12.5193 5.99294 12.7068 5.76339C12.8942 5.53383 12.9997 5.2226 13 4.89796V1.22449C12.9997 0.899851 12.8942 0.588617 12.7068 0.359062C12.5193 0.129508 12.2651 0.000378084 12 0H8C7.73488 0.000378084 7.4807 0.129508 7.29323 0.359062C7.10577 0.588617 7.00031 0.899851 7 1.22449V4.89796C7.00031 5.2226 7.10577 5.53383 7.29323 5.76339C7.4807 5.99294 7.73488 6.12207 8 6.12245H9.33333V9.38776H3C2.73487 9.38812 2.48069 9.51725 2.29322 9.7468C2.10575 9.97636 2.0003 10.2876 2 10.6122V13.8776H1C0.734878 13.8779 0.480704 14.0071 0.293234 14.2366C0.105765 14.4662 0.000308769 14.7774 0 15.102V18.7755C0.000308769 19.1001 0.105765 19.4114 0.293234 19.6409C0.480704 19.8705 0.734878 19.9996 1 20H4.33333C4.59845 19.9996 4.85263 19.8705 5.0401 19.6409C5.22757 19.4114 5.33302 19.1001 5.33333 18.7755V15.102C5.33302 14.7774 5.22757 14.4662 5.0401 14.2366C4.85263 14.0071 4.59845 13.8779 4.33333 13.8776H3.33333V11.0204H9.33333V13.8776H8.33333C8.06821 13.8779 7.81404 14.0071 7.62657 14.2366C7.4391 14.4662 7.33364 14.7774 7.33333 15.102V18.7755C7.33364 19.1001 7.4391 19.4114 7.62657 19.6409C7.81404 19.8705 8.06821 19.9996 8.33333 20H11.6667C11.9318 19.9996 12.186 19.8705 12.3734 19.6409C12.5609 19.4114 12.6664 19.1001 12.6667 18.7755V15.102C12.6664 14.7774 12.5609 14.4662 12.3734 14.2366C12.186 14.0071 11.9318 13.8779 11.6667 13.8776H10.6667V11.0204H16.6667V13.8776H15.6667C15.4015 13.8779 15.1474 14.0071 14.9599 14.2366C14.7724 14.4662 14.667 14.7774 14.6667 15.102V18.7755C14.667 19.1001 14.7724 19.4114 14.9599 19.6409C15.1474 19.8705 15.4015 19.9996 15.6667 20H19C19.2651 19.9996 19.5193 19.8705 19.7068 19.6409C19.8942 19.4114 19.9997 19.1001 20 18.7755V15.102C19.9997 14.7774 19.8942 14.4662 19.7068 14.2366C19.5193 14.0071 19.2651 13.8779 19 13.8776ZM8.33333 1.63265H11.6667V4.4898H8.33333V1.63265ZM4 15.5102V18.3673H1.33333V15.5102H4ZM11.3333 15.5102V18.3673H8.66667V15.5102H11.3333ZM18.6667 18.3673H16V15.5102H18.6667V18.3673Z" fill="#FF68E7"/>
</svg>
