<svg width="23" height="19" viewBox="0 0 23 19" fill="none" xmlns="http://www.w3.org/2000/svg">
<path d="M2.7278 3.876C2.74189 3.73144 2.72302 3.58548 2.6727 3.4498C2.62238 3.31412 2.542 3.19248 2.438 3.09462L0.2898 0.402563V0H6.9575L12.1118 11.7622L16.6428 0H23V0.402563L21.1635 2.2325C21.0856 2.29454 21.0256 2.37725 20.9897 2.47178C20.9539 2.56632 20.9436 2.66913 20.9599 2.76925V16.2284C20.9436 16.3285 20.9539 16.4313 20.9897 16.5258C21.0256 16.6204 21.0856 16.7031 21.1635 16.7651L22.9574 18.5963V19H13.9369V18.5974L15.7952 16.7212C15.9781 16.5312 15.9781 16.4754 15.9781 16.1856V5.30575L10.8123 18.9549H10.1154L4.1009 5.30575V14.4543C4.05145 14.8378 4.1745 15.2261 4.4344 15.504L6.85055 18.5535V18.9549H0V18.5535L2.415 15.504C2.54278 15.3663 2.63761 15.1997 2.69192 15.0174C2.74624 14.8352 2.75852 14.6423 2.7278 14.4543V3.876Z" fill="#B19FDB"/>
</svg>
