<svg width="20" height="21" viewBox="0 0 20 21" fill="none" xmlns="http://www.w3.org/2000/svg">
<path d="M2.28571 1.14487C2.28571 0.841767 2.16531 0.551077 1.95098 0.336749C1.73665 0.122422 1.44596 0.00201416 1.14286 0.00201416C0.839753 0.00201416 0.549062 0.122422 0.334735 0.336749C0.120408 0.551077 0 0.841767 0 1.14487V17.1449C0 17.9026 0.30102 18.6294 0.836838 19.1652C1.37266 19.701 2.09938 20.002 2.85714 20.002H18.8571C19.1602 20.002 19.4509 19.8816 19.6653 19.6673C19.8796 19.453 20 19.1623 20 18.8592C20 18.5561 19.8796 18.2654 19.6653 18.051C19.4509 17.8367 19.1602 17.7163 18.8571 17.7163H2.85714C2.70559 17.7163 2.56025 17.6561 2.45308 17.5489C2.34592 17.4418 2.28571 17.2964 2.28571 17.1449V1.14487ZM12.2857 4.28773C12.2857 3.98462 12.4061 3.69393 12.6205 3.47961C12.8348 3.26528 13.1255 3.14487 13.4286 3.14487H18.5737C18.8768 3.14487 19.1675 3.26528 19.3818 3.47961C19.5962 3.69393 19.7166 3.98462 19.7166 4.28773L19.7143 9.43059C19.7143 9.73369 19.5939 10.0244 19.3796 10.2387C19.1652 10.453 18.8745 10.5734 18.5714 10.5734C18.2683 10.5734 17.9776 10.453 17.7633 10.2387C17.549 10.0244 17.4286 9.73369 17.4286 9.43059V7.04659L12.2366 12.2386C12.0223 12.4528 11.7316 12.5732 11.4286 12.5732C11.1255 12.5732 10.8349 12.4528 10.6206 12.2386L8.57143 10.1894L5.66514 13.0957C5.4496 13.3039 5.16091 13.4191 4.86126 13.4165C4.5616 13.4139 4.27496 13.2937 4.06306 13.0818C3.85117 12.8699 3.73098 12.5833 3.72837 12.2836C3.72577 11.984 3.84096 11.6953 4.04914 11.4797L7.76343 7.76544C7.97775 7.55119 8.26838 7.43083 8.57143 7.43083C8.87447 7.43083 9.16511 7.55119 9.37943 7.76544L11.4286 9.81459L15.8126 5.43059H13.4286C13.1255 5.43059 12.8348 5.31018 12.6205 5.09585C12.4061 4.88152 12.2857 4.59083 12.2857 4.28773Z" fill="#FF68E7"/>
</svg>
