<svg width="979" height="104" viewBox="0 0 979 104" fill="none" xmlns="http://www.w3.org/2000/svg">
<path d="M469 16V96" stroke="white" stroke-width="0.925885"/>
<path d="M639.04 56.1847C638.89 52.4841 639.474 48.7905 640.757 45.3168C642.041 41.8432 644 38.6583 646.52 35.946C649.041 33.2337 652.073 31.0476 655.442 29.5139C658.811 27.9801 662.45 27.1291 666.149 27.01H667.299C681.597 27.01 690.035 35.4258 692.53 45.2722L683.643 48.2458C682.845 44.5766 680.755 41.3169 677.754 39.0613C674.754 36.8057 671.043 35.7045 667.299 35.9588C658.047 35.9588 648.768 42.7194 648.768 56.353C648.768 69.9866 657.823 76.4949 667.411 76.4949C671.174 76.5977 674.862 75.4347 677.886 73.1919C680.911 70.949 683.095 67.756 684.092 64.1236L692.81 66.9289C691.305 72.4698 687.958 77.3319 683.32 80.7131C678.682 84.0943 673.031 85.7926 667.299 85.5278C659.935 85.663 652.819 82.8667 647.514 77.7537C642.21 72.6406 639.152 65.6292 639.012 58.2606C638.984 57.5874 639.012 56.886 639.04 56.1847Z" fill="white"/>
<path d="M710.108 84.2374H700.913V26.8416H710.108V49.2837C711.443 47.6994 713.122 46.4411 715.017 45.6049C716.912 44.7687 718.972 44.3767 721.042 44.4587C730.545 44.4587 735.059 51.2755 735.059 59.7754V84.2374H726.2V61.4025C726.465 59.4559 725.956 57.4829 724.781 55.9087C723.607 54.3344 721.861 53.2851 719.92 52.9867C719.37 52.9302 718.816 52.9302 718.266 52.9867C716.14 52.9867 714.1 53.832 712.597 55.3366C711.093 56.8412 710.248 58.8819 710.248 61.0098C710.234 61.2433 710.234 61.4775 710.248 61.7111L710.108 84.2374Z" fill="white"/>
<path d="M755.693 62.1319L765.561 60.589C767.804 60.3085 768.364 59.1583 768.364 57.7837C768.364 54.5296 766.178 51.9207 761.075 51.9207C759.148 51.7648 757.238 52.3754 755.758 53.62C754.278 54.8646 753.348 56.6429 753.169 58.5692V58.99L744.759 57.1105C745.46 50.4339 751.515 44.4868 760.991 44.4868C772.878 44.4868 777.392 51.2194 777.392 59.0742V78.2341C777.382 80.3102 777.541 82.3836 777.868 84.4338H769.458C769.155 82.8065 769.032 81.1507 769.093 79.4965C767.817 81.4624 766.047 83.0591 763.962 84.1272C761.876 85.1953 759.547 85.6976 757.206 85.5839C754.01 85.848 750.84 84.8326 748.39 82.7606C745.941 80.6885 744.413 77.7289 744.142 74.5312C744.142 74.3348 744.142 74.1384 744.142 73.9701C744.002 66.8728 749.076 63.0576 755.693 62.1319ZM768.42 68.3315V66.5642L758.356 68.0791C756.99 68.1224 755.693 68.6924 754.737 69.67C753.781 70.6476 753.239 71.9571 753.226 73.3249C753.236 74.0027 753.382 74.6715 753.654 75.2924C753.926 75.9132 754.318 76.4737 754.809 76.9412C755.299 77.4086 755.878 77.7736 756.511 78.0148C757.144 78.2561 757.819 78.3688 758.496 78.3463H758.917C760.064 78.4665 761.224 78.3583 762.33 78.028C763.435 77.6976 764.465 77.1517 765.358 76.4216C766.252 75.6915 766.993 74.7917 767.538 73.7739C768.082 72.7562 768.42 71.6407 768.533 70.4916C768.573 69.7685 768.525 69.0433 768.392 68.3315H768.42Z" fill="white"/>
<path d="M793.035 26.0561C793.825 26.045 794.61 26.1902 795.344 26.4834C796.077 26.7766 796.746 27.212 797.312 27.7646C797.877 28.3173 798.328 28.9762 798.638 29.7036C798.948 30.431 799.111 31.2125 799.118 32.0033C799.118 33.187 798.768 34.3443 798.113 35.3296C797.457 36.3149 796.525 37.0843 795.434 37.5411C794.342 37.9978 793.14 38.1215 791.979 37.8966C790.818 37.6717 789.748 37.1083 788.906 36.2771C788.064 35.4459 787.486 34.3841 787.245 33.2252C787.004 32.0663 787.111 30.8619 787.552 29.7636C787.994 28.6653 788.749 27.722 789.725 27.0524C790.7 26.3827 791.852 26.0166 793.035 26V26.0561ZM788.549 84.4056V45.6369H797.745V84.2373L788.549 84.4056Z" fill="white"/>
<path d="M818.687 84.2373H809.52V45.6369H818.463V50.7705C819.629 48.7992 821.303 47.1782 823.311 46.0775C825.319 44.9768 827.585 44.4371 829.873 44.5148C839.293 44.5148 843.89 51.3316 843.89 59.8315V84.2373H834.723V61.4025C834.723 56.6616 832.564 52.8183 826.789 52.8183C825.722 52.8257 824.666 53.0434 823.682 53.459C822.699 53.8747 821.806 54.4801 821.057 55.2407C820.307 56.0014 819.714 56.9023 819.313 57.8922C818.911 58.882 818.708 59.9414 818.715 61.0097C818.715 61.3183 818.715 61.6269 818.715 61.9355L818.687 84.2373Z" fill="white"/>
<path d="M854.991 84.2374V26.8416H864.187V84.2374H854.991Z" fill="white"/>
<path d="M880.588 26.0561C881.771 26.0505 882.929 26.397 883.916 27.0514C884.902 27.7058 885.672 28.6387 886.127 29.7317C886.582 30.8247 886.703 32.0284 886.474 33.1901C886.244 34.3518 885.675 35.419 884.838 36.2564C884.001 37.0937 882.935 37.6633 881.774 37.893C880.613 38.1227 879.41 38.002 878.317 37.5463C877.225 37.0905 876.293 36.3203 875.639 35.3334C874.985 34.3465 874.639 33.1874 874.644 32.0033C874.659 30.4305 875.29 28.9263 876.401 27.8142C877.513 26.702 879.016 26.0707 880.588 26.0561ZM876.074 84.4056V45.6368H885.185V84.2373L876.074 84.4056Z" fill="white"/>
<path d="M906.268 84.2373H897.072V45.6369H906.015V50.7705C907.184 48.8013 908.859 47.1819 910.866 46.0815C912.873 44.9811 915.138 44.4401 917.426 44.5148C926.845 44.5148 931.443 51.3316 931.443 59.8315V84.2373H922.248V61.4025C922.513 59.4559 922.003 57.4829 920.829 55.9086C919.654 54.3344 917.908 53.285 915.968 52.9867C915.408 52.9304 914.845 52.9304 914.286 52.9867C912.144 53.0088 910.098 53.8757 908.591 55.399C907.085 56.9223 906.24 58.9788 906.24 61.1219C906.211 61.4486 906.211 61.7771 906.24 62.1038L906.268 84.2373Z" fill="white"/>
<path d="M962.814 61.9355L978.99 84.3776H967.776L956.562 68.4718L951.824 73.4651V84.2373H942.713V26.8416H951.824V61.2342L966.626 45.6369H978.821L962.814 61.9355Z" fill="white"/>
<path d="M567.009 27.5182L591.263 41.4365V69.4097L567.077 83.4134L542.84 69.5293V41.5732L567.009 27.5182ZM567.009 7L558.114 12.1296L533.894 26.1846L525 31.3141V79.8227L533.894 84.9522L558.148 98.8704L567.043 104L575.937 98.8704L600.106 84.8496L609 79.7201V31.1431L600.106 26.0136L575.869 12.1296L566.974 7H567.009Z" fill="white"/>
<path d="M58.5924 54.1383C58.5924 60.5194 57.4891 66.1252 55.2826 70.9557C53.0761 75.7564 49.9154 79.4538 45.8005 82.048C41.7154 84.6124 37.0042 85.8945 31.6667 85.8945C26.3889 85.8945 21.6777 84.6124 17.533 82.048C13.4181 79.4538 10.2276 75.7713 7.96141 71.0004C5.72506 66.2296 4.59198 60.7281 4.56216 54.4962V50.8285C4.56216 44.4773 5.68033 38.8715 7.91668 34.0112C10.1829 29.1508 13.3585 25.4385 17.4435 22.8742C21.5584 20.28 26.2697 18.9829 31.5773 18.9829C36.8849 18.9829 41.5812 20.2651 45.6663 22.8294C49.7812 25.364 52.9568 29.0316 55.1932 33.8323C57.4295 38.6032 58.5626 44.1642 58.5924 50.5155V54.1383ZM47.2765 50.7391C47.2765 43.5231 45.9048 37.9919 43.1616 34.1454C40.4481 30.2988 36.5867 28.3756 31.5773 28.3756C26.6871 28.3756 22.8555 30.2988 20.0824 34.1454C17.3392 37.9621 15.9377 43.374 15.8781 50.3813V54.1383C15.8781 61.2947 17.2646 66.8259 20.0377 70.7321C22.8406 74.6382 26.7169 76.5913 31.6667 76.5913C36.6762 76.5913 40.5227 74.683 43.2063 70.8663C45.9198 67.0496 47.2765 61.4736 47.2765 54.1383V50.7391ZM79.8145 36.6054L80.1276 42.1962C83.7057 37.8726 88.4021 35.7108 94.2166 35.7108C104.295 35.7108 109.424 41.4806 109.603 53.0202V85H98.734V53.6464C98.734 50.5751 98.0631 48.3089 96.7213 46.8478C95.4093 45.3569 93.2475 44.6115 90.2359 44.6115C85.8526 44.6115 82.5876 46.5944 80.4407 50.5602V85H69.572V36.6054H79.8145ZM133.195 85H122.327V36.6054H133.195V85ZM121.656 24.0371C121.656 22.3672 122.178 20.9807 123.221 19.8774C124.295 18.7742 125.815 18.2225 127.783 18.2225C129.751 18.2225 131.272 18.7742 132.345 19.8774C133.419 20.9807 133.956 22.3672 133.956 24.0371C133.956 25.677 133.419 27.0487 132.345 28.1519C131.272 29.2254 129.751 29.7621 127.783 29.7621C125.815 29.7621 124.295 29.2254 123.221 28.1519C122.178 27.0487 121.656 25.677 121.656 24.0371ZM157.548 85H146.68V36.6054H157.548V85ZM146.009 24.0371C146.009 22.3672 146.531 20.9807 147.574 19.8774C148.648 18.7742 150.168 18.2225 152.136 18.2225C154.104 18.2225 155.625 18.7742 156.698 19.8774C157.772 20.9807 158.309 22.3672 158.309 24.0371C158.309 25.677 157.772 27.0487 156.698 28.1519C155.625 29.2254 154.104 29.7621 152.136 29.7621C150.168 29.7621 148.648 29.2254 147.574 28.1519C146.531 27.0487 146.009 25.677 146.009 24.0371ZM242.304 64.6939C241.559 71.5521 239.099 76.8 234.924 80.4378C230.78 84.0756 225.248 85.8945 218.331 85.8945C213.5 85.8945 209.221 84.6869 205.494 82.2717C201.796 79.8564 198.934 76.4422 196.906 72.0292C194.879 67.5863 193.85 62.5172 193.82 56.822V48.3686C193.82 42.5839 194.834 37.4552 196.862 32.9825C198.889 28.5098 201.796 25.0658 205.583 22.6505C209.4 20.2054 213.783 18.9829 218.733 18.9829C225.71 18.9829 231.212 20.8763 235.237 24.6632C239.293 28.4203 241.648 33.6236 242.304 40.273H236.758C235.386 29.2105 229.378 23.6792 218.733 23.6792C212.829 23.6792 208.118 25.8858 204.599 30.2988C201.111 34.7119 199.366 40.8097 199.366 48.5922V56.5536C199.366 64.0677 201.066 70.0612 204.465 74.5339C207.894 79.0066 212.516 81.2429 218.331 81.2429C224.085 81.2429 228.424 79.8713 231.346 77.128C234.268 74.355 236.072 70.2103 236.758 64.6939H242.304ZM260.664 44.7904C262.423 41.8981 264.674 39.6617 267.418 38.0813C270.161 36.501 273.158 35.7108 276.408 35.7108C281.596 35.7108 285.457 37.1719 287.992 40.0941C290.527 43.0162 291.809 47.3995 291.839 53.2438V85H286.516V53.1991C286.486 48.8755 285.562 45.6551 283.743 43.538C281.954 41.421 279.076 40.3624 275.111 40.3624C271.801 40.3624 268.864 41.4061 266.299 43.4933C263.765 45.5508 261.886 48.3387 260.664 51.8573V85H255.341V16.2993H260.664V44.7904ZM337.079 85C336.542 83.4793 336.199 81.228 336.05 78.2462C334.172 80.6913 331.771 82.5847 328.849 83.9266C325.957 85.2385 322.886 85.8945 319.635 85.8945C314.984 85.8945 311.212 84.5975 308.32 82.0033C305.457 79.4091 304.026 76.1291 304.026 72.1633C304.026 67.4521 305.979 63.7248 309.885 60.9816C313.821 58.2383 319.293 56.8667 326.3 56.8667H336.006V51.3653C336.006 47.9064 334.932 45.1929 332.785 43.225C330.668 41.2271 327.567 40.2282 323.482 40.2282C319.755 40.2282 316.669 41.1824 314.224 43.0908C311.778 44.9991 310.556 47.2951 310.556 49.9787L305.189 49.934C305.189 46.0875 306.978 42.7628 310.556 39.9599C314.134 37.1272 318.532 35.7108 323.75 35.7108C329.147 35.7108 333.396 37.0675 336.498 39.781C339.628 42.4646 341.239 46.2217 341.328 51.0522V73.9524C341.328 78.6339 341.82 82.1375 342.804 84.4633V85H337.079ZM320.262 81.1535C323.84 81.1535 327.03 80.2888 329.833 78.5593C332.666 76.8299 334.723 74.519 336.006 71.6266V60.9816H326.434C321.097 61.0412 316.922 62.0252 313.91 63.9336C310.899 65.8121 309.393 68.4063 309.393 71.7161C309.393 74.4295 310.392 76.6808 312.39 78.4699C314.417 80.2589 317.041 81.1535 320.262 81.1535ZM362.55 85H357.183V36.6054H362.55V85ZM356.244 22.6058C356.244 21.592 356.572 20.7422 357.228 20.0564C357.884 19.3407 358.778 18.9829 359.911 18.9829C361.044 18.9829 361.939 19.3407 362.595 20.0564C363.281 20.7422 363.624 21.592 363.624 22.6058C363.624 23.6196 363.281 24.4694 362.595 25.1552C361.939 25.841 361.044 26.184 359.911 26.184C358.778 26.184 357.884 25.841 357.228 25.1552C356.572 24.4694 356.244 23.6196 356.244 22.6058ZM383.146 36.6054L383.325 44.8799C385.144 41.8981 387.41 39.6319 390.123 38.0813C392.837 36.501 395.834 35.7108 399.114 35.7108C404.302 35.7108 408.163 37.1719 410.698 40.0941C413.232 43.0162 414.515 47.3995 414.544 53.2438V85H409.222V53.1991C409.192 48.8755 408.268 45.6551 406.449 43.538C404.66 41.421 401.782 40.3624 397.817 40.3624C394.507 40.3624 391.57 41.4061 389.005 43.4933C386.471 45.5508 384.592 48.3387 383.37 51.8573V85H378.047V36.6054H383.146Z" fill="white"/>
<path d="M174.342 40.273L167.723 36.6948C170.198 32.401 171.465 28.1967 171.525 24.0818V16.2993H182.527V23.5898C182.527 26.3629 181.722 29.3298 180.112 32.4905C178.532 35.6214 176.609 38.2155 174.342 40.273Z" fill="#FF68E7"/>
</svg>
