<svg width="20" height="21" viewBox="0 0 20 21" fill="none" xmlns="http://www.w3.org/2000/svg">
<circle cx="11.5" cy="6.5" r="2.5" fill="#FF68E7"/>
<path d="M16 12.5C16 11.5717 15.5259 10.6815 14.682 10.0251C13.8381 9.36875 12.6935 9 11.5 9C10.3065 9 9.16193 9.36875 8.31802 10.0251C7.47411 10.6815 7 11.5717 7 12.5L11.5 12.5H16Z" fill="#FF68E7"/>
<path d="M1.83369 3.66159V18.1722H16.3753V20.002H1.83369C1.32196 20.002 0.888415 19.8247 0.533049 19.4701C0.177683 19.1155 0 18.6829 0 18.1722V3.66159H1.83369ZM18.209 0.00201416C18.6923 0.00201416 19.1116 0.179319 19.467 0.533929C19.8223 0.888539 20 1.32116 20 1.8318V14.5552C20 15.0375 19.8223 15.4559 19.467 15.8105C19.1116 16.1651 18.6923 16.3424 18.209 16.3424H5.45842C4.9467 16.3424 4.51315 16.1651 4.15778 15.8105C3.80242 15.4559 3.62473 15.0375 3.62473 14.5552V1.8318C3.62473 1.32116 3.80242 0.888539 4.15778 0.533929C4.51315 0.179319 4.9467 0.00201416 5.45842 0.00201416H18.209ZM18.209 14.5552V1.8318H5.45842V14.5552H18.209Z" fill="#FF68E7"/>
</svg>
