<svg width="28" height="28" viewBox="0 0 28 28" fill="none" xmlns="http://www.w3.org/2000/svg">
<path d="M28 14C28 21.7315 21.7315 28 14 28C6.26845 28 0 21.7315 0 14C0 6.26845 6.26845 0 14 0C21.7332 0 28 6.26845 28 14Z" fill="#F217CF"/>
<path d="M6.90701 14.4704L6.96743 14.3755L10.6094 8.67811C10.6626 8.59467 10.7878 8.60331 10.828 8.69391C11.4364 10.0575 11.9614 11.7533 11.7155 12.8091C11.6105 13.2435 11.3228 13.8318 10.9992 14.3755C10.9575 14.4546 10.9114 14.5323 10.8625 14.6071C10.8395 14.6416 10.8007 14.6617 10.759 14.6617H7.01344C6.91277 14.6617 6.85381 14.5524 6.90701 14.4704Z" fill="white"/>
<path d="M23.1404 15.5291V16.4309C23.1404 16.4827 23.1088 16.5287 23.0628 16.5489C22.7808 16.6697 21.8157 17.1127 21.4144 17.6708C20.3903 19.0962 19.6078 21.1344 17.8587 21.1344H10.5619C7.97568 21.1344 5.87997 19.0315 5.87997 16.4367V16.3532C5.87997 16.2842 5.93607 16.2281 6.00513 16.2281H10.0728C10.1534 16.2281 10.2124 16.3029 10.2052 16.382C10.1764 16.6467 10.2253 16.9171 10.3504 17.1631C10.5921 17.6535 11.0926 17.9599 11.6335 17.9599H13.6472V16.3878H11.6565C11.5544 16.3878 11.4939 16.2698 11.5529 16.1864C11.5745 16.1533 11.5989 16.1188 11.6248 16.08C11.8133 15.8124 12.0822 15.3967 12.3498 14.9235C12.5324 14.6042 12.7094 14.2633 12.8518 13.921C12.8805 13.8591 12.9036 13.7959 12.9265 13.734C12.9654 13.6247 13.0057 13.5225 13.0344 13.4204C13.0632 13.3341 13.0862 13.2435 13.1092 13.1586C13.1768 12.8681 13.2056 12.5603 13.2056 12.241C13.2056 12.1158 13.1999 11.9849 13.1883 11.8598C13.1826 11.7231 13.1653 11.5865 13.1481 11.4499C13.1365 11.329 13.115 11.2097 13.092 11.0845C13.0632 10.9018 13.0229 10.7206 12.9769 10.5379L12.9611 10.4689C12.9265 10.3438 12.8978 10.2244 12.8575 10.0992C12.7439 9.70655 12.613 9.32394 12.4749 8.96579C12.4246 8.8234 12.367 8.68676 12.3095 8.55012C12.2246 8.34441 12.1383 8.15743 12.0592 7.9805C12.0189 7.89996 11.9844 7.8266 11.9499 7.75181C11.9111 7.66693 11.8708 7.58209 11.8305 7.50152C11.8018 7.43967 11.7687 7.38214 11.7457 7.32462L11.4997 6.87009C11.4652 6.80824 11.5227 6.73488 11.5903 6.75357L13.1294 7.17071H13.1337C13.1365 7.17071 13.138 7.17214 13.1394 7.17214L13.3423 7.22824L13.5652 7.29152L13.6472 7.31454V6.39975C13.6472 5.95816 14.001 5.60001 14.4383 5.60001C14.6569 5.60001 14.8554 5.68917 14.9978 5.83446C15.1402 5.97975 15.2294 6.17824 15.2294 6.39975V7.75756L15.3933 7.80357C15.4063 7.8079 15.4193 7.81365 15.4308 7.82227C15.471 7.85248 15.5286 7.89709 15.6019 7.95173C15.6595 7.99777 15.7213 8.05386 15.7961 8.11139C15.9443 8.23079 16.1212 8.3847 16.3154 8.5616C16.3671 8.60621 16.4175 8.65222 16.4635 8.69827C16.7138 8.93126 16.9943 9.20457 17.2618 9.50663C17.3366 9.59147 17.41 9.67777 17.4848 9.7684C17.5596 9.86045 17.6387 9.95108 17.7077 10.0417C17.7983 10.1625 17.8961 10.2876 17.981 10.4186C18.0213 10.4804 18.0673 10.5437 18.1061 10.6055C18.2154 10.771 18.3118 10.9421 18.4039 11.1133C18.4427 11.1924 18.483 11.2787 18.5175 11.3636C18.6196 11.5923 18.7002 11.8253 18.7519 12.0583C18.7678 12.1086 18.7793 12.1633 18.785 12.2122V12.2237C18.8023 12.2928 18.808 12.3661 18.8138 12.4409C18.8368 12.6797 18.8253 12.9184 18.7735 13.1586C18.7519 13.2608 18.7232 13.3571 18.6887 13.4593C18.6541 13.5571 18.6196 13.6592 18.5751 13.7556C18.4887 13.9555 18.3866 14.1554 18.2658 14.3424C18.2269 14.4115 18.1809 14.4848 18.1349 14.5538C18.0846 14.6272 18.0328 14.6963 17.9867 14.7639C17.9235 14.8502 17.8559 14.9408 17.7868 15.0213C17.725 15.1062 17.6617 15.1911 17.5926 15.2659C17.4963 15.3795 17.4042 15.4874 17.3078 15.5909C17.2503 15.6585 17.1885 15.7276 17.1251 15.7894C17.0633 15.8585 17 15.9203 16.9425 15.9778C16.8461 16.0742 16.7656 16.149 16.698 16.2109L16.5397 16.3561C16.5167 16.3763 16.4865 16.3878 16.4549 16.3878H15.2294V17.9599H16.7713C17.1165 17.9599 17.4445 17.8377 17.7091 17.6133C17.7998 17.5342 18.1953 17.1918 18.6628 16.6755C18.6786 16.6582 18.6987 16.6453 18.7217 16.6395L22.9808 15.4082C23.0599 15.3852 23.1404 15.4456 23.1404 15.5291Z" fill="white"/>
</svg>
