<svg width="20" height="21" viewBox="0 0 20 21" fill="none" xmlns="http://www.w3.org/2000/svg">
<path d="M1.493 13.648C1.4683 13.4685 1.37945 13.304 1.24286 13.1849C1.10628 13.0658 0.931203 13.0002 0.75 13.0002C0.568797 13.0002 0.393721 13.0658 0.257137 13.1849C0.120554 13.304 0.0316992 13.4685 0.00699997 13.648L0 13.75V17.252L0.00500011 17.427C0.0476479 18.096 0.333174 18.7264 0.807909 19.1996C1.28264 19.6729 1.91389 19.9564 2.583 19.997L2.75 20.002H6.25L6.352 19.996C6.53227 19.9721 6.69772 19.8836 6.81756 19.7468C6.9374 19.61 7.00347 19.4344 7.00347 19.2525C7.00347 19.0707 6.9374 18.895 6.81756 18.7582C6.69772 18.6215 6.53227 18.5329 6.352 18.509L6.25 18.502H2.75L2.622 18.496C2.3362 18.4665 2.06929 18.3394 1.86621 18.1361C1.66313 17.9329 1.53628 17.6658 1.507 17.38L1.5 17.252V13.75L1.493 13.648Z" fill="#FF68E7"/>
<path d="M19.993 13.648C19.9671 13.4598 19.8707 13.2884 19.7233 13.1684C19.5759 13.0485 19.3885 12.989 19.1989 13.002C19.0093 13.0149 18.8317 13.0994 18.702 13.2382C18.5723 13.3771 18.5001 13.56 18.5 13.75V17.252L18.494 17.38C18.4623 17.6878 18.3176 17.973 18.0878 18.1802C17.858 18.3875 17.5595 18.5022 17.25 18.502H13.75L13.648 18.509C13.4598 18.5349 13.2884 18.6313 13.1684 18.7787C13.0485 18.9261 12.989 19.1136 13.002 19.3031C13.0149 19.4927 13.0994 19.6703 13.2382 19.8C13.3771 19.9298 13.56 20.002 13.75 20.002H17.25L17.418 19.997C18.117 19.9542 18.7733 19.6464 19.2531 19.1363C19.7329 18.6262 20.0001 17.9523 20 17.252V13.75L19.993 13.648Z" fill="#FF68E7"/>
<path d="M7 0.75C7 0.551088 6.92098 0.360322 6.78033 0.21967C6.63968 0.0790175 6.44891 0 6.25 0H2.75L2.583 0.00500011C1.88384 0.0475365 1.22727 0.35526 0.747257 0.865376C0.267246 1.37549 -1.92068e-05 2.04955 1.03524e-09 2.75V6.252L0.00699997 6.354C0.0329014 6.54225 0.129294 6.71365 0.276701 6.83357C0.424108 6.95349 0.611538 7.01298 0.80112 7.00003C0.990702 6.98707 1.1683 6.90264 1.29803 6.76379C1.42776 6.62494 1.49994 6.44202 1.5 6.252V2.75L1.507 2.622C1.53867 2.31434 1.68328 2.02935 1.91286 1.82211C2.14245 1.61487 2.44071 1.50011 2.75 1.5H6.25L6.352 1.493C6.53155 1.46835 6.69611 1.37952 6.81523 1.24293C6.93436 1.10634 6.99999 0.931238 7 0.75Z" fill="#FF68E7"/>
<path d="M17.418 0.00500011L17.25 0H13.75L13.648 0.00699997C13.4685 0.0316992 13.304 0.120554 13.1849 0.257137C13.0658 0.393721 13.0002 0.568797 13.0002 0.75C13.0002 0.931203 13.0658 1.10628 13.1849 1.24286C13.304 1.37945 13.4685 1.4683 13.648 1.493L13.75 1.5H17.25L17.378 1.506C17.664 1.53532 17.9311 1.66232 18.1344 1.8656C18.3377 2.06888 18.4647 2.33602 18.494 2.622L18.5 2.75V6.252L18.507 6.354C18.5317 6.53351 18.6206 6.69801 18.7572 6.81709C18.8937 6.93617 19.0688 7.00177 19.25 7.00177C19.4312 7.00177 19.6063 6.93617 19.7429 6.81709C19.8795 6.69801 19.9683 6.53351 19.993 6.354L20 6.252V2.75L19.995 2.576C19.9526 1.90701 19.6673 1.27653 19.1928 0.803086C18.7182 0.32964 18.0871 0.0458287 17.418 0.00500011Z" fill="#FF68E7"/>
<path d="M6.50299 11.5C6.50299 11.0404 6.59352 10.5852 6.76941 10.1606C6.9453 9.73597 7.20311 9.35013 7.52812 9.02513C7.85312 8.70012 8.23896 8.44231 8.6636 8.26642C9.08824 8.09053 9.54336 8 10.003 8C10.4626 8 10.9177 8.09053 11.3424 8.26642C11.767 8.44231 12.1529 8.70012 12.4779 9.02513C12.8029 9.35013 13.0607 9.73597 13.2366 10.1606C13.4125 10.5852 13.503 11.0404 13.503 11.5C13.503 12.4283 13.1342 13.3185 12.4779 13.9749C11.8215 14.6313 10.9312 15 10.003 15C9.07473 15 8.18449 14.6313 7.52812 13.9749C6.87174 13.3185 6.50299 12.4283 6.50299 11.5Z" fill="#FF68E7"/>
<path d="M4.21297 9.743L4.20497 9.764V9.766C4.13456 9.95158 3.99345 10.1017 3.81256 10.1834C3.63168 10.2651 3.42578 10.2718 3.23997 10.202C2.64197 9.978 2.80197 9.233 2.80397 9.228L2.80997 9.213C2.83605 9.1451 2.86507 9.07837 2.89697 9.013C2.95697 8.884 3.04497 8.707 3.16697 8.497C3.49358 7.93976 3.89013 7.4266 4.34697 6.97C5.46897 5.85 7.27797 4.75 10.003 4.75C12.729 4.75 14.538 5.85 15.658 6.97C16.1148 7.4266 16.5114 7.93976 16.838 8.497C16.9724 8.72783 17.092 8.96698 17.196 9.213L17.202 9.228L17.204 9.233V9.235L17.205 9.237C17.2746 9.42319 17.2675 9.62941 17.1852 9.81036C17.1029 9.99131 16.9521 10.1322 16.766 10.202C16.5798 10.2695 16.3746 10.2615 16.1942 10.1797C16.0139 10.0978 15.8727 9.94861 15.801 9.764L15.793 9.744C15.793 9.744 15.77 9.689 15.749 9.644C15.6864 9.51056 15.6176 9.38008 15.543 9.253C15.2813 8.80675 14.9638 8.39576 14.598 8.03C13.718 7.15 12.278 6.25 10.003 6.25C7.72897 6.25 6.28797 7.15 5.40797 8.03C5.04216 8.39575 4.72459 8.80674 4.46297 9.253C4.37031 9.4114 4.28684 9.57501 4.21297 9.743Z" fill="#FF68E7"/>
</svg>
