<svg width="543" height="433" viewBox="0 0 543 433" fill="none" xmlns="http://www.w3.org/2000/svg">
<g filter="url(#filter0_i)">
<path d="M510.023 197.95C498.916 178.661 451.849 177.765 428.755 178.547C429.538 155.363 428.654 108.117 409.426 96.9735C390.201 85.8123 348.99 108.67 329.378 120.946C318.505 100.476 294.196 60 272.001 60C249.802 60 225.496 100.479 214.623 120.953C195.014 108.676 153.816 85.8171 134.58 96.9706C115.347 108.117 114.462 155.366 115.245 178.548C92.1518 177.765 45.0862 178.662 33.9748 197.959C22.6337 217.691 46.6123 260.304 57.4488 277.709C79.6264 313.331 107.941 343.337 133.191 357.973C154.829 370.514 177.253 374 195.507 374C206.121 374 215.328 372.821 222.141 371.555C242.909 367.699 261.023 359.795 272.002 350.236C282.981 359.795 301.096 367.699 321.864 371.555C328.679 372.821 337.882 374.001 348.498 374C366.751 374 389.178 370.512 410.814 357.973C436.063 343.337 464.378 313.332 486.555 277.709C497.39 260.303 521.368 217.69 510.023 197.95ZM253.965 94.4587C264.274 81.759 270.48 78.9786 272.002 78.9786C273.525 78.9786 279.73 81.7599 290.04 94.4587C297.894 104.134 306.123 117.111 313.602 131.545C297.915 142.807 283.573 155.252 272.001 167.627C260.43 155.253 246.078 142.8 230.403 131.553C237.882 117.115 246.111 104.136 253.965 94.4587ZM142.644 341.535C119.95 328.381 94.0939 300.76 73.4809 267.65C64.5037 253.232 57.3688 238.894 53.3885 227.278C48.9648 214.367 49.6954 208.581 50.3468 207.45C51.1084 206.126 56.6128 202.121 72.7231 199.508C84.9962 197.516 100.303 196.85 116.493 197.565C119.852 232.429 128.57 264.073 140.799 285.342C160.554 319.694 193.303 335.432 211.066 341.756C219.649 344.811 228.176 346.96 236.249 348.204C211.508 356.83 174.727 360.131 142.644 341.535ZM217.387 323.866C202.078 318.416 173.898 304.93 157.175 275.85C145.362 255.304 137.153 223.242 134.653 187.883C133.289 168.688 133.812 150.212 136.124 135.859C138.728 119.691 142.717 114.169 144.034 113.405C145.351 112.641 152.108 111.935 167.361 117.756C180.902 122.923 197.101 131.708 212.98 142.494C230.873 154.637 247.207 168.543 259.667 182.172C255.967 187.045 252.734 191.864 250.035 196.558C230.274 230.915 233.072 267.257 236.497 285.861C239.76 303.577 245.939 319.365 253.564 330.475C244.036 330.689 231.233 328.795 217.387 323.866ZM276.728 327.7C269.511 323.517 259.473 306.221 255.087 282.411C252.133 266.376 249.677 235.133 266.407 206.046C269.749 200.231 274.091 194.124 279.31 187.895C292.229 172.484 310.595 156.356 331.027 142.483H331.026C346.908 131.701 363.109 122.917 376.643 117.751C391.893 111.932 398.649 112.641 399.97 113.405C401.287 114.169 405.276 119.691 407.88 135.859C410.192 150.212 410.715 168.688 409.351 187.887C406.851 223.243 398.643 255.306 386.831 275.85C370.107 304.93 341.927 318.415 326.618 323.867C303.884 331.96 283.944 331.882 276.728 327.7ZM490.615 227.277C486.635 238.893 479.499 253.231 470.522 267.649C449.909 300.76 424.053 328.381 401.36 341.534C369.276 360.129 332.497 356.827 307.755 348.2C315.828 346.957 324.355 344.807 332.937 341.753C350.7 335.429 383.449 319.691 403.205 285.339C415.433 264.069 424.152 232.426 427.51 197.563C443.699 196.85 459.006 197.515 471.28 199.507C487.39 202.12 492.895 206.125 493.652 207.44C494.308 208.581 495.038 214.367 490.615 227.277Z" fill="#EE78DB"/>
</g>
<path d="M450.992 257.134C447.941 255.299 443.986 256.291 442.156 259.355C436.663 268.554 429.828 277.402 422.912 284.267C420.383 286.778 420.36 290.872 422.861 293.412C424.121 294.691 425.781 295.331 427.441 295.331C429.077 295.331 430.714 294.709 431.97 293.462C439.631 285.857 447.173 276.106 453.205 266.004C455.033 262.942 454.043 258.971 450.992 257.134Z" fill="#EE78DB"/>
<path d="M456.338 238C448.049 238 448.036 250.932 456.338 250.932C464.626 250.932 464.64 238 456.338 238Z" fill="#EE78DB"/>
<path d="M95.5673 263.134C98.6181 261.299 102.574 262.291 104.403 265.355C109.897 274.554 116.731 283.402 123.647 290.267C126.177 292.778 126.2 296.872 123.699 299.412C122.439 300.691 120.779 301.331 119.119 301.331C117.483 301.331 115.845 300.709 114.59 299.462C106.928 291.857 99.3866 282.106 93.3543 272.004C91.5261 268.942 92.5165 264.971 95.5673 263.134Z" fill="#EE78DB"/>
<path d="M90.2213 244C98.5103 244 98.5238 256.932 90.2213 256.932C81.9329 256.932 81.9194 244 90.2213 244Z" fill="#EE78DB"/>
<defs>
<filter id="filter0_i" x="31" y="60" width="482" height="318" filterUnits="userSpaceOnUse" color-interpolation-filters="sRGB">
<feFlood flood-opacity="0" result="BackgroundImageFix"/>
<feBlend mode="normal" in="SourceGraphic" in2="BackgroundImageFix" result="shape"/>
<feColorMatrix in="SourceAlpha" type="matrix" values="0 0 0 0 0 0 0 0 0 0 0 0 0 0 0 0 0 0 127 0" result="hardAlpha"/>
<feOffset dy="8"/>
<feGaussianBlur stdDeviation="2"/>
<feComposite in2="hardAlpha" operator="arithmetic" k2="-1" k3="1"/>
<feColorMatrix type="matrix" values="0 0 0 0 0 0 0 0 0 0 0 0 0 0 0 0 0 0 0.31 0"/>
<feBlend mode="normal" in2="shape" result="effect1_innerShadow"/>
</filter>
</defs>
</svg>
