<svg width="391" height="391" viewBox="0 0 391 391" fill="none" xmlns="http://www.w3.org/2000/svg">
<g clip-path="url(#clip0)" filter="url(#filter0_i)">
<path d="M389.33 36.1992C377.37 21.1837 358.231 11.2246 338.136 9.56056C320.738 8.12561 304.541 12.9307 290.97 23.5C276.774 16.8048 260.942 11.5614 243.815 7.90262C243.8 7.89956 243.786 7.89575 243.77 7.89269C237.594 6.31111 231.233 5.6154 224.862 5.82007C190.069 6.9442 161.557 35.0445 159.951 69.7934C159.092 88.3546 165.666 105.957 178.461 119.357C191.265 132.767 208.527 140.152 227.065 140.152C228.559 140.152 230.038 140.186 231.506 140.237C227.34 153.941 227.767 167.962 232.866 181.316C239.556 198.839 254.269 214.128 271.276 221.238C272.238 221.649 273.265 221.861 274.293 221.861C274.644 221.861 274.994 221.829 275.342 221.781C275.381 221.775 275.42 221.77 275.46 221.764C276.159 221.656 276.844 221.452 277.497 221.151C277.514 221.144 277.531 221.136 277.547 221.128C278.178 220.832 278.776 220.446 279.324 219.968C279.364 219.934 279.402 219.898 279.442 219.861C279.533 219.779 279.628 219.703 279.715 219.615C279.805 219.525 279.876 219.422 279.961 219.328C280.074 219.203 280.184 219.079 280.289 218.946C280.435 218.762 280.567 218.575 280.693 218.383C280.77 218.264 280.846 218.146 280.917 218.022C281.047 217.797 281.162 217.568 281.267 217.334C281.297 217.266 281.338 217.206 281.366 217.137C281.395 217.067 281.416 216.995 281.443 216.924C281.492 216.793 281.54 216.664 281.583 216.532C281.677 216.239 281.759 215.946 281.816 215.651C281.826 215.599 281.83 215.544 281.839 215.492C281.888 215.21 281.918 214.927 281.936 214.646C281.941 214.56 281.945 214.474 281.947 214.388C281.956 214.058 281.95 213.731 281.917 213.405C281.916 213.397 281.914 213.388 281.913 213.379C281.879 213.062 281.82 212.751 281.746 212.442C281.725 212.352 281.703 212.261 281.679 212.171C281.595 211.864 281.498 211.561 281.377 211.267C281.372 211.256 281.371 211.245 281.366 211.235C280.283 208.421 268.232 175.724 285.113 158.374C316.678 183.241 325.285 230.184 315.296 264.253L277.254 290.33C271.674 294.154 269.573 300.956 272.026 307.259C274.478 313.562 280.624 317.161 287.324 316.204L319.718 311.583L336.874 335.3C339.662 339.148 343.871 341.24 348.29 341.24C350.172 341.24 352.091 340.861 353.956 340.075C360.198 337.448 363.621 331.198 362.476 324.518L355.073 281.483C370.051 265.172 381.944 226.017 383.348 186.942C384.233 162.322 381.187 139.01 374.293 117.656C367.015 95.1093 355.584 75.4247 340.291 59.0125C357.735 44.6936 381.778 48.4883 382.022 48.5288C385.155 49.0733 388.305 47.6215 389.928 44.8837C391.552 42.1467 391.314 38.6895 389.33 36.1992ZM261.071 188.967C261.254 191.849 261.585 194.634 261.998 197.263C255.516 191.359 250.271 183.916 247.191 175.85C242.997 164.864 242.997 153.212 247.129 141.853C256.118 143.451 264.439 146.18 272.002 150.008C263.815 159.729 260.057 172.982 261.071 188.967ZM368.028 186.395C366.464 229.921 351.86 264.61 341.918 272.917C339.82 274.67 338.815 277.406 339.279 280.1L346.582 322.557L329.433 298.849C327.98 296.839 325.659 295.675 323.222 295.675C322.862 295.675 322.5 295.7 322.137 295.752L289.725 300.375L326.167 275.395C327.56 274.439 328.599 273.051 329.122 271.445C342.36 230.792 332.819 171.702 289.066 142.266C289.005 142.225 288.942 142.187 288.881 142.146C288.866 142.136 288.85 142.125 288.834 142.115C275.79 133.396 260.54 127.91 243.507 125.811C243.484 125.807 243.461 125.805 243.437 125.801C243.395 125.796 243.352 125.789 243.308 125.784C238.111 125.145 232.645 124.822 227.063 124.822C212.754 124.822 199.433 119.122 189.549 108.771C179.675 98.4297 174.602 84.8401 175.265 70.5043C176.505 43.6947 198.507 22.0154 225.355 21.1486C230.382 20.9829 235.395 21.5495 240.259 22.8264C240.491 22.8867 240.724 22.9379 240.959 22.9753C258.516 26.7532 274.547 32.2823 288.611 39.4081L288.612 39.4089C302.043 46.2118 313.991 54.6244 324.126 64.4125C364.728 103.611 369.059 157.664 368.028 186.395ZM329.217 48.2836C322.2 42.1604 314.521 36.5894 306.247 31.6331C317.51 25.0441 328.723 24.1667 336.87 24.8433C346.094 25.607 355.242 28.68 363.095 33.4308C352.636 34.8727 340.033 38.7781 329.217 48.2836Z" fill="#EE78DB"/>
<path d="M351.442 171.779C345.668 150.524 335.847 131.711 322.253 115.864C305.631 96.4875 283.271 81.4675 255.795 71.2228C251.827 69.745 247.412 71.7612 245.933 75.7277C244.453 79.695 246.471 84.1113 250.438 85.5898C295.995 102.576 324.999 132.927 336.645 175.797C337.572 179.21 340.665 181.457 344.04 181.457C344.705 181.457 345.382 181.37 346.054 181.186C350.139 180.076 352.553 175.864 351.442 171.779Z" fill="#EE78DB"/>
<path d="M140.563 305.411C102.571 291.244 75.9507 267.606 61.4431 235.153C59.7149 231.288 55.1817 229.554 51.3152 231.283C47.4495 233.011 45.7167 237.545 47.4449 241.411C63.6929 277.756 93.2198 304.122 135.206 319.778C136.089 320.108 136.994 320.263 137.883 320.263C140.993 320.263 143.918 318.357 145.068 315.273C146.548 311.305 144.531 306.89 140.563 305.411Z" fill="#EE78DB"/>
<path d="M212.54 271.643C199.736 258.233 182.475 250.848 163.936 250.848C162.442 250.848 160.963 250.814 159.495 250.763C163.661 237.059 163.234 223.038 158.135 209.684C151.475 192.238 136.859 177.003 119.945 169.854C117.108 168.532 113.629 169.044 111.285 171.386C109.059 173.612 108.493 176.869 109.579 179.625H109.579C109.581 179.63 109.585 179.641 109.587 179.647C109.597 179.671 109.606 179.696 109.616 179.721C110.576 182.203 122.867 215.175 105.888 232.628C74.3218 207.761 65.7144 160.818 75.7041 126.748L113.746 100.671C119.325 96.8473 121.426 90.0445 118.974 83.7419C116.522 77.4385 110.373 73.837 103.676 74.7969L71.2816 79.4179L54.1249 55.6996C50.1507 50.2156 43.286 48.295 37.0437 50.9243C30.8021 53.5514 27.3778 59.8021 28.5233 66.482L35.9264 109.517C20.9492 125.828 9.05564 164.983 7.65123 204.058C6.7669 228.678 9.81321 251.99 16.7069 273.344C23.9848 295.891 35.4163 315.575 50.7089 331.988C33.265 346.308 9.22136 342.512 8.97698 342.471C5.84208 341.927 2.69344 343.378 1.07062 346.116C-0.552193 348.855 -0.313925 352.312 1.66935 354.802C13.6324 369.819 32.7709 379.778 52.8655 381.442C54.8801 381.608 56.8764 381.691 58.8566 381.691C73.9713 381.691 88.0184 376.836 100.017 367.494C114.216 374.192 130.054 379.438 147.186 383.097C147.201 383.101 147.216 383.104 147.231 383.107C152.702 384.508 158.316 385.215 163.956 385.215C164.683 385.215 165.411 385.203 166.14 385.18C200.932 384.056 229.445 355.956 231.051 321.207C231.91 302.645 225.335 285.043 212.54 271.643ZM129.931 202.036C129.748 199.153 129.417 196.368 129.004 193.74C135.486 199.643 140.731 207.087 143.811 215.152C148.005 226.139 148.005 237.79 143.873 249.149C134.884 247.552 126.563 244.822 119 240.995C127.187 231.272 130.945 218.02 129.931 202.036ZM54.131 366.158C44.9073 365.395 35.7592 362.322 27.9063 357.571C38.3648 356.128 50.9686 352.223 61.7838 342.717C68.8004 348.84 76.4792 354.411 84.7537 359.368C73.4917 365.957 62.2786 366.833 54.131 366.158ZM215.735 320.497C214.496 347.307 192.493 368.986 165.645 369.853C160.622 370.019 155.606 369.452 150.742 368.175C150.509 368.115 150.276 368.064 150.041 368.026C132.484 364.248 116.453 358.719 102.389 351.593L102.389 351.593C88.9577 344.79 77.0092 336.377 66.8745 326.589C26.2728 287.389 21.9427 233.336 22.9737 204.605C24.5369 161.08 39.1415 126.39 49.0831 118.083C51.1809 116.33 52.1859 113.594 51.7223 110.9L44.4193 68.4431L61.5692 92.1515C63.2378 94.4593 66.0466 95.6499 68.8638 95.2482L101.277 90.6249L64.8347 115.606C63.4417 116.561 62.4024 117.949 61.8792 119.555C48.6432 160.204 58.18 219.286 101.922 248.725C101.944 248.739 101.966 248.754 101.988 248.768C115.121 257.59 130.501 263.124 147.692 265.216C147.71 265.218 147.728 265.22 147.746 265.222C147.775 265.225 147.806 265.228 147.836 265.231C152.99 265.858 158.406 266.178 163.937 266.178C178.245 266.178 191.567 271.878 201.451 282.229C211.325 292.573 216.398 306.162 215.735 320.497Z" fill="#EE78DB"/>
<path d="M46.958 209.547C37.0921 209.547 37.0753 224.88 46.958 224.88C56.8247 224.88 56.8408 209.547 46.958 209.547Z" fill="#EE78DB"/>
</g>
<defs>
<filter id="filter0_i" x="0" y="0" width="391" height="395" filterUnits="userSpaceOnUse" color-interpolation-filters="sRGB">
<feFlood flood-opacity="0" result="BackgroundImageFix"/>
<feBlend mode="normal" in="SourceGraphic" in2="BackgroundImageFix" result="shape"/>
<feColorMatrix in="SourceAlpha" type="matrix" values="0 0 0 0 0 0 0 0 0 0 0 0 0 0 0 0 0 0 127 0" result="hardAlpha"/>
<feOffset dy="7"/>
<feGaussianBlur stdDeviation="2"/>
<feComposite in2="hardAlpha" operator="arithmetic" k2="-1" k3="1"/>
<feColorMatrix type="matrix" values="0 0 0 0 0 0 0 0 0 0 0 0 0 0 0 0 0 0 0.35 0"/>
<feBlend mode="normal" in2="shape" result="effect1_innerShadow"/>
</filter>
<clipPath id="clip0">
<rect width="391" height="391" fill="white"/>
</clipPath>
</defs>
</svg>
