<svg width="263" height="263" viewBox="0 0 263 263" fill="none" xmlns="http://www.w3.org/2000/svg">
<g filter="url(#filter0_i)">
<path d="M131.5 109.382C115.113 109.382 101.781 122.714 101.781 139.101C101.781 155.488 115.113 168.82 131.5 168.82C147.887 168.82 161.219 155.488 161.219 139.101C161.219 122.714 147.887 109.382 131.5 109.382ZM131.5 158.506C120.8 158.506 112.095 149.801 112.095 139.1C112.095 128.401 120.8 119.695 131.5 119.695C142.2 119.695 150.906 128.4 150.906 139.1C150.906 149.801 142.2 158.506 131.5 158.506Z" fill="#EE78DB"/>
<path d="M180.551 123.139C176.65 111.142 168.49 101.006 157.576 94.5989C155.119 93.1575 151.959 93.9794 150.517 96.4358C149.075 98.8922 149.898 102.052 152.354 103.494C161.091 108.623 167.621 116.733 170.742 126.328C171.45 128.507 173.472 129.892 175.645 129.892C176.173 129.892 176.71 129.81 177.24 129.638C179.949 128.757 181.432 125.848 180.551 123.139Z" fill="#EE78DB"/>
<path d="M257.843 232.647H243.693V174.302C243.693 171.454 241.383 169.145 238.536 169.145H233.972V74.409C233.972 71.5607 231.662 69.2522 228.815 69.2522C212.211 69.2522 198.409 57.0314 195.924 41.1112H243.245C246.092 41.1112 248.401 38.8023 248.401 35.9545V21.0174C256.563 20.3435 263 13.4901 263 5.15675C263 2.30895 260.691 0 257.843 0C254.996 0 252.686 2.30895 252.686 5.15675C252.686 8.24752 250.172 10.7625 247.081 10.7625H243.245H19.7507H15.9192C12.8279 10.7625 10.3135 8.24803 10.3135 5.15675C10.3135 2.30895 8.00455 0 5.15675 0C2.30947 0 0 2.30895 0 5.15675C0 13.488 6.43425 20.3399 14.5939 21.0169V35.954C14.5939 38.8023 16.9034 41.1107 19.7507 41.1107H67.0717C64.586 57.0309 50.7842 69.2517 34.1802 69.2517C31.3324 69.2517 29.0235 71.5607 29.0235 74.4085V169.145H24.459C21.6112 169.145 19.3022 171.454 19.3022 174.302V232.647H5.15675C2.30947 232.647 0 234.956 0 237.803V257.843C0 260.691 2.30947 263 5.15675 263H257.843C260.691 263 263 260.691 263 257.843V237.804C263 234.956 260.691 232.647 257.843 232.647ZM224.256 179.459H233.379V232.647H224.256V179.459ZM24.9074 30.7967V21.076H238.087V30.7967H24.9074ZM152.922 72.9815C146.039 70.746 138.863 69.6128 131.5 69.6128C124.132 69.6128 116.956 70.7449 110.078 72.9774V41.1107H152.922V72.9815ZM131.5 79.9263C140.023 79.9263 148.247 81.7 155.945 85.1986C155.945 85.1986 155.946 85.1986 155.946 85.1992C177.04 94.7791 190.67 115.937 190.67 139.101C190.67 171.728 164.126 198.271 131.5 198.271C98.871 198.271 72.325 171.728 72.325 139.101C72.325 115.94 85.9579 94.7802 107.055 85.1935C114.746 81.6985 122.969 79.9263 131.5 79.9263ZM39.3365 79.2621C59.2669 76.9028 75.1106 61.0427 77.4705 41.1107H99.7643V77.2783C76.7256 89.1277 62.011 113.03 62.011 139.101C62.011 177.415 93.1832 208.585 131.499 208.585C169.813 208.585 200.983 177.415 200.983 139.101C200.983 113.027 186.27 89.1257 163.235 77.283V41.1107H185.523C187.884 61.0432 203.728 76.9028 223.658 79.2621V169.145H219.1C216.252 169.145 213.943 171.454 213.943 174.302V232.647H49.0572V174.302C49.0572 171.454 46.7477 169.145 43.9005 169.145H39.3365V79.2621ZM29.6158 179.459H38.7432V232.647H29.6158V179.459ZM252.686 252.686H10.3135V242.961H24.459H43.9005H219.1H238.535H252.686V252.686V252.686Z" fill="#EE78DB"/>
<path d="M177.912 133.944C171.276 133.944 171.264 144.258 177.912 144.258C184.548 144.258 184.559 133.944 177.912 133.944Z" fill="#EE78DB"/>
</g>
<defs>
<filter id="filter0_i" x="0" y="0" width="265" height="266" filterUnits="userSpaceOnUse" color-interpolation-filters="sRGB">
<feFlood flood-opacity="0" result="BackgroundImageFix"/>
<feBlend mode="normal" in="SourceGraphic" in2="BackgroundImageFix" result="shape"/>
<feColorMatrix in="SourceAlpha" type="matrix" values="0 0 0 0 0 0 0 0 0 0 0 0 0 0 0 0 0 0 127 0" result="hardAlpha"/>
<feOffset dx="2" dy="7"/>
<feGaussianBlur stdDeviation="1.5"/>
<feComposite in2="hardAlpha" operator="arithmetic" k2="-1" k3="1"/>
<feColorMatrix type="matrix" values="0 0 0 0 0 0 0 0 0 0 0 0 0 0 0 0 0 0 0.25 0"/>
<feBlend mode="normal" in2="shape" result="effect1_innerShadow"/>
</filter>
</defs>
</svg>
