<svg version="1.1" xmlns="http://www.w3.org/2000/svg" x="0px" y="0px" xmlns:xlink="http://www.w3.org/1999/xlink" viewBox="0 0 420 420" style="enable-background:new 0 0 420 420;" xml:space="preserve"><g id="background"><g id="Uncommon"><radialGradient id="radial-gradient" cx="210" cy="212" r="210" gradientTransform="matrix(1, 0, 0, -1, 0, 422)" gradientUnits="userSpaceOnUse"> <stop offset="0" stop-color="#2fa675"/> <stop offset="1" stop-color="#106c48"/> </radialGradient><path d="M389.9,419.5H30.1a30,30,0,0,1-30-30V29.5a30,30,0,0,1,30-30H390a30,30,0,0,1,30,30v360A30.11,30.11,0,0,1,389.9,419.5Z" transform="translate(0 0.5)" fill="url(#radial-gradient)"/> <g> <path id="Main_Spin" fill="#125443" stroke="#125443" stroke-miterlimit="10" d="M210,63.3c-192.6,3.5-192.6,290,0,293.4 C402.6,353.2,402.6,66.7,210,63.3z M340.8,237.5c-0.6,2.9-1.4,5.7-2.2,8.6c-43.6-13.6-80.9,37.8-54.4,75.1 c-4.9,3.2-10.1,6.1-15.4,8.8c-33.9-50.6,14.8-117.8,73.3-101.2C341.7,231.7,341.4,234.6,340.8,237.5z M331.4,265.5 c-7.9,17.2-19.3,32.4-33.3,44.7c-15.9-23.3,7.6-55.7,34.6-47.4C332.3,263.7,331.8,264.6,331.4,265.5z M332.5,209.6 C265,202.4,217,279,252.9,336.5c-5.8,1.9-11.7,3.5-17.7,4.7c-40.3-73.8,24.6-163.5,107.2-148c0.6,6,1.2,12.2,1.1,18.2 C339.9,210.6,336.2,210,332.5,209.6z M87.8,263.9c28.7-11.9,56,24,36.3,48.4C108.5,299.2,96.2,282.5,87.8,263.9z M144.3,312.7 c17.8-38.8-23.4-81.6-62.6-65.5c-1.7-5.7-2.9-11.5-3.7-17.4c60-20.6,112.7,49.4,76,101.5c-5.5-2.4-10.7-5.3-15.6-8.5 C140.7,319.6,142.7,316.3,144.3,312.7z M174.2,330.4c32.6-64-28.9-138.2-97.7-118c-0.3-6.1,0.4-12.4,0.9-18.5 c85-18.6,151.7,71.7,110.8,147.8c-6.1-1-12.2-2.4-18.1-4.1C171.6,335.3,173,332.9,174.2,330.4z M337,168.6c-7-0.7-14.4-0.8-21.4-0.2 c-43.1-75.9-167.4-75.9-210.7-0.2c-7.3-0.6-14.9,0-22.1,0.9C118.2,47.7,301.1,47.3,337,168.6z M281.1,175.9c-3,1.1-5.9,2.3-8.7,3.6 c-29.6-36.1-93.1-36.7-123.4-1.2c-5.8-2.5-11.9-4.5-18-6.1c36.6-50.4,122.9-50,159,0.7C286.9,173.8,284,174.8,281.1,175.9z M249.6,193.1c-2.4,1.8-4.7,3.6-7,5.6c-16.4-15.6-46-16.4-63.2-1.5c-4.7-3.8-9.6-7.3-14.7-10.5c23.9-24.1,69.1-23.5,92.2,1.3 C254.4,189.6,252,191.3,249.6,193.1z M211.9,239.2c-5.2-10.8-11.8-20.7-19.7-29.4c10.7-8.1,27.9-7.3,37.9,1.6 C222.8,219.7,216.7,229.1,211.9,239.2z"> <animateTransform attributeName="transform" begin="0s" dur="20s" type="rotate" from="-360 210 210" to="0 210 210" repeatCount="indefinite" /> </path> <g id="Spin_Inverse"> <circle fill="none" stroke="#125443" stroke-width="7" stroke-dasharray="22.2609,22.2609" cx="210" cy="210" r="163"> <animateTransform attributeName="transform" begin="0s" dur="20s" type="rotate" from="360 210 210" to="0 210 210" repeatCount="indefinite" /> </circle> </g> <g id="Spin"> <circle fill="none" stroke="#125443" stroke-width="7" stroke-dasharray="22.2041,22.2041" cx="210" cy="210" r="183.8"> <animateTransform attributeName="transform" begin="0s" dur="20s" type="rotate" from="-360 210 210" to="0 210 210" repeatCount="indefinite" /> </circle> </g> </g></g></g><g id="body"><g id="Yokai Moon"><path id="Neck" display="inline"  fill="#2A2C38" stroke="#000000" stroke-width="3" stroke-linecap="round" stroke-miterlimit="10" d="M175.8,276.8c0.8,10,1.1,20.2-0.7,30.4c-0.5,2.6-2.2,4.9-4.7,6.3c-16.4,8.9-41.4,17.2-70.2,25.2c-8.1,2.3-9.5,12.4-2.1,16.4c71.9,38.5,146.3,42.5,224.4,7c7.2-3.3,7.3-12.7,0.1-16c-22.3-10.3-43.5-23.1-54.9-29.9c-3-1.8-4.8-5.2-5.1-8.3c-0.7-7.7-0.7-12.5-0.1-22.2c0.7-11.3,2.6-21.2,4.6-29.3"  /><path id="Shadow" display="inline" opacity="0.51"  enable-background="new    " d="M178.1,279c0,0,24.2,35,41,30.6s41.7-21.6,41.7-21.6c1.2-9.1,1.9-17.1,3.7-26c-4.8,4.9-10.4,9.2-18.8,14.5c-11.3,7.1-22,11.3-29.8,13.3L178.1,279z"  /><path id="Head" display="inline"  fill="#2A2C38" stroke="#000000" stroke-width="3" stroke-linecap="round" stroke-miterlimit="10" d="M313.9,168.8c-0.6-0.8-12.2,8.3-12.2,8.3c0.3-4.9,11.8-53.1-17.3-86c-15.9-17.4-42.2-27.1-69.9-27.7c-24.5-0.5-48.7,10.9-61.6,24.4c-33.5,35-20.1,98.2-20.1,98.2c0.6,10.9,9.1,63.4,21.3,74.6c0,0,33.7,25.7,42.4,30.6c8.8,5,17.1,2.3,17.1,2.3c16-5.9,47.7-25.9,56.8-37.6l0.2-0.2c6.9-9.1,3.9-5.8,11.2-14.8c1.3-1.5,3-2.2,4.8-1.8c4.1,0.8,11.7,1.3,13.3-7c2.4-11.5,2.6-25.1,8.6-35.5C311.7,190.8,315.9,184.6,313.9,168.8z"  /><path id="Ear" display="inline"  fill="#2A2C38" stroke="#000000" stroke-width="3" stroke-linecap="round" stroke-miterlimit="10" d="M141.9,236c0.1,1.1-8.3,3-9.7-12.1s-7.3-31-12.6-48c-3.8-12.2,12.2,6.7,12.2,6.7"  /><g id="Ear2" display="inline" ><path d="M304,174.7c-0.5,1.3-0.3,2.2-1.2,3.1c-0.9,0.8-2.3,2.1-3.2,2.9c-1.8,1.7-4.4,3-6,5s-2.9,4.1-4.2,6.3c-0.6,1-1.3,2.2-1.9,3.3l-1.7,3.4l-0.2-0.1l1.4-3.6c0.5-1.1,0.9-2.4,1.5-3.5c1.1-2.3,2.3-4.6,3.8-6.8s3-4.4,5.1-5.9c1-0.8,2.2-1.5,3.2-2.1c1.1-0.6,2.2-1.1,3.1-2L304,174.7z" /></g><g id="Body" display="inline" ><g><path d="M222.2,339.7c18.6-1.3,37.3-2,55.9-2C259.5,339,240.9,339.8,222.2,339.7z" /></g><g><path d="M142.3,337.2c16.9,0.1,33.7,1,50.6,2.3C176,339.2,159.3,338.5,142.3,337.2z" /></g><g><path d="M199.3,329.2c7.3,14.3,4.6,10.4,17.1,0.1C207.5,339,204.7,346.2,199.3,329.2z" /></g><path opacity="0.19"  enable-background="new    " d="M199.3,329.2c0,0,3.5,9.3,5.3,10.1c1.8,0.8,11.6-10,11.6-10C209.9,330.9,204,331.1,199.3,329.2z" /></g> <line x1="132.69" y1="184.23" x2="130.73" y2="182.28" fill="#e31466" stroke="#000" stroke-linecap="round" stroke-miterlimit="10" stroke-width="2"/></g></g><g id="mark"><g id="Akuma Blood"><g id="Eye_Mark" > <path d="M237.6,223c0-3.6,2.6-85.2,2.8-88.9s-1.8-24.7-1.6-28.3c5.6-6.5,12-33.11,15.92-33.27-4.46,2.4-8.32,29.47-11.52,33.27l-.2,31.1c.13,4.65-2.48,81.07-2.2,86.2a17.68,17.68,0,0,0-1.6,2.2A23.4,23.4,0,0,0,237.6,223Z" transform="translate(0 0.5)" fill="#b50d5e"/> </g> <g id="Eye_Mark-2"> <path d="M163.2,221.8c-.1-3.6.1-88.4.2-92s1.8-21.8,2-25.4c5.5-6.6,13.87-34.73,18.37-34.63-5.3,2-11.77,33-14.87,37l-2.8,25.6c.2,3.6,0,85.7.3,89.3l-1.7,3.1Z" transform="translate(0 0.5)" fill="#b50d5e"/> </g></g></g><g id="mouth"><g id="Canine"><g display="inline" ><polyline  fill="#FFFFFF" points="222.4,251.9 225.5,260.1 230,251.7 " /><path d="M222.4,251.9c0.6,1.4,1.1,2.6,1.8,4c0.5,1.4,1,2.7,1.6,4h-0.4c0.3-0.7,0.7-1.4,1.1-2.1l1.1-2.1c0.8-1.4,1.6-2.7,2.4-4.1c-0.6,1.5-1.4,2.9-2.1,4.3l-1,2.1c-0.4,0.7-0.7,1.5-1.1,2.1l-0.3,0.5l-0.2-0.5c-0.5-1.4-1-2.7-1.5-4.1C223.3,254.7,222.8,253.3,222.4,251.9z" /></g><g display="inline" ><polyline  fill="#FFFFFF" points="187.3,252 184,259.7 180,251.5 " /><path d="M187.3,252c-0.4,1.4-0.9,2.7-1.5,4c-0.5,1.4-1,2.6-1.6,4l-0.2,0.5l-0.3-0.5c-0.3-0.6-0.6-1.4-1-2.1l-1-2.1c-0.6-1.4-1.3-2.7-1.9-4.2c0.8,1.4,1.5,2.6,2.2,4l1,2c0.3,0.7,0.7,1.4,1,2.1h-0.4c0.5-1.3,1-2.6,1.7-3.9C186.2,254.5,186.7,253.2,187.3,252z" /></g><path display="inline"  d="M174.6,251c0,0,24.6,3.4,60.2,0.5"  /><g display="inline" ><path d="M195.8,256.6c1.1,0.3,2.4,0.5,3.5,0.6c1.3,0.1,2.4,0.2,3.6,0.2s2.4-0.1,3.6-0.2s2.4-0.2,3.6-0.4c-0.6,0.2-1.1,0.4-1.8,0.6c-0.6,0.1-1.3,0.3-1.8,0.4c-1.3,0.2-2.5,0.3-3.8,0.3s-2.5-0.1-3.8-0.3C197.9,257.6,196.8,257.2,195.8,256.6z" /></g></g></g><g id="nose"><g id="Nosetril"><path display="inline" stroke="#000000" stroke-width="0.75" stroke-miterlimit="10" d="M196.4,229.2c-0.4,0.3-2.1-0.9-4.1-2.5c-1.9-1.6-3-2.7-2.6-2.9c0.4-0.3,2.5,0,4.2,1.8C195.4,227.2,196.8,228.8,196.4,229.2z"  /><path display="inline" stroke="#000000" stroke-width="0.75" stroke-miterlimit="10" d="M206.5,228.7c0.3,0.4,2.2-0.3,4.2-1.7c2-1.5,3.5-2,3.2-2.4s-2.5-0.7-4.5,0.7C207.4,226.9,206.1,228.2,206.5,228.7z"  /></g></g><g id="eyes"><g id="Kitsune"><g id="No_Fill"> <g> <path stroke="#000000" stroke-miterlimit="10" d="M219.1,197.3c0,0,3.1-22.5,37.9-15.5C257.1,181.7,261,208.8,219.1,197.3z"/> <g> <path d="M227.3,182.1c-1,0.5-1.9,1.3-2.7,2s-1.6,1.6-2.3,2.3c-0.7,0.8-1.5,1.7-2.1,2.5l-1,1.4c-0.3,0.4-0.6,0.9-1,1.4 c0.2-0.5,0.4-1,0.6-1.6c0.2-0.5,0.5-1,0.8-1.6c0.6-0.9,1.3-2,2.1-2.8s1.7-1.7,2.6-2.3C225,182.7,226.1,182.2,227.3,182.1z"/> </g> <g> <path d="M245.4,200.9c1.3-0.2,2.5-0.5,3.6-1s2.2-1,3.2-1.8c1-0.7,1.9-1.6,2.7-2.5s1.6-2,2.3-3c-0.3,1.3-0.8,2.5-1.7,3.5 c-0.7,1-1.7,2.1-2.8,2.8c-1,0.7-2.3,1.4-3.5,1.7C248,201,246.7,201.2,245.4,200.9z"/> </g> </g> <g> <path stroke="#000000" stroke-miterlimit="10" d="M183.9,197.3c0,0-3.1-22.5-37.9-15.5C146,181.7,142,208.8,183.9,197.3z"/> <g> <path d="M175.8,182.1c1,0.5,1.9,1.3,2.7,2s1.6,1.6,2.3,2.3c0.7,0.8,1.5,1.7,2.1,2.5l1,1.4c0.3,0.4,0.6,0.9,1,1.4 c-0.2-0.5-0.4-1-0.6-1.6c-0.2-0.5-0.5-1-0.8-1.6c-0.6-0.9-1.3-2-2.1-2.8s-1.7-1.7-2.6-2.3 C178.1,182.7,176.9,182.2,175.8,182.1z"/> </g> <g> <path d="M157.6,200.9c-1.3-0.2-2.5-0.5-3.6-1s-2.2-1-3.2-1.8c-1-0.7-1.9-1.6-2.7-2.5s-1.6-2-2.3-3c0.3,1.3,0.8,2.5,1.7,3.5 c0.7,1,1.7,2.1,2.8,2.8c1,0.7,2.3,1.4,3.5,1.7C155,201,156.5,201.2,157.6,200.9z"/> </g> </g> </g> <g id="Shadow" opacity="0.43"> <path opacity="0.5" enable-background="new " d="M218.3,191.6c0,0,4.6-10.8,19.9-13.6c0,0-12.2,0-16.1,2.8 C218.9,183.8,218.3,191.6,218.3,191.6z"/> </g> <g id="Shadow_00000029025467326919416900000002242143269665406345_" opacity="0.43"> <path opacity="0.5" enable-background="new " d="M184.9,191.3c0,0-4.8-10.6-20.1-13.4c0,0,12.4-0.2,16.3,2.6 C184.4,183.6,184.9,191.3,184.9,191.3z"/> </g><path display="inline"  fill="#FFFFFF" d="M238.6,181c0,0-4.7,7.9,0,18.7C238.6,199.6,243.2,191.2,238.6,181z"  /><path display="inline"  fill="#FFFFFF" d="M165.3,181c0,0-4.7,7.9,0,18.7C165.3,199.6,169.9,191.2,165.3,181z"  /></g></g><g id="eyebrow"><g id="Yokai Blood"><circle display="inline"  fill="#B50D5E" cx="184.1" cy="170" r="5.5"  /><circle display="inline"  fill="#B50D5E" cx="217" cy="169.8" r="5.5"  /></g></g><g id="earrings"><g id="Monk Blood"><g display="inline" ><g><ellipse transform="matrix(0.9952 -9.784740e-02 9.784740e-02 0.9952 -23.5819 29.5416)" fill="#B50D5E" stroke="#000000" stroke-width="1" stroke-miterlimit="10.0039" cx="289.4" cy="255.2" rx="8" ry="8.1" /><ellipse transform="matrix(1.784754e-02 -0.9998 0.9998 1.784754e-02 24.9032 543.924)" opacity="0.54"  fill="#33112E" enable-background="new    " cx="289.3" cy="259.3" rx="2.2" ry="4.9" /></g><path fill="#A5CBCC" stroke="#000000" stroke-miterlimit="10.0039" d="M283.4,250.2c3.9,0.5,8.2,0.4,12.1-0.1C295.7,250.1,289.6,243,283.4,250.2z" /><line fill="none" stroke="#000000" stroke-width="2" stroke-linecap="round" stroke-miterlimit="10.0039" x1="289.9" y1="244.7" x2="289.6" y2="247.3" /></g><g display="inline" ><g><ellipse transform="matrix(0.9952 -9.784740e-02 9.784740e-02 0.9952 -24.1729 14.6915)" fill="#B50D5E" stroke="#000000" stroke-width="1" stroke-miterlimit="10.0039" cx="137.7" cy="253.8" rx="8" ry="8.1" /><ellipse transform="matrix(1.784754e-02 -0.9998 0.9998 1.784754e-02 -122.6851 390.7122)" opacity="0.54"  fill="#33112E" enable-background="new    " cx="137.5" cy="257.8" rx="2.2" ry="4.9" /></g><path fill="#A5CBCC" stroke="#000000" stroke-miterlimit="10.0039" d="M131.8,248.8c3.9,0.5,8.1,0.4,12-0.1C143.7,248.6,138,241.6,131.8,248.8z" /><line fill="none" stroke="#000000" stroke-width="2" stroke-linecap="round" stroke-miterlimit="10.0039" x1="138" y1="243.2" x2="137.8" y2="245.8" /></g><g id="Ring" display="inline" ><path fill="none" stroke="#000000" stroke-width="2" stroke-linecap="round" stroke-linejoin="round" stroke-miterlimit="10" d="M289,234.7c0,0-4.4,2.1-3.2,6.4c1,4.3,5.3,3.8,5.6,3.6s3.2-0.9,3.1-5.2" /><path fill="none" stroke="#000000" stroke-width="2" stroke-linecap="round" stroke-linejoin="round" stroke-miterlimit="10" d="M137,232.9c0,0-4.4,2.1-3.2,6.4c1,4.3,5.3,3.8,5.6,3.6c0.3-0.1,3.3-0.6,3.2-4.8" /></g></g></g><g id="hair"><g id="Monk Blood"><path display="inline" fill="#B50D5E" d="M288.2,192.7c0,0,0.1-18.3-2.9-21.5c-3.1-3-7.4-9.2-7.4-9.2s0.3-22.2-3.2-29.6c-3.6-7.4-4.6-19.5-36.1-18.7c-30.7,0.7-41.1,5.8-41.1,5.8s-13.1-7.7-41.9-4c-19.6,5.2-20.3,42.6-20.3,42.6s-1.3,9.2-1.9,14.7c-0.6,5.6-0.3,8.5-0.3,8.5c-0.9,11.8-27.4-116.1,81.3-119.6c110.4,6.8,89.8,101.8,86.7,115.3C295.8,180.8,294.7,183.1,288.2,192.7z"  /><g id="Shadow" display="inline" > <path opacity="7.000000e-02"  enable-background="new    " d="M277,141.5c0,0,0.9,3.6,0.9,20.6c0,0,6.6,7.9,8.6,11.7c2,3.6,2.6,18.8,2.6,18.8l5.4-9.2c0,0,1.5-1.8,5.7-4c0,0,7-15.6,3.4-46.3C303.7,133.1,295.1,139.9,277,141.5z" /> <path opacity="7.000000e-02"  enable-background="new    " d="M132.9,182.7c0,0,0.4-11.3,2.3-24.4c0,0,1.9-15.1,3.4-21.9c-1.9,0-6.9,0-8.5-1.1C130,135.3,128.7,177.5,132.9,182.7z" /> </g></g></g><g id="accessory"><g id="Small Horn Moon"><g display="inline" ><path  fill="#2A2C38" stroke="#000000" stroke-miterlimit="10" d="M257.5,100.7c0,0,10.6-0.7,16.6-12.7c0,0,6.3,10.6-5.2,25.1C263.4,110.3,259.4,106.1,257.5,100.7z" /><path  fill="#2A2C38" stroke="#2A2C38" stroke-miterlimit="10" d="M258.2,101.1c0,0.1,1,9.2,10.6,11.4" /></g><g display="inline" ><path  fill="#2A2C38" stroke="#000000" stroke-miterlimit="10" d="M159.4,101.6c0,0-10.6-0.7-16.6-12.7c0,0-6.3,10.6,5.2,25.1C153.4,111.2,157.5,107,159.4,101.6z" /><path  fill="#2A2C38" stroke="#2A2C38" stroke-miterlimit="10" d="M158.9,102c0,0.1-1.5,9.4-10.7,11.3" /></g></g></g><g id="mask"><g id="None"></g></g></svg>