<svg version="1.1" xmlns="http://www.w3.org/2000/svg" x="0px" y="0px" xmlns:xlink="http://www.w3.org/1999/xlink" viewBox="0 0 420 420" style="enable-background:new 0 0 420 420;" xml:space="preserve"><g id="background"><g id="Ordinary"><radialGradient id="radial-gradient" cx="210" cy="212" r="210" gradientTransform="matrix(1, 0, 0, -1, 0, 422)" gradientUnits="userSpaceOnUse"> <stop offset="0" stop-color="#726680"/> <stop offset="1" stop-color="#4a4a4a"/> </radialGradient><path d="M389.9,419.5H30.1a30,30,0,0,1-30-30V29.5a30,30,0,0,1,30-30H390a30,30,0,0,1,30,30v360A30.11,30.11,0,0,1,389.9,419.5Z" transform="translate(0 0.5)" fill="url(#radial-gradient)"/> <g> <path id="Main_Spin" fill="#323232" stroke="#323232" stroke-miterlimit="10" d="M210,63.3c-192.6,3.5-192.6,290,0,293.4 C402.6,353.2,402.6,66.7,210,63.3z M340.8,237.5c-0.6,2.9-1.4,5.7-2.2,8.6c-43.6-13.6-80.9,37.8-54.4,75.1 c-4.9,3.2-10.1,6.1-15.4,8.8c-33.9-50.6,14.8-117.8,73.3-101.2C341.7,231.7,341.4,234.6,340.8,237.5z M331.4,265.5 c-7.9,17.2-19.3,32.4-33.3,44.7c-15.9-23.3,7.6-55.7,34.6-47.4C332.3,263.7,331.8,264.6,331.4,265.5z M332.5,209.6 C265,202.4,217,279,252.9,336.5c-5.8,1.9-11.7,3.5-17.7,4.7c-40.3-73.8,24.6-163.5,107.2-148c0.6,6,1.2,12.2,1.1,18.2 C339.9,210.6,336.2,210,332.5,209.6z M87.8,263.9c28.7-11.9,56,24,36.3,48.4C108.5,299.2,96.2,282.5,87.8,263.9z M144.3,312.7 c17.8-38.8-23.4-81.6-62.6-65.5c-1.7-5.7-2.9-11.5-3.7-17.4c60-20.6,112.7,49.4,76,101.5c-5.5-2.4-10.7-5.3-15.6-8.5 C140.7,319.6,142.7,316.3,144.3,312.7z M174.2,330.4c32.6-64-28.9-138.2-97.7-118c-0.3-6.1,0.4-12.4,0.9-18.5 c85-18.6,151.7,71.7,110.8,147.8c-6.1-1-12.2-2.4-18.1-4.1C171.6,335.3,173,332.9,174.2,330.4z M337,168.6c-7-0.7-14.4-0.8-21.4-0.2 c-43.1-75.9-167.4-75.9-210.7-0.2c-7.3-0.6-14.9,0-22.1,0.9C118.2,47.7,301.1,47.3,337,168.6z M281.1,175.9c-3,1.1-5.9,2.3-8.7,3.6 c-29.6-36.1-93.1-36.7-123.4-1.2c-5.8-2.5-11.9-4.5-18-6.1c36.6-50.4,122.9-50,159,0.7C286.9,173.8,284,174.8,281.1,175.9z M249.6,193.1c-2.4,1.8-4.7,3.6-7,5.6c-16.4-15.6-46-16.4-63.2-1.5c-4.7-3.8-9.6-7.3-14.7-10.5c23.9-24.1,69.1-23.5,92.2,1.3 C254.4,189.6,252,191.3,249.6,193.1z M211.9,239.2c-5.2-10.8-11.8-20.7-19.7-29.4c10.7-8.1,27.9-7.3,37.9,1.6 C222.8,219.7,216.7,229.1,211.9,239.2z"> <animateTransform attributeName="transform" begin="0s" dur="20s" type="rotate" from="-360 210 210" to="0 210 210" repeatCount="indefinite" /> </path> <g id="Spin_Inverse"> <circle fill="none" stroke="#323232" stroke-width="7" stroke-dasharray="22.2609,22.2609" cx="210" cy="210" r="163"> <animateTransform attributeName="transform" begin="0s" dur="20s" type="rotate" from="360 210 210" to="0 210 210" repeatCount="indefinite" /> </circle> </g> <g id="Spin"> <circle fill="none" stroke="#323232" stroke-width="7" stroke-dasharray="22.2041,22.2041" cx="210" cy="210" r="183.8"> <animateTransform attributeName="transform" begin="0s" dur="20s" type="rotate" from="-360 210 210" to="0 210 210" repeatCount="indefinite" /> </circle> </g> </g></g></g><g id="body"><g id="Yokai"><path id="Neck" display="inline"  fill="#FFDAEA" stroke="#000000" stroke-width="3" stroke-linecap="round" stroke-miterlimit="10" d="M175.8,276.8c0.8,10,1.1,20.2-0.7,30.4c-0.5,2.6-2.2,4.9-4.7,6.3c-16.4,8.9-41.4,17.2-70.2,25.2c-8.1,2.3-9.5,12.4-2.1,16.4c71.9,38.5,146.3,42.5,224.4,7c7.2-3.3,7.3-12.7,0.1-16c-22.3-10.3-43.5-23.1-54.9-29.9c-3-1.8-4.8-5.2-5.1-8.3c-0.7-7.7-0.7-12.5-0.1-22.2c0.7-11.3,2.6-21.2,4.6-29.3"  /><path id="Shadow" display="inline" opacity="0.51"  enable-background="new    " d="M178.1,279c0,0,24.2,35,41,30.6s41.7-21.6,41.7-21.6c1.2-9.1,1.9-17.1,3.7-26c-4.8,4.9-10.4,9.2-18.8,14.5c-11.3,7.1-22,11.3-29.8,13.3L178.1,279z"  /><path id="Head" display="inline"  fill="#FFDAEA" stroke="#000000" stroke-width="3" stroke-linecap="round" stroke-miterlimit="10" d="M313.9,168.8c-0.6-0.8-12.2,8.3-12.2,8.3c0.3-4.9,11.8-53.1-17.3-86c-15.9-17.4-42.2-27.1-69.9-27.7c-24.5-0.5-48.7,10.9-61.6,24.4c-33.5,35-20.1,98.2-20.1,98.2c0.6,10.9,9.1,63.4,21.3,74.6c0,0,33.7,25.7,42.4,30.6c8.8,5,17.1,2.3,17.1,2.3c16-5.9,47.7-25.9,56.8-37.6l0.2-0.2c6.9-9.1,3.9-5.8,11.2-14.8c1.3-1.5,3-2.2,4.8-1.8c4.1,0.8,11.7,1.3,13.3-7c2.4-11.5,2.6-25.1,8.6-35.5C311.7,190.8,315.9,184.6,313.9,168.8z"  /><path id="Ear" display="inline"  fill="#FFDAEA" stroke="#000000" stroke-width="3" stroke-linecap="round" stroke-miterlimit="10" d="M141.9,236c0.1,1.1-8.3,3-9.7-12.1s-7.3-31-12.6-48c-3.8-12.2,12.2,6.7,12.2,6.7"  /><g id="Ear2" display="inline" ><path d="M304,174.7c-0.5,1.3-0.3,2.2-1.2,3.1c-0.9,0.8-2.3,2.1-3.2,2.9c-1.8,1.7-4.4,3-6,5s-2.9,4.1-4.2,6.3c-0.6,1-1.3,2.2-1.9,3.3l-1.7,3.4l-0.2-0.1l1.4-3.6c0.5-1.1,0.9-2.4,1.5-3.5c1.1-2.3,2.3-4.6,3.8-6.8s3-4.4,5.1-5.9c1-0.8,2.2-1.5,3.2-2.1c1.1-0.6,2.2-1.1,3.1-2L304,174.7z" /></g><g id="Body" display="inline" ><g><path d="M222.2,339.7c18.6-1.3,37.3-2,55.9-2C259.5,339,240.9,339.8,222.2,339.7z" /></g><g><path d="M142.3,337.2c16.9,0.1,33.7,1,50.6,2.3C176,339.2,159.3,338.5,142.3,337.2z" /></g><g><path d="M199.3,329.2c7.3,14.3,4.6,10.4,17.1,0.1C207.5,339,204.7,346.2,199.3,329.2z" /></g><path opacity="0.19"  enable-background="new    " d="M199.3,329.2c0,0,3.5,9.3,5.3,10.1c1.8,0.8,11.6-10,11.6-10C209.9,330.9,204,331.1,199.3,329.2z" /></g> <line x1="132.69" y1="184.23" x2="130.73" y2="182.28" fill="#e31466" stroke="#000" stroke-linecap="round" stroke-miterlimit="10" stroke-width="2"/></g></g><g id="mark"><g id="Dark Circle"><g display="inline" ><path d="M163,210.9c4.8,0.2,9.5-1.4,13.9-3.3C173,210.4,167.7,211.7,163,210.9z" /><path d="M159,210.1c-2.4-0.4-4.7-1.7-6.7-3.1C154.5,207.9,156.8,209,159,210.1z" /></g><g display="inline" ><path d="M236.6,210.4c5.3,0.1,10.5-1.5,15.3-3.5C247.8,209.8,241.9,211.1,236.6,210.4z" /><path d="M232.1,209.6c-2.7-0.4-5.2-1.6-7.3-3C227.3,207.5,229.8,208.6,232.1,209.6z" /></g></g></g><g id="mouth"><g id="UwU Kitsune"><polyline display="inline" fill="#FFFFFF" stroke="#000000" stroke-width="0.75" stroke-miterlimit="10" points="217.9,254.7 221.2,259.6 224.3,251.9 "  /><g display="inline" ><path d="M178,246.5c1.4,2,3,3.8,4.8,5.3c0.5,0.4,0.9,0.8,1.4,1.1l0.8,0.5c0.3,0.2,0.5,0.3,0.8,0.4c1.1,0.5,2.3,0.7,3.5,0.8c2.4,0.1,4.8-0.4,7.1-0.9l3.5-1.1c1.1-0.5,2.3-0.9,3.4-1.3c0,0,0.1,0,0.1,0c0,0,0,0,0,0.1c-1,0.7-2.1,1.3-3.2,1.9c-1.1,0.5-2.3,1-3.5,1.4c-0.6,0.1-1.2,0.3-1.8,0.4l-0.9,0.2l-0.9,0.1c-0.6,0-1.3,0.1-1.9,0.1c-0.6-0.1-1.3-0.2-1.9-0.2c-0.6-0.1-1.2-0.3-1.8-0.4c-0.6-0.1-1.2-0.4-1.8-0.6c-0.6-0.2-1.2-0.4-1.7-0.7c-0.6-0.2-1.1-0.6-1.7-0.9C180.3,251.1,178.7,249,178,246.5C177.9,246.6,177.9,246.5,178,246.5C178,246.5,178,246.5,178,246.5L178,246.5z" /></g><g display="inline" ><path d="M231.1,245.2c-1.2,2.4-3.1,4.5-5.2,6.1c-1.1,0.8-2.3,1.4-3.6,1.9c-1.2,0.6-2.5,1.1-3.7,1.5c-2.6,0.8-5.4,0.9-8.1,0.2c-2.6-0.7-5.1-1.9-7.2-3.6c0,0,0,0,0-0.1c0,0,0,0,0.1,0c2.4,1.1,4.9,2.1,7.4,2.7c2.5,0.6,5.1,0.7,7.7,0.3c1.3-0.2,2.6-0.6,3.7-1.2c1.2-0.6,2.2-1.4,3.2-2.3C227.4,248.9,229.3,247.1,231.1,245.2C231.1,245.1,231.1,245.1,231.1,245.2C231.1,245.1,231.1,245.2,231.1,245.2z" /></g></g></g><g id="nose"><g id="Kitsune Moon"><path display="inline" stroke="#000000" stroke-miterlimit="10" d="M193.2,224.9c5.1,0.6,10.3,1,16.4,0c0.4-0.1,0.7,0.5,0.3,0.8l-7.4,5.9c-0.5,0.4-1.3,0.4-1.8,0l-7.9-6C192.5,225.4,192.7,224.8,193.2,224.9z"  /></g></g><g id="eyes"><g id="Shine"><g id="No_Fill"> <g> <path stroke="#000000" stroke-miterlimit="10" d="M219.1,197.3c0,0,3.1-22.5,37.9-15.5C257.1,181.7,261,208.8,219.1,197.3z"/> <g> <path d="M227.3,182.1c-1,0.5-1.9,1.3-2.7,2s-1.6,1.6-2.3,2.3c-0.7,0.8-1.5,1.7-2.1,2.5l-1,1.4c-0.3,0.4-0.6,0.9-1,1.4 c0.2-0.5,0.4-1,0.6-1.6c0.2-0.5,0.5-1,0.8-1.6c0.6-0.9,1.3-2,2.1-2.8s1.7-1.7,2.6-2.3C225,182.7,226.1,182.2,227.3,182.1z"/> </g> <g> <path d="M245.4,200.9c1.3-0.2,2.5-0.5,3.6-1s2.2-1,3.2-1.8c1-0.7,1.9-1.6,2.7-2.5s1.6-2,2.3-3c-0.3,1.3-0.8,2.5-1.7,3.5 c-0.7,1-1.7,2.1-2.8,2.8c-1,0.7-2.3,1.4-3.5,1.7C248,201,246.7,201.2,245.4,200.9z"/> </g> </g> <g> <path stroke="#000000" stroke-miterlimit="10" d="M183.9,197.3c0,0-3.1-22.5-37.9-15.5C146,181.7,142,208.8,183.9,197.3z"/> <g> <path d="M175.8,182.1c1,0.5,1.9,1.3,2.7,2s1.6,1.6,2.3,2.3c0.7,0.8,1.5,1.7,2.1,2.5l1,1.4c0.3,0.4,0.6,0.9,1,1.4 c-0.2-0.5-0.4-1-0.6-1.6c-0.2-0.5-0.5-1-0.8-1.6c-0.6-0.9-1.3-2-2.1-2.8s-1.7-1.7-2.6-2.3 C178.1,182.7,176.9,182.2,175.8,182.1z"/> </g> <g> <path d="M157.6,200.9c-1.3-0.2-2.5-0.5-3.6-1s-2.2-1-3.2-1.8c-1-0.7-1.9-1.6-2.7-2.5s-1.6-2-2.3-3c0.3,1.3,0.8,2.5,1.7,3.5 c0.7,1,1.7,2.1,2.8,2.8c1,0.7,2.3,1.4,3.5,1.7C155,201,156.5,201.2,157.6,200.9z"/> </g> </g> </g> <g id="Shadow" opacity="0.43"> <path opacity="0.5" enable-background="new " d="M218.3,191.6c0,0,4.6-10.8,19.9-13.6c0,0-12.2,0-16.1,2.8 C218.9,183.8,218.3,191.6,218.3,191.6z"/> </g> <g id="Shadow_00000029025467326919416900000002242143269665406345_" opacity="0.43"> <path opacity="0.5" enable-background="new " d="M184.9,191.3c0,0-4.8-10.6-20.1-13.4c0,0,12.4-0.2,16.3,2.6 C184.4,183.6,184.9,191.3,184.9,191.3z"/> </g><path display="inline" fill="#FFFFFF" stroke="#000000" stroke-width="0.5" stroke-miterlimit="10" d="M164.1,182.5c1.4,7,1.4,6.9,8.3,8.3c-7,1.4-6.9,1.4-8.3,8.3c-1.4-7-1.4-6.9-8.3-8.3C162.8,189.4,162.7,189.5,164.1,182.5z"  /><path display="inline" fill="#FFFFFF" stroke="#000000" stroke-width="0.5" stroke-miterlimit="10" d="M238.7,182.3c1.4,7,1.4,6.9,8.3,8.3c-7,1.4-6.9,1.4-8.3,8.3c-1.4-7-1.4-6.9-8.3-8.3C237.4,189.2,237.3,189.2,238.7,182.3z"  /></g></g><g id="eyebrow"><g id="Electric Pure"><path display="inline"  fill="#FFEDED" d="M216,176.7c14.2-2.2,47-5.6,50.4-6.6l-14.8-0.7l17.4-9.1c-17.8,7.7-37.5,12.9-56.3,13.3C213.1,174.8,214.6,176.1,216,176.7z"  /><path display="inline"  fill="#FFEDED" d="M186.7,176.7c-12.8-2.1-44.8-5.3-48-6.3l13.5-0.9l-15.4-8.8c15.9,7.4,33.7,11.9,49,13.2C186.1,175.2,186.5,175.5,186.7,176.7z"  /></g></g><g id="earrings"><g id="Tomoe Drop Moon"><g display="inline" ><ellipse cx="291.2" cy="231.8" rx="3.5" ry="3.5" /><line fill="none" stroke="#000000" stroke-miterlimit="10" x1="291.2" y1="231.8" x2="291.2" y2="259.8" /><path  d="M292.2,258.2c-2.5-1.2-5.5,0-6.7,2.5c-1.1,2.5,0,5.5,2.5,6.7c0.1,0.1,0.2,0.1,0.4,0.1c-0.9,3.2-4.1,5.5-4.1,5.5c6.6-1.9,9.1-5.6,10-7.4c0.1-0.2,0.3-0.4,0.4-0.7C295.8,262.4,294.7,259.4,292.2,258.2z M288.5,262.1c0.4-0.8,1.4-1.3,2.2-0.8c0.8,0.4,1.3,1.4,0.8,2.2c-0.4,0.8-1.4,1.3-2.2,0.8C288.5,264,288.1,262.9,288.5,262.1z" /></g><g display="inline" ><ellipse cx="139" cy="231.7" rx="2.6" ry="2.8" /><line fill="none" stroke="#000000" stroke-miterlimit="10" x1="138.5" y1="231.8" x2="138.5" y2="259.8" /><path  d="M140.2,258.9c-2.5-1.1-5.5,0-6.7,2.5c-1.1,2.5,0,5.5,2.5,6.7c0.1,0.1,0.2,0.1,0.4,0.1c-0.9,3.2-4.1,5.5-4.1,5.5c6.8-2,9.3-5.9,10.1-7.6c0.1-0.2,0.2-0.3,0.3-0.5C143.8,263.1,142.7,260.1,140.2,258.9z M136.5,262.8c0.4-0.8,1.4-1.3,2.2-0.8s1.3,1.4,0.8,2.2c-0.4,0.8-1.4,1.3-2.2,0.8C136.5,264.7,136,263.7,136.5,262.8z" /></g></g></g><g id="hair"><g id="Tattoo Moon"><path d="M193.2,67.36c-6.5,21.1,3,50.54,6.48,64.14,0,0,5.91-44.63,33.11-64.86C222,63.84,201.2,64.36,193.2,67.36Z" fill="#000000" transform="translate(-0.1)"/></g></g><g id="accessory"><g id="None"></g></g><g id="mask"><g id="Blindfold Tomoe Blood"><path display="inline" opacity="0.22"  enable-background="new " d="M135.7,204.6 c0,0,45,25.9,146.6,0.3C287.1,206.1,189.1,221.5,135.7,204.6z"/> <g display="inline"> <path fill="#D4004D" stroke="#000000" stroke-miterlimit="10" d="M202.4,212.5c-26.8,0-49.2-2.8-66.6-8.4 c-5.3-14.6-5.5-31.4-5.5-36.5c19,5.4,44.2,6.6,74.8,6.6c46.3,0,91.3-7.8,99.7-9.1c-0.3,2.1-1.4,9-1.5,10.4 c-1.1,1.3-4.4,4.5-5.5,5.3c-3.1,2.1-2.1,2.4-5.4,7.1c0,0-2.7,5.1-3.2,6.4c-4.8,12.1-6.1,9.6-18.8,13.3 C246.2,210.8,223.3,212.5,202.4,212.5z"/> </g> <g display="inline"> <path fill="none" stroke="#000000" stroke-miterlimit="10" d="M283.6,203.5c0,0,17-24.4,14.9-37.3"/> <g opacity="0.91"> <path d="M133.9,168.6c4,4.6,8,9.1,12.2,13.4c1,1.1,2.1,2.2,3.1,3.2l1.6,1.7l1.7,1.6c2.2,2.1,4.6,4,6.9,5.8 c4.8,3.8,9.8,7.1,14.9,10.2c5.2,3,10.6,5.6,16.4,7.7l0,0l0,0c-5.8-1.7-11.5-4.1-16.7-7.1c-5.2-3.1-10.1-6.7-14.8-10.5 c-2.3-2-4.6-4-6.8-6c-1.1-1-2.3-2-3.3-3c-1.1-1-2.2-2.1-3.3-3.1c-2.2-2.1-4.2-4.4-6.1-6.7C137.5,173.5,135.6,171.1,133.9,168.6 L133.9,168.6L133.9,168.6z"/> </g> <g opacity="0.91"> <path d="M201.4,212.6c3.6-0.5,7.2-1.8,10.6-3.1c3.4-1.4,6.9-2.8,10.2-4.3c3.4-1.5,6.8-3,10.1-4.7s6.6-3.5,9.7-5.4 c6.4-3.8,12.6-7.7,18.8-11.9c3-2.1,6-4.3,9-6.6c2.9-2.3,5.7-4.7,8.1-7.5c0,0,0,0,0.1,0c0,0,0,0,0,0.1c-2.2,3-5,5.5-7.8,7.9 s-5.8,4.6-8.9,6.8c-6.1,4.3-12.5,8-19.1,11.6l-9.8,5.2c-3.3,1.7-6.6,3.4-9.9,5.1c-3.3,1.6-6.8,3-10.3,4.3 C208.7,211.2,205,212.4,201.4,212.6L201.4,212.6L201.4,212.6z"/> </g> <path opacity="0.14"  enable-background="new " d="M278.4,169.7 c0,0-25.9,38-71.8,42.3C206.6,211.9,252.6,193.4,278.4,169.7z"/> <path opacity="0.14"  enable-background="new " d="M297.3,166.3c0,0,5,10-14.5,37.2 C282.8,203.5,293.4,184.2,297.3,166.3z"/> <path opacity="0.14"  enable-background="new " d="M133.6,169 c0,0,12.5,34.7,54.9,42.9C188.6,212.1,155.2,197,133.6,169z"/> <polygon opacity="0.18"  enable-background="new " points="298.4,166.6 295.8,181.6 303.6,175.7 304.9,165.1 "/> <path opacity="0.2"  stroke="#000000" stroke-miterlimit="10" enable-background="new " d=" M131.2,168.4c0,0,55.6,17.3,172.7-3.2C308.7,166.4,183.7,189.6,131.2,168.4z"/> </g> <g display="inline"> <g> <path  fill="#FFEDED" d="M202.3,199.8c0,0-0.6,5.1-8.1,8.1c0,0,2.5-2.3,2.9-5.2"/> <path  fill="#FFEDED" d="M202.3,200.1c0.8-2.3-0.4-4.7-2.7-5.4 c-2.3-0.8-4.7,0.4-5.4,2.7c-0.8,2.3,0.4,4.7,2.7,5.4C199,203.5,201.4,202.4,202.3,200.1z M196.7,198.2c0.3-0.8,1-1.1,1.8-0.9 c0.8,0.3,1.1,1,0.9,1.8c-0.3,0.8-1,1.1-1.8,0.9C196.9,199.9,196.5,199,196.7,198.2z"/> </g><g> <path  fill="#FFEDED" d="M205.4,183.2c0,0,4.8-1.9,11,3.2c0,0-3.2-1.1-5.9-0.1"/> <path  fill="#FFEDED" d="M205.5,183.1c-2.4,0.4-4,2.7-3.4,5c0.4,2.4,2.7,4,5,3.4 c2.4-0.4,4-2.7,3.4-5C210.2,184.2,207.9,182.7,205.5,183.1z M206.6,188.8c-0.8,0.1-1.5-0.4-1.7-1.1c-0.1-0.8,0.4-1.5,1.1-1.7 c0.8-0.1,1.5,0.4,1.7,1.1S207.3,188.6,206.6,188.8z"/> </g> <g> <path  fill="#FFEDED" d="M187.5,190.7c0,0-4.4-2.6-4.3-10.7c0,0,1,3.2,3.5,4.7"/> <path  fill="#FFEDED" d="M187.3,190.6c1.8,1.7,4.5,1.5,6-0.3c1.7-1.8,1.5-4.5-0.3-6 c-1.8-1.7-4.5-1.5-6,0.3C185.4,186.3,185.4,188.9,187.3,190.6z M191.2,186.2c0.6,0.6,0.6,1.4,0.1,2c-0.6,0.6-1.4,0.6-2,0.1 c-0.6-0.6-0.6-1.4-0.1-2C189.6,185.8,190.4,185.8,191.2,186.2z"/> </g> </g></g></g></svg>