<svg version="1.1" xmlns="http://www.w3.org/2000/svg" x="0px" y="0px" xmlns:xlink="http://www.w3.org/1999/xlink" viewBox="0 0 420 420" style="enable-background:new 0 0 420 420;" xml:space="preserve"><g id="background"><g id="Ordinary"><radialGradient id="radial-gradient" cx="210" cy="212" r="210" gradientTransform="matrix(1, 0, 0, -1, 0, 422)" gradientUnits="userSpaceOnUse"> <stop offset="0" stop-color="#726680"/> <stop offset="1" stop-color="#4a4a4a"/> </radialGradient><path d="M389.9,419.5H30.1a30,30,0,0,1-30-30V29.5a30,30,0,0,1,30-30H390a30,30,0,0,1,30,30v360A30.11,30.11,0,0,1,389.9,419.5Z" transform="translate(0 0.5)" fill="url(#radial-gradient)"/> <g> <path id="Main_Spin" fill="#323232" stroke="#323232" stroke-miterlimit="10" d="M210,63.3c-192.6,3.5-192.6,290,0,293.4 C402.6,353.2,402.6,66.7,210,63.3z M340.8,237.5c-0.6,2.9-1.4,5.7-2.2,8.6c-43.6-13.6-80.9,37.8-54.4,75.1 c-4.9,3.2-10.1,6.1-15.4,8.8c-33.9-50.6,14.8-117.8,73.3-101.2C341.7,231.7,341.4,234.6,340.8,237.5z M331.4,265.5 c-7.9,17.2-19.3,32.4-33.3,44.7c-15.9-23.3,7.6-55.7,34.6-47.4C332.3,263.7,331.8,264.6,331.4,265.5z M332.5,209.6 C265,202.4,217,279,252.9,336.5c-5.8,1.9-11.7,3.5-17.7,4.7c-40.3-73.8,24.6-163.5,107.2-148c0.6,6,1.2,12.2,1.1,18.2 C339.9,210.6,336.2,210,332.5,209.6z M87.8,263.9c28.7-11.9,56,24,36.3,48.4C108.5,299.2,96.2,282.5,87.8,263.9z M144.3,312.7 c17.8-38.8-23.4-81.6-62.6-65.5c-1.7-5.7-2.9-11.5-3.7-17.4c60-20.6,112.7,49.4,76,101.5c-5.5-2.4-10.7-5.3-15.6-8.5 C140.7,319.6,142.7,316.3,144.3,312.7z M174.2,330.4c32.6-64-28.9-138.2-97.7-118c-0.3-6.1,0.4-12.4,0.9-18.5 c85-18.6,151.7,71.7,110.8,147.8c-6.1-1-12.2-2.4-18.1-4.1C171.6,335.3,173,332.9,174.2,330.4z M337,168.6c-7-0.7-14.4-0.8-21.4-0.2 c-43.1-75.9-167.4-75.9-210.7-0.2c-7.3-0.6-14.9,0-22.1,0.9C118.2,47.7,301.1,47.3,337,168.6z M281.1,175.9c-3,1.1-5.9,2.3-8.7,3.6 c-29.6-36.1-93.1-36.7-123.4-1.2c-5.8-2.5-11.9-4.5-18-6.1c36.6-50.4,122.9-50,159,0.7C286.9,173.8,284,174.8,281.1,175.9z M249.6,193.1c-2.4,1.8-4.7,3.6-7,5.6c-16.4-15.6-46-16.4-63.2-1.5c-4.7-3.8-9.6-7.3-14.7-10.5c23.9-24.1,69.1-23.5,92.2,1.3 C254.4,189.6,252,191.3,249.6,193.1z M211.9,239.2c-5.2-10.8-11.8-20.7-19.7-29.4c10.7-8.1,27.9-7.3,37.9,1.6 C222.8,219.7,216.7,229.1,211.9,239.2z"> <animateTransform attributeName="transform" begin="0s" dur="20s" type="rotate" from="-360 210 210" to="0 210 210" repeatCount="indefinite" /> </path> <g id="Spin_Inverse"> <circle fill="none" stroke="#323232" stroke-width="7" stroke-dasharray="22.2609,22.2609" cx="210" cy="210" r="163"> <animateTransform attributeName="transform" begin="0s" dur="20s" type="rotate" from="360 210 210" to="0 210 210" repeatCount="indefinite" /> </circle> </g> <g id="Spin"> <circle fill="none" stroke="#323232" stroke-width="7" stroke-dasharray="22.2041,22.2041" cx="210" cy="210" r="183.8"> <animateTransform attributeName="transform" begin="0s" dur="20s" type="rotate" from="-360 210 210" to="0 210 210" repeatCount="indefinite" /> </circle> </g> </g></g></g><g id="body"><g id="Yokai Moon"><path id="Neck" display="inline"  fill="#2A2C38" stroke="#000000" stroke-width="3" stroke-linecap="round" stroke-miterlimit="10" d="M175.8,276.8c0.8,10,1.1,20.2-0.7,30.4c-0.5,2.6-2.2,4.9-4.7,6.3c-16.4,8.9-41.4,17.2-70.2,25.2c-8.1,2.3-9.5,12.4-2.1,16.4c71.9,38.5,146.3,42.5,224.4,7c7.2-3.3,7.3-12.7,0.1-16c-22.3-10.3-43.5-23.1-54.9-29.9c-3-1.8-4.8-5.2-5.1-8.3c-0.7-7.7-0.7-12.5-0.1-22.2c0.7-11.3,2.6-21.2,4.6-29.3"  /><path id="Shadow" display="inline" opacity="0.51"  enable-background="new    " d="M178.1,279c0,0,24.2,35,41,30.6s41.7-21.6,41.7-21.6c1.2-9.1,1.9-17.1,3.7-26c-4.8,4.9-10.4,9.2-18.8,14.5c-11.3,7.1-22,11.3-29.8,13.3L178.1,279z"  /><path id="Head" display="inline"  fill="#2A2C38" stroke="#000000" stroke-width="3" stroke-linecap="round" stroke-miterlimit="10" d="M313.9,168.8c-0.6-0.8-12.2,8.3-12.2,8.3c0.3-4.9,11.8-53.1-17.3-86c-15.9-17.4-42.2-27.1-69.9-27.7c-24.5-0.5-48.7,10.9-61.6,24.4c-33.5,35-20.1,98.2-20.1,98.2c0.6,10.9,9.1,63.4,21.3,74.6c0,0,33.7,25.7,42.4,30.6c8.8,5,17.1,2.3,17.1,2.3c16-5.9,47.7-25.9,56.8-37.6l0.2-0.2c6.9-9.1,3.9-5.8,11.2-14.8c1.3-1.5,3-2.2,4.8-1.8c4.1,0.8,11.7,1.3,13.3-7c2.4-11.5,2.6-25.1,8.6-35.5C311.7,190.8,315.9,184.6,313.9,168.8z"  /><path id="Ear" display="inline"  fill="#2A2C38" stroke="#000000" stroke-width="3" stroke-linecap="round" stroke-miterlimit="10" d="M141.9,236c0.1,1.1-8.3,3-9.7-12.1s-7.3-31-12.6-48c-3.8-12.2,12.2,6.7,12.2,6.7"  /><g id="Ear2" display="inline" ><path d="M304,174.7c-0.5,1.3-0.3,2.2-1.2,3.1c-0.9,0.8-2.3,2.1-3.2,2.9c-1.8,1.7-4.4,3-6,5s-2.9,4.1-4.2,6.3c-0.6,1-1.3,2.2-1.9,3.3l-1.7,3.4l-0.2-0.1l1.4-3.6c0.5-1.1,0.9-2.4,1.5-3.5c1.1-2.3,2.3-4.6,3.8-6.8s3-4.4,5.1-5.9c1-0.8,2.2-1.5,3.2-2.1c1.1-0.6,2.2-1.1,3.1-2L304,174.7z" /></g><g id="Body" display="inline" ><g><path d="M222.2,339.7c18.6-1.3,37.3-2,55.9-2C259.5,339,240.9,339.8,222.2,339.7z" /></g><g><path d="M142.3,337.2c16.9,0.1,33.7,1,50.6,2.3C176,339.2,159.3,338.5,142.3,337.2z" /></g><g><path d="M199.3,329.2c7.3,14.3,4.6,10.4,17.1,0.1C207.5,339,204.7,346.2,199.3,329.2z" /></g><path opacity="0.19"  enable-background="new    " d="M199.3,329.2c0,0,3.5,9.3,5.3,10.1c1.8,0.8,11.6-10,11.6-10C209.9,330.9,204,331.1,199.3,329.2z" /></g> <line x1="132.69" y1="184.23" x2="130.73" y2="182.28" fill="#e31466" stroke="#000" stroke-linecap="round" stroke-miterlimit="10" stroke-width="2"/></g></g><g id="mark"><g id="Brother"><g display="inline" ><path  d="M220.1,206.2c0,0,15.2,24.7,32.7,39.1" /><path d="M220.1,206.2c1.3,1.8,2.4,3.5,3.8,5.2c1.3,1.8,2.5,3.4,3.8,5.1c2.6,3.4,5.1,6.7,7.8,10c2.6,3.3,5.5,6.4,8.3,9.6c1.5,1.6,2.9,3.1,4.5,4.6c1.5,1.6,3.1,2.9,4.6,4.5c-3.4-2.6-6.6-5.4-9.6-8.3c-3-3-5.8-6.2-8.5-9.5s-5.3-6.7-7.7-10.1C224.6,213.4,222.2,209.9,220.1,206.2z" /></g><g display="inline" ><path  d="M182.1,207c0,0-9.1,20.2-23.7,37.8" /><path d="M182.1,207c-1.4,3.4-3,6.9-4.7,10.1c-1.7,3.3-3.5,6.6-5.5,9.7c-2,3.1-4.1,6.3-6.3,9.3s-4.6,5.8-7.1,8.6c1-1.6,2.2-3,3.2-4.5l1.7-2.3l1.6-2.3c2.1-3.1,4.2-6.1,6-9.4c2-3.1,3.9-6.4,5.7-9.6c0.9-1.6,1.9-3.2,2.7-4.9C180.5,210.2,181.2,208.6,182.1,207z" /></g></g></g><g id="mouth"><g id="Angry"><g display="inline" ><path fill="#FFFFFF" d="M211.5,246.9c-7.9,1.5-19.6,0.3-23.8-0.9c-4.5-1.3-8.6,3.2-9.7,7.5c-0.5,2.6-1.4,7.7,3.9,10.5c6.7,2.5,6.4,0.1,10.4-2c3.9-2.1,11.3-1.1,17.3,2c6.1,3.1,15.1,2.3,20.2-0.4c3.2-1.8,3.8-7.9-4.8-14.7C222.5,247,220.4,245.2,211.5,246.9" /><path d="M211.5,247c-4.1,1-8.3,1.2-12.4,1.2c-2.1,0-4.2-0.2-6.3-0.4c-1-0.1-2.1-0.3-3.1-0.4c-0.5-0.1-1-0.2-1.6-0.3c-0.3-0.1-0.6-0.1-0.8-0.2c-0.2,0-0.4-0.1-0.6-0.1c-1.7-0.2-3.5,0.6-4.9,1.9c-1.4,1.3-2.5,3-3.1,4.8c-0.5,1.9-0.8,4-0.3,5.8c0.2,0.9,0.7,1.8,1.3,2.6c0.6,0.7,1.4,1.4,2.3,1.9l0,0c1.6,0.6,3.2,1.2,4.9,1c1.6-0.1,2.8-1.6,4.3-2.5c1.4-1,3.2-1.6,5-1.8c1.8-0.2,3.5-0.1,5.3,0.1c1.7,0.2,3.5,0.7,5.1,1.2c0.8,0.3,1.7,0.6,2.5,1s1.6,0.7,2.3,1c3,1.1,6.4,1.4,9.7,1.1c1.6-0.2,3.3-0.4,4.9-0.9c0.8-0.2,1.6-0.5,2.3-0.8c0.4-0.1,0.7-0.3,1.1-0.5l0.4-0.3c0.1-0.1,0.2-0.2,0.4-0.3c0.9-0.9,1.1-2.4,0.8-3.9s-1.1-2.9-2-4.3c-0.9-1.3-2.1-2.5-3.3-3.7c-0.6-0.6-1.3-1.1-1.9-1.6c-0.7-0.5-1.3-0.9-2.1-1.2c-1.5-0.6-3.2-0.8-4.9-0.8C214.9,246.6,213.2,246.8,211.5,247c-0.1,0-0.1,0-0.1-0.1s0-0.1,0.1-0.1c1.7-0.4,3.4-0.8,5.1-0.9c1.7-0.2,3.5-0.1,5.3,0.5c0.9,0.3,1.7,0.7,2.4,1.2s1.4,1,2.1,1.6c1.4,1.1,2.7,2.3,3.8,3.7s2.1,3,2.5,4.9c0.5,1.8,0.3,4.1-1.2,5.8c-0.2,0.2-0.4,0.4-0.6,0.6c-0.2,0.2-0.5,0.3-0.7,0.5c-0.4,0.2-0.8,0.4-1.2,0.6c-0.8,0.4-1.7,0.7-2.6,0.9c-1.7,0.5-3.5,0.8-5.3,0.9c-3.5,0.2-7.2-0.1-10.5-1.5c-0.8-0.4-1.7-0.8-2.4-1.1c-0.7-0.4-1.5-0.7-2.3-1c-1.6-0.6-3.2-1.1-4.8-1.4s-3.3-0.5-5-0.4s-3.2,0.5-4.7,1.4c-0.7,0.4-1.4,0.9-2.1,1.4c-0.7,0.5-1.6,1-2.5,1c-0.9,0.1-1.8-0.1-2.7-0.3c-0.9-0.2-1.7-0.5-2.5-0.8l0,0l0,0c-0.9-0.5-1.8-1.1-2.6-1.9c-0.7-0.8-1.3-1.8-1.7-2.8c-0.7-2.1-0.5-4.3-0.1-6.5c0.5-2.2,1.6-4.1,3.2-5.7c0.8-0.8,1.7-1.5,2.8-1.9c1.1-0.5,2.3-0.7,3.5-0.5c0.3,0,0.6,0.1,0.9,0.2c0.3,0.1,0.5,0.1,0.7,0.2c0.5,0.1,1,0.2,1.5,0.3c1,0.2,2,0.4,3,0.5c2,0.3,4.1,0.5,6.1,0.7c4.1,0.3,8.2,0.4,12.3,0c0.1,0,0.1,0,0.1,0.1C211.6,246.9,211.6,247,211.5,247z" /></g><g display="inline" ><path fill="#FFFFFF" d="M209.7,255.6l4.6-2.3c0,0,4.2,3,5.6,3.1s5.5-3.3,5.5-3.3l4.4,1.5" /><path d="M209.7,255.5c0.6-0.7,1.3-1.2,2-1.7s1.5-0.9,2.2-1.3l0.5-0.2l0.4,0.3c0.8,0.7,1.5,1.6,2.4,2.2c0.4,0.3,0.9,0.6,1.4,0.8s1.1,0.3,1.4,0.3c0.2-0.1,0.7-0.4,1.1-0.7c0.4-0.3,0.8-0.6,1.2-0.9c0.8-0.6,1.6-1.3,2.5-1.9l0.5-0.4l0.4,0.2c0.7,0.3,1.4,0.7,2.1,1c0.7,0.4,1.4,0.8,2,1.3c0,0,0.1,0.1,0,0.1h-0.1c-0.8,0-1.6-0.1-2.4-0.2c-0.8-0.1-1.5-0.3-2.3-0.5l1-0.2c-0.8,0.8-1.7,1.4-2.7,2c-0.5,0.3-1,0.6-1.5,0.8c-0.6,0.2-1.1,0.4-1.9,0.4c-0.8-0.2-1.1-0.6-1.6-0.8c-0.5-0.3-0.9-0.6-1.4-0.8c-1-0.5-2.1-0.7-3-1.3l0.9,0.1c-0.7,0.4-1.5,0.7-2.4,1c-0.8,0.3-1.7,0.5-2.6,0.6C209.7,255.7,209.6,255.6,209.7,255.5C209.6,255.6,209.6,255.5,209.7,255.5z" /></g><g display="inline" ><polyline fill="#FFFFFF" points="177.9,255.4 180.5,253.4 184.2,255.6 187.1,255.5 " /><path d="M177.8,255.3c0.1-0.4,0.2-0.6,0.3-0.9c0.2-0.3,0.3-0.5,0.5-0.7s0.4-0.4,0.6-0.5c0.2-0.1,0.6-0.2,0.8-0.2l0.6-0.1l0.1,0.1c0.2,0.3,0.5,0.6,0.8,0.8s0.7,0.2,1.1,0.3c0.4,0,0.7,0.1,1.1,0.3c0.3,0.1,0.7,0.3,1,0.4l-0.6-0.2c0.5,0,1,0.1,1.5,0.2c0.2,0.1,0.5,0.2,0.7,0.3s0.5,0.2,0.7,0.4c0.1,0,0.1,0.1,0,0.2l0,0c-0.2,0.2-0.5,0.3-0.7,0.5c-0.2,0.1-0.5,0.2-0.7,0.3c-0.5,0.2-1,0.3-1.4,0.3h-0.3l-0.3-0.2c-0.3-0.2-0.6-0.4-0.9-0.7c-0.3-0.2-0.5-0.5-0.8-0.8c-0.2-0.3-0.5-0.6-0.8-0.8s-0.6-0.3-1-0.3h0.6c-0.1,0.3-0.3,0.6-0.5,0.8s-0.4,0.3-0.7,0.5c-0.2,0.1-0.5,0.2-0.8,0.3s-0.6,0.1-1,0.1C177.9,255.5,177.8,255.4,177.8,255.3L177.8,255.3z" /></g></g></g><g id="nose"><g id="Kitsune Blood"><path display="inline" fill="#B50D5E" stroke="#B50D5E" stroke-miterlimit="10" d="M193.2,224.9c5.1,0.6,10.3,1,16.4,0c0.4-0.1,0.7,0.5,0.3,0.8l-7.4,5.9c-0.5,0.4-1.3,0.4-1.8,0l-7.9-6C192.5,225.4,192.7,224.8,193.2,224.9z"  /></g></g><g id="eyes"><g id="Arrow"><g display="inline" ><path d="M254.5,182.3c-2.6,1.1-5.2,1.9-7.9,2.7c-2.6,0.8-5.3,1.6-8,2.1c-2.7,0.6-5.5,1-8.2,1.6s-5.3,1.4-8,2.3v-1.1c2.8,0.3,5.6,0.6,8.3,1.2c2.7,0.5,5.5,1.1,8.2,2c2.7,0.8,5.3,1.8,7.9,2.9c2.6,1.1,5.1,2.4,7.4,3.9l-0.1,0.2c-2.7-0.9-5.3-1.8-7.9-2.6c-2.6-0.8-5.3-1.6-7.9-2.4c-2.6-0.8-5.3-1.5-8-2.2l-8.1-1.9h-0.1c-0.3-0.1-0.5-0.4-0.4-0.6c0.1-0.2,0.2-0.4,0.4-0.4c2.7-0.5,5.4-1.1,8.1-1.9c2.7-0.8,5.3-1.7,7.9-2.6c2.6-0.8,5.3-1.4,8-2s5.4-1.1,8.2-1.4L254.5,182.3z" /></g><g display="inline" ><path d="M149.3,182.1c2.8,0.3,5.5,0.8,8.2,1.4c2.7,0.6,5.4,1.2,8,2l3.9,1.3c1.3,0.4,2.6,0.9,4,1.2c2.7,0.8,5.4,1.3,8.1,1.8c0.3,0.1,0.5,0.4,0.5,0.7c0,0.2-0.2,0.4-0.4,0.4h-0.1l-7.8,2c-2.6,0.7-5.1,1.5-7.7,2.2c-2.6,0.7-5.1,1.5-7.6,2.3c-2.6,0.8-5.1,1.7-7.6,2.5l-0.1-0.2c2.3-1.4,4.7-2.7,7.2-3.8s5-2.1,7.6-2.9c2.6-0.8,5.2-1.5,7.9-2c2.6-0.6,5.3-1,8-1.3v1.1c-2.6-0.9-5.3-1.7-8-2.3c-1.3-0.3-2.7-0.6-4.1-0.8l-4.1-0.8c-2.7-0.6-5.4-1.3-8-2.1S151.9,183.1,149.3,182.1L149.3,182.1z" /></g></g></g><g id="eyebrow"><g id="Shaved"><g opacity="0.06"><path d="M218.3,173s24.22-3.6,30.64-3.4,11,1.7,14.08,3.5c0,0-22.75,2.9-32.89,3.2S219.77,176.44,218.3,173Z" transform="translate(-0.4)" stroke="#000" stroke-miterlimit="10" fill-rule="evenodd"/> <path d="M187,173.34s-23.54-3.8-30-3.5-10.7,1.6-13.74,3.5c0,0,22.19,2.9,32.21,3.3C185.24,177,185.91,176.74,187,173.34Z" transform="translate(-0.4)" stroke="#000" stroke-miterlimit="10" fill-rule="evenodd"/></g></g></g><g id="earrings"><g id="None"></g></g><g id="hair"><g id="Tattoo Pure"><path d="M193.2,67.36c-6.5,21.1,3,50.54,6.48,64.14,0,0,5.91-44.63,33.11-64.86C222,63.84,201.2,64.36,193.2,67.36Z" fill="#FFEDED" transform="translate(-0.1)"/></g></g><g id="accessory"><g id="Power Stick"><g display="inline" ><path stroke="#000000" stroke-miterlimit="10" d="M279.7,105.3l21.9-26.8c-0.1-0.8-2.8-7.3-10.8-8.8l-21.9,26.8C270.8,101.9,274.2,105.2,279.7,105.3z" /><g><path d="M279.6,109.5c-1.7,0.2-3.5,0.1-5.2-0.3s-3.3-1.3-4.8-2.3c-1.4-1-2.6-2.4-3.5-4c-0.5-0.7-0.8-1.6-1.1-2.4c-0.3-0.8-0.5-1.7-0.7-2.5c0.4,0.7,0.7,1.6,1.1,2.3c0.4,0.7,0.8,1.5,1.4,2.1c0.9,1.4,2.2,2.5,3.4,3.5c1.4,1,2.8,1.8,4.4,2.4C276.1,109,277.8,109.3,279.6,109.5z" /></g></g><g id="Power_Head" display="inline" ><path stroke="#000000" stroke-miterlimit="10" d="M147.2,105.1l-21.9-26.8c0.1-0.8,2.8-7.3,10.8-8.8l21.8,26.8C156,101.9,152.7,105,147.2,105.1z" /><g><path d="M147.2,109.4c1.7-0.1,3.3-0.5,4.9-1.1c1.6-0.5,3-1.4,4.4-2.4s2.5-2.2,3.4-3.5c0.5-0.6,0.9-1.5,1.4-2.1c0.4-0.7,0.7-1.6,1.1-2.3c-0.2,0.8-0.4,1.7-0.7,2.5s-0.6,1.7-1.1,2.4c-0.8,1.6-2.1,2.8-3.5,4c-1.5,1-3,1.9-4.8,2.3C150.8,109.6,149,109.7,147.2,109.4z" /></g></g></g></g><g id="mask"><g id="Uni Horn Blood"><g><path d="M199.5,130.4c-6.8-.1-13.1-6.5-15-15.2,1.5-25.1,9.6-74.1,12.4-90.7,1.5,30.2,18.4,88.63,19.5,92.33-4.2,10.6-10,13.67-16.9,13.57Z" transform="translate(0 0.5)" fill="#E31466"/> <path d="M196.6,28.9c2.7,30.6,17.1,83.43,18.6,88.13-4.2,10.4-9.2,13-15.8,12.87s-12.6-6.3-14.5-14.7c1.6-23.3,8.6-66.7,11.7-86.3m.7-10.2S186,85.75,184.19,116.45c1.9,8.9,8.11,14.15,15.31,14.35,6.1.1,12.1-1.57,16.9-14,0,.1-19.9-68.83-19.1-98.13Z" transform="translate(0 0.5)"/> <path d="M185.38,115.74s1.09,14.54,12.58,15c10.49.43,13.21-4.4,16.69-13.85" transform="translate(0 0.5)" fill="#E31466" stroke="#E31466" stroke-linecap="round" stroke-miterlimit="10" /></g></g></g></svg>