<svg version="1.1" xmlns="http://www.w3.org/2000/svg" x="0px" y="0px" xmlns:xlink="http://www.w3.org/1999/xlink" viewBox="0 0 420 420" style="enable-background:new 0 0 420 420;" xml:space="preserve"><g id="background"><g id="Ordinary"><radialGradient id="radial-gradient" cx="210" cy="212" r="210" gradientTransform="matrix(1, 0, 0, -1, 0, 422)" gradientUnits="userSpaceOnUse"> <stop offset="0" stop-color="#726680"/> <stop offset="1" stop-color="#4a4a4a"/> </radialGradient><path d="M389.9,419.5H30.1a30,30,0,0,1-30-30V29.5a30,30,0,0,1,30-30H390a30,30,0,0,1,30,30v360A30.11,30.11,0,0,1,389.9,419.5Z" transform="translate(0 0.5)" fill="url(#radial-gradient)"/> <g> <path id="Main_Spin" fill="#323232" stroke="#323232" stroke-miterlimit="10" d="M210,63.3c-192.6,3.5-192.6,290,0,293.4 C402.6,353.2,402.6,66.7,210,63.3z M340.8,237.5c-0.6,2.9-1.4,5.7-2.2,8.6c-43.6-13.6-80.9,37.8-54.4,75.1 c-4.9,3.2-10.1,6.1-15.4,8.8c-33.9-50.6,14.8-117.8,73.3-101.2C341.7,231.7,341.4,234.6,340.8,237.5z M331.4,265.5 c-7.9,17.2-19.3,32.4-33.3,44.7c-15.9-23.3,7.6-55.7,34.6-47.4C332.3,263.7,331.8,264.6,331.4,265.5z M332.5,209.6 C265,202.4,217,279,252.9,336.5c-5.8,1.9-11.7,3.5-17.7,4.7c-40.3-73.8,24.6-163.5,107.2-148c0.6,6,1.2,12.2,1.1,18.2 C339.9,210.6,336.2,210,332.5,209.6z M87.8,263.9c28.7-11.9,56,24,36.3,48.4C108.5,299.2,96.2,282.5,87.8,263.9z M144.3,312.7 c17.8-38.8-23.4-81.6-62.6-65.5c-1.7-5.7-2.9-11.5-3.7-17.4c60-20.6,112.7,49.4,76,101.5c-5.5-2.4-10.7-5.3-15.6-8.5 C140.7,319.6,142.7,316.3,144.3,312.7z M174.2,330.4c32.6-64-28.9-138.2-97.7-118c-0.3-6.1,0.4-12.4,0.9-18.5 c85-18.6,151.7,71.7,110.8,147.8c-6.1-1-12.2-2.4-18.1-4.1C171.6,335.3,173,332.9,174.2,330.4z M337,168.6c-7-0.7-14.4-0.8-21.4-0.2 c-43.1-75.9-167.4-75.9-210.7-0.2c-7.3-0.6-14.9,0-22.1,0.9C118.2,47.7,301.1,47.3,337,168.6z M281.1,175.9c-3,1.1-5.9,2.3-8.7,3.6 c-29.6-36.1-93.1-36.7-123.4-1.2c-5.8-2.5-11.9-4.5-18-6.1c36.6-50.4,122.9-50,159,0.7C286.9,173.8,284,174.8,281.1,175.9z M249.6,193.1c-2.4,1.8-4.7,3.6-7,5.6c-16.4-15.6-46-16.4-63.2-1.5c-4.7-3.8-9.6-7.3-14.7-10.5c23.9-24.1,69.1-23.5,92.2,1.3 C254.4,189.6,252,191.3,249.6,193.1z M211.9,239.2c-5.2-10.8-11.8-20.7-19.7-29.4c10.7-8.1,27.9-7.3,37.9,1.6 C222.8,219.7,216.7,229.1,211.9,239.2z"> <animateTransform attributeName="transform" begin="0s" dur="20s" type="rotate" from="-360 210 210" to="0 210 210" repeatCount="indefinite" /> </path> <g id="Spin_Inverse"> <circle fill="none" stroke="#323232" stroke-width="7" stroke-dasharray="22.2609,22.2609" cx="210" cy="210" r="163"> <animateTransform attributeName="transform" begin="0s" dur="20s" type="rotate" from="360 210 210" to="0 210 210" repeatCount="indefinite" /> </circle> </g> <g id="Spin"> <circle fill="none" stroke="#323232" stroke-width="7" stroke-dasharray="22.2041,22.2041" cx="210" cy="210" r="183.8"> <animateTransform attributeName="transform" begin="0s" dur="20s" type="rotate" from="-360 210 210" to="0 210 210" repeatCount="indefinite" /> </circle> </g> </g></g></g><g id="body"><g id="Yokai Blood"><path id="Neck" display="inline"  fill="#E31466" stroke="#000000" stroke-width="3" stroke-linecap="round" stroke-miterlimit="10" d="M175.8,276.8c0.8,10,1.1,20.2-0.7,30.4c-0.5,2.6-2.2,4.9-4.7,6.3c-16.4,8.9-41.4,17.2-70.2,25.2c-8.1,2.3-9.5,12.4-2.1,16.4c71.9,38.5,146.3,42.5,224.4,7c7.2-3.3,7.3-12.7,0.1-16c-22.3-10.3-43.5-23.1-54.9-29.9c-3-1.8-4.8-5.2-5.1-8.3c-0.7-7.7-0.7-12.5-0.1-22.2c0.7-11.3,2.6-21.2,4.6-29.3"  /><path id="Shadow" display="inline" opacity="0.51"  enable-background="new    " d="M178.1,279c0,0,24.2,35,41,30.6s41.7-21.6,41.7-21.6c1.2-9.1,1.9-17.1,3.7-26c-4.8,4.9-10.4,9.2-18.8,14.5c-11.3,7.1-22,11.3-29.8,13.3L178.1,279z"  /><path id="Head" display="inline"  fill="#E31466" stroke="#000000" stroke-width="3" stroke-linecap="round" stroke-miterlimit="10" d="M313.9,168.8c-0.6-0.8-12.2,8.3-12.2,8.3c0.3-4.9,11.8-53.1-17.3-86c-15.9-17.4-42.2-27.1-69.9-27.7c-24.5-0.5-48.7,10.9-61.6,24.4c-33.5,35-20.1,98.2-20.1,98.2c0.6,10.9,9.1,63.4,21.3,74.6c0,0,33.7,25.7,42.4,30.6c8.8,5,17.1,2.3,17.1,2.3c16-5.9,47.7-25.9,56.8-37.6l0.2-0.2c6.9-9.1,3.9-5.8,11.2-14.8c1.3-1.5,3-2.2,4.8-1.8c4.1,0.8,11.7,1.3,13.3-7c2.4-11.5,2.6-25.1,8.6-35.5C311.7,190.8,315.9,184.6,313.9,168.8z"  /><path id="Ear" display="inline"  fill="#E31466" stroke="#000000" stroke-width="3" stroke-linecap="round" stroke-miterlimit="10" d="M141.9,236c0.1,1.1-8.3,3-9.7-12.1s-7.3-31-12.6-48c-3.8-12.2,12.2,6.7,12.2,6.7"  /><g id="Ear2" display="inline" ><path d="M304,174.7c-0.5,1.3-0.3,2.2-1.2,3.1c-0.9,0.8-2.3,2.1-3.2,2.9c-1.8,1.7-4.4,3-6,5s-2.9,4.1-4.2,6.3c-0.6,1-1.3,2.2-1.9,3.3l-1.7,3.4l-0.2-0.1l1.4-3.6c0.5-1.1,0.9-2.4,1.5-3.5c1.1-2.3,2.3-4.6,3.8-6.8s3-4.4,5.1-5.9c1-0.8,2.2-1.5,3.2-2.1c1.1-0.6,2.2-1.1,3.1-2L304,174.7z" /></g><g id="Body" display="inline" ><g><path d="M222.2,339.7c18.6-1.3,37.3-2,55.9-2C259.5,339,240.9,339.8,222.2,339.7z" /></g><g><path d="M142.3,337.2c16.9,0.1,33.7,1,50.6,2.3C176,339.2,159.3,338.5,142.3,337.2z" /></g><g><path d="M199.3,329.2c7.3,14.3,4.6,10.4,17.1,0.1C207.5,339,204.7,346.2,199.3,329.2z" /></g><path opacity="0.19"  enable-background="new    " d="M199.3,329.2c0,0,3.5,9.3,5.3,10.1c1.8,0.8,11.6-10,11.6-10C209.9,330.9,204,331.1,199.3,329.2z" /></g> <line x1="132.69" y1="184.23" x2="130.73" y2="182.28" fill="#e31466" stroke="#000" stroke-linecap="round" stroke-miterlimit="10" stroke-width="2"/></g></g><g id="mark"><g id="Tomoe Moon"><path d="M289,339.8h0a5,5,0,1,0,0,7.3l.4-.4v.1c2.7,1.9,3.6,5.8,3.6,5.8C293.9,343.3,289,339.8,289,339.8Zm-2.2,5a1.7,1.7,0,1,1,.1-2.4A1.72,1.72,0,0,1,286.8,344.8Z" fill="#000000" /> <path d="M275.1,347.9h0a5,5,0,1,0-2.5,6.6c.1-.1.2-.1.4-.2,1.8,2.7,1.5,6.6,1.5,6.6C277.8,353.8,275.8,349.2,275.1,347.9Zm-3.9,3.5a1.62,1.62,0,0,1-2.2-.8,1.66,1.66,0,1,1,2.2.8Z" fill="#000000" /> <path d="M136.6,339.1a5.08,5.08,0,0,0-6.9,0h0s-4.9,3.5-4,12.8c0,0,.9-3.9,3.6-5.8V346c.1.1.2.3.4.4a5,5,0,1,0,6.9-7.3Zm-2.2,4.9a2,2,0,0,1-2.4.1,1.7,1.7,0,1,1,2.4-.1Z" fill="#000000" /> <path d="M150.5,344.6a5.14,5.14,0,0,0-6.7,2.5c0,.1-.1.1-.1.2-.7,1.4-2.5,6,.7,12.9,0,0-.3-3.9,1.5-6.6.1.1.2.1.4.2a5.06,5.06,0,0,0,4.2-9.2Zm-.7,5.3a1.66,1.66,0,1,1-.8-2.2A1.65,1.65,0,0,1,149.8,349.9Z" fill="#000000" /><path d="M224.09,355.4a5.13,5.13,0,0,0-6.4-2.9,5.06,5.06,0,1,0,3.5,9.5c.1-.1.3-.1.4-.2,1.6,2.9,1,6.8,1,6.8C226.89,360.9,224.49,356,224.09,355.4Zm-4,3.5a2,2,0,0,1-2.2-1,1.71,1.71,0,1,1,2.2,1Z" fill="#000000" /> <path d="M189.79,352a4.94,4.94,0,0,0-6.5,2.5h0s-3.3,5,.8,13.4c0,0-.4-4,1.4-6.8h0a.76.76,0,0,0,.4.2,5,5,0,0,0,3.9-9.3Zm-.6,5.3c-.2,1-1.2,1.3-2.2.9a1.68,1.68,0,1,1,2.2-.9Z" fill="#000000" /></g></g><g id="mouth"><g id="Poker"><g id="Poker" ><path d="M174.5,253.4c2.7-0.4,5.4-0.6,8-0.7c2.7-0.1,5.4-0.2,8-0.1c2.7,0.1,5.4,0.4,8,0.5c2.7,0.1,5.4,0,8-0.2c2.7-0.2,5.4-0.3,8-0.4c2.7-0.1,5.4-0.2,8-0.1c5.4,0.1,10.7,0.3,16.1,1c0.1,0,0.1,0.1,0.1,0.1c0,0,0,0.1-0.1,0.1c-5.4,0.6-10.7,0.9-16.1,1c-2.7,0-5.4-0.1-8-0.1c-2.7,0-5.4-0.2-8-0.4c-2.7-0.2-5.4-0.3-8-0.2c-2.7,0.1-5.4,0.4-8,0.5c-2.7,0.1-5.4,0.1-8-0.1c-2.7-0.1-5.4-0.3-8-0.7C174.4,253.6,174.4,253.5,174.5,253.4C174.4,253.4,174.5,253.4,174.5,253.4z" /></g></g></g><g id="nose"><g id="Kitsune Blood"><path display="inline" fill="#B50D5E" stroke="#B50D5E" stroke-miterlimit="10" d="M193.2,224.9c5.1,0.6,10.3,1,16.4,0c0.4-0.1,0.7,0.5,0.3,0.8l-7.4,5.9c-0.5,0.4-1.3,0.4-1.8,0l-7.9-6C192.5,225.4,192.7,224.8,193.2,224.9z"  /></g></g><g id="eyes"><g id="Closed"><g display="inline" ><path d="M219,191.1c1.7-0.5,3.3-0.7,5-0.9s3.3-0.3,5-0.3s3.4,0.3,5.1,0.2c1.7,0,3.4-0.2,5-0.5c1.7-0.3,3.3-0.5,5-0.7s3.4-0.3,5-0.4c3.4-0.1,6.7,0,10.1,0.4c0.1,0,0.1,0.1,0.1,0.1s0,0.1-0.1,0.1c-3.3,0.8-6.7,1.2-10,1.5c-1.7,0.1-3.4,0.1-5,0.1c-1.7,0-3.4,0-5.1-0.1c-1.7-0.1-3.4-0.1-5,0c-1.7,0.1-3.3,0.6-5,0.8s-3.4,0.2-5,0.2c-1.7,0-3.4-0.1-5.1-0.4C218.9,191.3,218.9,191.2,219,191.1C218.9,191.1,219,191.1,219,191.1z" /></g><g display="inline" ><path d="M180.5,191.3c-1.5,0.3-3,0.4-4.5,0.5c-1.5,0-3,0-4.5-0.1c-1.5-0.2-3-0.6-4.5-0.7c-1.5-0.1-3-0.1-4.5,0s-3,0.2-4.5,0.2s-3,0-4.5-0.1c-3-0.2-6-0.6-9-1.3c-0.1,0-0.1-0.1-0.1-0.1s0-0.1,0.1-0.1c3-0.5,6.1-0.6,9.1-0.6c1.5,0,3,0.2,4.5,0.3s3,0.3,4.5,0.6s3,0.4,4.5,0.4s3-0.3,4.5-0.3c1.5-0.1,3,0.1,4.5,0.2c1.5,0.2,3,0.4,4.5,0.9C180.6,191.1,180.6,191.2,180.5,191.3C180.6,191.3,180.5,191.3,180.5,191.3z" /></g></g></g><g id="eyebrow"><g id="Electric Blood"><path display="inline"  fill="#B50D5E" d="M216,176.7c14.2-2.2,47-5.6,50.4-6.6l-14.8-0.7l17.4-9.1c-17.8,7.7-37.5,12.9-56.3,13.3C213.1,174.8,214.6,176.1,216,176.7z"  /><path display="inline"  fill="#B50D5E" d="M186.7,176.7c-12.8-2.1-44.8-5.3-48-6.3l13.5-0.9l-15.4-8.8c15.9,7.4,33.7,11.9,49,13.2C186.1,175.2,186.5,175.5,186.7,176.7z"  /></g></g><g id="earrings"><g id="Tomoe Drop Moon"><g display="inline" ><ellipse cx="291.2" cy="231.8" rx="3.5" ry="3.5" /><line fill="none" stroke="#000000" stroke-miterlimit="10" x1="291.2" y1="231.8" x2="291.2" y2="259.8" /><path  d="M292.2,258.2c-2.5-1.2-5.5,0-6.7,2.5c-1.1,2.5,0,5.5,2.5,6.7c0.1,0.1,0.2,0.1,0.4,0.1c-0.9,3.2-4.1,5.5-4.1,5.5c6.6-1.9,9.1-5.6,10-7.4c0.1-0.2,0.3-0.4,0.4-0.7C295.8,262.4,294.7,259.4,292.2,258.2z M288.5,262.1c0.4-0.8,1.4-1.3,2.2-0.8c0.8,0.4,1.3,1.4,0.8,2.2c-0.4,0.8-1.4,1.3-2.2,0.8C288.5,264,288.1,262.9,288.5,262.1z" /></g><g display="inline" ><ellipse cx="139" cy="231.7" rx="2.6" ry="2.8" /><line fill="none" stroke="#000000" stroke-miterlimit="10" x1="138.5" y1="231.8" x2="138.5" y2="259.8" /><path  d="M140.2,258.9c-2.5-1.1-5.5,0-6.7,2.5c-1.1,2.5,0,5.5,2.5,6.7c0.1,0.1,0.2,0.1,0.4,0.1c-0.9,3.2-4.1,5.5-4.1,5.5c6.8-2,9.3-5.9,10.1-7.6c0.1-0.2,0.2-0.3,0.3-0.5C143.8,263.1,142.7,260.1,140.2,258.9z M136.5,262.8c0.4-0.8,1.4-1.3,2.2-0.8s1.3,1.4,0.8,2.2c-0.4,0.8-1.4,1.3-2.2,0.8C136.5,264.7,136,263.7,136.5,262.8z" /></g></g></g><g id="hair"><g id="Monk Pure"><path display="inline" fill="#FFEDED" d="M288.2,192.7c0,0,0.1-18.3-2.9-21.5c-3.1-3-7.4-9.2-7.4-9.2s0.3-22.2-3.2-29.6c-3.6-7.4-4.6-19.5-36.1-18.7c-30.7,0.7-41.1,5.8-41.1,5.8s-13.1-7.7-41.9-4c-19.6,5.2-20.3,42.6-20.3,42.6s-1.3,9.2-1.9,14.7c-0.6,5.6-0.3,8.5-0.3,8.5c-0.9,11.8-27.4-116.1,81.3-119.6c110.4,6.8,89.8,101.8,86.7,115.3C295.8,180.8,294.7,183.1,288.2,192.7z"  /><g id="Shadow" display="inline" > <path opacity="7.000000e-02"  enable-background="new    " d="M277,141.5c0,0,0.9,3.6,0.9,20.6c0,0,6.6,7.9,8.6,11.7c2,3.6,2.6,18.8,2.6,18.8l5.4-9.2c0,0,1.5-1.8,5.7-4c0,0,7-15.6,3.4-46.3C303.7,133.1,295.1,139.9,277,141.5z" /> <path opacity="7.000000e-02"  enable-background="new    " d="M132.9,182.7c0,0,0.4-11.3,2.3-24.4c0,0,1.9-15.1,3.4-21.9c-1.9,0-6.9,0-8.5-1.1C130,135.3,128.7,177.5,132.9,182.7z" /> </g></g></g><g id="accessory"><g id="None"></g></g><g id="mask"><g id="None"></g></g></svg>