<svg version="1.1" xmlns="http://www.w3.org/2000/svg" x="0px" y="0px" xmlns:xlink="http://www.w3.org/1999/xlink" viewBox="0 0 420 420" style="enable-background:new 0 0 420 420;" xml:space="preserve"><g id="background"><g id="Uncommon"><radialGradient id="radial-gradient" cx="210" cy="212" r="210" gradientTransform="matrix(1, 0, 0, -1, 0, 422)" gradientUnits="userSpaceOnUse"> <stop offset="0" stop-color="#2fa675"/> <stop offset="1" stop-color="#106c48"/> </radialGradient><path d="M389.9,419.5H30.1a30,30,0,0,1-30-30V29.5a30,30,0,0,1,30-30H390a30,30,0,0,1,30,30v360A30.11,30.11,0,0,1,389.9,419.5Z" transform="translate(0 0.5)" fill="url(#radial-gradient)"/> <g> <path id="Main_Spin" fill="#125443" stroke="#125443" stroke-miterlimit="10" d="M210,63.3c-192.6,3.5-192.6,290,0,293.4 C402.6,353.2,402.6,66.7,210,63.3z M340.8,237.5c-0.6,2.9-1.4,5.7-2.2,8.6c-43.6-13.6-80.9,37.8-54.4,75.1 c-4.9,3.2-10.1,6.1-15.4,8.8c-33.9-50.6,14.8-117.8,73.3-101.2C341.7,231.7,341.4,234.6,340.8,237.5z M331.4,265.5 c-7.9,17.2-19.3,32.4-33.3,44.7c-15.9-23.3,7.6-55.7,34.6-47.4C332.3,263.7,331.8,264.6,331.4,265.5z M332.5,209.6 C265,202.4,217,279,252.9,336.5c-5.8,1.9-11.7,3.5-17.7,4.7c-40.3-73.8,24.6-163.5,107.2-148c0.6,6,1.2,12.2,1.1,18.2 C339.9,210.6,336.2,210,332.5,209.6z M87.8,263.9c28.7-11.9,56,24,36.3,48.4C108.5,299.2,96.2,282.5,87.8,263.9z M144.3,312.7 c17.8-38.8-23.4-81.6-62.6-65.5c-1.7-5.7-2.9-11.5-3.7-17.4c60-20.6,112.7,49.4,76,101.5c-5.5-2.4-10.7-5.3-15.6-8.5 C140.7,319.6,142.7,316.3,144.3,312.7z M174.2,330.4c32.6-64-28.9-138.2-97.7-118c-0.3-6.1,0.4-12.4,0.9-18.5 c85-18.6,151.7,71.7,110.8,147.8c-6.1-1-12.2-2.4-18.1-4.1C171.6,335.3,173,332.9,174.2,330.4z M337,168.6c-7-0.7-14.4-0.8-21.4-0.2 c-43.1-75.9-167.4-75.9-210.7-0.2c-7.3-0.6-14.9,0-22.1,0.9C118.2,47.7,301.1,47.3,337,168.6z M281.1,175.9c-3,1.1-5.9,2.3-8.7,3.6 c-29.6-36.1-93.1-36.7-123.4-1.2c-5.8-2.5-11.9-4.5-18-6.1c36.6-50.4,122.9-50,159,0.7C286.9,173.8,284,174.8,281.1,175.9z M249.6,193.1c-2.4,1.8-4.7,3.6-7,5.6c-16.4-15.6-46-16.4-63.2-1.5c-4.7-3.8-9.6-7.3-14.7-10.5c23.9-24.1,69.1-23.5,92.2,1.3 C254.4,189.6,252,191.3,249.6,193.1z M211.9,239.2c-5.2-10.8-11.8-20.7-19.7-29.4c10.7-8.1,27.9-7.3,37.9,1.6 C222.8,219.7,216.7,229.1,211.9,239.2z"> <animateTransform attributeName="transform" begin="0s" dur="20s" type="rotate" from="-360 210 210" to="0 210 210" repeatCount="indefinite" /> </path> <g id="Spin_Inverse"> <circle fill="none" stroke="#125443" stroke-width="7" stroke-dasharray="22.2609,22.2609" cx="210" cy="210" r="163"> <animateTransform attributeName="transform" begin="0s" dur="20s" type="rotate" from="360 210 210" to="0 210 210" repeatCount="indefinite" /> </circle> </g> <g id="Spin"> <circle fill="none" stroke="#125443" stroke-width="7" stroke-dasharray="22.2041,22.2041" cx="210" cy="210" r="183.8"> <animateTransform attributeName="transform" begin="0s" dur="20s" type="rotate" from="-360 210 210" to="0 210 210" repeatCount="indefinite" /> </circle> </g> </g></g></g><g id="body"><g id="Yokai"><path id="Neck" display="inline"  fill="#FFDAEA" stroke="#000000" stroke-width="3" stroke-linecap="round" stroke-miterlimit="10" d="M175.8,276.8c0.8,10,1.1,20.2-0.7,30.4c-0.5,2.6-2.2,4.9-4.7,6.3c-16.4,8.9-41.4,17.2-70.2,25.2c-8.1,2.3-9.5,12.4-2.1,16.4c71.9,38.5,146.3,42.5,224.4,7c7.2-3.3,7.3-12.7,0.1-16c-22.3-10.3-43.5-23.1-54.9-29.9c-3-1.8-4.8-5.2-5.1-8.3c-0.7-7.7-0.7-12.5-0.1-22.2c0.7-11.3,2.6-21.2,4.6-29.3"  /><path id="Shadow" display="inline" opacity="0.51"  enable-background="new    " d="M178.1,279c0,0,24.2,35,41,30.6s41.7-21.6,41.7-21.6c1.2-9.1,1.9-17.1,3.7-26c-4.8,4.9-10.4,9.2-18.8,14.5c-11.3,7.1-22,11.3-29.8,13.3L178.1,279z"  /><path id="Head" display="inline"  fill="#FFDAEA" stroke="#000000" stroke-width="3" stroke-linecap="round" stroke-miterlimit="10" d="M313.9,168.8c-0.6-0.8-12.2,8.3-12.2,8.3c0.3-4.9,11.8-53.1-17.3-86c-15.9-17.4-42.2-27.1-69.9-27.7c-24.5-0.5-48.7,10.9-61.6,24.4c-33.5,35-20.1,98.2-20.1,98.2c0.6,10.9,9.1,63.4,21.3,74.6c0,0,33.7,25.7,42.4,30.6c8.8,5,17.1,2.3,17.1,2.3c16-5.9,47.7-25.9,56.8-37.6l0.2-0.2c6.9-9.1,3.9-5.8,11.2-14.8c1.3-1.5,3-2.2,4.8-1.8c4.1,0.8,11.7,1.3,13.3-7c2.4-11.5,2.6-25.1,8.6-35.5C311.7,190.8,315.9,184.6,313.9,168.8z"  /><path id="Ear" display="inline"  fill="#FFDAEA" stroke="#000000" stroke-width="3" stroke-linecap="round" stroke-miterlimit="10" d="M141.9,236c0.1,1.1-8.3,3-9.7-12.1s-7.3-31-12.6-48c-3.8-12.2,12.2,6.7,12.2,6.7"  /><g id="Ear2" display="inline" ><path d="M304,174.7c-0.5,1.3-0.3,2.2-1.2,3.1c-0.9,0.8-2.3,2.1-3.2,2.9c-1.8,1.7-4.4,3-6,5s-2.9,4.1-4.2,6.3c-0.6,1-1.3,2.2-1.9,3.3l-1.7,3.4l-0.2-0.1l1.4-3.6c0.5-1.1,0.9-2.4,1.5-3.5c1.1-2.3,2.3-4.6,3.8-6.8s3-4.4,5.1-5.9c1-0.8,2.2-1.5,3.2-2.1c1.1-0.6,2.2-1.1,3.1-2L304,174.7z" /></g><g id="Body" display="inline" ><g><path d="M222.2,339.7c18.6-1.3,37.3-2,55.9-2C259.5,339,240.9,339.8,222.2,339.7z" /></g><g><path d="M142.3,337.2c16.9,0.1,33.7,1,50.6,2.3C176,339.2,159.3,338.5,142.3,337.2z" /></g><g><path d="M199.3,329.2c7.3,14.3,4.6,10.4,17.1,0.1C207.5,339,204.7,346.2,199.3,329.2z" /></g><path opacity="0.19"  enable-background="new    " d="M199.3,329.2c0,0,3.5,9.3,5.3,10.1c1.8,0.8,11.6-10,11.6-10C209.9,330.9,204,331.1,199.3,329.2z" /></g> <line x1="132.69" y1="184.23" x2="130.73" y2="182.28" fill="#e31466" stroke="#000" stroke-linecap="round" stroke-miterlimit="10" stroke-width="2"/></g></g><g id="mark"><g id="YinYang"><path d="M218.1,361.41a15.58,15.58,0,0,0-15.5-15.5h-1.3a15.48,15.48,0,0,0,1.4,30.9A15.22,15.22,0,0,0,218.1,361.41Zm-13.7-7.1a2,2,0,1,1-2-2A1.94,1.94,0,0,1,204.4,354.31Zm4.7,14.5a7,7,0,0,1-7.2,6.9h0a14.4,14.4,0,0,1-13.8-14.3,14.18,14.18,0,0,1,9.7-13.5,7.83,7.83,0,0,0-3.5,6.5,7.6,7.6,0,0,0,7.6,7.6h0A7,7,0,0,1,209.1,368.81Zm-6.6,2.2a2,2,0,1,1,2-2A2.07,2.07,0,0,1,202.5,371Z" transform="translate(0 0.5)" fill="#0a0a02" opacity="0.93" style="isolation: isolate"/> <circle cx="143.6" cy="355.84" r="6.81" fill="#0a0a02"/> <circle cx="263.68" cy="359.93" r="6.81" fill="none" stroke="#000"/></g></g><g id="mouth"><g id="Canine"><g display="inline" ><polyline  fill="#FFFFFF" points="222.4,251.9 225.5,260.1 230,251.7 " /><path d="M222.4,251.9c0.6,1.4,1.1,2.6,1.8,4c0.5,1.4,1,2.7,1.6,4h-0.4c0.3-0.7,0.7-1.4,1.1-2.1l1.1-2.1c0.8-1.4,1.6-2.7,2.4-4.1c-0.6,1.5-1.4,2.9-2.1,4.3l-1,2.1c-0.4,0.7-0.7,1.5-1.1,2.1l-0.3,0.5l-0.2-0.5c-0.5-1.4-1-2.7-1.5-4.1C223.3,254.7,222.8,253.3,222.4,251.9z" /></g><g display="inline" ><polyline  fill="#FFFFFF" points="187.3,252 184,259.7 180,251.5 " /><path d="M187.3,252c-0.4,1.4-0.9,2.7-1.5,4c-0.5,1.4-1,2.6-1.6,4l-0.2,0.5l-0.3-0.5c-0.3-0.6-0.6-1.4-1-2.1l-1-2.1c-0.6-1.4-1.3-2.7-1.9-4.2c0.8,1.4,1.5,2.6,2.2,4l1,2c0.3,0.7,0.7,1.4,1,2.1h-0.4c0.5-1.3,1-2.6,1.7-3.9C186.2,254.5,186.7,253.2,187.3,252z" /></g><path display="inline"  d="M174.6,251c0,0,24.6,3.4,60.2,0.5"  /><g display="inline" ><path d="M195.8,256.6c1.1,0.3,2.4,0.5,3.5,0.6c1.3,0.1,2.4,0.2,3.6,0.2s2.4-0.1,3.6-0.2s2.4-0.2,3.6-0.4c-0.6,0.2-1.1,0.4-1.8,0.6c-0.6,0.1-1.3,0.3-1.8,0.4c-1.3,0.2-2.5,0.3-3.8,0.3s-2.5-0.1-3.8-0.3C197.9,257.6,196.8,257.2,195.8,256.6z" /></g></g></g><g id="nose"><g id="Kitsune Moon"><path display="inline" stroke="#000000" stroke-miterlimit="10" d="M193.2,224.9c5.1,0.6,10.3,1,16.4,0c0.4-0.1,0.7,0.5,0.3,0.8l-7.4,5.9c-0.5,0.4-1.3,0.4-1.8,0l-7.9-6C192.5,225.4,192.7,224.8,193.2,224.9z"  /></g></g><g id="eyes"><g id="Dubu"><g> <path d="M243.2,185.8c-2.2-1.3-4.6-2.3-7-2.8c-1.2-0.3-2.4-0.4-3.6-0.4c-1.2,0-2.4,0.1-3.2,0.6c-0.4,0.2-0.5,0.5-0.5,0.9 c0,0.5,0.3,1,0.6,1.5c0.7,1,1.6,1.9,2.6,2.7c2,1.6,4.3,2.7,6.7,3.8l3.4,1.5l-3.7-0.4c-2.5-0.3-5-0.5-7.3-0.4 c-0.6,0.1-1.1,0.2-1.6,0.3c-0.4,0.2-0.7,0.4-0.7,0.5s0,0.5,0.3,0.9s0.6,0.8,1.1,1.2c1.7,1.5,3.9,2.7,6.1,3.4 c2.3,0.7,4.8,0.9,7-0.2h0.1v0.1c-0.9,0.9-2.2,1.4-3.5,1.7c-1.3,0.2-2.7,0.2-4-0.1c-2.6-0.5-5.1-1.6-7.2-3.3c-0.5-0.4-1-1-1.4-1.6 l-0.3-0.5c-0.1-0.2-0.2-0.4-0.2-0.6c-0.1-0.4-0.2-1,0-1.5c0.1-0.3,0.2-0.5,0.4-0.7c0.1-0.2,0.3-0.4,0.5-0.5 c0.2-0.2,0.4-0.2,0.6-0.3c0.2-0.1,0.4-0.2,0.6-0.2c0.7-0.2,1.4-0.3,2.1-0.3c2.7-0.1,5.2,0.5,7.7,1.1l-0.4,1.1l-1.7-1 c-0.6-0.3-1.1-0.7-1.6-1.1l-1.6-1.1c-0.5-0.4-1.1-0.7-1.6-1.1c-1.1-0.8-2.1-1.6-3-2.6c-0.4-0.5-0.9-1.1-1.1-2 c-0.1-0.4-0.1-0.9,0.1-1.3c0.2-0.4,0.5-0.8,0.8-1.1c1.4-1,2.9-1.1,4.2-1.1c1.4,0,2.7,0.3,4,0.7c2.6,0.8,4.9,2.2,6.7,4.1v0.1 C243.3,185.8,243.3,185.8,243.2,185.8z"/> </g> <g> <path d="M171.1,185.8c-2.2-1.3-4.6-2.3-7-2.8c-1.2-0.3-2.4-0.4-3.6-0.4c-1.2,0-2.4,0.1-3.2,0.6c-0.4,0.2-0.5,0.5-0.5,0.9 c0,0.5,0.3,1,0.6,1.5c0.7,1,1.6,1.9,2.6,2.7c2,1.6,4.3,2.7,6.7,3.8l3.4,1.5l-3.7-0.4c-2.5-0.3-5-0.5-7.3-0.4 c-0.6,0.1-1.1,0.2-1.6,0.3c-0.4,0.2-0.7,0.4-0.7,0.5s0,0.5,0.3,0.9s0.6,0.8,1.1,1.2c1.7,1.5,4.9,2.7,7.1,3.4 c2.3,0.7,3.8,0.9,6-0.2h0.1v0.1c-0.9,0.9-2.2,1.4-3.5,1.7c-1.3,0.2-2.7,0.2-4-0.1c-2.6-0.5-5.1-1.6-7.2-3.3c-0.5-0.4-1-1-1.4-1.6 l-0.3-0.5c-0.1-0.2-0.2-0.4-0.2-0.6c-0.1-0.4-0.2-1,0-1.5c0.1-0.3,0.2-0.5,0.4-0.7c0.1-0.2,0.3-0.4,0.5-0.5 c0.2-0.2,0.4-0.2,0.6-0.3c0.2-0.1,0.4-0.2,0.6-0.2c0.7-0.2,1.4-0.3,2.1-0.3c2.7-0.1,5.2,0.5,7.7,1.1l-0.4,1.1l-1.7-1 c-0.6-0.3-1.1-0.7-1.6-1.1l-1.6-1.1c-0.5-0.4-1.1-0.7-1.6-1.1c-1.1-0.8-2.1-1.6-3-2.6c-0.4-0.5-0.9-1.1-1.1-2 c-0.1-0.4-0.1-0.9,0.1-1.3c0.2-0.4,0.5-0.8,0.8-1.1c1.4-1,2.9-1.1,4.2-1.1c1.4,0,2.7,0.3,4,0.7c2.6,0.8,4.9,2.2,6.7,4.1v0.1 C171.2,185.8,171.2,185.8,171.1,185.8z"/> </g></g></g><g id="eyebrow"><g id="Thick Blood"><g id="Thick_L" > <path  fill="#B50D5E" d="M213.7,173.6c-0.6-1.4,0.1-3.1,1.6-3.5c1.7-0.5,4.3-1.2,7.5-1.7 c1.5-0.3,13.2-4.2,14.4-4.9c0.2,0.9-6.2,4.1-4.9,3.9c7.3-1.2,14.7-2.2,18.1-2c3.6,0.1,6.4,0.4,9,1.2c0.6,0.2,5.3,1.1,5.9,1.4 c0.4,0.2-3-0.1-2.6,0.1c1.9,0.9,3.6,1.9,5.1,3c0,0-28,4.7-40.5,5.3C217.3,176.8,215,176.6,213.7,173.6z"/> </g> <g id="Thick_R" > <path  fill="#B50D5E" d="M187.1,173.7c0.6-1.4-0.1-3.1-1.6-3.5c-6.2-1.9-8.9-2-7.3-1.7 c-1.5-0.3-12.4-4.7-13.7-5.3c-0.2,0.9,5.6,4.6,4.5,4.4c-7.1-1.2-14.2-2.2-17.5-2c-3.5,0.1-6.2,0.4-8.7,1.2 c-0.6,0.2-5.1,1.1-5.7,1.4c-0.4,0.2,2.9-0.1,2.5,0.1c-1.8,0.9-3.5,1.9-4.9,3c0,0,27.1,4.7,39.3,5.3 C183.6,176.9,185.9,176.7,187.1,173.7z"/> </g></g></g><g id="earrings"><g id="Ring Blood"><path display="inline" fill="none" stroke="#B50D5E" stroke-width="2" stroke-linecap="round" stroke-linejoin="round" stroke-miterlimit="10" d="M289,234.7c0,0-4.4,2.1-3.2,6.4c1,4.3,4.4,4,4.8,4c0.3,0,3.9-0.2,3.9-4.2"  /><path display="inline" fill="none" stroke="#B50D5E" stroke-width="2" stroke-linecap="round" stroke-linejoin="round" stroke-miterlimit="10" d="M137,232.9c0,0-4.4,2.1-3.2,6.4c1,4.3,4.5,3.8,4.8,3.6c0.4-0.1,1.6,0.2,3.4-2.3"  /></g></g><g id="hair"><g id="Tattoo Moon"><path d="M193.2,67.36c-6.5,21.1,3,50.54,6.48,64.14,0,0,5.91-44.63,33.11-64.86C222,63.84,201.2,64.36,193.2,67.36Z" fill="#000000" transform="translate(-0.1)"/></g></g><g id="accessory"><g id="Small Horn Blood"><g display="inline" ><path  fill="#E31466" stroke="#000000" stroke-miterlimit="10" d="M257.5,100.7c0,0,10.6-0.7,16.6-12.7c0,0,6.3,10.6-5.2,25.1C263.4,110.3,259.4,106.1,257.5,100.7z" /><path  fill="#E31466" stroke="#E31466" stroke-miterlimit="10" d="M258.2,101.1c0,0.1,1,9.2,10.6,11.4" /></g><g display="inline" ><path  fill="#E31466" stroke="#000000" stroke-miterlimit="10" d="M159.4,101.6c0,0-10.6-0.7-16.6-12.7c0,0-6.3,10.6,5.2,25.1C153.4,111.2,157.5,107,159.4,101.6z" /><path  fill="#E31466" stroke="#E31466" stroke-miterlimit="10" d="M158.9,102c0,0.1-1.5,9.4-10.7,11.3" /></g></g></g><g id="mask"><g id="Power Neck"><g display="inline"><path stroke="#000000" stroke-miterlimit="10" d="M254,291l22.2-0.1c0.3,0.4,2.5,4.3,0,9H254C252.1,296.7,251.9,293.7,254,291z" /><g><path d="M251.9,289.3c-1,2-1.8,4-1.9,6c0,1,0,2.1,0.3,3.1c0.1,0.5,0.3,1,0.4,1.6c0.2,0.5,0.4,1,0.6,1.6c-0.4-0.4-0.7-0.8-1-1.4c-0.3-0.5-0.6-0.9-0.7-1.6c-0.4-1-0.6-2.2-0.6-3.4c0-1.1,0.3-2.3,0.8-3.3C250.4,290.9,251.1,289.9,251.9,289.3z" /></g></g><g display="inline"><path stroke="#000000" stroke-miterlimit="10" d="M177.4,292.4l-20-0.1c-0.3,0.4-2.3,4.3,0,9h20C179.2,298.1,179.5,295.2,177.4,292.4z" /><g><path d="M179.5,290.7c0.8,0.7,1.6,1.7,2.1,2.7s0.8,2.2,0.8,3.3s-0.1,2.3-0.6,3.4c-0.2,0.5-0.5,1-0.7,1.6c-0.3,0.5-0.7,0.9-1,1.4c0.2-0.5,0.4-1,0.6-1.6c0.1-0.5,0.3-1,0.4-1.6c0.3-1,0.3-2.1,0.3-3.1C181.3,294.7,180.5,292.7,179.5,290.7z" /></g></g></g></g></svg>