<svg version="1.1" xmlns="http://www.w3.org/2000/svg" x="0px" y="0px" xmlns:xlink="http://www.w3.org/1999/xlink" viewBox="0 0 420 420" style="enable-background:new 0 0 420 420;" xml:space="preserve"><g id="background"><g id="Phenomenal"><radialGradient id="radial-gradient" cx="210" cy="212" r="210" gradientTransform="matrix(1, 0, 0, -1, 0, 422)" gradientUnits="userSpaceOnUse"> <stop offset="0" stop-color="#fff38d"/> <stop offset="1" stop-color="#d68e4b"/> </radialGradient><path d="M389.9,419.5H30.1a30,30,0,0,1-30-30V29.5a30,30,0,0,1,30-30H390a30,30,0,0,1,30,30v360A30.11,30.11,0,0,1,389.9,419.5Z" transform="translate(0 0.5)" fill="url(#radial-gradient)"/> <g> <path id="Main_Spin" fill="#bd4e4a" stroke="#bd4e4a" stroke-miterlimit="10" d="M210,63.3c-192.6,3.5-192.6,290,0,293.4 C402.6,353.2,402.6,66.7,210,63.3z M340.8,237.5c-0.6,2.9-1.4,5.7-2.2,8.6c-43.6-13.6-80.9,37.8-54.4,75.1 c-4.9,3.2-10.1,6.1-15.4,8.8c-33.9-50.6,14.8-117.8,73.3-101.2C341.7,231.7,341.4,234.6,340.8,237.5z M331.4,265.5 c-7.9,17.2-19.3,32.4-33.3,44.7c-15.9-23.3,7.6-55.7,34.6-47.4C332.3,263.7,331.8,264.6,331.4,265.5z M332.5,209.6 C265,202.4,217,279,252.9,336.5c-5.8,1.9-11.7,3.5-17.7,4.7c-40.3-73.8,24.6-163.5,107.2-148c0.6,6,1.2,12.2,1.1,18.2 C339.9,210.6,336.2,210,332.5,209.6z M87.8,263.9c28.7-11.9,56,24,36.3,48.4C108.5,299.2,96.2,282.5,87.8,263.9z M144.3,312.7 c17.8-38.8-23.4-81.6-62.6-65.5c-1.7-5.7-2.9-11.5-3.7-17.4c60-20.6,112.7,49.4,76,101.5c-5.5-2.4-10.7-5.3-15.6-8.5 C140.7,319.6,142.7,316.3,144.3,312.7z M174.2,330.4c32.6-64-28.9-138.2-97.7-118c-0.3-6.1,0.4-12.4,0.9-18.5 c85-18.6,151.7,71.7,110.8,147.8c-6.1-1-12.2-2.4-18.1-4.1C171.6,335.3,173,332.9,174.2,330.4z M337,168.6c-7-0.7-14.4-0.8-21.4-0.2 c-43.1-75.9-167.4-75.9-210.7-0.2c-7.3-0.6-14.9,0-22.1,0.9C118.2,47.7,301.1,47.3,337,168.6z M281.1,175.9c-3,1.1-5.9,2.3-8.7,3.6 c-29.6-36.1-93.1-36.7-123.4-1.2c-5.8-2.5-11.9-4.5-18-6.1c36.6-50.4,122.9-50,159,0.7C286.9,173.8,284,174.8,281.1,175.9z M249.6,193.1c-2.4,1.8-4.7,3.6-7,5.6c-16.4-15.6-46-16.4-63.2-1.5c-4.7-3.8-9.6-7.3-14.7-10.5c23.9-24.1,69.1-23.5,92.2,1.3 C254.4,189.6,252,191.3,249.6,193.1z M211.9,239.2c-5.2-10.8-11.8-20.7-19.7-29.4c10.7-8.1,27.9-7.3,37.9,1.6 C222.8,219.7,216.7,229.1,211.9,239.2z"> <animateTransform attributeName="transform" begin="0s" dur="20s" type="rotate" from="-360 210 210" to="0 210 210" repeatCount="indefinite" /> </path> <g id="Spin_Inverse"> <circle fill="none" stroke="#bd4e4a" stroke-width="7" stroke-dasharray="22.2609,22.2609" cx="210" cy="210" r="163"> <animateTransform attributeName="transform" begin="0s" dur="20s" type="rotate" from="360 210 210" to="0 210 210" repeatCount="indefinite" /> </circle> </g> <g id="Spin"> <circle fill="none" stroke="#bd4e4a" stroke-width="7" stroke-dasharray="22.2041,22.2041" cx="210" cy="210" r="183.8"> <animateTransform attributeName="transform" begin="0s" dur="20s" type="rotate" from="-360 210 210" to="0 210 210" repeatCount="indefinite" /> </circle> </g> </g></g></g><g id="body"><g id="Yokai"><path id="Neck" display="inline"  fill="#FFDAEA" stroke="#000000" stroke-width="3" stroke-linecap="round" stroke-miterlimit="10" d="M175.8,276.8c0.8,10,1.1,20.2-0.7,30.4c-0.5,2.6-2.2,4.9-4.7,6.3c-16.4,8.9-41.4,17.2-70.2,25.2c-8.1,2.3-9.5,12.4-2.1,16.4c71.9,38.5,146.3,42.5,224.4,7c7.2-3.3,7.3-12.7,0.1-16c-22.3-10.3-43.5-23.1-54.9-29.9c-3-1.8-4.8-5.2-5.1-8.3c-0.7-7.7-0.7-12.5-0.1-22.2c0.7-11.3,2.6-21.2,4.6-29.3"  /><path id="Shadow" display="inline" opacity="0.51"  enable-background="new    " d="M178.1,279c0,0,24.2,35,41,30.6s41.7-21.6,41.7-21.6c1.2-9.1,1.9-17.1,3.7-26c-4.8,4.9-10.4,9.2-18.8,14.5c-11.3,7.1-22,11.3-29.8,13.3L178.1,279z"  /><path id="Head" display="inline"  fill="#FFDAEA" stroke="#000000" stroke-width="3" stroke-linecap="round" stroke-miterlimit="10" d="M313.9,168.8c-0.6-0.8-12.2,8.3-12.2,8.3c0.3-4.9,11.8-53.1-17.3-86c-15.9-17.4-42.2-27.1-69.9-27.7c-24.5-0.5-48.7,10.9-61.6,24.4c-33.5,35-20.1,98.2-20.1,98.2c0.6,10.9,9.1,63.4,21.3,74.6c0,0,33.7,25.7,42.4,30.6c8.8,5,17.1,2.3,17.1,2.3c16-5.9,47.7-25.9,56.8-37.6l0.2-0.2c6.9-9.1,3.9-5.8,11.2-14.8c1.3-1.5,3-2.2,4.8-1.8c4.1,0.8,11.7,1.3,13.3-7c2.4-11.5,2.6-25.1,8.6-35.5C311.7,190.8,315.9,184.6,313.9,168.8z"  /><path id="Ear" display="inline"  fill="#FFDAEA" stroke="#000000" stroke-width="3" stroke-linecap="round" stroke-miterlimit="10" d="M141.9,236c0.1,1.1-8.3,3-9.7-12.1s-7.3-31-12.6-48c-3.8-12.2,12.2,6.7,12.2,6.7"  /><g id="Ear2" display="inline" ><path d="M304,174.7c-0.5,1.3-0.3,2.2-1.2,3.1c-0.9,0.8-2.3,2.1-3.2,2.9c-1.8,1.7-4.4,3-6,5s-2.9,4.1-4.2,6.3c-0.6,1-1.3,2.2-1.9,3.3l-1.7,3.4l-0.2-0.1l1.4-3.6c0.5-1.1,0.9-2.4,1.5-3.5c1.1-2.3,2.3-4.6,3.8-6.8s3-4.4,5.1-5.9c1-0.8,2.2-1.5,3.2-2.1c1.1-0.6,2.2-1.1,3.1-2L304,174.7z" /></g><g id="Body" display="inline" ><g><path d="M222.2,339.7c18.6-1.3,37.3-2,55.9-2C259.5,339,240.9,339.8,222.2,339.7z" /></g><g><path d="M142.3,337.2c16.9,0.1,33.7,1,50.6,2.3C176,339.2,159.3,338.5,142.3,337.2z" /></g><g><path d="M199.3,329.2c7.3,14.3,4.6,10.4,17.1,0.1C207.5,339,204.7,346.2,199.3,329.2z" /></g><path opacity="0.19"  enable-background="new    " d="M199.3,329.2c0,0,3.5,9.3,5.3,10.1c1.8,0.8,11.6-10,11.6-10C209.9,330.9,204,331.1,199.3,329.2z" /></g> <line x1="132.69" y1="184.23" x2="130.73" y2="182.28" fill="#e31466" stroke="#000" stroke-linecap="round" stroke-miterlimit="10" stroke-width="2"/></g></g><g id="mark"><g id="Cheeks Blood"><g display="inline" ><path fill="#E31466" d="M175.8,215.3c-8.6,0.4-17,0.3-25-0.3c-0.4,0-0.8-0.4-0.8-0.8v-3c0-0.4,0.4-0.8,0.8-0.8c7.7,0.7,16.2,0.8,25,0.3c0.4,0,0.8,0.4,0.8,0.8v3C176.5,214.9,176.2,215.3,175.8,215.3z" /><path fill="#E31466" d="M175.5,223.6c-8.6,0.4-17,0.3-25-0.3c-0.4,0-0.8-0.4-0.8-0.8v-3c0-0.4,0.4-0.8,0.8-0.8c7.7,0.7,16.2,0.8,25,0.3c0.4,0,0.8,0.4,0.8,0.8v3C176.3,223.3,176,223.6,175.5,223.6z" /></g><g display="inline" ><path fill="#E31466" d="M255.8,215.5c-8.6,0.6-17,0.7-25,0.2c-0.4,0-0.8-0.3-0.8-0.8v-3c0-0.4,0.3-0.8,0.8-0.8c7.7,0.5,16.2,0.4,25-0.2c0.4,0,0.8,0.3,0.8,0.8v3C256.7,215.1,256.4,215.5,255.8,215.5z" /><path fill="#E31466" d="M255.8,223.9c-8.6,0.6-17,0.7-25,0.2c-0.4,0-0.8-0.3-0.8-0.8v-3c0-0.4,0.3-0.8,0.8-0.8c7.7,0.5,16.2,0.4,25-0.2c0.4,0,0.8,0.3,0.8,0.8v3C256.5,223.5,256.2,223.9,255.8,223.9z" /></g></g></g><g id="mouth"><g id="Angry"><g display="inline" ><path fill="#FFFFFF" d="M211.5,246.9c-7.9,1.5-19.6,0.3-23.8-0.9c-4.5-1.3-8.6,3.2-9.7,7.5c-0.5,2.6-1.4,7.7,3.9,10.5c6.7,2.5,6.4,0.1,10.4-2c3.9-2.1,11.3-1.1,17.3,2c6.1,3.1,15.1,2.3,20.2-0.4c3.2-1.8,3.8-7.9-4.8-14.7C222.5,247,220.4,245.2,211.5,246.9" /><path d="M211.5,247c-4.1,1-8.3,1.2-12.4,1.2c-2.1,0-4.2-0.2-6.3-0.4c-1-0.1-2.1-0.3-3.1-0.4c-0.5-0.1-1-0.2-1.6-0.3c-0.3-0.1-0.6-0.1-0.8-0.2c-0.2,0-0.4-0.1-0.6-0.1c-1.7-0.2-3.5,0.6-4.9,1.9c-1.4,1.3-2.5,3-3.1,4.8c-0.5,1.9-0.8,4-0.3,5.8c0.2,0.9,0.7,1.8,1.3,2.6c0.6,0.7,1.4,1.4,2.3,1.9l0,0c1.6,0.6,3.2,1.2,4.9,1c1.6-0.1,2.8-1.6,4.3-2.5c1.4-1,3.2-1.6,5-1.8c1.8-0.2,3.5-0.1,5.3,0.1c1.7,0.2,3.5,0.7,5.1,1.2c0.8,0.3,1.7,0.6,2.5,1s1.6,0.7,2.3,1c3,1.1,6.4,1.4,9.7,1.1c1.6-0.2,3.3-0.4,4.9-0.9c0.8-0.2,1.6-0.5,2.3-0.8c0.4-0.1,0.7-0.3,1.1-0.5l0.4-0.3c0.1-0.1,0.2-0.2,0.4-0.3c0.9-0.9,1.1-2.4,0.8-3.9s-1.1-2.9-2-4.3c-0.9-1.3-2.1-2.5-3.3-3.7c-0.6-0.6-1.3-1.1-1.9-1.6c-0.7-0.5-1.3-0.9-2.1-1.2c-1.5-0.6-3.2-0.8-4.9-0.8C214.9,246.6,213.2,246.8,211.5,247c-0.1,0-0.1,0-0.1-0.1s0-0.1,0.1-0.1c1.7-0.4,3.4-0.8,5.1-0.9c1.7-0.2,3.5-0.1,5.3,0.5c0.9,0.3,1.7,0.7,2.4,1.2s1.4,1,2.1,1.6c1.4,1.1,2.7,2.3,3.8,3.7s2.1,3,2.5,4.9c0.5,1.8,0.3,4.1-1.2,5.8c-0.2,0.2-0.4,0.4-0.6,0.6c-0.2,0.2-0.5,0.3-0.7,0.5c-0.4,0.2-0.8,0.4-1.2,0.6c-0.8,0.4-1.7,0.7-2.6,0.9c-1.7,0.5-3.5,0.8-5.3,0.9c-3.5,0.2-7.2-0.1-10.5-1.5c-0.8-0.4-1.7-0.8-2.4-1.1c-0.7-0.4-1.5-0.7-2.3-1c-1.6-0.6-3.2-1.1-4.8-1.4s-3.3-0.5-5-0.4s-3.2,0.5-4.7,1.4c-0.7,0.4-1.4,0.9-2.1,1.4c-0.7,0.5-1.6,1-2.5,1c-0.9,0.1-1.8-0.1-2.7-0.3c-0.9-0.2-1.7-0.5-2.5-0.8l0,0l0,0c-0.9-0.5-1.8-1.1-2.6-1.9c-0.7-0.8-1.3-1.8-1.7-2.8c-0.7-2.1-0.5-4.3-0.1-6.5c0.5-2.2,1.6-4.1,3.2-5.7c0.8-0.8,1.7-1.5,2.8-1.9c1.1-0.5,2.3-0.7,3.5-0.5c0.3,0,0.6,0.1,0.9,0.2c0.3,0.1,0.5,0.1,0.7,0.2c0.5,0.1,1,0.2,1.5,0.3c1,0.2,2,0.4,3,0.5c2,0.3,4.1,0.5,6.1,0.7c4.1,0.3,8.2,0.4,12.3,0c0.1,0,0.1,0,0.1,0.1C211.6,246.9,211.6,247,211.5,247z" /></g><g display="inline" ><path fill="#FFFFFF" d="M209.7,255.6l4.6-2.3c0,0,4.2,3,5.6,3.1s5.5-3.3,5.5-3.3l4.4,1.5" /><path d="M209.7,255.5c0.6-0.7,1.3-1.2,2-1.7s1.5-0.9,2.2-1.3l0.5-0.2l0.4,0.3c0.8,0.7,1.5,1.6,2.4,2.2c0.4,0.3,0.9,0.6,1.4,0.8s1.1,0.3,1.4,0.3c0.2-0.1,0.7-0.4,1.1-0.7c0.4-0.3,0.8-0.6,1.2-0.9c0.8-0.6,1.6-1.3,2.5-1.9l0.5-0.4l0.4,0.2c0.7,0.3,1.4,0.7,2.1,1c0.7,0.4,1.4,0.8,2,1.3c0,0,0.1,0.1,0,0.1h-0.1c-0.8,0-1.6-0.1-2.4-0.2c-0.8-0.1-1.5-0.3-2.3-0.5l1-0.2c-0.8,0.8-1.7,1.4-2.7,2c-0.5,0.3-1,0.6-1.5,0.8c-0.6,0.2-1.1,0.4-1.9,0.4c-0.8-0.2-1.1-0.6-1.6-0.8c-0.5-0.3-0.9-0.6-1.4-0.8c-1-0.5-2.1-0.7-3-1.3l0.9,0.1c-0.7,0.4-1.5,0.7-2.4,1c-0.8,0.3-1.7,0.5-2.6,0.6C209.7,255.7,209.6,255.6,209.7,255.5C209.6,255.6,209.6,255.5,209.7,255.5z" /></g><g display="inline" ><polyline fill="#FFFFFF" points="177.9,255.4 180.5,253.4 184.2,255.6 187.1,255.5 " /><path d="M177.8,255.3c0.1-0.4,0.2-0.6,0.3-0.9c0.2-0.3,0.3-0.5,0.5-0.7s0.4-0.4,0.6-0.5c0.2-0.1,0.6-0.2,0.8-0.2l0.6-0.1l0.1,0.1c0.2,0.3,0.5,0.6,0.8,0.8s0.7,0.2,1.1,0.3c0.4,0,0.7,0.1,1.1,0.3c0.3,0.1,0.7,0.3,1,0.4l-0.6-0.2c0.5,0,1,0.1,1.5,0.2c0.2,0.1,0.5,0.2,0.7,0.3s0.5,0.2,0.7,0.4c0.1,0,0.1,0.1,0,0.2l0,0c-0.2,0.2-0.5,0.3-0.7,0.5c-0.2,0.1-0.5,0.2-0.7,0.3c-0.5,0.2-1,0.3-1.4,0.3h-0.3l-0.3-0.2c-0.3-0.2-0.6-0.4-0.9-0.7c-0.3-0.2-0.5-0.5-0.8-0.8c-0.2-0.3-0.5-0.6-0.8-0.8s-0.6-0.3-1-0.3h0.6c-0.1,0.3-0.3,0.6-0.5,0.8s-0.4,0.3-0.7,0.5c-0.2,0.1-0.5,0.2-0.8,0.3s-0.6,0.1-1,0.1C177.9,255.5,177.8,255.4,177.8,255.3L177.8,255.3z" /></g></g></g><g id="nose"><g id="Akuma"><path opacity="0.5" stroke="#000000" stroke-miterlimit="10" enable-background="new    " d="M191.6,224.5c6.1,1,12.2,1.7,19.8,0.4l-8.9,6.8c-0.5,0.4-1.3,0.4-1.8,0L191.6,224.5z"  /><path stroke="#000000" stroke-width="0.75" stroke-miterlimit="10" d="M196.4,229.2c-0.4,0.3-2.1-0.9-4.1-2.5c-1.9-1.6-3-2.7-2.6-2.9c0.4-0.3,2.5,0,4.2,1.8C195.4,227.2,196.8,228.8,196.4,229.2z"  /><path stroke="#000000" stroke-width="0.75" stroke-miterlimit="10" d="M206.5,228.7c0.3,0.4,2.2-0.3,4.2-1.7c2-1.5,3.5-2,3.2-2.4s-2.5-0.7-4.5,0.7C207.4,226.9,206.1,228.2,206.5,228.7z"  /></g></g><g id="eyes"><g id="Stitched"><g display="inline" ><g><path d="M223.8,191.2c1.6,0.1,3.1,0.2,4.7,0.2c1.6,0.1,3.1,0.1,4.7,0c3.1,0,6.4-0.1,9.5-0.3c3.1-0.1,6.4-0.4,9.5-0.6l9.5-0.8c-1.6,0.3-3.1,0.5-4.7,0.8c-1.6,0.2-3.1,0.4-4.7,0.6c-3.1,0.4-6.4,0.6-9.5,0.8c-3.1,0.1-6.4,0.2-9.5,0.1C230,192,226.9,191.9,223.8,191.2z" /></g><g id="Strip_00000145047919819781265440000015374262668379115410_"><path fill="#FFFFFF" stroke="#000000" stroke-width="0.75" stroke-miterlimit="10" d="M231.3,188.2c0,0,1-3.2,2.6-0.9c0,0,0.5,4.9-0.6,9.2c0,0-0.9,2-1.5-0.5C231.3,193.3,232.3,193,231.3,188.2z" /><path fill="#FFFFFF" stroke="#000000" stroke-width="0.75" stroke-miterlimit="10" d="M239.4,187.7c0,0,1-3.1,2.5-0.9c0,0,0.5,4.7-0.6,8.9c0,0-0.9,1.9-1.4-0.5C239.4,192.7,240.5,192.4,239.4,187.7z" /><path fill="#FFFFFF" stroke="#000000" stroke-width="0.75" stroke-miterlimit="10" d="M245.9,187.7c0,0,0.9-2.7,2.2-0.8c0,0,0.4,4.1-0.5,7.7c0,0-0.8,1.7-1.1-0.4C246.1,192,246.9,191.8,245.9,187.7z" /><path fill="#FFFFFF" stroke="#000000" stroke-width="0.75" stroke-miterlimit="10" d="M251.4,187.4c0,0,0.8-2.4,2-0.7c0,0,0.4,3.6-0.5,6.9c0,0-0.7,1.5-1-0.4C251.4,191.2,252.1,191,251.4,187.4z" /></g></g><g display="inline" ><g><path d="M145.3,189.9c1.6,0.3,3,0.6,4.6,0.8s3.1,0.4,4.7,0.5c3.1,0.2,6.3,0.3,9.4,0.3s6.3-0.1,9.4-0.3c3.1-0.2,6.3-0.5,9.4-0.7c-1.6,0.3-3.1,0.5-4.7,0.8c-1.6,0.2-3.1,0.4-4.7,0.5c-1.6,0.1-3.1,0.3-4.7,0.3c-1.6,0.1-3.1,0.1-4.7,0.1c-3.1,0-6.3-0.1-9.4-0.5C151.4,191.3,148.2,190.9,145.3,189.9z" /></g><g id="Strip_00000020356765003249034850000016175079805633892000_"><path fill="#FFFFFF" stroke="#000000" stroke-width="0.75" stroke-miterlimit="10" d="M173.2,187.9c0,0-1-3.1-2.5-0.9c0,0-0.5,4.7,0.6,8.8c0,0,0.9,1.9,1.4-0.5C173.1,192.8,172.2,192.5,173.2,187.9z" /><path fill="#FFFFFF" stroke="#000000" stroke-width="0.75" stroke-miterlimit="10" d="M165.4,187.7c0,0-1-3.1-2.5-0.9c0,0-0.5,4.7,0.6,8.9c0,0,0.9,1.9,1.4-0.5C165.4,192.7,164.4,192.4,165.4,187.7z" /><path fill="#FFFFFF" stroke="#000000" stroke-width="0.75" stroke-miterlimit="10" d="M158.9,187.7c0,0-0.9-2.7-2.2-0.8c0,0-0.4,4.1,0.5,7.7c0,0,0.8,1.7,1.1-0.4C158.9,192,158.1,191.8,158.9,187.7z" /><path fill="#FFFFFF" stroke="#000000" stroke-width="0.75" stroke-miterlimit="10" d="M153.4,187.4c0,0-0.8-2.4-2-0.7c0,0-0.4,3.6,0.5,6.9c0,0,0.7,1.5,1-0.4C153.4,191.2,152.6,191,153.4,187.4z" /></g></g></g></g><g id="eyebrow"><g id="Tomoe Moon"><g display="inline"> <path  fill="#000000" d="M218.6,168c0,0,5-3.3,13.4,0.9c0,0-4-0.5-6.8,1.4"/> <path  fill="#000000" d="M218.8,167.8c-2.6,1-3.9,4.1-2.7,6.6c1,2.6,4.1,3.9,6.6,2.7 c2.6-1,3.9-4.1,2.7-6.6C224.3,168.1,221.4,166.8,218.8,167.8z M221.4,174.1c-0.9,0.3-1.8,0-2.2-0.9c-0.3-0.9,0-1.8,0.9-2.2 c0.9-0.3,1.8,0,2.2,0.9C222.7,172.7,222.2,173.7,221.4,174.1z"/> </g> <g display="inline"> <path  fill="#000000" d="M184.4,168.4c0,0-5-3.3-13.4,0.9c0,0,4-0.5,6.8,1.4"/> <path  fill="#000000" d="M184,168.2c2.6,1,3.9,4.1,2.7,6.6c-1,2.6-4.1,3.9-6.6,2.7 c-2.6-1-3.9-4.1-2.7-6.6C178.7,168.4,181.5,167.2,184,168.2z M181.6,174.5c0.9,0.3,1.8,0,2.2-0.9c0.3-0.9,0-1.8-0.9-2.2 c-0.9-0.3-1.8,0-2.2,0.9C180.2,173.1,180.7,174.1,181.6,174.5z"/> </g></g></g><g id="earrings"><g id="Circle Blood"><g display="inline" ><ellipse fill="#B50D5E" cx="137.6" cy="229.1" rx="2.5" ry="3" /></g><g display="inline" ><ellipse fill="#B50D5E" cx="291.6" cy="231.8" rx="3.4" ry="3.5" /></g></g></g><g id="hair"><g id="Flame Blood"><path display="inline" fill="#E31466" d="M292.2,168.8c-2.7,2.1-7.7,6-10.4,8.1c3.5-8,7-18.9,7.2-24c-2.4,1.6-6.8,4.7-9.3,4.1 c3.9-12.3,4.2-11.6,4.6-24.2c-2.5,2-8.9,9.3-11.5,11.2c0.5-5.9,0.8-14.3,1.4-20.1c-3.3,3.4-7.6,2.6-12.5,4c-0.5-5,1.3-7,3.5-11.6 c-9.8,4-24.7,6-34.9,8.6c-0.1-2.4-0.6-6.3,0.7-8.1c-10.4,5-26.7,9.3-31.8,12.4c-4.1-2.8-16.9-9.3-19.7-12.9 c-0.1,1.6,0.7,8,0.6,9.6c-5.4-3.8-6.2-3-12-6.8c0.5,2.6,0.3,3.6,0.8,6.2c-7.2-2.8-14.4-5.7-21.6-8.5c1.8,4,3.5,8,5.3,12 c-3.6,0.6-9.9-1.8-12-4.9c-3,7.8-0.1,12.2,0,20.5c-2-2-3.9-6.4-5.4-8.6c0.5,9.6,1,19.1,1.6,28.7c-1.6-0.6-2.7-2-3.1-3.5 c-0.1,5.8,2.6,20.6,4,26.4c-0.8-0.8-5.5-10.9-5.7-12.1c4.3,7.9,4.1,10.5,5.4,26.3c0.9-0.9-5.5-17-8-19.4 c-1.7-15.4-5.3-33.7-9.1-48.8c2,3.6,3.9,7.3,5.8,11c-0.7-13.8-0.7-27.6-0.1-41.4c-0.2,5.9,0.7,11.9,2.6,17.4 c0.5-11.3,2.2-22.4,5.2-33.3c-0.1,4.1,0.4,8.1,1.6,12c2.8-10,6.3-19.8,10.3-29.3c0.8,4.7,1.7,9.4,2.4,14.1 c3.6-9.9,7.9-15.5,14.6-23.7c0.2,4,0.4,7.8,0.7,11.8c6.9-8.9,15-16.8,24.1-23.2c-0.5,4.4-1,8.8-1.6,13.1 c6.1-5.7,11.7-9.7,17.8-15.4c0.3,4.4,1.3,7,1.6,11.5c4-5.4,8.1-9.6,12.1-15c1.4,6.1,2,11.3,2.2,17.6c4.8-4.7,8.1-10,8.4-16.7 c4.2,7.4,7.9,10.6,9.8,18.9c2.5-8.4,4.8-11,4.7-19.8c4.4,10.1,6.8,14.3,9.6,24c0.9-4.6,4.1-11.5,5-16c6.3,6.7,9.1,14.6,12.4,23 c0.7-7.6,5.7-10.6,3.5-17.9c6.5,10.7,4.6,15.2,8.6,27.7c2.9-5.3,4.4-13.3,5.5-19.4c2.7,8,7.7,23.1,9.4,31.5 c0.7-2.7,3.1-3.3,3.5-9.9c2.8,7.7,3.3,8.4,3.5,23.4c1.1-7.4,4.3-3.3,4.5-10.8c3.8,9.6,1.4,14.8,0.4,22.6c-0.1,0.9,4.2-0.4,5.1-1.5 c1-1.3-2.1,12.4-2.8,14.3c-0.5,1.4-1.9,2.7-1.4,8.4c2.2-3.1,2.5-3,4.3-6.4c1.3,11.3-2.3,6-4.7,25.5c1.9-2.5,3.9-1.1,5.6-3.5 c-2.8,7.8-0.4,9.8-6.9,14c-3.3,2.1-11.2,10.3-14.2,13.5c1.6-3.3-2.9,9.8-8.2,18.8C284.5,199.5,289.7,170.7,292.2,168.8z"/></g></g><g id="accessory"><g id="Power Stick"><g display="inline" ><path stroke="#000000" stroke-miterlimit="10" d="M279.7,105.3l21.9-26.8c-0.1-0.8-2.8-7.3-10.8-8.8l-21.9,26.8C270.8,101.9,274.2,105.2,279.7,105.3z" /><g><path d="M279.6,109.5c-1.7,0.2-3.5,0.1-5.2-0.3s-3.3-1.3-4.8-2.3c-1.4-1-2.6-2.4-3.5-4c-0.5-0.7-0.8-1.6-1.1-2.4c-0.3-0.8-0.5-1.7-0.7-2.5c0.4,0.7,0.7,1.6,1.1,2.3c0.4,0.7,0.8,1.5,1.4,2.1c0.9,1.4,2.2,2.5,3.4,3.5c1.4,1,2.8,1.8,4.4,2.4C276.1,109,277.8,109.3,279.6,109.5z" /></g></g><g id="Power_Head" display="inline" ><path stroke="#000000" stroke-miterlimit="10" d="M147.2,105.1l-21.9-26.8c0.1-0.8,2.8-7.3,10.8-8.8l21.8,26.8C156,101.9,152.7,105,147.2,105.1z" /><g><path d="M147.2,109.4c1.7-0.1,3.3-0.5,4.9-1.1c1.6-0.5,3-1.4,4.4-2.4s2.5-2.2,3.4-3.5c0.5-0.6,0.9-1.5,1.4-2.1c0.4-0.7,0.7-1.6,1.1-2.3c-0.2,0.8-0.4,1.7-0.7,2.5s-0.6,1.7-1.1,2.4c-0.8,1.6-2.1,2.8-3.5,4c-1.5,1-3,1.9-4.8,2.3C150.8,109.6,149,109.7,147.2,109.4z" /></g></g></g></g><g id="mask"><g id="Strap Pure"><g><path id="Classic" d="M174.76,306.81s22.1,16.3,86.9.5c0,0-.5-15.3,4.6-47.1l16.5-21.3s-46-28.7-83.5-38.3c-1.1-.3-3.1-.7-4.2-.2-19.9,8.4-54.1,34.8-54.1,34.8s9,20.8,10.8,23.4c1.4,2,23.1,18.5,23.1,18.5s.7.2.7.3C175.76,278.61,177.06,286.71,174.76,306.81Z" transform="translate(0 0.5)" fill="#F2F2F2" stroke="#000" stroke-miterlimit="10"/><path d="M199.5,231.6l-8.2-3.6a.71.71,0,0,1-.2-1.1l3.3-3.4a1.53,1.53,0,0,1,1.6-.3l13.2,4.8a.75.75,0,0,1-.1,1.4l-9.1,2.5C199.8,231.7,199.5,231.7,199.5,231.6Zm-24,46.6s26.5,36.4,43.2,32,43.7-21.8,43.7-21.8c1.3-9.1,2.2-19.7,3.3-28.7-4.8,4.9-13.3,13.8-21.8,19.1-5.2,3.2-22.1,15.1-36.4,16.7C200,296.3,175.5,278.2,175.5,278.2Z" transform="translate(0 0.5)" opacity="0.21" style="isolation: isolate"/> <path d="M142.2,237.5c35.7-22.7,64-30.2,98.5-21.1m30.6,36.9c-21.9-16.9-64.5-38-78.5-32.4-13.3,7.4-37,18-46.8,25.3m88-15.4c-33.8,2.6-57.2.1-84.7,23.6m115.5,7.2c-20.5-14.5-48.7-25.1-73.9-27m23,3.8c-19.3,2-43.6,11.7-59.1,22.8m106.1,4.2c-47.9-12.4-52.5-26.6-98,2.8m69.2-11.5c-20.7.3-43.9,9.9-63.3,16.4m72.4,7.2c-11.5-4.1-40.1-14.8-52.5-14.2m28.3,6c-10.7-2.9-24,7.9-32,13.1m39.3,4.8c-4-5.7-23-7.4-28.1-11.9M175.5,302c4.3,3.8,21.4,7.3,39.5,7.2,18.5-.1,38.1-4,46.6-8.6M176.4,294c11.6,3.8,18.2,7.3,38.1,5.9,15.1-1,34.3-4,47.8-10.7m-38.25.63c9.4,0,29.85-4.63,38.65-7.53m-21.8-2c3.4.4,20-5.4,23.6-6.8m-47-60.8a141,141,0,0,0-19.8-3.2c-5-.3-15.5-.2-20.6.6" transform="translate(0 0.5)" fill="none" stroke="#000" stroke-miterlimit="10"/> </g></g></g></svg>