<svg version="1.1" xmlns="http://www.w3.org/2000/svg" x="0px" y="0px" xmlns:xlink="http://www.w3.org/1999/xlink" viewBox="0 0 420 420" style="enable-background:new 0 0 420 420;" xml:space="preserve"><g id="background"><g id="Ordinary"><radialGradient id="radial-gradient" cx="210" cy="212" r="210" gradientTransform="matrix(1, 0, 0, -1, 0, 422)" gradientUnits="userSpaceOnUse"> <stop offset="0" stop-color="#726680"/> <stop offset="1" stop-color="#4a4a4a"/> </radialGradient><path d="M389.9,419.5H30.1a30,30,0,0,1-30-30V29.5a30,30,0,0,1,30-30H390a30,30,0,0,1,30,30v360A30.11,30.11,0,0,1,389.9,419.5Z" transform="translate(0 0.5)" fill="url(#radial-gradient)"/> <g> <path id="Main_Spin" fill="#323232" stroke="#323232" stroke-miterlimit="10" d="M210,63.3c-192.6,3.5-192.6,290,0,293.4 C402.6,353.2,402.6,66.7,210,63.3z M340.8,237.5c-0.6,2.9-1.4,5.7-2.2,8.6c-43.6-13.6-80.9,37.8-54.4,75.1 c-4.9,3.2-10.1,6.1-15.4,8.8c-33.9-50.6,14.8-117.8,73.3-101.2C341.7,231.7,341.4,234.6,340.8,237.5z M331.4,265.5 c-7.9,17.2-19.3,32.4-33.3,44.7c-15.9-23.3,7.6-55.7,34.6-47.4C332.3,263.7,331.8,264.6,331.4,265.5z M332.5,209.6 C265,202.4,217,279,252.9,336.5c-5.8,1.9-11.7,3.5-17.7,4.7c-40.3-73.8,24.6-163.5,107.2-148c0.6,6,1.2,12.2,1.1,18.2 C339.9,210.6,336.2,210,332.5,209.6z M87.8,263.9c28.7-11.9,56,24,36.3,48.4C108.5,299.2,96.2,282.5,87.8,263.9z M144.3,312.7 c17.8-38.8-23.4-81.6-62.6-65.5c-1.7-5.7-2.9-11.5-3.7-17.4c60-20.6,112.7,49.4,76,101.5c-5.5-2.4-10.7-5.3-15.6-8.5 C140.7,319.6,142.7,316.3,144.3,312.7z M174.2,330.4c32.6-64-28.9-138.2-97.7-118c-0.3-6.1,0.4-12.4,0.9-18.5 c85-18.6,151.7,71.7,110.8,147.8c-6.1-1-12.2-2.4-18.1-4.1C171.6,335.3,173,332.9,174.2,330.4z M337,168.6c-7-0.7-14.4-0.8-21.4-0.2 c-43.1-75.9-167.4-75.9-210.7-0.2c-7.3-0.6-14.9,0-22.1,0.9C118.2,47.7,301.1,47.3,337,168.6z M281.1,175.9c-3,1.1-5.9,2.3-8.7,3.6 c-29.6-36.1-93.1-36.7-123.4-1.2c-5.8-2.5-11.9-4.5-18-6.1c36.6-50.4,122.9-50,159,0.7C286.9,173.8,284,174.8,281.1,175.9z M249.6,193.1c-2.4,1.8-4.7,3.6-7,5.6c-16.4-15.6-46-16.4-63.2-1.5c-4.7-3.8-9.6-7.3-14.7-10.5c23.9-24.1,69.1-23.5,92.2,1.3 C254.4,189.6,252,191.3,249.6,193.1z M211.9,239.2c-5.2-10.8-11.8-20.7-19.7-29.4c10.7-8.1,27.9-7.3,37.9,1.6 C222.8,219.7,216.7,229.1,211.9,239.2z"> <animateTransform attributeName="transform" begin="0s" dur="20s" type="rotate" from="-360 210 210" to="0 210 210" repeatCount="indefinite" /> </path> <g id="Spin_Inverse"> <circle fill="none" stroke="#323232" stroke-width="7" stroke-dasharray="22.2609,22.2609" cx="210" cy="210" r="163"> <animateTransform attributeName="transform" begin="0s" dur="20s" type="rotate" from="360 210 210" to="0 210 210" repeatCount="indefinite" /> </circle> </g> <g id="Spin"> <circle fill="none" stroke="#323232" stroke-width="7" stroke-dasharray="22.2041,22.2041" cx="210" cy="210" r="183.8"> <animateTransform attributeName="transform" begin="0s" dur="20s" type="rotate" from="-360 210 210" to="0 210 210" repeatCount="indefinite" /> </circle> </g> </g></g></g><g id="body"><g id="Yokai"><path id="Neck" display="inline"  fill="#FFDAEA" stroke="#000000" stroke-width="3" stroke-linecap="round" stroke-miterlimit="10" d="M175.8,276.8c0.8,10,1.1,20.2-0.7,30.4c-0.5,2.6-2.2,4.9-4.7,6.3c-16.4,8.9-41.4,17.2-70.2,25.2c-8.1,2.3-9.5,12.4-2.1,16.4c71.9,38.5,146.3,42.5,224.4,7c7.2-3.3,7.3-12.7,0.1-16c-22.3-10.3-43.5-23.1-54.9-29.9c-3-1.8-4.8-5.2-5.1-8.3c-0.7-7.7-0.7-12.5-0.1-22.2c0.7-11.3,2.6-21.2,4.6-29.3"  /><path id="Shadow" display="inline" opacity="0.51"  enable-background="new    " d="M178.1,279c0,0,24.2,35,41,30.6s41.7-21.6,41.7-21.6c1.2-9.1,1.9-17.1,3.7-26c-4.8,4.9-10.4,9.2-18.8,14.5c-11.3,7.1-22,11.3-29.8,13.3L178.1,279z"  /><path id="Head" display="inline"  fill="#FFDAEA" stroke="#000000" stroke-width="3" stroke-linecap="round" stroke-miterlimit="10" d="M313.9,168.8c-0.6-0.8-12.2,8.3-12.2,8.3c0.3-4.9,11.8-53.1-17.3-86c-15.9-17.4-42.2-27.1-69.9-27.7c-24.5-0.5-48.7,10.9-61.6,24.4c-33.5,35-20.1,98.2-20.1,98.2c0.6,10.9,9.1,63.4,21.3,74.6c0,0,33.7,25.7,42.4,30.6c8.8,5,17.1,2.3,17.1,2.3c16-5.9,47.7-25.9,56.8-37.6l0.2-0.2c6.9-9.1,3.9-5.8,11.2-14.8c1.3-1.5,3-2.2,4.8-1.8c4.1,0.8,11.7,1.3,13.3-7c2.4-11.5,2.6-25.1,8.6-35.5C311.7,190.8,315.9,184.6,313.9,168.8z"  /><path id="Ear" display="inline"  fill="#FFDAEA" stroke="#000000" stroke-width="3" stroke-linecap="round" stroke-miterlimit="10" d="M141.9,236c0.1,1.1-8.3,3-9.7-12.1s-7.3-31-12.6-48c-3.8-12.2,12.2,6.7,12.2,6.7"  /><g id="Ear2" display="inline" ><path d="M304,174.7c-0.5,1.3-0.3,2.2-1.2,3.1c-0.9,0.8-2.3,2.1-3.2,2.9c-1.8,1.7-4.4,3-6,5s-2.9,4.1-4.2,6.3c-0.6,1-1.3,2.2-1.9,3.3l-1.7,3.4l-0.2-0.1l1.4-3.6c0.5-1.1,0.9-2.4,1.5-3.5c1.1-2.3,2.3-4.6,3.8-6.8s3-4.4,5.1-5.9c1-0.8,2.2-1.5,3.2-2.1c1.1-0.6,2.2-1.1,3.1-2L304,174.7z" /></g><g id="Body" display="inline" ><g><path d="M222.2,339.7c18.6-1.3,37.3-2,55.9-2C259.5,339,240.9,339.8,222.2,339.7z" /></g><g><path d="M142.3,337.2c16.9,0.1,33.7,1,50.6,2.3C176,339.2,159.3,338.5,142.3,337.2z" /></g><g><path d="M199.3,329.2c7.3,14.3,4.6,10.4,17.1,0.1C207.5,339,204.7,346.2,199.3,329.2z" /></g><path opacity="0.19"  enable-background="new    " d="M199.3,329.2c0,0,3.5,9.3,5.3,10.1c1.8,0.8,11.6-10,11.6-10C209.9,330.9,204,331.1,199.3,329.2z" /></g> <line x1="132.69" y1="184.23" x2="130.73" y2="182.28" fill="#e31466" stroke="#000" stroke-linecap="round" stroke-miterlimit="10" stroke-width="2"/></g></g><g id="mark"><g id="Dark Circle"><g display="inline" ><path d="M163,210.9c4.8,0.2,9.5-1.4,13.9-3.3C173,210.4,167.7,211.7,163,210.9z" /><path d="M159,210.1c-2.4-0.4-4.7-1.7-6.7-3.1C154.5,207.9,156.8,209,159,210.1z" /></g><g display="inline" ><path d="M236.6,210.4c5.3,0.1,10.5-1.5,15.3-3.5C247.8,209.8,241.9,211.1,236.6,210.4z" /><path d="M232.1,209.6c-2.7-0.4-5.2-1.6-7.3-3C227.3,207.5,229.8,208.6,232.1,209.6z" /></g></g></g><g id="mouth"><g id="Neutral"><g display="inline" ><path d="M177.1,251.1c3.6-0.2,7.4-0.1,11,0s7.4,0.3,10.9,0.9c-3.6,0.3-7.4,0.3-11,0.2C184.4,252.1,180.7,251.8,177.1,251.1z" /></g><g display="inline" ><path d="M203.5,251.9c10.1-0.7,19.1,0.1,29.2-1.3C222.6,253.7,213.9,252.6,203.5,251.9z" /></g><g display="inline" ><path d="M196.7,261.5c0.9,0.5,2.1,0.9,2.9,1.1c0.8,0.2,2.1,0.4,2.9,0.5c0.8,0.1,2.1,0,3.1-0.1s2.1-0.5,3.1-0.9c-0.8,0.8-1.9,1.5-2.8,1.9c-1.1,0.3-2.3,0.5-3.3,0.4c-1.1-0.1-2.3-0.3-3.2-0.9C198.5,263.1,197.4,262.5,196.7,261.5z" /></g></g></g><g id="nose"><g id="Nosetril"><path display="inline" stroke="#000000" stroke-width="0.75" stroke-miterlimit="10" d="M196.4,229.2c-0.4,0.3-2.1-0.9-4.1-2.5c-1.9-1.6-3-2.7-2.6-2.9c0.4-0.3,2.5,0,4.2,1.8C195.4,227.2,196.8,228.8,196.4,229.2z"  /><path display="inline" stroke="#000000" stroke-width="0.75" stroke-miterlimit="10" d="M206.5,228.7c0.3,0.4,2.2-0.3,4.2-1.7c2-1.5,3.5-2,3.2-2.4s-2.5-0.7-4.5,0.7C207.4,226.9,206.1,228.2,206.5,228.7z"  /></g></g><g id="eyes"><g id="Scribble"><polyline display="inline" fill="none" stroke="#000000" stroke-linecap="round" stroke-miterlimit="10" points="225.3,188.1 256.3,188.1 225.3,192.5 254.5,192.5 226.9,196 251.4,196 "  /><polyline display="inline" fill="none" stroke="#000000" stroke-linecap="round" stroke-miterlimit="10" points="148.1,188.1 179,188.1 148.1,192.5 177.3,192.5 149.5,196 174,196 "  /></g></g><g id="eyebrow"><g id="Thick Blood"><g id="Thick_L" > <path  fill="#B50D5E" d="M213.7,173.6c-0.6-1.4,0.1-3.1,1.6-3.5c1.7-0.5,4.3-1.2,7.5-1.7 c1.5-0.3,13.2-4.2,14.4-4.9c0.2,0.9-6.2,4.1-4.9,3.9c7.3-1.2,14.7-2.2,18.1-2c3.6,0.1,6.4,0.4,9,1.2c0.6,0.2,5.3,1.1,5.9,1.4 c0.4,0.2-3-0.1-2.6,0.1c1.9,0.9,3.6,1.9,5.1,3c0,0-28,4.7-40.5,5.3C217.3,176.8,215,176.6,213.7,173.6z"/> </g> <g id="Thick_R" > <path  fill="#B50D5E" d="M187.1,173.7c0.6-1.4-0.1-3.1-1.6-3.5c-6.2-1.9-8.9-2-7.3-1.7 c-1.5-0.3-12.4-4.7-13.7-5.3c-0.2,0.9,5.6,4.6,4.5,4.4c-7.1-1.2-14.2-2.2-17.5-2c-3.5,0.1-6.2,0.4-8.7,1.2 c-0.6,0.2-5.1,1.1-5.7,1.4c-0.4,0.2,2.9-0.1,2.5,0.1c-1.8,0.9-3.5,1.9-4.9,3c0,0,27.1,4.7,39.3,5.3 C183.6,176.9,185.9,176.7,187.1,173.7z"/> </g></g></g><g id="earrings"><g id="Circle Moon"><g display="inline" ><ellipse cx="137.6" cy="229.1" rx="2.5" ry="3" /></g><g display="inline" ><ellipse cx="291.6" cy="231.8" rx="3.4" ry="3.5" /></g></g></g><g id="hair"><g id="Hair Blood"><g ><polygon fill="#E31466" points="188.1,115.5 198.2,119 211.1,115.2 197.7,104.1 "/><polygon opacity="0.5" enable-background="new    " points="188.3,115.6 198.2,119 211.6,115.1 197.6,104.5 "/><path fill="#E31466" stroke="#000000" stroke-width="2" stroke-miterlimit="10" d="M273.7,200.6c4.2-5.9,10.1-12.8,10.5-18.3c1.1,3.2,2,11.7,1.5,15.8c0,0,5.7-10.8,10.6-15.6c6.4-6.3,13.9-10.2,17.2-14.4c2.3,6.4,1.4,15.3-4.7,28.1c0,0,0.4,9.2-0.7,15.3c3.3-5.9,12.8-36.2,8.5-61.6c0,0,3.7,9.3,4.4,16.9s3.1-32.8-7.7-51.4c0,0,6.9,3.9,10.8,4.8c0,0-12.6-12.5-13.6-15.9c0,0-14.1-25.7-39.1-34.6c0,0,9.3-3.2,15.6,0.2c-0.1-0.1-15.1-12.2-34.2-7.1c0,0-15.1-13.6-42.6-12.3l15.6,8.8c0,0-12.9-0.9-28.4-1.3c-6.1-0.2-21.8,3.3-38.3-1.4c0,0,7.3,7.2,9.4,7.7c0,0-30.6,13.8-47.3,34.2c0,0,10.7-8.9,16.7-10.9c0,0-26,25.2-31.5,70c0,0,9.2-28.6,15.5-34.2c0,0-10.7,27.4-5.3,48.2c0,0,2.4-14.5,4.9-19.2c-1,14.1,2.4,33.9,13.8,47.8c0,0-3.3-15.8-2.2-21.9l8.8-17.9c0.1,4.1,1.3,8.1,3.1,12.3c0,0,13-36.1,19.7-43.9c0,0-2.9,15.4-1.1,29.6c0,0,7.2-26.8,17.3-40.1c0,0,0.8,0.1,17.6-7.6c6.3,3.1,8,1.4,17.9,7.7c4.1,5.3,13.8,31.9,15.6,41.5c3.4-7.3,5.6-19,5.2-29.5c2.7,3.7,8.9,19.9,9.6,34.3c4.3-6,6.4-27.8,5.9-29c0,1.2,0.2,14.8,0.3,14.3c0,0,12.1,19.9,14.9,19.7c0-0.8-1.7-12.9-1.7-12.8c1.3,5.8,2.8,23.3,3.1,27.1l5-9.5C274.6,176.2,275.4,194.5,273.7,200.6z"/><g><path fill="none" stroke="#000000" stroke-width="0.5" stroke-miterlimit="10" d="M295.2,182.2"/><path fill="none" stroke="#000000" stroke-width="0.5" stroke-miterlimit="10" d="M286.6,200.9"/><path fill="none" stroke="#000000" stroke-width="2" stroke-linecap="round" stroke-miterlimit="10" d="M133.1,181.3c0,0-1.3-11.3,0.3-16.9"/><path fill="none" stroke="#000000" stroke-width="2" stroke-linecap="round" stroke-miterlimit="10" d="M142.1,160.9c0,0-1-6.5,1.6-20.4"/></g></g><g  id="Shadow"><path opacity="0.2"  enable-background="new    " d="M180.5,119.1c0,0-15.9,23.7-16.9,25.6s0,12.4,0.3,12.8S165.7,142.5,180.5,119.1z"/><path opacity="0.2" enable-background="new    " d="M164.5,128.9c0,0-16.3,25.3-17.9,26.3c0,0-3.8-12.8-3-14.7s-9.6,10.3-9.9,17c0,0-8.4-0.6-11-7.4c-1-2.5,1.4-9.1,2.1-12.2c0,0-6.5,7.9-9.4,22.5c0,0,0.6,8.8,1.1,10c0,0,3.5-14.8,4.9-17.7c0,0-0.3,33.3,13.6,46.7c0,0-3.7-18.6-2.6-21l9.4-18.6c0,0,2.1,10.5,3.1,12.3l13.9-33.1L164.5,128.9z"/><path opacity="0.16" enable-background="new    " d="M253.2,146.8c0.8,4.4,8.1,12.1,13.1,11.7l1.6,11c0,0-5.2-3.9-14.7-19.9V146.8z"/><path opacity="0.16" enable-background="new    " d="M237.5,130.3c0,0,4.4,3,13.9,21.7c0,0-4.3,12-4.6,12.4C246.5,164.8,248.4,153.7,237.5,130.3z"/><path opacity="0.17" enable-background="new    " d="M220.9,127.6c0,0,5.2,4,14.4,23c0,0-1.2,4.6-3.1,8.9C227.6,143.3,227,140.8,220.9,127.6z"/><path opacity="0.2" enable-background="new    " d="M272,143.7c-2.4,8.1-3.6,13.8-4.9,17.9c0,0,1.3,12.8,2.1,22.2c4.7-8.4,4.7-8.4,5.4-9c0.2,0.6,3.1,11.9-1.2,26.6c5.1-6.7,10.4-14.9,11-21.3c1.1,3.7,1.7,15,1.2,19.1c0,0,7.1-7.4,12.3-11.3c0,0,8.7-3.5,12.5-7.2c0,0,2.2,1.4-1.2,11.6l3.7-8c0,0-2.7,19.9-3.4,22.5c0,0,9.8-33.3,7.2-58c0,0,4.7,8.3,4.9,17.1c0.1,8.8,1.7-8.6,0.2-17.8c0,0-6.5-13.9-8.2-15.4c0,0,1.3,10.1,0.4,13.6c0,0-7.3-10.3-10.5-12.5c0,0,1.1,30.2-1.7,35.3c0,0-6.1-17-10.7-20.8c0,0-2.4,20.9-5.6,28.1C283.6,174.1,280.4,157.8,272,143.7z"/><path opacity="0.14" enable-background="new    " d="M198.1,106.1c-0.9-3.9,3.2-35.1,34.7-36C227.5,69.4,198.8,90.7,198.1,106.1z"/></g><g id="Light" opacity="0.64"> <path d="M128,115.68s9.5-20.6,23.5-27.7A231.28,231.28,0,0,0,128,115.68Z" transform="translate(-0.48 0.37)" fill="#fff"/> <path d="M302.32,118.62s-12.77-26.38-29.75-35A151.52,151.52,0,0,1,302.32,118.62Z" transform="translate(-0.48 0.37)" fill="#fff"/> <path d="M251.35,127.49s-9.25-18.73-11.63-21.13,5,1.76,12.17,20.33" transform="translate(-0.48 0.37)" fill="#fff"/> <path d="M168.21,103.68s-10.66,10.79-16,23.94C157.36,118,168.21,103.68,168.21,103.68Z" transform="translate(-0.48 0.37)" fill="#fff"/> <path d="M170,126.1s7.5-21.3,8.4-22.5-12.6,11.4-13.1,18c0,0,9-12.8,9.5-13.5S168.8,121.8,170,126.1Z" transform="translate(-0.48 0.37)" fill="#fff"/> <path d="M233.09,127.55s-7.5-21.3-8.4-22.5,12.6,11.4,13.1,18c0,0-9-12.8-9.5-13.5S234.29,123.25,233.09,127.55Z" transform="translate(-0.48 0.37)" fill="#fff"/> </g></g></g><g id="accessory"><g id="Horn Blood"><g><path d="M255.6,94.5s36.9-18,49.2-42.8c0,0-1.8,38.5-25.6,68.6C267.8,114.5,259.6,105.9,255.6,94.5Z" transform="translate(0 0.5)" fill="#E31466" stroke="#000" stroke-miterlimit="10" /> <path d="M256.7,94.8c-.1.2,4.3,18.1,22.8,24.4" transform="translate(0 0.5)" fill="none" stroke="#E31466" stroke-miterlimit="10" stroke-width="2"/> </g> <g> <path d="M160.5,94s-36.9-18.1-49.2-43c0,0,1.8,38.6,25.6,68.9C148.3,114.1,156.5,105.4,160.5,94Z" transform="translate(0 0.5)" fill="#E31466" stroke="#000" stroke-miterlimit="10" /> <path d="M159.7,94.1c.1.2-5.1,19-22.9,24.5" transform="translate(0 0.5)" fill="none" stroke="#E31466" stroke-miterlimit="10" stroke-width="2"/></g></g></g><g id="mask"><g id="Power sticks"><path style="fill:#000000;stroke:#000000;stroke-miterlimit:10;" d="M276.3,325.2l9.2-20.2c0.5-0.2,5-0.4,8.1,3.8l-9.3,20.1C280.7,329.3,277.8,328.2,276.3,325.2z"/><ellipse transform="matrix(0.4183 -0.9083 0.9083 0.4183 -110.5579 441.5047)" style="fill:#000000;" cx="289.4" cy="307.1" rx="1.7" ry="4.4"/><path d="M273.9,326.4c2.6,3.8,6.4,5.6,10.9,5.5C280.5,333.5,275,331.1,273.9,326.4z"/><path style="fill:#000000;stroke:#000000;stroke-miterlimit:10;" d="M304,341.3l9.9-19.9c0.5-0.1,5-0.3,7.9,4.1l-9.9,19.8C308.3,345.6,305.4,344.5,304,341.3z"/><ellipse transform="matrix(0.4485 -0.8938 0.8938 0.4485 -113.8785 462.7307)" style="fill:#000000;" cx="318" cy="323.6" rx="1.7" ry="4.4"/><path d="M301.6,342.6c2.5,3.9,6.3,5.8,10.8,6C308.1,350,302.6,347.2,301.6,342.6z"/> <path style="fill:#000000;stroke:#000000;stroke-miterlimit:10;" d="M154.7,323.7l-7.1-21.1c-0.4-0.2-4.9-0.9-8.4,2.9l7.1,21.1C150,327.3,152.9,326.6,154.7,323.7z"/><ellipse transform="matrix(0.9467 -0.322 0.322 0.9467 -90.3736 62.4201)" style="fill:#000000;" cx="143.5" cy="304.4" rx="4.4" ry="1.7"/><path d="M157.1,325.2c-1.7,4.4-7.2,6.4-11.5,4.5C150,330.3,154.2,328.7,157.1,325.2z"/><path style="fill:#000000;stroke:#000000;stroke-miterlimit:10;" d="M122.5,334.4l-7.7-20.8c-0.4-0.2-4.9-0.8-8.3,3.1l7.8,20.7C117.9,338.2,120.6,337.3,122.5,334.4z"/> <ellipse transform="matrix(0.9364 -0.3508 0.3508 0.9364 -103.5719 58.8717)" style="fill:#000000;" cx="110.7" cy="315.3" rx="4.4" ry="1.7"/><path d="M124.8,335.9c-1.4,4.4-6.9,6.8-11.2,4.8C117.9,341.1,122.2,339.3,124.8,335.9z"/></g></g></svg>