<svg version="1.1" xmlns="http://www.w3.org/2000/svg" x="0px" y="0px" xmlns:xlink="http://www.w3.org/1999/xlink" viewBox="0 0 420 420" style="enable-background:new 0 0 420 420;" xml:space="preserve"><g id="background"><g id="Surprising"><radialGradient id="radial-gradient" cx="210" cy="212" r="210" gradientTransform="matrix(1, 0, 0, -1, 0, 422)" gradientUnits="userSpaceOnUse"> <stop offset="0" stop-color="#4195ad"/> <stop offset="1" stop-color="#2b6375"/> </radialGradient><path d="M389.9,419.5H30.1a30,30,0,0,1-30-30V29.5a30,30,0,0,1,30-30H390a30,30,0,0,1,30,30v360A30.11,30.11,0,0,1,389.9,419.5Z" transform="translate(0 0.5)" fill="url(#radial-gradient)"/> <g> <path id="Main_Spin" fill="#204b59" stroke="#204b59" stroke-miterlimit="10" d="M210,63.3c-192.6,3.5-192.6,290,0,293.4 C402.6,353.2,402.6,66.7,210,63.3z M340.8,237.5c-0.6,2.9-1.4,5.7-2.2,8.6c-43.6-13.6-80.9,37.8-54.4,75.1 c-4.9,3.2-10.1,6.1-15.4,8.8c-33.9-50.6,14.8-117.8,73.3-101.2C341.7,231.7,341.4,234.6,340.8,237.5z M331.4,265.5 c-7.9,17.2-19.3,32.4-33.3,44.7c-15.9-23.3,7.6-55.7,34.6-47.4C332.3,263.7,331.8,264.6,331.4,265.5z M332.5,209.6 C265,202.4,217,279,252.9,336.5c-5.8,1.9-11.7,3.5-17.7,4.7c-40.3-73.8,24.6-163.5,107.2-148c0.6,6,1.2,12.2,1.1,18.2 C339.9,210.6,336.2,210,332.5,209.6z M87.8,263.9c28.7-11.9,56,24,36.3,48.4C108.5,299.2,96.2,282.5,87.8,263.9z M144.3,312.7 c17.8-38.8-23.4-81.6-62.6-65.5c-1.7-5.7-2.9-11.5-3.7-17.4c60-20.6,112.7,49.4,76,101.5c-5.5-2.4-10.7-5.3-15.6-8.5 C140.7,319.6,142.7,316.3,144.3,312.7z M174.2,330.4c32.6-64-28.9-138.2-97.7-118c-0.3-6.1,0.4-12.4,0.9-18.5 c85-18.6,151.7,71.7,110.8,147.8c-6.1-1-12.2-2.4-18.1-4.1C171.6,335.3,173,332.9,174.2,330.4z M337,168.6c-7-0.7-14.4-0.8-21.4-0.2 c-43.1-75.9-167.4-75.9-210.7-0.2c-7.3-0.6-14.9,0-22.1,0.9C118.2,47.7,301.1,47.3,337,168.6z M281.1,175.9c-3,1.1-5.9,2.3-8.7,3.6 c-29.6-36.1-93.1-36.7-123.4-1.2c-5.8-2.5-11.9-4.5-18-6.1c36.6-50.4,122.9-50,159,0.7C286.9,173.8,284,174.8,281.1,175.9z M249.6,193.1c-2.4,1.8-4.7,3.6-7,5.6c-16.4-15.6-46-16.4-63.2-1.5c-4.7-3.8-9.6-7.3-14.7-10.5c23.9-24.1,69.1-23.5,92.2,1.3 C254.4,189.6,252,191.3,249.6,193.1z M211.9,239.2c-5.2-10.8-11.8-20.7-19.7-29.4c10.7-8.1,27.9-7.3,37.9,1.6 C222.8,219.7,216.7,229.1,211.9,239.2z"> <animateTransform attributeName="transform" begin="0s" dur="20s" type="rotate" from="-360 210 210" to="0 210 210" repeatCount="indefinite" /> </path> <g id="Spin_Inverse"> <circle fill="none" stroke="#204b59" stroke-width="7" stroke-dasharray="22.2609,22.2609" cx="210" cy="210" r="163"> <animateTransform attributeName="transform" begin="0s" dur="20s" type="rotate" from="360 210 210" to="0 210 210" repeatCount="indefinite" /> </circle> </g> <g id="Spin"> <circle fill="none" stroke="#204b59" stroke-width="7" stroke-dasharray="22.2041,22.2041" cx="210" cy="210" r="183.8"> <animateTransform attributeName="transform" begin="0s" dur="20s" type="rotate" from="-360 210 210" to="0 210 210" repeatCount="indefinite" /> </circle> </g> </g></g></g><g id="body"><g id="Yokai"><path id="Neck" display="inline"  fill="#FFDAEA" stroke="#000000" stroke-width="3" stroke-linecap="round" stroke-miterlimit="10" d="M175.8,276.8c0.8,10,1.1,20.2-0.7,30.4c-0.5,2.6-2.2,4.9-4.7,6.3c-16.4,8.9-41.4,17.2-70.2,25.2c-8.1,2.3-9.5,12.4-2.1,16.4c71.9,38.5,146.3,42.5,224.4,7c7.2-3.3,7.3-12.7,0.1-16c-22.3-10.3-43.5-23.1-54.9-29.9c-3-1.8-4.8-5.2-5.1-8.3c-0.7-7.7-0.7-12.5-0.1-22.2c0.7-11.3,2.6-21.2,4.6-29.3"  /><path id="Shadow" display="inline" opacity="0.51"  enable-background="new    " d="M178.1,279c0,0,24.2,35,41,30.6s41.7-21.6,41.7-21.6c1.2-9.1,1.9-17.1,3.7-26c-4.8,4.9-10.4,9.2-18.8,14.5c-11.3,7.1-22,11.3-29.8,13.3L178.1,279z"  /><path id="Head" display="inline"  fill="#FFDAEA" stroke="#000000" stroke-width="3" stroke-linecap="round" stroke-miterlimit="10" d="M313.9,168.8c-0.6-0.8-12.2,8.3-12.2,8.3c0.3-4.9,11.8-53.1-17.3-86c-15.9-17.4-42.2-27.1-69.9-27.7c-24.5-0.5-48.7,10.9-61.6,24.4c-33.5,35-20.1,98.2-20.1,98.2c0.6,10.9,9.1,63.4,21.3,74.6c0,0,33.7,25.7,42.4,30.6c8.8,5,17.1,2.3,17.1,2.3c16-5.9,47.7-25.9,56.8-37.6l0.2-0.2c6.9-9.1,3.9-5.8,11.2-14.8c1.3-1.5,3-2.2,4.8-1.8c4.1,0.8,11.7,1.3,13.3-7c2.4-11.5,2.6-25.1,8.6-35.5C311.7,190.8,315.9,184.6,313.9,168.8z"  /><path id="Ear" display="inline"  fill="#FFDAEA" stroke="#000000" stroke-width="3" stroke-linecap="round" stroke-miterlimit="10" d="M141.9,236c0.1,1.1-8.3,3-9.7-12.1s-7.3-31-12.6-48c-3.8-12.2,12.2,6.7,12.2,6.7"  /><g id="Ear2" display="inline" ><path d="M304,174.7c-0.5,1.3-0.3,2.2-1.2,3.1c-0.9,0.8-2.3,2.1-3.2,2.9c-1.8,1.7-4.4,3-6,5s-2.9,4.1-4.2,6.3c-0.6,1-1.3,2.2-1.9,3.3l-1.7,3.4l-0.2-0.1l1.4-3.6c0.5-1.1,0.9-2.4,1.5-3.5c1.1-2.3,2.3-4.6,3.8-6.8s3-4.4,5.1-5.9c1-0.8,2.2-1.5,3.2-2.1c1.1-0.6,2.2-1.1,3.1-2L304,174.7z" /></g><g id="Body" display="inline" ><g><path d="M222.2,339.7c18.6-1.3,37.3-2,55.9-2C259.5,339,240.9,339.8,222.2,339.7z" /></g><g><path d="M142.3,337.2c16.9,0.1,33.7,1,50.6,2.3C176,339.2,159.3,338.5,142.3,337.2z" /></g><g><path d="M199.3,329.2c7.3,14.3,4.6,10.4,17.1,0.1C207.5,339,204.7,346.2,199.3,329.2z" /></g><path opacity="0.19"  enable-background="new    " d="M199.3,329.2c0,0,3.5,9.3,5.3,10.1c1.8,0.8,11.6-10,11.6-10C209.9,330.9,204,331.1,199.3,329.2z" /></g> <line x1="132.69" y1="184.23" x2="130.73" y2="182.28" fill="#e31466" stroke="#000" stroke-linecap="round" stroke-miterlimit="10" stroke-width="2"/></g></g><g id="mark"><g id="Tomoe Blood"><path d="M289,339.8h0a5,5,0,1,0,0,7.3l.4-.4v.1c2.7,1.9,3.6,5.8,3.6,5.8C293.9,343.3,289,339.8,289,339.8Zm-2.2,5a1.7,1.7,0,1,1,.1-2.4A1.72,1.72,0,0,1,286.8,344.8Z" fill="#B50D5E" /> <path d="M275.1,347.9h0a5,5,0,1,0-2.5,6.6c.1-.1.2-.1.4-.2,1.8,2.7,1.5,6.6,1.5,6.6C277.8,353.8,275.8,349.2,275.1,347.9Zm-3.9,3.5a1.62,1.62,0,0,1-2.2-.8,1.66,1.66,0,1,1,2.2.8Z" fill="#B50D5E" /> <path d="M136.6,339.1a5.08,5.08,0,0,0-6.9,0h0s-4.9,3.5-4,12.8c0,0,.9-3.9,3.6-5.8V346c.1.1.2.3.4.4a5,5,0,1,0,6.9-7.3Zm-2.2,4.9a2,2,0,0,1-2.4.1,1.7,1.7,0,1,1,2.4-.1Z" fill="#B50D5E" /> <path d="M150.5,344.6a5.14,5.14,0,0,0-6.7,2.5c0,.1-.1.1-.1.2-.7,1.4-2.5,6,.7,12.9,0,0-.3-3.9,1.5-6.6.1.1.2.1.4.2a5.06,5.06,0,0,0,4.2-9.2Zm-.7,5.3a1.66,1.66,0,1,1-.8-2.2A1.65,1.65,0,0,1,149.8,349.9Z" fill="#B50D5E" /><path d="M224.09,355.4a5.13,5.13,0,0,0-6.4-2.9,5.06,5.06,0,1,0,3.5,9.5c.1-.1.3-.1.4-.2,1.6,2.9,1,6.8,1,6.8C226.89,360.9,224.49,356,224.09,355.4Zm-4,3.5a2,2,0,0,1-2.2-1,1.71,1.71,0,1,1,2.2,1Z" fill="#B50D5E" /> <path d="M189.79,352a4.94,4.94,0,0,0-6.5,2.5h0s-3.3,5,.8,13.4c0,0-.4-4,1.4-6.8h0a.76.76,0,0,0,.4.2,5,5,0,0,0,3.9-9.3Zm-.6,5.3c-.2,1-1.2,1.3-2.2.9a1.68,1.68,0,1,1,2.2-.9Z" fill="#B50D5E" /></g></g><g id="mouth"><g id="Monster"><polyline display="inline" fill="none" stroke="#000000" stroke-width="0.5" stroke-linejoin="round" stroke-miterlimit="10" points="145.8,244.7 150,250.4 153.3,242.5 157.5,255 165.4,242.3 170.3,260.1 179.5,243 185.4,263.2 194.4,243.5 202.9,265.5 212.8,243.8 219.6,263.1 227.1,243.5 235.2,259.1 242.5,243 250.3,254.8 255.6,242.3 260.3,251.8 265.6,241.8 269.8,248.8 274.2,241 276.3,244.6 "  /></g></g><g id="nose"><g id="Kitsune Moon"><path display="inline" stroke="#000000" stroke-miterlimit="10" d="M193.2,224.9c5.1,0.6,10.3,1,16.4,0c0.4-0.1,0.7,0.5,0.3,0.8l-7.4,5.9c-0.5,0.4-1.3,0.4-1.8,0l-7.9-6C192.5,225.4,192.7,224.8,193.2,224.9z"  /></g></g><g id="eyes"><g id="Rip"><line x1="230.98" y1="182.49" x2="248.68" y2="200.19" fill="none" stroke="#000" stroke-linecap="square" stroke-miterlimit="10" stroke-width="3"/> <line x1="230.47" y1="200.87" x2="248.67" y2="183.17" fill="none" stroke="#000" stroke-linecap="square" stroke-miterlimit="10" stroke-width="3"/> <line x1="155.53" y1="182.66" x2="173.23" y2="200.36" fill="none" stroke="#000" stroke-linecap="square" stroke-miterlimit="10" stroke-width="3"/> <line x1="154" y1="200.7" x2="172.2" y2="183" fill="none" stroke="#000" stroke-linecap="square" stroke-miterlimit="10" stroke-width="3"/></g></g><g id="eyebrow"><g id="Electric Moon"><path display="inline"  fill="#000000" d="M216,176.7c14.2-2.2,47-5.6,50.4-6.6l-14.8-0.7l17.4-9.1c-17.8,7.7-37.5,12.9-56.3,13.3C213.1,174.8,214.6,176.1,216,176.7z"  /><path display="inline"  fill="#000000" d="M186.7,176.7c-12.8-2.1-44.8-5.3-48-6.3l13.5-0.9l-15.4-8.8c15.9,7.4,33.7,11.9,49,13.2C186.1,175.2,186.5,175.5,186.7,176.7z"  /></g></g><g id="earrings"><g id="Monk Blood"><g display="inline" ><g><ellipse transform="matrix(0.9952 -9.784740e-02 9.784740e-02 0.9952 -23.5819 29.5416)" fill="#B50D5E" stroke="#000000" stroke-width="1" stroke-miterlimit="10.0039" cx="289.4" cy="255.2" rx="8" ry="8.1" /><ellipse transform="matrix(1.784754e-02 -0.9998 0.9998 1.784754e-02 24.9032 543.924)" opacity="0.54"  fill="#33112E" enable-background="new    " cx="289.3" cy="259.3" rx="2.2" ry="4.9" /></g><path fill="#A5CBCC" stroke="#000000" stroke-miterlimit="10.0039" d="M283.4,250.2c3.9,0.5,8.2,0.4,12.1-0.1C295.7,250.1,289.6,243,283.4,250.2z" /><line fill="none" stroke="#000000" stroke-width="2" stroke-linecap="round" stroke-miterlimit="10.0039" x1="289.9" y1="244.7" x2="289.6" y2="247.3" /></g><g display="inline" ><g><ellipse transform="matrix(0.9952 -9.784740e-02 9.784740e-02 0.9952 -24.1729 14.6915)" fill="#B50D5E" stroke="#000000" stroke-width="1" stroke-miterlimit="10.0039" cx="137.7" cy="253.8" rx="8" ry="8.1" /><ellipse transform="matrix(1.784754e-02 -0.9998 0.9998 1.784754e-02 -122.6851 390.7122)" opacity="0.54"  fill="#33112E" enable-background="new    " cx="137.5" cy="257.8" rx="2.2" ry="4.9" /></g><path fill="#A5CBCC" stroke="#000000" stroke-miterlimit="10.0039" d="M131.8,248.8c3.9,0.5,8.1,0.4,12-0.1C143.7,248.6,138,241.6,131.8,248.8z" /><line fill="none" stroke="#000000" stroke-width="2" stroke-linecap="round" stroke-miterlimit="10.0039" x1="138" y1="243.2" x2="137.8" y2="245.8" /></g><g id="Ring" display="inline" ><path fill="none" stroke="#000000" stroke-width="2" stroke-linecap="round" stroke-linejoin="round" stroke-miterlimit="10" d="M289,234.7c0,0-4.4,2.1-3.2,6.4c1,4.3,5.3,3.8,5.6,3.6s3.2-0.9,3.1-5.2" /><path fill="none" stroke="#000000" stroke-width="2" stroke-linecap="round" stroke-linejoin="round" stroke-miterlimit="10" d="M137,232.9c0,0-4.4,2.1-3.2,6.4c1,4.3,5.3,3.8,5.6,3.6c0.3-0.1,3.3-0.6,3.2-4.8" /></g></g></g><g id="hair"><g id="Hair Moon"><g ><polygon fill="#2A2C38" points="188.1,115.5 198.2,119 211.1,115.2 197.7,104.1 "/><polygon opacity="0.5" enable-background="new    " points="188.3,115.6 198.2,119 211.6,115.1 197.6,104.5 "/><path fill="#2A2C38" stroke="#000000" stroke-width="2" stroke-miterlimit="10" d="M273.7,200.6c4.2-5.9,10.1-12.8,10.5-18.3c1.1,3.2,2,11.7,1.5,15.8c0,0,5.7-10.8,10.6-15.6c6.4-6.3,13.9-10.2,17.2-14.4c2.3,6.4,1.4,15.3-4.7,28.1c0,0,0.4,9.2-0.7,15.3c3.3-5.9,12.8-36.2,8.5-61.6c0,0,3.7,9.3,4.4,16.9s3.1-32.8-7.7-51.4c0,0,6.9,3.9,10.8,4.8c0,0-12.6-12.5-13.6-15.9c0,0-14.1-25.7-39.1-34.6c0,0,9.3-3.2,15.6,0.2c-0.1-0.1-15.1-12.2-34.2-7.1c0,0-15.1-13.6-42.6-12.3l15.6,8.8c0,0-12.9-0.9-28.4-1.3c-6.1-0.2-21.8,3.3-38.3-1.4c0,0,7.3,7.2,9.4,7.7c0,0-30.6,13.8-47.3,34.2c0,0,10.7-8.9,16.7-10.9c0,0-26,25.2-31.5,70c0,0,9.2-28.6,15.5-34.2c0,0-10.7,27.4-5.3,48.2c0,0,2.4-14.5,4.9-19.2c-1,14.1,2.4,33.9,13.8,47.8c0,0-3.3-15.8-2.2-21.9l8.8-17.9c0.1,4.1,1.3,8.1,3.1,12.3c0,0,13-36.1,19.7-43.9c0,0-2.9,15.4-1.1,29.6c0,0,7.2-26.8,17.3-40.1c0,0,0.8,0.1,17.6-7.6c6.3,3.1,8,1.4,17.9,7.7c4.1,5.3,13.8,31.9,15.6,41.5c3.4-7.3,5.6-19,5.2-29.5c2.7,3.7,8.9,19.9,9.6,34.3c4.3-6,6.4-27.8,5.9-29c0,1.2,0.2,14.8,0.3,14.3c0,0,12.1,19.9,14.9,19.7c0-0.8-1.7-12.9-1.7-12.8c1.3,5.8,2.8,23.3,3.1,27.1l5-9.5C274.6,176.2,275.4,194.5,273.7,200.6z"/><g><path fill="none" stroke="#000000" stroke-width="0.5" stroke-miterlimit="10" d="M295.2,182.2"/><path fill="none" stroke="#000000" stroke-width="0.5" stroke-miterlimit="10" d="M286.6,200.9"/><path fill="none" stroke="#000000" stroke-width="2" stroke-linecap="round" stroke-miterlimit="10" d="M133.1,181.3c0,0-1.3-11.3,0.3-16.9"/><path fill="none" stroke="#000000" stroke-width="2" stroke-linecap="round" stroke-miterlimit="10" d="M142.1,160.9c0,0-1-6.5,1.6-20.4"/></g></g><g  id="Shadow"><path opacity="0.2"  enable-background="new    " d="M180.5,119.1c0,0-15.9,23.7-16.9,25.6s0,12.4,0.3,12.8S165.7,142.5,180.5,119.1z"/><path opacity="0.2" enable-background="new    " d="M164.5,128.9c0,0-16.3,25.3-17.9,26.3c0,0-3.8-12.8-3-14.7s-9.6,10.3-9.9,17c0,0-8.4-0.6-11-7.4c-1-2.5,1.4-9.1,2.1-12.2c0,0-6.5,7.9-9.4,22.5c0,0,0.6,8.8,1.1,10c0,0,3.5-14.8,4.9-17.7c0,0-0.3,33.3,13.6,46.7c0,0-3.7-18.6-2.6-21l9.4-18.6c0,0,2.1,10.5,3.1,12.3l13.9-33.1L164.5,128.9z"/><path opacity="0.16" enable-background="new    " d="M253.2,146.8c0.8,4.4,8.1,12.1,13.1,11.7l1.6,11c0,0-5.2-3.9-14.7-19.9V146.8z"/><path opacity="0.16" enable-background="new    " d="M237.5,130.3c0,0,4.4,3,13.9,21.7c0,0-4.3,12-4.6,12.4C246.5,164.8,248.4,153.7,237.5,130.3z"/><path opacity="0.17" enable-background="new    " d="M220.9,127.6c0,0,5.2,4,14.4,23c0,0-1.2,4.6-3.1,8.9C227.6,143.3,227,140.8,220.9,127.6z"/><path opacity="0.2" enable-background="new    " d="M272,143.7c-2.4,8.1-3.6,13.8-4.9,17.9c0,0,1.3,12.8,2.1,22.2c4.7-8.4,4.7-8.4,5.4-9c0.2,0.6,3.1,11.9-1.2,26.6c5.1-6.7,10.4-14.9,11-21.3c1.1,3.7,1.7,15,1.2,19.1c0,0,7.1-7.4,12.3-11.3c0,0,8.7-3.5,12.5-7.2c0,0,2.2,1.4-1.2,11.6l3.7-8c0,0-2.7,19.9-3.4,22.5c0,0,9.8-33.3,7.2-58c0,0,4.7,8.3,4.9,17.1c0.1,8.8,1.7-8.6,0.2-17.8c0,0-6.5-13.9-8.2-15.4c0,0,1.3,10.1,0.4,13.6c0,0-7.3-10.3-10.5-12.5c0,0,1.1,30.2-1.7,35.3c0,0-6.1-17-10.7-20.8c0,0-2.4,20.9-5.6,28.1C283.6,174.1,280.4,157.8,272,143.7z"/><path opacity="0.14" enable-background="new    " d="M198.1,106.1c-0.9-3.9,3.2-35.1,34.7-36C227.5,69.4,198.8,90.7,198.1,106.1z"/></g><g id="Light" opacity="0.64"> <path d="M128,115.68s9.5-20.6,23.5-27.7A231.28,231.28,0,0,0,128,115.68Z" transform="translate(-0.48 0.37)" fill="#fff"/> <path d="M302.32,118.62s-12.77-26.38-29.75-35A151.52,151.52,0,0,1,302.32,118.62Z" transform="translate(-0.48 0.37)" fill="#fff"/> <path d="M251.35,127.49s-9.25-18.73-11.63-21.13,5,1.76,12.17,20.33" transform="translate(-0.48 0.37)" fill="#fff"/> <path d="M168.21,103.68s-10.66,10.79-16,23.94C157.36,118,168.21,103.68,168.21,103.68Z" transform="translate(-0.48 0.37)" fill="#fff"/> <path d="M170,126.1s7.5-21.3,8.4-22.5-12.6,11.4-13.1,18c0,0,9-12.8,9.5-13.5S168.8,121.8,170,126.1Z" transform="translate(-0.48 0.37)" fill="#fff"/> <path d="M233.09,127.55s-7.5-21.3-8.4-22.5,12.6,11.4,13.1,18c0,0-9-12.8-9.5-13.5S234.29,123.25,233.09,127.55Z" transform="translate(-0.48 0.37)" fill="#fff"/> </g></g></g><g id="accessory"><g id="Horn Pure"><g><path d="M255.6,94.5s36.9-18,49.2-42.8c0,0-1.8,38.5-25.6,68.6C267.8,114.5,259.6,105.9,255.6,94.5Z" transform="translate(0 0.5)" fill="#FFDAEA" stroke="#000" stroke-miterlimit="10" /> <path d="M256.7,94.8c-.1.2,4.3,18.1,22.8,24.4" transform="translate(0 0.5)" fill="none" stroke="#FFDAEA" stroke-miterlimit="10" stroke-width="2"/> </g> <g> <path d="M160.5,94s-36.9-18.1-49.2-43c0,0,1.8,38.6,25.6,68.9C148.3,114.1,156.5,105.4,160.5,94Z" transform="translate(0 0.5)" fill="#FFDAEA" stroke="#000" stroke-miterlimit="10" /> <path d="M159.7,94.1c.1.2-5.1,19-22.9,24.5" transform="translate(0 0.5)" fill="none" stroke="#FFDAEA" stroke-miterlimit="10" stroke-width="2"/></g></g></g><g id="mask"><g id="Strap Blood"><g><path id="Classic" d="M174.76,306.81s22.1,16.3,86.9.5c0,0-.5-15.3,4.6-47.1l16.5-21.3s-46-28.7-83.5-38.3c-1.1-.3-3.1-.7-4.2-.2-19.9,8.4-54.1,34.8-54.1,34.8s9,20.8,10.8,23.4c1.4,2,23.1,18.5,23.1,18.5s.7.2.7.3C175.76,278.61,177.06,286.71,174.76,306.81Z" transform="translate(0 0.5)" fill="#D9005E" stroke="#000" stroke-miterlimit="10"/><path d="M199.5,231.6l-8.2-3.6a.71.71,0,0,1-.2-1.1l3.3-3.4a1.53,1.53,0,0,1,1.6-.3l13.2,4.8a.75.75,0,0,1-.1,1.4l-9.1,2.5C199.8,231.7,199.5,231.7,199.5,231.6Zm-24,46.6s26.5,36.4,43.2,32,43.7-21.8,43.7-21.8c1.3-9.1,2.2-19.7,3.3-28.7-4.8,4.9-13.3,13.8-21.8,19.1-5.2,3.2-22.1,15.1-36.4,16.7C200,296.3,175.5,278.2,175.5,278.2Z" transform="translate(0 0.5)" opacity="0.21" style="isolation: isolate"/> <path d="M142.2,237.5c35.7-22.7,64-30.2,98.5-21.1m30.6,36.9c-21.9-16.9-64.5-38-78.5-32.4-13.3,7.4-37,18-46.8,25.3m88-15.4c-33.8,2.6-57.2.1-84.7,23.6m115.5,7.2c-20.5-14.5-48.7-25.1-73.9-27m23,3.8c-19.3,2-43.6,11.7-59.1,22.8m106.1,4.2c-47.9-12.4-52.5-26.6-98,2.8m69.2-11.5c-20.7.3-43.9,9.9-63.3,16.4m72.4,7.2c-11.5-4.1-40.1-14.8-52.5-14.2m28.3,6c-10.7-2.9-24,7.9-32,13.1m39.3,4.8c-4-5.7-23-7.4-28.1-11.9M175.5,302c4.3,3.8,21.4,7.3,39.5,7.2,18.5-.1,38.1-4,46.6-8.6M176.4,294c11.6,3.8,18.2,7.3,38.1,5.9,15.1-1,34.3-4,47.8-10.7m-38.25.63c9.4,0,29.85-4.63,38.65-7.53m-21.8-2c3.4.4,20-5.4,23.6-6.8m-47-60.8a141,141,0,0,0-19.8-3.2c-5-.3-15.5-.2-20.6.6" transform="translate(0 0.5)" fill="none" stroke="#000" stroke-miterlimit="10"/> </g></g></g></svg>