<svg version="1.1" xmlns="http://www.w3.org/2000/svg" x="0px" y="0px" xmlns:xlink="http://www.w3.org/1999/xlink" viewBox="0 0 420 420" style="enable-background:new 0 0 420 420;" xml:space="preserve"><g id="background"><g id="Ordinary"><radialGradient id="radial-gradient" cx="210" cy="212" r="210" gradientTransform="matrix(1, 0, 0, -1, 0, 422)" gradientUnits="userSpaceOnUse"> <stop offset="0" stop-color="#726680"/> <stop offset="1" stop-color="#4a4a4a"/> </radialGradient><path d="M389.9,419.5H30.1a30,30,0,0,1-30-30V29.5a30,30,0,0,1,30-30H390a30,30,0,0,1,30,30v360A30.11,30.11,0,0,1,389.9,419.5Z" transform="translate(0 0.5)" fill="url(#radial-gradient)"/> <g> <path id="Main_Spin" fill="#323232" stroke="#323232" stroke-miterlimit="10" d="M210,63.3c-192.6,3.5-192.6,290,0,293.4 C402.6,353.2,402.6,66.7,210,63.3z M340.8,237.5c-0.6,2.9-1.4,5.7-2.2,8.6c-43.6-13.6-80.9,37.8-54.4,75.1 c-4.9,3.2-10.1,6.1-15.4,8.8c-33.9-50.6,14.8-117.8,73.3-101.2C341.7,231.7,341.4,234.6,340.8,237.5z M331.4,265.5 c-7.9,17.2-19.3,32.4-33.3,44.7c-15.9-23.3,7.6-55.7,34.6-47.4C332.3,263.7,331.8,264.6,331.4,265.5z M332.5,209.6 C265,202.4,217,279,252.9,336.5c-5.8,1.9-11.7,3.5-17.7,4.7c-40.3-73.8,24.6-163.5,107.2-148c0.6,6,1.2,12.2,1.1,18.2 C339.9,210.6,336.2,210,332.5,209.6z M87.8,263.9c28.7-11.9,56,24,36.3,48.4C108.5,299.2,96.2,282.5,87.8,263.9z M144.3,312.7 c17.8-38.8-23.4-81.6-62.6-65.5c-1.7-5.7-2.9-11.5-3.7-17.4c60-20.6,112.7,49.4,76,101.5c-5.5-2.4-10.7-5.3-15.6-8.5 C140.7,319.6,142.7,316.3,144.3,312.7z M174.2,330.4c32.6-64-28.9-138.2-97.7-118c-0.3-6.1,0.4-12.4,0.9-18.5 c85-18.6,151.7,71.7,110.8,147.8c-6.1-1-12.2-2.4-18.1-4.1C171.6,335.3,173,332.9,174.2,330.4z M337,168.6c-7-0.7-14.4-0.8-21.4-0.2 c-43.1-75.9-167.4-75.9-210.7-0.2c-7.3-0.6-14.9,0-22.1,0.9C118.2,47.7,301.1,47.3,337,168.6z M281.1,175.9c-3,1.1-5.9,2.3-8.7,3.6 c-29.6-36.1-93.1-36.7-123.4-1.2c-5.8-2.5-11.9-4.5-18-6.1c36.6-50.4,122.9-50,159,0.7C286.9,173.8,284,174.8,281.1,175.9z M249.6,193.1c-2.4,1.8-4.7,3.6-7,5.6c-16.4-15.6-46-16.4-63.2-1.5c-4.7-3.8-9.6-7.3-14.7-10.5c23.9-24.1,69.1-23.5,92.2,1.3 C254.4,189.6,252,191.3,249.6,193.1z M211.9,239.2c-5.2-10.8-11.8-20.7-19.7-29.4c10.7-8.1,27.9-7.3,37.9,1.6 C222.8,219.7,216.7,229.1,211.9,239.2z"> <animateTransform attributeName="transform" begin="0s" dur="20s" type="rotate" from="-360 210 210" to="0 210 210" repeatCount="indefinite" /> </path> <g id="Spin_Inverse"> <circle fill="none" stroke="#323232" stroke-width="7" stroke-dasharray="22.2609,22.2609" cx="210" cy="210" r="163"> <animateTransform attributeName="transform" begin="0s" dur="20s" type="rotate" from="360 210 210" to="0 210 210" repeatCount="indefinite" /> </circle> </g> <g id="Spin"> <circle fill="none" stroke="#323232" stroke-width="7" stroke-dasharray="22.2041,22.2041" cx="210" cy="210" r="183.8"> <animateTransform attributeName="transform" begin="0s" dur="20s" type="rotate" from="-360 210 210" to="0 210 210" repeatCount="indefinite" /> </circle> </g> </g></g></g><g id="body"><g id="Yokai"><path id="Neck" display="inline"  fill="#FFDAEA" stroke="#000000" stroke-width="3" stroke-linecap="round" stroke-miterlimit="10" d="M175.8,276.8c0.8,10,1.1,20.2-0.7,30.4c-0.5,2.6-2.2,4.9-4.7,6.3c-16.4,8.9-41.4,17.2-70.2,25.2c-8.1,2.3-9.5,12.4-2.1,16.4c71.9,38.5,146.3,42.5,224.4,7c7.2-3.3,7.3-12.7,0.1-16c-22.3-10.3-43.5-23.1-54.9-29.9c-3-1.8-4.8-5.2-5.1-8.3c-0.7-7.7-0.7-12.5-0.1-22.2c0.7-11.3,2.6-21.2,4.6-29.3"  /><path id="Shadow" display="inline" opacity="0.51"  enable-background="new    " d="M178.1,279c0,0,24.2,35,41,30.6s41.7-21.6,41.7-21.6c1.2-9.1,1.9-17.1,3.7-26c-4.8,4.9-10.4,9.2-18.8,14.5c-11.3,7.1-22,11.3-29.8,13.3L178.1,279z"  /><path id="Head" display="inline"  fill="#FFDAEA" stroke="#000000" stroke-width="3" stroke-linecap="round" stroke-miterlimit="10" d="M313.9,168.8c-0.6-0.8-12.2,8.3-12.2,8.3c0.3-4.9,11.8-53.1-17.3-86c-15.9-17.4-42.2-27.1-69.9-27.7c-24.5-0.5-48.7,10.9-61.6,24.4c-33.5,35-20.1,98.2-20.1,98.2c0.6,10.9,9.1,63.4,21.3,74.6c0,0,33.7,25.7,42.4,30.6c8.8,5,17.1,2.3,17.1,2.3c16-5.9,47.7-25.9,56.8-37.6l0.2-0.2c6.9-9.1,3.9-5.8,11.2-14.8c1.3-1.5,3-2.2,4.8-1.8c4.1,0.8,11.7,1.3,13.3-7c2.4-11.5,2.6-25.1,8.6-35.5C311.7,190.8,315.9,184.6,313.9,168.8z"  /><path id="Ear" display="inline"  fill="#FFDAEA" stroke="#000000" stroke-width="3" stroke-linecap="round" stroke-miterlimit="10" d="M141.9,236c0.1,1.1-8.3,3-9.7-12.1s-7.3-31-12.6-48c-3.8-12.2,12.2,6.7,12.2,6.7"  /><g id="Ear2" display="inline" ><path d="M304,174.7c-0.5,1.3-0.3,2.2-1.2,3.1c-0.9,0.8-2.3,2.1-3.2,2.9c-1.8,1.7-4.4,3-6,5s-2.9,4.1-4.2,6.3c-0.6,1-1.3,2.2-1.9,3.3l-1.7,3.4l-0.2-0.1l1.4-3.6c0.5-1.1,0.9-2.4,1.5-3.5c1.1-2.3,2.3-4.6,3.8-6.8s3-4.4,5.1-5.9c1-0.8,2.2-1.5,3.2-2.1c1.1-0.6,2.2-1.1,3.1-2L304,174.7z" /></g><g id="Body" display="inline" ><g><path d="M222.2,339.7c18.6-1.3,37.3-2,55.9-2C259.5,339,240.9,339.8,222.2,339.7z" /></g><g><path d="M142.3,337.2c16.9,0.1,33.7,1,50.6,2.3C176,339.2,159.3,338.5,142.3,337.2z" /></g><g><path d="M199.3,329.2c7.3,14.3,4.6,10.4,17.1,0.1C207.5,339,204.7,346.2,199.3,329.2z" /></g><path opacity="0.19"  enable-background="new    " d="M199.3,329.2c0,0,3.5,9.3,5.3,10.1c1.8,0.8,11.6-10,11.6-10C209.9,330.9,204,331.1,199.3,329.2z" /></g> <line x1="132.69" y1="184.23" x2="130.73" y2="182.28" fill="#e31466" stroke="#000" stroke-linecap="round" stroke-miterlimit="10" stroke-width="2"/></g></g><g id="mark"><g id="Akuma Blood"><g id="Eye_Mark" > <path d="M237.6,223c0-3.6,2.6-85.2,2.8-88.9s-1.8-24.7-1.6-28.3c5.6-6.5,12-33.11,15.92-33.27-4.46,2.4-8.32,29.47-11.52,33.27l-.2,31.1c.13,4.65-2.48,81.07-2.2,86.2a17.68,17.68,0,0,0-1.6,2.2A23.4,23.4,0,0,0,237.6,223Z" transform="translate(0 0.5)" fill="#b50d5e"/> </g> <g id="Eye_Mark-2"> <path d="M163.2,221.8c-.1-3.6.1-88.4.2-92s1.8-21.8,2-25.4c5.5-6.6,13.87-34.73,18.37-34.63-5.3,2-11.77,33-14.87,37l-2.8,25.6c.2,3.6,0,85.7.3,89.3l-1.7,3.1Z" transform="translate(0 0.5)" fill="#b50d5e"/> </g></g></g><g id="mouth"><g id="None"></g></g><g id="nose"><g id="Kitsune Moon"><path display="inline" stroke="#000000" stroke-miterlimit="10" d="M193.2,224.9c5.1,0.6,10.3,1,16.4,0c0.4-0.1,0.7,0.5,0.3,0.8l-7.4,5.9c-0.5,0.4-1.3,0.4-1.8,0l-7.9-6C192.5,225.4,192.7,224.8,193.2,224.9z"  /></g></g><g id="eyes"><g id="Pupils Blood"><g id="No_Fill"> <g> <path stroke="#000000" stroke-miterlimit="10" d="M219.1,197.3c0,0,3.1-22.5,37.9-15.5C257.1,181.7,261,208.8,219.1,197.3z"/> <g> <path d="M227.3,182.1c-1,0.5-1.9,1.3-2.7,2s-1.6,1.6-2.3,2.3c-0.7,0.8-1.5,1.7-2.1,2.5l-1,1.4c-0.3,0.4-0.6,0.9-1,1.4 c0.2-0.5,0.4-1,0.6-1.6c0.2-0.5,0.5-1,0.8-1.6c0.6-0.9,1.3-2,2.1-2.8s1.7-1.7,2.6-2.3C225,182.7,226.1,182.2,227.3,182.1z"/> </g> <g> <path d="M245.4,200.9c1.3-0.2,2.5-0.5,3.6-1s2.2-1,3.2-1.8c1-0.7,1.9-1.6,2.7-2.5s1.6-2,2.3-3c-0.3,1.3-0.8,2.5-1.7,3.5 c-0.7,1-1.7,2.1-2.8,2.8c-1,0.7-2.3,1.4-3.5,1.7C248,201,246.7,201.2,245.4,200.9z"/> </g> </g> <g> <path stroke="#000000" stroke-miterlimit="10" d="M183.9,197.3c0,0-3.1-22.5-37.9-15.5C146,181.7,142,208.8,183.9,197.3z"/> <g> <path d="M175.8,182.1c1,0.5,1.9,1.3,2.7,2s1.6,1.6,2.3,2.3c0.7,0.8,1.5,1.7,2.1,2.5l1,1.4c0.3,0.4,0.6,0.9,1,1.4 c-0.2-0.5-0.4-1-0.6-1.6c-0.2-0.5-0.5-1-0.8-1.6c-0.6-0.9-1.3-2-2.1-2.8s-1.7-1.7-2.6-2.3 C178.1,182.7,176.9,182.2,175.8,182.1z"/> </g> <g> <path d="M157.6,200.9c-1.3-0.2-2.5-0.5-3.6-1s-2.2-1-3.2-1.8c-1-0.7-1.9-1.6-2.7-2.5s-1.6-2-2.3-3c0.3,1.3,0.8,2.5,1.7,3.5 c0.7,1,1.7,2.1,2.8,2.8c1,0.7,2.3,1.4,3.5,1.7C155,201,156.5,201.2,157.6,200.9z"/> </g> </g> </g> <g id="Shadow" opacity="0.43"> <path opacity="0.5" enable-background="new " d="M218.3,191.6c0,0,4.6-10.8,19.9-13.6c0,0-12.2,0-16.1,2.8 C218.9,183.8,218.3,191.6,218.3,191.6z"/> </g> <g id="Shadow_00000029025467326919416900000002242143269665406345_" opacity="0.43"> <path opacity="0.5" enable-background="new " d="M184.9,191.3c0,0-4.8-10.6-20.1-13.4c0,0,12.4-0.2,16.3,2.6 C184.4,183.6,184.9,191.3,184.9,191.3z"/> </g><ellipse display="inline" fill="#E31466" cx="239.1" cy="189.9" rx="5.7" ry="7.3"  /><ellipse display="inline" fill="#E31466" cx="164.4" cy="190.2" rx="5.7" ry="7.3"  /></g></g><g id="eyebrow"><g id="Kitsune Moon"><path display="inline"  fill="#000000" d="M238.3,166.9c-12.3-3.9-19-1.1-21.3,0.2c-0.1,0-0.2,0.1-0.3,0.2c-0.3,0.1-0.5,0.4-0.6,0.4l0,0l0,0l0,0c-0.9,0.8-1.6,2-1.6,3.3c-0.2,2.7,1.9,5,4.6,5.2c2.7,0.2,5-1.9,5.2-4.6c0.1-0.3,0-0.6,0-1C228.9,166.5,238.3,166.9,238.3,166.9z"  /><path display="inline"  fill="#000000" d="M162.6,166.8c12.3-3.9,19-1,21.3,0.3c0.1,0,0.2,0.1,0.3,0.2c0.3,0.1,0.5,0.4,0.6,0.4l0,0l0,0l0,0c0.9,0.8,1.6,2,1.6,3.3c0.2,2.7-1.9,5-4.6,5.2c-2.7,0.2-5-1.9-5.2-4.6c-0.1-0.3,0-0.6,0-1C172,166.5,162.6,166.8,162.6,166.8z"  /></g></g><g id="earrings"><g id="Ring Moon"><path display="inline" fill="none" stroke="#000000" stroke-width="2" stroke-linecap="round" stroke-linejoin="round" stroke-miterlimit="10" d="M289,234.7c0,0-4.4,2.1-3.2,6.4c1,4.3,4.4,4,4.8,4c0.3,0,3.9-0.2,3.9-4.2"  /><path display="inline" fill="none" stroke="#000000" stroke-width="2" stroke-linecap="round" stroke-linejoin="round" stroke-miterlimit="10" d="M137,232.9c0,0-4.4,2.1-3.2,6.4c1,4.3,4.5,3.8,4.8,3.6c0.4-0.1,1.6,0.2,3.4-2.3"  /></g></g><g id="hair"><g id="Tattoo Pure"><path d="M193.2,67.36c-6.5,21.1,3,50.54,6.48,64.14,0,0,5.91-44.63,33.11-64.86C222,63.84,201.2,64.36,193.2,67.36Z" fill="#FFEDED" transform="translate(-0.1)"/></g></g><g id="accessory"><g id="None"></g></g><g id="mask"><g id="Uni Horn Moon"><g><path d="M199.5,130.4c-6.8-.1-13.1-6.5-15-15.2,1.5-25.1,9.6-74.1,12.4-90.7,1.5,30.2,18.4,88.63,19.5,92.33-4.2,10.6-10,13.67-16.9,13.57Z" transform="translate(0 0.5)" fill="#2A2C38"/> <path d="M196.6,28.9c2.7,30.6,17.1,83.43,18.6,88.13-4.2,10.4-9.2,13-15.8,12.87s-12.6-6.3-14.5-14.7c1.6-23.3,8.6-66.7,11.7-86.3m.7-10.2S186,85.75,184.19,116.45c1.9,8.9,8.11,14.15,15.31,14.35,6.1.1,12.1-1.57,16.9-14,0,.1-19.9-68.83-19.1-98.13Z" transform="translate(0 0.5)"/> <path d="M185.38,115.74s1.09,14.54,12.58,15c10.49.43,13.21-4.4,16.69-13.85" transform="translate(0 0.5)" fill="#2A2C38" stroke="#2A2C38" stroke-linecap="round" stroke-miterlimit="10" /></g></g></g></svg>