<svg version="1.1" xmlns="http://www.w3.org/2000/svg" x="0px" y="0px" xmlns:xlink="http://www.w3.org/1999/xlink" viewBox="0 0 420 420" style="enable-background:new 0 0 420 420;" xml:space="preserve"><g id="background"><g id="Uncommon"><radialGradient id="radial-gradient" cx="210" cy="212" r="210" gradientTransform="matrix(1, 0, 0, -1, 0, 422)" gradientUnits="userSpaceOnUse"> <stop offset="0" stop-color="#2fa675"/> <stop offset="1" stop-color="#106c48"/> </radialGradient><path d="M389.9,419.5H30.1a30,30,0,0,1-30-30V29.5a30,30,0,0,1,30-30H390a30,30,0,0,1,30,30v360A30.11,30.11,0,0,1,389.9,419.5Z" transform="translate(0 0.5)" fill="url(#radial-gradient)"/> <g> <path id="Main_Spin" fill="#125443" stroke="#125443" stroke-miterlimit="10" d="M210,63.3c-192.6,3.5-192.6,290,0,293.4 C402.6,353.2,402.6,66.7,210,63.3z M340.8,237.5c-0.6,2.9-1.4,5.7-2.2,8.6c-43.6-13.6-80.9,37.8-54.4,75.1 c-4.9,3.2-10.1,6.1-15.4,8.8c-33.9-50.6,14.8-117.8,73.3-101.2C341.7,231.7,341.4,234.6,340.8,237.5z M331.4,265.5 c-7.9,17.2-19.3,32.4-33.3,44.7c-15.9-23.3,7.6-55.7,34.6-47.4C332.3,263.7,331.8,264.6,331.4,265.5z M332.5,209.6 C265,202.4,217,279,252.9,336.5c-5.8,1.9-11.7,3.5-17.7,4.7c-40.3-73.8,24.6-163.5,107.2-148c0.6,6,1.2,12.2,1.1,18.2 C339.9,210.6,336.2,210,332.5,209.6z M87.8,263.9c28.7-11.9,56,24,36.3,48.4C108.5,299.2,96.2,282.5,87.8,263.9z M144.3,312.7 c17.8-38.8-23.4-81.6-62.6-65.5c-1.7-5.7-2.9-11.5-3.7-17.4c60-20.6,112.7,49.4,76,101.5c-5.5-2.4-10.7-5.3-15.6-8.5 C140.7,319.6,142.7,316.3,144.3,312.7z M174.2,330.4c32.6-64-28.9-138.2-97.7-118c-0.3-6.1,0.4-12.4,0.9-18.5 c85-18.6,151.7,71.7,110.8,147.8c-6.1-1-12.2-2.4-18.1-4.1C171.6,335.3,173,332.9,174.2,330.4z M337,168.6c-7-0.7-14.4-0.8-21.4-0.2 c-43.1-75.9-167.4-75.9-210.7-0.2c-7.3-0.6-14.9,0-22.1,0.9C118.2,47.7,301.1,47.3,337,168.6z M281.1,175.9c-3,1.1-5.9,2.3-8.7,3.6 c-29.6-36.1-93.1-36.7-123.4-1.2c-5.8-2.5-11.9-4.5-18-6.1c36.6-50.4,122.9-50,159,0.7C286.9,173.8,284,174.8,281.1,175.9z M249.6,193.1c-2.4,1.8-4.7,3.6-7,5.6c-16.4-15.6-46-16.4-63.2-1.5c-4.7-3.8-9.6-7.3-14.7-10.5c23.9-24.1,69.1-23.5,92.2,1.3 C254.4,189.6,252,191.3,249.6,193.1z M211.9,239.2c-5.2-10.8-11.8-20.7-19.7-29.4c10.7-8.1,27.9-7.3,37.9,1.6 C222.8,219.7,216.7,229.1,211.9,239.2z"> <animateTransform attributeName="transform" begin="0s" dur="20s" type="rotate" from="-360 210 210" to="0 210 210" repeatCount="indefinite" /> </path> <g id="Spin_Inverse"> <circle fill="none" stroke="#125443" stroke-width="7" stroke-dasharray="22.2609,22.2609" cx="210" cy="210" r="163"> <animateTransform attributeName="transform" begin="0s" dur="20s" type="rotate" from="360 210 210" to="0 210 210" repeatCount="indefinite" /> </circle> </g> <g id="Spin"> <circle fill="none" stroke="#125443" stroke-width="7" stroke-dasharray="22.2041,22.2041" cx="210" cy="210" r="183.8"> <animateTransform attributeName="transform" begin="0s" dur="20s" type="rotate" from="-360 210 210" to="0 210 210" repeatCount="indefinite" /> </circle> </g> </g></g></g><g id="body"><g id="Yokai Moon"><path id="Neck" display="inline"  fill="#2A2C38" stroke="#000000" stroke-width="3" stroke-linecap="round" stroke-miterlimit="10" d="M175.8,276.8c0.8,10,1.1,20.2-0.7,30.4c-0.5,2.6-2.2,4.9-4.7,6.3c-16.4,8.9-41.4,17.2-70.2,25.2c-8.1,2.3-9.5,12.4-2.1,16.4c71.9,38.5,146.3,42.5,224.4,7c7.2-3.3,7.3-12.7,0.1-16c-22.3-10.3-43.5-23.1-54.9-29.9c-3-1.8-4.8-5.2-5.1-8.3c-0.7-7.7-0.7-12.5-0.1-22.2c0.7-11.3,2.6-21.2,4.6-29.3"  /><path id="Shadow" display="inline" opacity="0.51"  enable-background="new    " d="M178.1,279c0,0,24.2,35,41,30.6s41.7-21.6,41.7-21.6c1.2-9.1,1.9-17.1,3.7-26c-4.8,4.9-10.4,9.2-18.8,14.5c-11.3,7.1-22,11.3-29.8,13.3L178.1,279z"  /><path id="Head" display="inline"  fill="#2A2C38" stroke="#000000" stroke-width="3" stroke-linecap="round" stroke-miterlimit="10" d="M313.9,168.8c-0.6-0.8-12.2,8.3-12.2,8.3c0.3-4.9,11.8-53.1-17.3-86c-15.9-17.4-42.2-27.1-69.9-27.7c-24.5-0.5-48.7,10.9-61.6,24.4c-33.5,35-20.1,98.2-20.1,98.2c0.6,10.9,9.1,63.4,21.3,74.6c0,0,33.7,25.7,42.4,30.6c8.8,5,17.1,2.3,17.1,2.3c16-5.9,47.7-25.9,56.8-37.6l0.2-0.2c6.9-9.1,3.9-5.8,11.2-14.8c1.3-1.5,3-2.2,4.8-1.8c4.1,0.8,11.7,1.3,13.3-7c2.4-11.5,2.6-25.1,8.6-35.5C311.7,190.8,315.9,184.6,313.9,168.8z"  /><path id="Ear" display="inline"  fill="#2A2C38" stroke="#000000" stroke-width="3" stroke-linecap="round" stroke-miterlimit="10" d="M141.9,236c0.1,1.1-8.3,3-9.7-12.1s-7.3-31-12.6-48c-3.8-12.2,12.2,6.7,12.2,6.7"  /><g id="Ear2" display="inline" ><path d="M304,174.7c-0.5,1.3-0.3,2.2-1.2,3.1c-0.9,0.8-2.3,2.1-3.2,2.9c-1.8,1.7-4.4,3-6,5s-2.9,4.1-4.2,6.3c-0.6,1-1.3,2.2-1.9,3.3l-1.7,3.4l-0.2-0.1l1.4-3.6c0.5-1.1,0.9-2.4,1.5-3.5c1.1-2.3,2.3-4.6,3.8-6.8s3-4.4,5.1-5.9c1-0.8,2.2-1.5,3.2-2.1c1.1-0.6,2.2-1.1,3.1-2L304,174.7z" /></g><g id="Body" display="inline" ><g><path d="M222.2,339.7c18.6-1.3,37.3-2,55.9-2C259.5,339,240.9,339.8,222.2,339.7z" /></g><g><path d="M142.3,337.2c16.9,0.1,33.7,1,50.6,2.3C176,339.2,159.3,338.5,142.3,337.2z" /></g><g><path d="M199.3,329.2c7.3,14.3,4.6,10.4,17.1,0.1C207.5,339,204.7,346.2,199.3,329.2z" /></g><path opacity="0.19"  enable-background="new    " d="M199.3,329.2c0,0,3.5,9.3,5.3,10.1c1.8,0.8,11.6-10,11.6-10C209.9,330.9,204,331.1,199.3,329.2z" /></g> <line x1="132.69" y1="184.23" x2="130.73" y2="182.28" fill="#e31466" stroke="#000" stroke-linecap="round" stroke-miterlimit="10" stroke-width="2"/></g></g><g id="mark"><g id="Akuma Blood"><g id="Eye_Mark" > <path d="M237.6,223c0-3.6,2.6-85.2,2.8-88.9s-1.8-24.7-1.6-28.3c5.6-6.5,12-33.11,15.92-33.27-4.46,2.4-8.32,29.47-11.52,33.27l-.2,31.1c.13,4.65-2.48,81.07-2.2,86.2a17.68,17.68,0,0,0-1.6,2.2A23.4,23.4,0,0,0,237.6,223Z" transform="translate(0 0.5)" fill="#b50d5e"/> </g> <g id="Eye_Mark-2"> <path d="M163.2,221.8c-.1-3.6.1-88.4.2-92s1.8-21.8,2-25.4c5.5-6.6,13.87-34.73,18.37-34.63-5.3,2-11.77,33-14.87,37l-2.8,25.6c.2,3.6,0,85.7.3,89.3l-1.7,3.1Z" transform="translate(0 0.5)" fill="#b50d5e"/> </g></g></g><g id="mouth"><g id="None"></g></g><g id="nose"><g id="Akuma"><path opacity="0.5" stroke="#000000" stroke-miterlimit="10" enable-background="new    " d="M191.6,224.5c6.1,1,12.2,1.7,19.8,0.4l-8.9,6.8c-0.5,0.4-1.3,0.4-1.8,0L191.6,224.5z"  /><path stroke="#000000" stroke-width="0.75" stroke-miterlimit="10" d="M196.4,229.2c-0.4,0.3-2.1-0.9-4.1-2.5c-1.9-1.6-3-2.7-2.6-2.9c0.4-0.3,2.5,0,4.2,1.8C195.4,227.2,196.8,228.8,196.4,229.2z"  /><path stroke="#000000" stroke-width="0.75" stroke-miterlimit="10" d="M206.5,228.7c0.3,0.4,2.2-0.3,4.2-1.7c2-1.5,3.5-2,3.2-2.4s-2.5-0.7-4.5,0.7C207.4,226.9,206.1,228.2,206.5,228.7z"  /></g></g><g id="eyes"><g id="Feels"><g id="Eye_right"> <path d="M255.4,188.58c.65.72,1.18-.46,1.15.24-.08-.5-1.71,1.54-2.55,1l-.61.58c.45.82,1-.16,1,.44-.07-.51-1.59,1.13-2.44.6a21.79,21.79,0,0,1-11.26,4.05c-7.84.48-15.72-2.74-19.81-8.61,5.52,4,12.3,4.61,19.56,4.1,6.49-.54,12.93-1.09,17.25-5.11A5.22,5.22,0,0,1,255.4,188.58Z" transform="translate(-0.4)"/> <path d="M248.81,196a21.83,21.83,0,0,1-3.53,1.18,23.26,23.26,0,0,1-3.63.58c-1.12.08-2.56.1-3.7.08a14.12,14.12,0,0,1-3.6-.53h0c1.16.12,2.51.2,3.65.22a21.71,21.71,0,0,0,3.61-.07,22.4,22.4,0,0,0,3.64-.48c1.19-.29,2.28-.57,3.56-1Z" transform="translate(-0.4)"/> <path d="M233,197.34c-1-.5-2.25-.86-3.35-1.44a32.25,32.25,0,0,0-3.34-1.43,7,7,0,0,0,1.44.94,5.63,5.63,0,0,0,1.62.72,8.25,8.25,0,0,0,1.71.62A7.49,7.49,0,0,0,233,197.34Z" transform="translate(-0.4)"/> </g> <g id="Eye_left" > <path d="M148.17,188.24c-.64.72-1.18-.46-1.15.24.08-.5,1.71,1.54,2.55,1l.61.58c-.45.82-1-.16-1,.44.08-.51,1.59,1.13,2.44.6a21.79,21.79,0,0,0,11.27,4.05c7.83.48,15.71-2.74,19.8-8.61-5.52,4-12.3,4.61-19.56,4.1-6.49-.54-12.93-1.09-17.25-5.12A5.21,5.21,0,0,0,148.17,188.24Z" transform="translate(-0.4)"/> <path d="M170,197a21.46,21.46,0,0,1-3.67.6,22.49,22.49,0,0,1-3.67,0c-1.12-.1-2.55-.3-3.67-.5a14,14,0,0,1-3.47-1.1h0c1.12.3,2.45.6,3.57.8a21.91,21.91,0,0,0,3.57.5,22.51,22.51,0,0,0,3.67.1c1.23-.1,2.35-.2,3.67-.4Z" transform="translate(-0.4)"/> <path d="M174,195.68c.92-.6,2.14-1.1,3.16-1.8a32.35,32.35,0,0,1,3.16-1.8,6.71,6.71,0,0,1-1.32,1.1,5.62,5.62,0,0,1-1.53.9,8.23,8.23,0,0,1-1.63.8A7,7,0,0,1,174,195.68Z" transform="translate(-0.4)"/> </g></g></g><g id="eyebrow"><g id="Thick Blood"><g id="Thick_L" > <path  fill="#B50D5E" d="M213.7,173.6c-0.6-1.4,0.1-3.1,1.6-3.5c1.7-0.5,4.3-1.2,7.5-1.7 c1.5-0.3,13.2-4.2,14.4-4.9c0.2,0.9-6.2,4.1-4.9,3.9c7.3-1.2,14.7-2.2,18.1-2c3.6,0.1,6.4,0.4,9,1.2c0.6,0.2,5.3,1.1,5.9,1.4 c0.4,0.2-3-0.1-2.6,0.1c1.9,0.9,3.6,1.9,5.1,3c0,0-28,4.7-40.5,5.3C217.3,176.8,215,176.6,213.7,173.6z"/> </g> <g id="Thick_R" > <path  fill="#B50D5E" d="M187.1,173.7c0.6-1.4-0.1-3.1-1.6-3.5c-6.2-1.9-8.9-2-7.3-1.7 c-1.5-0.3-12.4-4.7-13.7-5.3c-0.2,0.9,5.6,4.6,4.5,4.4c-7.1-1.2-14.2-2.2-17.5-2c-3.5,0.1-6.2,0.4-8.7,1.2 c-0.6,0.2-5.1,1.1-5.7,1.4c-0.4,0.2,2.9-0.1,2.5,0.1c-1.8,0.9-3.5,1.9-4.9,3c0,0,27.1,4.7,39.3,5.3 C183.6,176.9,185.9,176.7,187.1,173.7z"/> </g></g></g><g id="earrings"><g id="Circle Blood"><g display="inline" ><ellipse fill="#B50D5E" cx="137.6" cy="229.1" rx="2.5" ry="3" /></g><g display="inline" ><ellipse fill="#B50D5E" cx="291.6" cy="231.8" rx="3.4" ry="3.5" /></g></g></g><g id="hair"><g id="Hair Blood"><g ><polygon fill="#E31466" points="188.1,115.5 198.2,119 211.1,115.2 197.7,104.1 "/><polygon opacity="0.5" enable-background="new    " points="188.3,115.6 198.2,119 211.6,115.1 197.6,104.5 "/><path fill="#E31466" stroke="#000000" stroke-width="2" stroke-miterlimit="10" d="M273.7,200.6c4.2-5.9,10.1-12.8,10.5-18.3c1.1,3.2,2,11.7,1.5,15.8c0,0,5.7-10.8,10.6-15.6c6.4-6.3,13.9-10.2,17.2-14.4c2.3,6.4,1.4,15.3-4.7,28.1c0,0,0.4,9.2-0.7,15.3c3.3-5.9,12.8-36.2,8.5-61.6c0,0,3.7,9.3,4.4,16.9s3.1-32.8-7.7-51.4c0,0,6.9,3.9,10.8,4.8c0,0-12.6-12.5-13.6-15.9c0,0-14.1-25.7-39.1-34.6c0,0,9.3-3.2,15.6,0.2c-0.1-0.1-15.1-12.2-34.2-7.1c0,0-15.1-13.6-42.6-12.3l15.6,8.8c0,0-12.9-0.9-28.4-1.3c-6.1-0.2-21.8,3.3-38.3-1.4c0,0,7.3,7.2,9.4,7.7c0,0-30.6,13.8-47.3,34.2c0,0,10.7-8.9,16.7-10.9c0,0-26,25.2-31.5,70c0,0,9.2-28.6,15.5-34.2c0,0-10.7,27.4-5.3,48.2c0,0,2.4-14.5,4.9-19.2c-1,14.1,2.4,33.9,13.8,47.8c0,0-3.3-15.8-2.2-21.9l8.8-17.9c0.1,4.1,1.3,8.1,3.1,12.3c0,0,13-36.1,19.7-43.9c0,0-2.9,15.4-1.1,29.6c0,0,7.2-26.8,17.3-40.1c0,0,0.8,0.1,17.6-7.6c6.3,3.1,8,1.4,17.9,7.7c4.1,5.3,13.8,31.9,15.6,41.5c3.4-7.3,5.6-19,5.2-29.5c2.7,3.7,8.9,19.9,9.6,34.3c4.3-6,6.4-27.8,5.9-29c0,1.2,0.2,14.8,0.3,14.3c0,0,12.1,19.9,14.9,19.7c0-0.8-1.7-12.9-1.7-12.8c1.3,5.8,2.8,23.3,3.1,27.1l5-9.5C274.6,176.2,275.4,194.5,273.7,200.6z"/><g><path fill="none" stroke="#000000" stroke-width="0.5" stroke-miterlimit="10" d="M295.2,182.2"/><path fill="none" stroke="#000000" stroke-width="0.5" stroke-miterlimit="10" d="M286.6,200.9"/><path fill="none" stroke="#000000" stroke-width="2" stroke-linecap="round" stroke-miterlimit="10" d="M133.1,181.3c0,0-1.3-11.3,0.3-16.9"/><path fill="none" stroke="#000000" stroke-width="2" stroke-linecap="round" stroke-miterlimit="10" d="M142.1,160.9c0,0-1-6.5,1.6-20.4"/></g></g><g  id="Shadow"><path opacity="0.2"  enable-background="new    " d="M180.5,119.1c0,0-15.9,23.7-16.9,25.6s0,12.4,0.3,12.8S165.7,142.5,180.5,119.1z"/><path opacity="0.2" enable-background="new    " d="M164.5,128.9c0,0-16.3,25.3-17.9,26.3c0,0-3.8-12.8-3-14.7s-9.6,10.3-9.9,17c0,0-8.4-0.6-11-7.4c-1-2.5,1.4-9.1,2.1-12.2c0,0-6.5,7.9-9.4,22.5c0,0,0.6,8.8,1.1,10c0,0,3.5-14.8,4.9-17.7c0,0-0.3,33.3,13.6,46.7c0,0-3.7-18.6-2.6-21l9.4-18.6c0,0,2.1,10.5,3.1,12.3l13.9-33.1L164.5,128.9z"/><path opacity="0.16" enable-background="new    " d="M253.2,146.8c0.8,4.4,8.1,12.1,13.1,11.7l1.6,11c0,0-5.2-3.9-14.7-19.9V146.8z"/><path opacity="0.16" enable-background="new    " d="M237.5,130.3c0,0,4.4,3,13.9,21.7c0,0-4.3,12-4.6,12.4C246.5,164.8,248.4,153.7,237.5,130.3z"/><path opacity="0.17" enable-background="new    " d="M220.9,127.6c0,0,5.2,4,14.4,23c0,0-1.2,4.6-3.1,8.9C227.6,143.3,227,140.8,220.9,127.6z"/><path opacity="0.2" enable-background="new    " d="M272,143.7c-2.4,8.1-3.6,13.8-4.9,17.9c0,0,1.3,12.8,2.1,22.2c4.7-8.4,4.7-8.4,5.4-9c0.2,0.6,3.1,11.9-1.2,26.6c5.1-6.7,10.4-14.9,11-21.3c1.1,3.7,1.7,15,1.2,19.1c0,0,7.1-7.4,12.3-11.3c0,0,8.7-3.5,12.5-7.2c0,0,2.2,1.4-1.2,11.6l3.7-8c0,0-2.7,19.9-3.4,22.5c0,0,9.8-33.3,7.2-58c0,0,4.7,8.3,4.9,17.1c0.1,8.8,1.7-8.6,0.2-17.8c0,0-6.5-13.9-8.2-15.4c0,0,1.3,10.1,0.4,13.6c0,0-7.3-10.3-10.5-12.5c0,0,1.1,30.2-1.7,35.3c0,0-6.1-17-10.7-20.8c0,0-2.4,20.9-5.6,28.1C283.6,174.1,280.4,157.8,272,143.7z"/><path opacity="0.14" enable-background="new    " d="M198.1,106.1c-0.9-3.9,3.2-35.1,34.7-36C227.5,69.4,198.8,90.7,198.1,106.1z"/></g><g id="Light" opacity="0.64"> <path d="M128,115.68s9.5-20.6,23.5-27.7A231.28,231.28,0,0,0,128,115.68Z" transform="translate(-0.48 0.37)" fill="#fff"/> <path d="M302.32,118.62s-12.77-26.38-29.75-35A151.52,151.52,0,0,1,302.32,118.62Z" transform="translate(-0.48 0.37)" fill="#fff"/> <path d="M251.35,127.49s-9.25-18.73-11.63-21.13,5,1.76,12.17,20.33" transform="translate(-0.48 0.37)" fill="#fff"/> <path d="M168.21,103.68s-10.66,10.79-16,23.94C157.36,118,168.21,103.68,168.21,103.68Z" transform="translate(-0.48 0.37)" fill="#fff"/> <path d="M170,126.1s7.5-21.3,8.4-22.5-12.6,11.4-13.1,18c0,0,9-12.8,9.5-13.5S168.8,121.8,170,126.1Z" transform="translate(-0.48 0.37)" fill="#fff"/> <path d="M233.09,127.55s-7.5-21.3-8.4-22.5,12.6,11.4,13.1,18c0,0-9-12.8-9.5-13.5S234.29,123.25,233.09,127.55Z" transform="translate(-0.48 0.37)" fill="#fff"/> </g></g></g><g id="accessory"><g id="Monk Pure"><g display="inline" ><path fill="#FFEDED" stroke="#000000" stroke-width="2" stroke-miterlimit="10" d="M271.3,310.1c0,0-0.5-4.7-8.1-5.9l0.3,4.6C263.5,308.8,268.8,308.5,271.3,310.1z" /><ellipse transform="matrix(0.9951 -9.859076e-02 9.859076e-02 0.9951 -30.1289 27.6785)" fill="#FFEDED" stroke="#000000" stroke-width="1.9991" stroke-miterlimit="10.001" cx="265" cy="318.7" rx="10" ry="10.1" /><ellipse transform="matrix(0.9951 -9.868323e-02 9.868323e-02 0.9951 -30.7637 26.2227)" fill="#FFEDED" stroke="#000000" stroke-width="1.9993" stroke-miterlimit="10.0012" cx="249.7" cy="324.1" rx="10" ry="10.1" /><ellipse transform="matrix(0.9952 -9.784912e-02 9.784912e-02 0.9952 -30.1289 18.0538)" fill="#FFEDED" stroke="#000000" stroke-width="2" stroke-miterlimit="10.0039" cx="169" cy="316.2" rx="10" ry="10.1" /><ellipse transform="matrix(0.9952 -9.784608e-02 9.784608e-02 0.9952 -30.8049 19.4498)" fill="#FFEDED" stroke="#000000" stroke-width="2" stroke-miterlimit="10.0039" cx="182.9" cy="323.8" rx="10" ry="10.1" /><ellipse transform="matrix(0.9952 -9.784740e-02 9.784740e-02 0.9952 -31.1502 21.0167)" fill="#FFEDED" stroke="#000000" stroke-width="2" stroke-miterlimit="10.0039" cx="198.7" cy="328.1" rx="10" ry="10.1" /><ellipse transform="matrix(0.9952 -9.784740e-02 9.784740e-02 0.9952 -31.1875 22.6565)" fill="#FFEDED" stroke="#000000" stroke-width="2" stroke-miterlimit="10.0039" cx="215.4" cy="329.3" rx="10" ry="10.1" /><ellipse transform="matrix(0.9952 -9.784871e-02 9.784871e-02 0.9952 -30.9209 24.3013)" fill="#FFEDED" stroke="#000000" stroke-width="2" stroke-miterlimit="10.0039" cx="232.3" cy="327.4" rx="10" ry="10.1" /><ellipse transform="matrix(0.9952 -9.784740e-02 9.784740e-02 0.9952 -31.1875 22.6565)" fill="#FFEDED" stroke="#000000" stroke-width="2" stroke-miterlimit="10.0039" cx="215.4" cy="329.3" rx="10" ry="10.1" /><path fill="#FFEDED" stroke="#000000" stroke-width="2" stroke-miterlimit="10" d="M167.5,306.1c0,0,3-4.2,7.1-3.6l-0.5,4.7C174.2,307.2,171.4,305.5,167.5,306.1z" /></g><g display="inline" ><ellipse transform="matrix(0.5209 -0.8536 0.8536 0.5209 -193.8937 295.0872)" opacity="0.54"  enable-background="new    " cx="165.9" cy="320.3" rx="3.1" ry="5.1" /><ellipse transform="matrix(0.3023 -0.9532 0.9532 0.3023 -186.8647 402.0681)" opacity="0.54"  enable-background="new    " cx="181.2" cy="328.7" rx="2.9" ry="5.3" /><ellipse transform="matrix(8.016321e-02 -0.9968 0.9968 8.016321e-02 -149.6992 503.476)" opacity="0.54"  enable-background="new    " cx="197.9" cy="332.8" rx="3.1" ry="5.5" /><ellipse transform="matrix(1.864555e-02 -0.9998 0.9998 1.864555e-02 -123.3718 543.6663)" opacity="0.54"  enable-background="new    " cx="215.3" cy="334.7" rx="2.6" ry="5.6" /><ellipse transform="matrix(0.9869 -0.1616 0.1616 0.9869 -50.6334 42.0687)" opacity="0.54"  enable-background="new    " cx="233.3" cy="332.3" rx="5.3" ry="3.1" /><ellipse transform="matrix(0.9587 -0.2843 0.2843 0.9587 -83.2092 85.1148)" opacity="0.54"  enable-background="new    " cx="251.6" cy="329.2" rx="5.3" ry="3.1" /><ellipse transform="matrix(0.8562 -0.5167 0.5167 0.8562 -127.9572 184.9349)" opacity="0.54"  enable-background="new    " cx="268.2" cy="322.3" rx="5.6" ry="3.1" /></g></g></g><g id="mask"><g id="Uni Horn Moon"><g><path d="M199.5,130.4c-6.8-.1-13.1-6.5-15-15.2,1.5-25.1,9.6-74.1,12.4-90.7,1.5,30.2,18.4,88.63,19.5,92.33-4.2,10.6-10,13.67-16.9,13.57Z" transform="translate(0 0.5)" fill="#2A2C38"/> <path d="M196.6,28.9c2.7,30.6,17.1,83.43,18.6,88.13-4.2,10.4-9.2,13-15.8,12.87s-12.6-6.3-14.5-14.7c1.6-23.3,8.6-66.7,11.7-86.3m.7-10.2S186,85.75,184.19,116.45c1.9,8.9,8.11,14.15,15.31,14.35,6.1.1,12.1-1.57,16.9-14,0,.1-19.9-68.83-19.1-98.13Z" transform="translate(0 0.5)"/> <path d="M185.38,115.74s1.09,14.54,12.58,15c10.49.43,13.21-4.4,16.69-13.85" transform="translate(0 0.5)" fill="#2A2C38" stroke="#2A2C38" stroke-linecap="round" stroke-miterlimit="10" /></g></g></g></svg>