<svg version="1.1" xmlns="http://www.w3.org/2000/svg" x="0px" y="0px" xmlns:xlink="http://www.w3.org/1999/xlink" viewBox="0 0 420 420" style="enable-background:new 0 0 420 420;" xml:space="preserve"><g id="background"><g id="Uncommon"><radialGradient id="radial-gradient" cx="210" cy="212" r="210" gradientTransform="matrix(1, 0, 0, -1, 0, 422)" gradientUnits="userSpaceOnUse"> <stop offset="0" stop-color="#2fa675"/> <stop offset="1" stop-color="#106c48"/> </radialGradient><path d="M389.9,419.5H30.1a30,30,0,0,1-30-30V29.5a30,30,0,0,1,30-30H390a30,30,0,0,1,30,30v360A30.11,30.11,0,0,1,389.9,419.5Z" transform="translate(0 0.5)" fill="url(#radial-gradient)"/> <g> <path id="Main_Spin" fill="#125443" stroke="#125443" stroke-miterlimit="10" d="M210,63.3c-192.6,3.5-192.6,290,0,293.4 C402.6,353.2,402.6,66.7,210,63.3z M340.8,237.5c-0.6,2.9-1.4,5.7-2.2,8.6c-43.6-13.6-80.9,37.8-54.4,75.1 c-4.9,3.2-10.1,6.1-15.4,8.8c-33.9-50.6,14.8-117.8,73.3-101.2C341.7,231.7,341.4,234.6,340.8,237.5z M331.4,265.5 c-7.9,17.2-19.3,32.4-33.3,44.7c-15.9-23.3,7.6-55.7,34.6-47.4C332.3,263.7,331.8,264.6,331.4,265.5z M332.5,209.6 C265,202.4,217,279,252.9,336.5c-5.8,1.9-11.7,3.5-17.7,4.7c-40.3-73.8,24.6-163.5,107.2-148c0.6,6,1.2,12.2,1.1,18.2 C339.9,210.6,336.2,210,332.5,209.6z M87.8,263.9c28.7-11.9,56,24,36.3,48.4C108.5,299.2,96.2,282.5,87.8,263.9z M144.3,312.7 c17.8-38.8-23.4-81.6-62.6-65.5c-1.7-5.7-2.9-11.5-3.7-17.4c60-20.6,112.7,49.4,76,101.5c-5.5-2.4-10.7-5.3-15.6-8.5 C140.7,319.6,142.7,316.3,144.3,312.7z M174.2,330.4c32.6-64-28.9-138.2-97.7-118c-0.3-6.1,0.4-12.4,0.9-18.5 c85-18.6,151.7,71.7,110.8,147.8c-6.1-1-12.2-2.4-18.1-4.1C171.6,335.3,173,332.9,174.2,330.4z M337,168.6c-7-0.7-14.4-0.8-21.4-0.2 c-43.1-75.9-167.4-75.9-210.7-0.2c-7.3-0.6-14.9,0-22.1,0.9C118.2,47.7,301.1,47.3,337,168.6z M281.1,175.9c-3,1.1-5.9,2.3-8.7,3.6 c-29.6-36.1-93.1-36.7-123.4-1.2c-5.8-2.5-11.9-4.5-18-6.1c36.6-50.4,122.9-50,159,0.7C286.9,173.8,284,174.8,281.1,175.9z M249.6,193.1c-2.4,1.8-4.7,3.6-7,5.6c-16.4-15.6-46-16.4-63.2-1.5c-4.7-3.8-9.6-7.3-14.7-10.5c23.9-24.1,69.1-23.5,92.2,1.3 C254.4,189.6,252,191.3,249.6,193.1z M211.9,239.2c-5.2-10.8-11.8-20.7-19.7-29.4c10.7-8.1,27.9-7.3,37.9,1.6 C222.8,219.7,216.7,229.1,211.9,239.2z"> <animateTransform attributeName="transform" begin="0s" dur="20s" type="rotate" from="-360 210 210" to="0 210 210" repeatCount="indefinite" /> </path> <g id="Spin_Inverse"> <circle fill="none" stroke="#125443" stroke-width="7" stroke-dasharray="22.2609,22.2609" cx="210" cy="210" r="163"> <animateTransform attributeName="transform" begin="0s" dur="20s" type="rotate" from="360 210 210" to="0 210 210" repeatCount="indefinite" /> </circle> </g> <g id="Spin"> <circle fill="none" stroke="#125443" stroke-width="7" stroke-dasharray="22.2041,22.2041" cx="210" cy="210" r="183.8"> <animateTransform attributeName="transform" begin="0s" dur="20s" type="rotate" from="-360 210 210" to="0 210 210" repeatCount="indefinite" /> </circle> </g> </g></g></g><g id="body"><g id="Yokai Blood"><path id="Neck" display="inline"  fill="#E31466" stroke="#000000" stroke-width="3" stroke-linecap="round" stroke-miterlimit="10" d="M175.8,276.8c0.8,10,1.1,20.2-0.7,30.4c-0.5,2.6-2.2,4.9-4.7,6.3c-16.4,8.9-41.4,17.2-70.2,25.2c-8.1,2.3-9.5,12.4-2.1,16.4c71.9,38.5,146.3,42.5,224.4,7c7.2-3.3,7.3-12.7,0.1-16c-22.3-10.3-43.5-23.1-54.9-29.9c-3-1.8-4.8-5.2-5.1-8.3c-0.7-7.7-0.7-12.5-0.1-22.2c0.7-11.3,2.6-21.2,4.6-29.3"  /><path id="Shadow" display="inline" opacity="0.51"  enable-background="new    " d="M178.1,279c0,0,24.2,35,41,30.6s41.7-21.6,41.7-21.6c1.2-9.1,1.9-17.1,3.7-26c-4.8,4.9-10.4,9.2-18.8,14.5c-11.3,7.1-22,11.3-29.8,13.3L178.1,279z"  /><path id="Head" display="inline"  fill="#E31466" stroke="#000000" stroke-width="3" stroke-linecap="round" stroke-miterlimit="10" d="M313.9,168.8c-0.6-0.8-12.2,8.3-12.2,8.3c0.3-4.9,11.8-53.1-17.3-86c-15.9-17.4-42.2-27.1-69.9-27.7c-24.5-0.5-48.7,10.9-61.6,24.4c-33.5,35-20.1,98.2-20.1,98.2c0.6,10.9,9.1,63.4,21.3,74.6c0,0,33.7,25.7,42.4,30.6c8.8,5,17.1,2.3,17.1,2.3c16-5.9,47.7-25.9,56.8-37.6l0.2-0.2c6.9-9.1,3.9-5.8,11.2-14.8c1.3-1.5,3-2.2,4.8-1.8c4.1,0.8,11.7,1.3,13.3-7c2.4-11.5,2.6-25.1,8.6-35.5C311.7,190.8,315.9,184.6,313.9,168.8z"  /><path id="Ear" display="inline"  fill="#E31466" stroke="#000000" stroke-width="3" stroke-linecap="round" stroke-miterlimit="10" d="M141.9,236c0.1,1.1-8.3,3-9.7-12.1s-7.3-31-12.6-48c-3.8-12.2,12.2,6.7,12.2,6.7"  /><g id="Ear2" display="inline" ><path d="M304,174.7c-0.5,1.3-0.3,2.2-1.2,3.1c-0.9,0.8-2.3,2.1-3.2,2.9c-1.8,1.7-4.4,3-6,5s-2.9,4.1-4.2,6.3c-0.6,1-1.3,2.2-1.9,3.3l-1.7,3.4l-0.2-0.1l1.4-3.6c0.5-1.1,0.9-2.4,1.5-3.5c1.1-2.3,2.3-4.6,3.8-6.8s3-4.4,5.1-5.9c1-0.8,2.2-1.5,3.2-2.1c1.1-0.6,2.2-1.1,3.1-2L304,174.7z" /></g><g id="Body" display="inline" ><g><path d="M222.2,339.7c18.6-1.3,37.3-2,55.9-2C259.5,339,240.9,339.8,222.2,339.7z" /></g><g><path d="M142.3,337.2c16.9,0.1,33.7,1,50.6,2.3C176,339.2,159.3,338.5,142.3,337.2z" /></g><g><path d="M199.3,329.2c7.3,14.3,4.6,10.4,17.1,0.1C207.5,339,204.7,346.2,199.3,329.2z" /></g><path opacity="0.19"  enable-background="new    " d="M199.3,329.2c0,0,3.5,9.3,5.3,10.1c1.8,0.8,11.6-10,11.6-10C209.9,330.9,204,331.1,199.3,329.2z" /></g> <line x1="132.69" y1="184.23" x2="130.73" y2="182.28" fill="#e31466" stroke="#000" stroke-linecap="round" stroke-miterlimit="10" stroke-width="2"/></g></g><g id="mark"><g id="None"></g></g><g id="mouth"><g id="UwU Kitsune"><polyline display="inline" fill="#FFFFFF" stroke="#000000" stroke-width="0.75" stroke-miterlimit="10" points="217.9,254.7 221.2,259.6 224.3,251.9 "  /><g display="inline" ><path d="M178,246.5c1.4,2,3,3.8,4.8,5.3c0.5,0.4,0.9,0.8,1.4,1.1l0.8,0.5c0.3,0.2,0.5,0.3,0.8,0.4c1.1,0.5,2.3,0.7,3.5,0.8c2.4,0.1,4.8-0.4,7.1-0.9l3.5-1.1c1.1-0.5,2.3-0.9,3.4-1.3c0,0,0.1,0,0.1,0c0,0,0,0,0,0.1c-1,0.7-2.1,1.3-3.2,1.9c-1.1,0.5-2.3,1-3.5,1.4c-0.6,0.1-1.2,0.3-1.8,0.4l-0.9,0.2l-0.9,0.1c-0.6,0-1.3,0.1-1.9,0.1c-0.6-0.1-1.3-0.2-1.9-0.2c-0.6-0.1-1.2-0.3-1.8-0.4c-0.6-0.1-1.2-0.4-1.8-0.6c-0.6-0.2-1.2-0.4-1.7-0.7c-0.6-0.2-1.1-0.6-1.7-0.9C180.3,251.1,178.7,249,178,246.5C177.9,246.6,177.9,246.5,178,246.5C178,246.5,178,246.5,178,246.5L178,246.5z" /></g><g display="inline" ><path d="M231.1,245.2c-1.2,2.4-3.1,4.5-5.2,6.1c-1.1,0.8-2.3,1.4-3.6,1.9c-1.2,0.6-2.5,1.1-3.7,1.5c-2.6,0.8-5.4,0.9-8.1,0.2c-2.6-0.7-5.1-1.9-7.2-3.6c0,0,0,0,0-0.1c0,0,0,0,0.1,0c2.4,1.1,4.9,2.1,7.4,2.7c2.5,0.6,5.1,0.7,7.7,0.3c1.3-0.2,2.6-0.6,3.7-1.2c1.2-0.6,2.2-1.4,3.2-2.3C227.4,248.9,229.3,247.1,231.1,245.2C231.1,245.1,231.1,245.1,231.1,245.2C231.1,245.1,231.1,245.2,231.1,245.2z" /></g></g></g><g id="nose"><g id="Nosetril"><path display="inline" stroke="#000000" stroke-width="0.75" stroke-miterlimit="10" d="M196.4,229.2c-0.4,0.3-2.1-0.9-4.1-2.5c-1.9-1.6-3-2.7-2.6-2.9c0.4-0.3,2.5,0,4.2,1.8C195.4,227.2,196.8,228.8,196.4,229.2z"  /><path display="inline" stroke="#000000" stroke-width="0.75" stroke-miterlimit="10" d="M206.5,228.7c0.3,0.4,2.2-0.3,4.2-1.7c2-1.5,3.5-2,3.2-2.4s-2.5-0.7-4.5,0.7C207.4,226.9,206.1,228.2,206.5,228.7z"  /></g></g><g id="eyes"><g id="Rip"><line x1="230.98" y1="182.49" x2="248.68" y2="200.19" fill="none" stroke="#000" stroke-linecap="square" stroke-miterlimit="10" stroke-width="3"/> <line x1="230.47" y1="200.87" x2="248.67" y2="183.17" fill="none" stroke="#000" stroke-linecap="square" stroke-miterlimit="10" stroke-width="3"/> <line x1="155.53" y1="182.66" x2="173.23" y2="200.36" fill="none" stroke="#000" stroke-linecap="square" stroke-miterlimit="10" stroke-width="3"/> <line x1="154" y1="200.7" x2="172.2" y2="183" fill="none" stroke="#000" stroke-linecap="square" stroke-miterlimit="10" stroke-width="3"/></g></g><g id="eyebrow"><g id="Shaved"><g opacity="0.06"><path d="M218.3,173s24.22-3.6,30.64-3.4,11,1.7,14.08,3.5c0,0-22.75,2.9-32.89,3.2S219.77,176.44,218.3,173Z" transform="translate(-0.4)" stroke="#000" stroke-miterlimit="10" fill-rule="evenodd"/> <path d="M187,173.34s-23.54-3.8-30-3.5-10.7,1.6-13.74,3.5c0,0,22.19,2.9,32.21,3.3C185.24,177,185.91,176.74,187,173.34Z" transform="translate(-0.4)" stroke="#000" stroke-miterlimit="10" fill-rule="evenodd"/></g></g></g><g id="earrings"><g id="Circle Blood"><g display="inline" ><ellipse fill="#B50D5E" cx="137.6" cy="229.1" rx="2.5" ry="3" /></g><g display="inline" ><ellipse fill="#B50D5E" cx="291.6" cy="231.8" rx="3.4" ry="3.5" /></g></g></g><g id="hair"><g id="Middle Eyes"><path d="M213,104.52s-10.09,8.91-23.55-.09C189.55,104.37,200.24,95.64,213,104.52Z" transform="translate(0 0.5)" /> <path d="M211.51,101.33a16.75,16.75,0,0,0-3.14-1.5A23.51,23.51,0,0,0,205,98.9a16.16,16.16,0,0,0-3.53-.27,14.89,14.89,0,0,0-3.43.56c.26,0,.57-.07.88-.1l.41,0,.41,0,.87-.06h.85a21.36,21.36,0,0,1,3.46.35,23,23,0,0,1,3.37.82,12.29,12.29,0,0,1,1.6.58C210.44,100.9,210.94,101.13,211.51,101.33Z" transform="translate(0 0.5)"/> <path d="M199.85,109.75c-.83-.13-1.65-.25-2.48-.43s-1.59-.31-2.42-.55a11,11,0,0,1-2.35-.84,13.15,13.15,0,0,1-2.24-1.14,9.12,9.12,0,0,0,2.06,1.37c.76.36,1.53.6,2.35.91s1.6.36,2.48.48A20.38,20.38,0,0,0,199.85,109.75Z" transform="translate(0 0.5)"/> <ellipse cx="205.62" cy="102.76" rx="0.47" ry="1.89" transform="translate(68.77 287.95) rotate(-80.02)" fill="#fff"/></g></g><g id="accessory"><g id="Moon Monk"><g display="inline" ><path fill="#242630" stroke="#000000" stroke-width="2" stroke-miterlimit="10" d="M271.3,310.1c0,0-0.5-4.7-8.1-5.9l0.3,4.6C263.5,308.8,268.8,308.5,271.3,310.1z" /><ellipse transform="matrix(0.9951 -9.859076e-02 9.859076e-02 0.9951 -30.1289 27.6785)" fill="#242630" stroke="#000000" stroke-width="1.9991" stroke-miterlimit="10.001" cx="265" cy="318.7" rx="10" ry="10.1" /><ellipse transform="matrix(0.9951 -9.868323e-02 9.868323e-02 0.9951 -30.7637 26.2227)" fill="#242630" stroke="#000000" stroke-width="1.9993" stroke-miterlimit="10.0012" cx="249.7" cy="324.1" rx="10" ry="10.1" /><ellipse transform="matrix(0.9952 -9.784912e-02 9.784912e-02 0.9952 -30.1289 18.0538)" fill="#242630" stroke="#000000" stroke-width="2" stroke-miterlimit="10.0039" cx="169" cy="316.2" rx="10" ry="10.1" /><ellipse transform="matrix(0.9952 -9.784608e-02 9.784608e-02 0.9952 -30.8049 19.4498)" fill="#242630" stroke="#000000" stroke-width="2" stroke-miterlimit="10.0039" cx="182.9" cy="323.8" rx="10" ry="10.1" /><ellipse transform="matrix(0.9952 -9.784740e-02 9.784740e-02 0.9952 -31.1502 21.0167)" fill="#242630" stroke="#000000" stroke-width="2" stroke-miterlimit="10.0039" cx="198.7" cy="328.1" rx="10" ry="10.1" /><ellipse transform="matrix(0.9952 -9.784740e-02 9.784740e-02 0.9952 -31.1875 22.6565)" fill="#242630" stroke="#000000" stroke-width="2" stroke-miterlimit="10.0039" cx="215.4" cy="329.3" rx="10" ry="10.1" /><ellipse transform="matrix(0.9952 -9.784871e-02 9.784871e-02 0.9952 -30.9209 24.3013)" fill="#242630" stroke="#000000" stroke-width="2" stroke-miterlimit="10.0039" cx="232.3" cy="327.4" rx="10" ry="10.1" /><ellipse transform="matrix(0.9952 -9.784740e-02 9.784740e-02 0.9952 -31.1875 22.6565)" fill="#242630" stroke="#000000" stroke-width="2" stroke-miterlimit="10.0039" cx="215.4" cy="329.3" rx="10" ry="10.1" /><path fill="#242630" stroke="#000000" stroke-width="2" stroke-miterlimit="10" d="M167.5,306.1c0,0,3-4.2,7.1-3.6l-0.5,4.7C174.2,307.2,171.4,305.5,167.5,306.1z" /></g><g display="inline" ><ellipse transform="matrix(0.5209 -0.8536 0.8536 0.5209 -193.8937 295.0872)" opacity="0.54"  enable-background="new    " cx="165.9" cy="320.3" rx="3.1" ry="5.1" /><ellipse transform="matrix(0.3023 -0.9532 0.9532 0.3023 -186.8647 402.0681)" opacity="0.54"  enable-background="new    " cx="181.2" cy="328.7" rx="2.9" ry="5.3" /><ellipse transform="matrix(8.016321e-02 -0.9968 0.9968 8.016321e-02 -149.6992 503.476)" opacity="0.54"  enable-background="new    " cx="197.9" cy="332.8" rx="3.1" ry="5.5" /><ellipse transform="matrix(1.864555e-02 -0.9998 0.9998 1.864555e-02 -123.3718 543.6663)" opacity="0.54"  enable-background="new    " cx="215.3" cy="334.7" rx="2.6" ry="5.6" /><ellipse transform="matrix(0.9869 -0.1616 0.1616 0.9869 -50.6334 42.0687)" opacity="0.54"  enable-background="new    " cx="233.3" cy="332.3" rx="5.3" ry="3.1" /><ellipse transform="matrix(0.9587 -0.2843 0.2843 0.9587 -83.2092 85.1148)" opacity="0.54"  enable-background="new    " cx="251.6" cy="329.2" rx="5.3" ry="3.1" /><ellipse transform="matrix(0.8562 -0.5167 0.5167 0.8562 -127.9572 184.9349)" opacity="0.54"  enable-background="new    " cx="268.2" cy="322.3" rx="5.6" ry="3.1" /></g></g></g><g id="mask"><g id="Stitch"><g display="inline"><path d="M175.8,299.3c7.2,1.8,14.4,2.9,21.7,3.9c1.9,0.2,3.5,0.5,5.4,0.7s3.6,0.3,5.4,0.5c3.6,0.2,7.2,0.2,10.9,0.1c3.6-0.1,7.2-0.5,10.9-0.7l5.4-0.6c0.9-0.1,1.9-0.2,2.7-0.3l2.7-0.4c7.2-1,14.4-2.9,21.5-4.8v0.1l-5.5,1.9l-2.7,0.8c-0.9,0.3-1.8,0.5-2.7,0.7l-5.4,1.4c-1.9,0.4-3.5,0.6-5.4,1c-3.5,0.7-7.2,0.9-10.9,1.4c-3.6,0.2-7.2,0.4-10.9,0.3c-7.2-0.1-14.6-0.3-21.8-0.9C190.1,303.1,182.8,301.8,175.8,299.3L175.8,299.3z" /></g><path display="inline" stroke="#000000" stroke-width="0.75" stroke-miterlimit="10" d="M206.9,304.5c0,0,5.3-2.1,11.8,0.2C218.8,304.7,212.8,307.6,206.9,304.5z" /><g display="inline"><path fill="#FFFFFF" stroke="#000000" stroke-width="0.75" stroke-miterlimit="10" d="M222.1,301c0,0,0.7-3.4,1.9-1c0,0,0.3,5.3-0.5,9.9c0,0-0.7,2.2-1-0.6C222.1,306.5,222.7,306.2,222.1,301z" /><path fill="#FFFFFF" stroke="#000000" stroke-width="0.75" stroke-miterlimit="10" d="M227.4,301.2c0,0,0.7-3.1,1.7-0.9c0,0,0.3,4.7-0.4,8.9c0,0-0.6,1.9-0.9-0.5C227.4,306.1,228.2,305.8,227.4,301.2z" /><path fill="#FFFFFF" stroke="#000000" stroke-width="0.75" stroke-miterlimit="10" d="M231.8,301.1c0,0,0.6-2.7,1.5-0.8c0,0,0.3,4.1-0.3,7.7c0,0-0.5,1.7-0.7-0.4C231.8,305.3,232.3,305.1,231.8,301.1z" /><path fill="#FFFFFF" stroke="#000000" stroke-width="0.75" stroke-miterlimit="10" d="M235.5,300.8c0,0,0.5-2.4,1.4-0.7c0,0,0.3,3.6-0.3,6.9c0,0-0.5,1.5-0.7-0.4C235.6,304.6,236,304.4,235.5,300.8z" /></g><g display="inline"><path fill="#FFFFFF" stroke="#000000" stroke-width="0.75" stroke-miterlimit="10" d="M203.8,300.5c0,0-0.7-3.4-1.9-1c0,0-0.3,5.3,0.5,9.9c0,0,0.7,2.2,1-0.6C203.8,306,203.1,305.8,203.8,300.5z" /><path fill="#FFFFFF" stroke="#000000" stroke-width="0.75" stroke-miterlimit="10" d="M198.5,300.8c0,0-0.7-3.1-1.7-0.9c0,0-0.3,4.7,0.4,8.9c0,0,0.6,1.9,0.9-0.5C198.5,305.8,197.7,305.3,198.5,300.8z" /><path fill="#FFFFFF" stroke="#000000" stroke-width="0.75" stroke-miterlimit="10" d="M194.1,300.6c0,0-0.6-2.7-1.5-0.8c0,0-0.3,4.1,0.3,7.7c0,0,0.5,1.7,0.7-0.4C193.9,305,193.6,304.7,194.1,300.6z" /><path fill="#FFFFFF" stroke="#000000" stroke-width="0.75" stroke-miterlimit="10" d="M190.4,300.3c0,0-0.5-2.4-1.4-0.7c0,0-0.3,3.6,0.3,6.9c0,0,0.5,1.5,0.7-0.4C190.4,304.2,189.9,304,190.4,300.3z" /></g></g></g></svg>